#VRML V2.0 utf8
# 3D model generated by easyeda2kicad.py (https://github.com/uPesy/easyeda2kicad.py)

Shape{
    appearance Appearance {
        material  Material 	{
            diffuseColor 1.0 1.0 1.0
            specularColor 0.5019607843137255 0.5019607843137255 0.5019607843137255
            ambientIntensity 0.2
            transparency 0
            shininess 0.5
        }
    }
    geometry IndexedFaceSet {
        ccw TRUE
        solid FALSE
        coord DEF co Coordinate {
            point [
                0.0112 0.2022 0.0, 0.0138 0.2255 0.0, 0.1886 0.1512 0.0, 0.1985 -0.0259 0.0, 0.2244 -0.0259 0.0, 0.2244 -0.072 0.0, -0.0118 0.1008 0.0, -0.0118 -0.0202 0.0, -0.2244 -1.1417 0.0, 0.2244 0.1008 0.0, 0.1862 0.1469 0.0, 0.2122 0.1469 0.0, 0.2197 0.1631 0.0, 0.2244 0.1803 0.0, -0.2244 1.1417 0.0, 0.2244 1.1417 0.0, 0.2244 0.4638 0.0, -0.0118 0.4638 0.0, -0.0118 0.4321 0.0, 0.1985 0.4321 0.0, 0.1985 0.3428 0.0, 0.2244 0.3428 0.0, 0.2244 0.2404 0.0, 0.2244 -0.4926 0.0, 0.2244 -1.1417 0.0, -0.0118 -0.4004 0.0, -0.0118 -0.3687 0.0, 0.0141 0.0691 0.0, 0.0919 0.0691 0.0, 0.0141 -0.0202 0.0, 0.0919 -0.0144 0.0, 0.1178 -0.0144 0.0, 0.1178 0.0691 0.0, 0.1985 0.0691 0.0, -0.0082 -0.1728 0.0, 0.0015 -0.2004 0.0, 0.0188 -0.2262 0.0, -0.0118 -0.072 0.0, 0.015 0.1735 0.0, 0.0264 0.1469 0.0, -0.0053 0.1469 0.0, -0.0127 0.1742 0.0, 0.2244 -0.1363 0.0, 0.2244 -0.2794 0.0, 0.2217 -0.1662 0.0, 0.2135 -0.1934 0.0, 0.0202 0.2432 0.0, 0.0312 0.2595 0.0, 0.0469 0.2738 0.0, 0.1088 0.291 0.0, 0.1344 0.2886 0.0, 0.1547 0.2821 0.0, 0.1989 0.2296 0.0, 0.2014 0.2075 0.0, 0.1926 0.2468 0.0, 0.1828 0.2613 0.0, 0.1711 0.2724 0.0, 0.1979 0.1762 0.0, 0.1596 -0.2504 0.0, 0.1804 -0.2371 0.0, 0.1991 -0.2178 0.0, -0.0118 -0.1387 0.0, 0.0652 0.2835 0.0, 0.0904 0.2898 0.0, 0.2154 0.266 0.0, 0.2028 0.2847 0.0, 0.1849 0.3011 0.0, 0.0772 0.3192 0.0, 0.0503 0.3102 0.0, 0.028 0.2961 0.0, 0.0075 0.2746 0.0, 0.019 -0.2264 0.0, 0.0375 -0.2431 0.0, 0.0582 -0.2542 0.0, -0.0053 0.2521 0.0, -0.0128 0.2258 0.0, -0.0147 0.2025 0.0, 0.0816 -0.2605 0.0, 0.1033 -0.2621 0.0, 0.1349 -0.2588 0.0, 0.1625 0.3135 0.0, 0.137 0.3206 0.0, 0.1108 0.3226 0.0, 0.1582 -0.3366 0.0, 0.2244 -0.314 0.0, 0.1582 -0.4341 0.0, 0.2244 -0.458 0.0, 0.2244 0.1008 0.0004, 0.2244 -1.1417 0.1181, 0.2244 -0.4926 0.0004, 0.2244 -0.458 0.0004, 0.2244 0.2404 0.0004, 0.2244 0.3428 0.0004, 0.2244 -0.314 0.0004, 0.2244 -0.2794 0.0004, 0.2244 -0.1363 0.0004, 0.2244 -0.072 0.0004, 0.2244 0.1803 0.0004, 0.2244 -0.0259 0.0004, 0.2244 0.4638 0.0004, 0.2244 1.1417 0.1181, 1.378 0.0827 1.1811, 1.622 0.0827 1.1811, 1.6063 0.748 1.1811, -1.6063 1.1417 1.1811, -2.0 1.1417 1.1811, -1.6063 0.748 1.1811, -2.0 -1.1417 1.1811, 0.622 0.0827 1.1811, 0.622 -0.1614 1.1811, 1.378 -0.1614 1.1811, 1.6063 1.1417 1.1811, 2.0 1.1417 1.1811, 2.0 -1.1417 1.1811, 1.622 -0.1614 1.1811, 0.378 -0.1614 1.1811, -0.622 -0.1614 1.1811, -0.622 0.0827 1.1811, -1.378 0.0827 1.1811, -1.378 -0.1614 1.1811, -0.378 -0.1614 1.1811, -0.378 0.0827 1.1811, 0.378 0.0827 1.1811, -1.622 -0.1614 1.1811, -1.622 0.0827 1.1811, 1.622 0.0827 0.1181, 1.7756 1.1417 0.1181, 1.7756 -1.1417 0.1181, 1.2244 1.1417 0.1181, 1.378 0.0827 0.1181, 1.2244 -1.1417 0.1181, 1.378 -0.1614 0.1181, 1.622 -0.1614 0.1181, -1.378 0.0827 0.1181, -1.2244 1.1417 0.1181, -1.2244 -1.1417 0.1181, -1.7756 1.1417 0.1181, -1.622 0.0827 0.1181, -1.7756 -1.1417 0.1181, -1.622 -0.1614 0.1181, -1.378 -0.1614 0.1181, -0.378 0.0827 0.1181, -0.2244 1.1417 0.1181, -0.2244 -1.1417 0.1181, -0.7756 1.1417 0.1181, -0.622 0.0827 0.1181, -0.7756 -1.1417 0.1181, -0.622 -0.1614 0.1181, -0.378 -0.1614 0.1181, 0.622 0.0827 0.1181, 0.7756 1.1417 0.1181, 0.7756 -1.1417 0.1181, 0.378 0.0827 0.1181, 0.378 -0.1614 0.1181, 0.622 -0.1614 0.1181, -1.7756 -1.1417 0.0, -2.0 -1.1417 0.0, -1.7756 1.1417 0.0, -2.0 1.1417 0.0, -1.2244 1.1417 0.0, -0.7756 1.1417 0.0, -1.2244 -1.1417 0.0, -0.7756 -1.1417 0.0, 1.2244 -1.1417 0.0, 0.7756 -1.1417 0.0, 1.2244 1.1417 0.0, 0.7756 1.1417 0.0, 1.6063 0.748 2.7953, 1.6063 0.748 4.5276, -1.6063 0.748 2.7953, -1.6063 0.748 4.5276, 2.0 1.1417 0.0, 2.0 -1.1417 0.0, 1.6063 1.1417 4.5276, 1.7756 1.1417 0.0, -1.6063 1.1417 4.5276, 1.7756 -1.1417 0.0, -1.6063 0.748 1.811, -1.6063 0.4331 2.126, -1.6063 0.4331 2.4803, 1.6063 0.748 1.811, 1.6063 0.4331 2.126, 1.6063 0.4331 2.4803, 1.6063 0.4331 2.4803
            ]
        }
        coordIndex [
            0,1,2,-1,3,4,5,-1,6,7,8,-1,9,6,10,-1,10,11,9,-1,9,11,12,-1,9,12,13,-1,14,15,16,-1,16,17,14,-1,14,17,18,-1,14,18,8,-1,18,19,20,-1,20,21,22,-1,23,24,25,-1,25,24,8,-1,25,8,26,-1,27,28,29,-1,29,28,30,-1,31,32,33,-1,34,35,26,-1,26,35,36,-1,33,3,31,-1,31,3,5,-1,31,5,30,-1,30,5,37,-1,30,37,29,-1,0,2,38,-1,38,2,10,-1,38,10,39,-1,39,10,6,-1,39,6,40,-1,40,6,8,-1,40,8,41,-1,42,43,44,-1,44,43,45,-1,1,46,2,-1,2,46,47,-1,2,47,48,-1,49,50,2,-1,2,50,51,-1,52,53,54,-1,54,53,55,-1,51,56,2,-1,2,56,55,-1,2,55,57,-1,57,55,53,-1,58,59,43,-1,43,59,60,-1,43,60,45,-1,34,26,61,-1,61,26,8,-1,61,8,37,-1,37,8,7,-1,37,7,29,-1,48,62,2,-1,2,62,63,-1,2,63,49,-1,22,64,20,-1,20,64,65,-1,20,65,66,-1,67,68,18,-1,18,68,69,-1,18,69,70,-1,36,71,26,-1,26,71,72,-1,26,72,73,-1,70,74,18,-1,18,74,75,-1,18,75,8,-1,8,75,76,-1,8,76,41,-1,73,77,26,-1,26,77,78,-1,26,78,43,-1,43,78,79,-1,43,79,58,-1,66,80,20,-1,20,80,81,-1,20,81,18,-1,18,81,82,-1,18,82,67,-1,83,84,85,-1,85,84,86,-1,87,9,13,-1,24,23,88,-1,88,23,89,-1,88,89,90,-1,22,21,91,-1,91,21,92,-1,86,84,90,-1,90,84,93,-1,90,93,88,-1,88,93,94,-1,43,42,94,-1,94,42,95,-1,94,95,88,-1,88,95,96,-1,13,97,87,-1,87,97,88,-1,87,88,98,-1,98,88,96,-1,98,96,4,-1,4,96,5,-1,16,15,99,-1,99,15,100,-1,99,100,92,-1,92,100,88,-1,92,88,91,-1,91,88,97,-1,101,102,103,-1,104,105,106,-1,106,105,107,-1,108,109,110,-1,111,103,112,-1,112,103,102,-1,112,102,113,-1,102,114,113,-1,113,114,110,-1,113,110,107,-1,107,110,109,-1,107,109,115,-1,116,117,118,-1,118,119,116,-1,116,119,107,-1,116,107,120,-1,120,107,115,-1,120,115,121,-1,121,115,122,-1,121,122,103,-1,103,122,108,-1,103,108,101,-1,101,108,110,-1,119,123,107,-1,107,123,124,-1,107,124,106,-1,106,124,118,-1,106,118,103,-1,103,118,117,-1,103,117,121,-1,125,126,127,-1,126,125,128,-1,128,125,129,-1,128,129,130,-1,130,129,131,-1,130,131,127,-1,127,131,132,-1,127,132,125,-1,133,134,135,-1,134,133,136,-1,136,133,137,-1,136,137,138,-1,138,137,139,-1,138,139,135,-1,135,139,140,-1,135,140,133,-1,141,142,143,-1,142,141,144,-1,144,141,145,-1,144,145,146,-1,146,145,147,-1,146,147,143,-1,143,147,148,-1,143,148,141,-1,149,150,151,-1,150,149,100,-1,100,149,152,-1,100,152,88,-1,88,152,153,-1,88,153,151,-1,151,153,154,-1,151,154,149,-1,155,156,157,-1,157,156,158,-1,159,160,161,-1,161,160,162,-1,163,164,165,-1,165,164,166,-1,167,168,169,-1,169,168,170,-1,112,113,171,-1,171,113,172,-1,157,158,136,-1,136,158,105,-1,136,105,134,-1,144,160,159,-1,111,14,142,-1,111,142,173,-1,171,174,126,-1,175,173,104,-1,104,173,142,-1,104,142,105,-1,105,142,144,-1,105,144,134,-1,134,144,159,-1,128,111,126,-1,126,111,112,-1,126,112,171,-1,15,14,100,-1,100,14,111,-1,100,111,150,-1,150,111,128,-1,150,128,166,-1,166,128,165,-1,107,105,156,-1,156,105,158,-1,156,155,138,-1,135,113,138,-1,138,113,107,-1,138,107,156,-1,143,8,24,-1,88,151,113,-1,24,88,143,-1,143,88,113,-1,143,113,146,-1,146,113,135,-1,146,135,162,-1,162,135,161,-1,176,172,127,-1,127,172,113,-1,127,113,130,-1,130,113,151,-1,130,151,163,-1,163,151,164,-1,174,171,176,-1,176,171,172,-1,169,170,175,-1,104,106,177,-1,178,179,177,-1,177,179,169,-1,177,169,104,-1,104,169,175,-1,177,106,180,-1,180,106,103,-1,111,173,167,-1,167,173,168,-1,103,111,180,-1,180,111,167,-1,180,167,181,-1,181,167,182,-1,170,168,175,-1,175,168,173,-1,169,179,167,-1,167,179,182,-1,179,178,182,-1,182,178,181,-1,178,177,181,-1,181,177,180,-1,150,166,151,-1,151,166,164,-1,130,163,128,-1,128,163,165,-1,126,174,127,-1,127,174,176,-1,146,162,144,-1,144,162,160,-1,142,14,143,-1,143,14,8,-1,138,155,136,-1,136,155,157,-1,134,159,135,-1,135,159,161,-1,
        ]
    }
}
Shape{
    appearance Appearance {
        material  Material 	{
            diffuseColor 0.7529411764705882 0.7529411764705882 0.7529411764705882
            specularColor 0.3764705882352941 0.3764705882352941 0.3764705882352941
            ambientIntensity 0.2
            transparency 0
            shininess 0.5
        }
    }
    geometry IndexedFaceSet {
        ccw TRUE
        solid FALSE
        coord DEF co Coordinate {
            point [
                0.4496 -0.0898 -1.3386, 0.4496 0.011 -1.3386, 0.5504 -0.0898 -1.3386, 0.5504 0.011 -1.3386, 0.378 -0.1614 -1.1417, 0.378 -0.1614 0.1181, 0.378 0.0827 -1.1417, 0.378 0.0827 0.1181, 0.622 0.0827 -1.1417, 0.622 0.0827 0.1181, 0.622 -0.1614 -1.1417, 0.622 -0.1614 0.1181, 0.378 -0.1614 3.937, 0.378 -0.1614 1.1811, 0.622 -0.1614 3.937, 0.622 -0.1614 1.1811, 0.622 0.0827 3.937, 0.622 0.0827 1.1811, 0.378 0.0827 3.937, 0.378 0.0827 1.1811, 0.4496 0.011 4.1339, 0.4496 -0.0898 4.1339, 0.5504 0.011 4.1339, 0.5504 -0.0898 4.1339, -0.5504 -0.0898 -1.3386, -0.5504 0.011 -1.3386, -0.4496 -0.0898 -1.3386, -0.4496 0.011 -1.3386, -0.622 -0.1614 -1.1417, -0.622 -0.1614 0.1181, -0.622 0.0827 -1.1417, -0.622 0.0827 0.1181, -0.378 0.0827 -1.1417, -0.378 0.0827 0.1181, -0.378 -0.1614 -1.1417, -0.378 -0.1614 0.1181, -0.622 -0.1614 3.937, -0.622 -0.1614 1.1811, -0.378 -0.1614 3.937, -0.378 -0.1614 1.1811, -0.378 0.0827 3.937, -0.378 0.0827 1.1811, -0.622 0.0827 3.937, -0.622 0.0827 1.1811, -0.5504 0.011 4.1339, -0.5504 -0.0898 4.1339, -0.4496 0.011 4.1339, -0.4496 -0.0898 4.1339, -1.5504 -0.0898 -1.3386, -1.5504 0.011 -1.3386, -1.4496 -0.0898 -1.3386, -1.4496 0.011 -1.3386, -1.622 -0.1614 -1.1417, -1.622 -0.1614 0.1181, -1.622 0.0827 -1.1417, -1.622 0.0827 0.1181, -1.378 0.0827 -1.1417, -1.378 0.0827 0.1181, -1.378 -0.1614 -1.1417, -1.378 -0.1614 0.1181, -1.622 -0.1614 3.937, -1.622 -0.1614 1.1811, -1.378 -0.1614 3.937, -1.378 -0.1614 1.1811, -1.378 0.0827 3.937, -1.378 0.0827 1.1811, -1.622 0.0827 3.937, -1.622 0.0827 1.1811, -1.5504 0.011 4.1339, -1.5504 -0.0898 4.1339, -1.4496 0.011 4.1339, -1.4496 -0.0898 4.1339, 1.4496 -0.0898 -1.3386, 1.4496 0.011 -1.3386, 1.5504 -0.0898 -1.3386, 1.5504 0.011 -1.3386, 1.378 -0.1614 -1.1417, 1.378 -0.1614 0.1181, 1.378 0.0827 -1.1417, 1.378 0.0827 0.1181, 1.622 0.0827 -1.1417, 1.622 0.0827 0.1181, 1.622 -0.1614 -1.1417, 1.622 -0.1614 0.1181, 1.378 -0.1614 3.937, 1.378 -0.1614 1.1811, 1.622 -0.1614 3.937, 1.622 -0.1614 1.1811, 1.622 0.0827 3.937, 1.622 0.0827 1.1811, 1.378 0.0827 3.937, 1.378 0.0827 1.1811, 1.4496 0.011 4.1339, 1.4496 -0.0898 4.1339, 1.5504 0.011 4.1339, 1.5504 -0.0898 4.1339, 1.5504 -0.0898 4.1339
            ]
        }
        coordIndex [
            0,1,2,-1,2,1,3,-1,4,5,6,-1,6,5,7,-1,8,9,10,-1,10,9,11,-1,6,7,8,-1,8,7,9,-1,10,11,4,-1,4,11,5,-1,12,13,14,-1,14,13,15,-1,16,17,18,-1,18,17,19,-1,20,21,22,-1,22,21,23,-1,14,15,16,-1,16,15,17,-1,18,19,12,-1,12,19,13,-1,8,3,6,-1,6,3,1,-1,10,2,8,-1,8,2,3,-1,0,4,1,-1,1,4,6,-1,4,0,10,-1,10,0,2,-1,14,23,12,-1,12,23,21,-1,16,22,14,-1,14,22,23,-1,20,18,21,-1,21,18,12,-1,18,20,16,-1,16,20,22,-1,24,25,26,-1,26,25,27,-1,28,29,30,-1,30,29,31,-1,32,33,34,-1,34,33,35,-1,30,31,32,-1,32,31,33,-1,34,35,28,-1,28,35,29,-1,36,37,38,-1,38,37,39,-1,40,41,42,-1,42,41,43,-1,44,45,46,-1,46,45,47,-1,38,39,40,-1,40,39,41,-1,42,43,36,-1,36,43,37,-1,48,49,50,-1,50,49,51,-1,52,53,54,-1,54,53,55,-1,56,57,58,-1,58,57,59,-1,54,55,56,-1,56,55,57,-1,58,59,52,-1,52,59,53,-1,60,61,62,-1,62,61,63,-1,64,65,66,-1,66,65,67,-1,68,69,70,-1,70,69,71,-1,62,63,64,-1,64,63,65,-1,66,67,60,-1,60,67,61,-1,72,73,74,-1,74,73,75,-1,76,77,78,-1,78,77,79,-1,80,81,82,-1,82,81,83,-1,78,79,80,-1,80,79,81,-1,82,83,76,-1,76,83,77,-1,84,85,86,-1,86,85,87,-1,88,89,90,-1,90,89,91,-1,92,93,94,-1,94,93,95,-1,86,87,88,-1,88,87,89,-1,90,91,84,-1,84,91,85,-1,32,27,30,-1,30,27,25,-1,34,26,32,-1,32,26,27,-1,24,28,25,-1,25,28,30,-1,28,24,34,-1,34,24,26,-1,38,47,36,-1,36,47,45,-1,40,46,38,-1,38,46,47,-1,44,42,45,-1,45,42,36,-1,42,44,40,-1,40,44,46,-1,56,51,54,-1,54,51,49,-1,58,50,56,-1,56,50,51,-1,48,52,49,-1,49,52,54,-1,52,48,58,-1,58,48,50,-1,62,71,60,-1,60,71,69,-1,64,70,62,-1,62,70,71,-1,68,66,69,-1,69,66,60,-1,66,68,64,-1,64,68,70,-1,80,75,78,-1,78,75,73,-1,82,74,80,-1,80,74,75,-1,72,76,73,-1,73,76,78,-1,76,72,82,-1,82,72,74,-1,86,95,84,-1,84,95,93,-1,88,94,86,-1,86,94,95,-1,92,90,93,-1,93,90,84,-1,90,92,88,-1,88,92,94,-1,
        ]
    }
}
Shape{
    appearance Appearance {
        material  Material 	{
            diffuseColor 0.0 0.0 0.0
            specularColor 0.0 0.0 0.0
            ambientIntensity 0.2
            transparency 0
            shininess 0.5
        }
    }
    geometry IndexedFaceSet {
        ccw TRUE
        solid FALSE
        coord DEF co Coordinate {
            point [
                -0.0118 -0.4004 0.0004, 0.2244 -0.4926 0.0004, -0.0118 -0.4004 0.0, 0.2244 -0.4926 0.0, 0.2244 -0.458 0.0004, 0.1582 -0.4341 0.0004, 0.2244 -0.458 0.0, 0.1582 -0.4341 0.0, 0.1582 -0.3366 0.0004, 0.1582 -0.3366 0.0, 0.2244 -0.314 0.0004, 0.2244 -0.314 0.0, 0.2244 -0.2794 0.0004, -0.0118 -0.3687 0.0004, 0.2244 -0.2794 0.0, -0.0118 -0.3687 0.0, 0.1322 -0.3445 0.0004, 0.0336 -0.3798 0.0004, 0.0254 -0.382 0.0004, 0.017 -0.3835 0.0004, 0.017 -0.3843 0.0004, 0.0253 -0.3859 0.0004, 0.0336 -0.388 0.0004, 0.1322 -0.4235 0.0004, 0.1322 -0.3445 0.0, 0.1322 -0.4235 0.0, 0.0336 -0.3798 -0.0, 0.0254 -0.382 0.0, 0.017 -0.3835 0.0, 0.017 -0.3843 0.0, 0.0253 -0.3859 -0.0, 0.0336 -0.388 0.0, 0.2244 -0.072 0.0004, -0.0118 -0.072 0.0004, 0.2244 -0.072 0.0, -0.0118 -0.072 0.0, -0.0118 -0.1387 0.0004, -0.0118 -0.1387 0.0, 0.1033 -0.2621 0.0004, 0.1033 -0.2621 0.0, 0.0816 -0.2605 0.0, 0.0816 -0.2605 0.0004, 0.0582 -0.2542 0.0, 0.0582 -0.2542 0.0004, 0.0375 -0.2431 0.0, 0.0375 -0.2431 0.0004, 0.019 -0.2264 0.0, 0.019 -0.2264 0.0004, 0.0188 -0.2262 0.0, 0.0188 -0.2262 0.0004, 0.0015 -0.2004 0.0, 0.0015 -0.2004 0.0004, -0.0082 -0.1728 0.0, -0.0082 -0.1728 0.0004, 0.2244 -0.1363 0.0004, 0.2244 -0.1363 0.0, 0.2217 -0.1662 0.0, 0.2217 -0.1662 0.0004, 0.2135 -0.1934 0.0, 0.2135 -0.1934 0.0004, 0.1991 -0.2178 0.0, 0.1991 -0.2178 0.0004, 0.1804 -0.2371 0.0, 0.1804 -0.2371 0.0004, 0.1596 -0.2504 0.0, 0.1596 -0.2504 0.0004, 0.1349 -0.2588 0.0, 0.1349 -0.2588 0.0004, 0.0472 -0.2148 0.0004, 0.035 -0.2033 0.0004, 0.0239 -0.186 0.0004, 0.0171 -0.1665 0.0004, 0.0141 -0.1385 0.0004, 0.0141 -0.1037 0.0004, 0.1985 -0.1037 0.0004, 0.1985 -0.1372 0.0004, 0.1961 -0.1622 0.0004, 0.19 -0.1821 0.0004, 0.1803 -0.1982 0.0004, 0.1671 -0.2116 0.0004, 0.1511 -0.2213 0.0004, 0.1322 -0.2276 0.0004, 0.104 -0.2305 0.0004, 0.0805 -0.2285 0.0004, 0.0618 -0.2229 0.0004, 0.0141 -0.1385 0.0, 0.0141 -0.1037 0.0, 0.0171 -0.1665 0.0, 0.0239 -0.186 0.0, 0.035 -0.2033 0.0, 0.0472 -0.2148 0.0, 0.0618 -0.2229 0.0, 0.0805 -0.2285 0.0, 0.104 -0.2305 0.0, 0.1322 -0.2276 0.0, 0.1511 -0.2213 0.0, 0.1671 -0.2116 0.0, 0.1803 -0.1982 0.0, 0.19 -0.1821 0.0, 0.1961 -0.1622 0.0, 0.1985 -0.1372 0.0, 0.1985 -0.1037 0.0, 0.1985 -0.0259 0.0004, 0.2244 -0.0259 0.0004, 0.1985 -0.0259 0.0, 0.2244 -0.0259 0.0, 0.2244 0.1008 0.0004, -0.0118 0.1008 0.0004, 0.2244 0.1008 0.0, -0.0118 0.1008 0.0, -0.0118 -0.0202 0.0004, -0.0118 -0.0202 0.0, 0.0141 -0.0202 0.0004, 0.0141 -0.0202 0.0, 0.0141 0.0691 0.0004, 0.0141 0.0691 0.0, 0.0919 0.0691 0.0004, 0.0919 0.0691 0.0, 0.0919 -0.0144 0.0004, 0.0919 -0.0144 0.0, 0.1178 -0.0144 0.0004, 0.1178 -0.0144 0.0, 0.1178 0.0691 0.0004, 0.1178 0.0691 0.0, 0.1985 0.0691 0.0004, 0.1985 0.0691 0.0, 0.2244 0.1803 0.0004, 0.2244 0.1803 0.0, 0.2197 0.1631 0.0, 0.2197 0.1631 0.0004, 0.2122 0.1469 0.0, 0.2122 0.1469 0.0004, 0.1108 0.3226 0.0004, 0.1108 0.3226 0.0, 0.137 0.3206 0.0, 0.137 0.3206 0.0004, 0.1625 0.3135 0.0, 0.1625 0.3135 0.0004, 0.1849 0.3011 0.0, 0.1849 0.3011 0.0004, 0.2028 0.2847 0.0, 0.2028 0.2847 0.0004, 0.2154 0.266 0.0, 0.2154 0.266 0.0004, 0.2244 0.2404 0.0, 0.2244 0.2404 0.0004, 0.0264 0.1469 0.0004, -0.0053 0.1469 0.0004, 0.015 0.1735 0.0004, -0.0127 0.1742 0.0004, 0.0112 0.2022 0.0004, -0.0147 0.2025 0.0004, 0.0138 0.2255 0.0004, -0.0128 0.2258 0.0004, 0.0202 0.2432 0.0004, -0.0053 0.2521 0.0004, 0.0312 0.2595 0.0004, 0.0075 0.2746 0.0004, 0.0469 0.2738 0.0004, 0.028 0.2961 0.0004, 0.0652 0.2835 0.0004, 0.0503 0.3102 0.0004, 0.0904 0.2898 0.0004, 0.0772 0.3192 0.0004, 0.1088 0.291 0.0004, 0.1344 0.2886 0.0004, 0.1547 0.2821 0.0004, 0.1711 0.2724 0.0004, 0.1828 0.2613 0.0004, 0.1926 0.2468 0.0004, 0.1989 0.2296 0.0004, 0.2014 0.2075 0.0004, 0.1979 0.1762 0.0004, 0.1886 0.1512 0.0004, 0.1862 0.1469 0.0004, 0.1862 0.1469 0.0, -0.0147 0.2025 0.0, -0.0128 0.2258 0.0, -0.0053 0.2521 0.0, 0.0075 0.2746 0.0, 0.028 0.2961 0.0, 0.0503 0.3102 0.0, 0.0772 0.3192 0.0, -0.0053 0.1469 0.0, -0.0127 0.1742 0.0, 0.0264 0.1469 0.0, 0.0112 0.2022 0.0, 0.015 0.1735 0.0, 0.1088 0.291 0.0, 0.0904 0.2898 0.0, 0.0652 0.2835 0.0, 0.0469 0.2738 0.0, 0.0312 0.2595 0.0, 0.0202 0.2432 0.0, 0.0138 0.2255 0.0, 0.2014 0.2075 0.0, 0.1989 0.2296 0.0, 0.1926 0.2468 0.0, 0.1828 0.2613 0.0, 0.1711 0.2724 0.0, 0.1547 0.2821 0.0, 0.1344 0.2886 0.0, 0.1886 0.1512 0.0, 0.1979 0.1762 0.0, 0.1985 0.3428 0.0004, 0.2244 0.3428 0.0004, 0.1985 0.3428 0.0, 0.2244 0.3428 0.0, 0.2244 0.4638 0.0004, -0.0118 0.4638 0.0004, 0.2244 0.4638 0.0, -0.0118 0.4638 0.0, -0.0118 0.4321 0.0004, -0.0118 0.4321 0.0, 0.1985 0.4321 0.0004, 0.1985 0.4321 0.0, 0.1985 0.4321 0.0
            ]
        }
        coordIndex [
            0,1,2,-1,2,1,3,-1,4,5,6,-1,6,5,7,-1,5,8,7,-1,7,8,9,-1,8,10,9,-1,9,10,11,-1,12,13,14,-1,14,13,15,-1,13,0,15,-1,15,0,2,-1,16,17,13,-1,12,10,8,-1,17,18,13,-1,13,18,19,-1,13,19,0,-1,0,19,20,-1,0,20,21,-1,21,22,0,-1,0,22,23,-1,0,23,1,-1,4,1,5,-1,5,1,23,-1,5,23,8,-1,8,23,16,-1,8,16,12,-1,12,16,13,-1,16,23,24,-1,24,23,25,-1,17,16,26,-1,26,16,24,-1,17,26,27,-1,17,27,18,-1,18,27,28,-1,18,28,19,-1,20,19,29,-1,29,19,28,-1,20,29,30,-1,20,30,21,-1,21,30,31,-1,21,31,22,-1,23,22,25,-1,25,22,31,-1,32,33,34,-1,34,33,35,-1,33,36,35,-1,35,36,37,-1,38,39,40,-1,38,40,41,-1,41,40,42,-1,41,42,43,-1,43,42,44,-1,43,44,45,-1,45,44,46,-1,45,46,47,-1,47,46,48,-1,47,48,49,-1,49,48,50,-1,49,50,51,-1,51,50,52,-1,51,52,53,-1,53,52,37,-1,53,37,36,-1,54,55,56,-1,54,56,57,-1,57,56,58,-1,57,58,59,-1,59,58,60,-1,59,60,61,-1,61,60,62,-1,61,62,63,-1,63,62,64,-1,63,64,65,-1,65,64,66,-1,65,66,67,-1,67,66,39,-1,67,39,38,-1,43,45,68,-1,68,45,47,-1,68,47,69,-1,69,47,49,-1,69,49,70,-1,70,49,51,-1,70,51,71,-1,71,51,53,-1,71,53,72,-1,72,53,36,-1,72,36,73,-1,73,36,33,-1,73,33,74,-1,74,33,32,-1,74,32,75,-1,75,32,54,-1,75,54,76,-1,76,54,57,-1,76,57,77,-1,77,57,59,-1,77,59,78,-1,78,59,61,-1,78,61,79,-1,79,61,63,-1,79,63,80,-1,80,63,65,-1,80,65,81,-1,81,65,67,-1,81,67,82,-1,82,67,38,-1,82,38,83,-1,83,38,41,-1,83,41,84,-1,84,41,43,-1,84,43,68,-1,72,73,85,-1,85,73,86,-1,72,85,87,-1,72,87,71,-1,71,87,88,-1,71,88,70,-1,70,88,89,-1,70,89,69,-1,69,89,90,-1,69,90,68,-1,68,90,91,-1,68,91,84,-1,84,91,92,-1,84,92,83,-1,83,92,93,-1,83,93,82,-1,82,93,94,-1,82,94,81,-1,81,94,95,-1,81,95,80,-1,80,95,96,-1,80,96,79,-1,79,96,97,-1,79,97,78,-1,78,97,98,-1,78,98,77,-1,77,98,99,-1,77,99,76,-1,76,99,100,-1,76,100,75,-1,74,75,101,-1,101,75,100,-1,73,74,86,-1,86,74,101,-1,102,103,104,-1,104,103,105,-1,106,107,108,-1,108,107,109,-1,107,110,109,-1,109,110,111,-1,110,112,111,-1,111,112,113,-1,112,114,113,-1,113,114,115,-1,114,116,115,-1,115,116,117,-1,116,118,117,-1,117,118,119,-1,118,120,119,-1,119,120,121,-1,120,122,121,-1,121,122,123,-1,122,124,123,-1,123,124,125,-1,124,102,125,-1,125,102,104,-1,106,103,102,-1,102,124,106,-1,106,124,122,-1,106,122,107,-1,112,110,114,-1,114,110,107,-1,114,107,116,-1,116,107,122,-1,116,122,118,-1,118,122,120,-1,126,127,128,-1,126,128,129,-1,129,128,130,-1,129,130,131,-1,132,133,134,-1,132,134,135,-1,135,134,136,-1,135,136,137,-1,137,136,138,-1,137,138,139,-1,139,138,140,-1,139,140,141,-1,141,140,142,-1,141,142,143,-1,143,142,144,-1,143,144,145,-1,146,147,148,-1,148,147,149,-1,148,149,150,-1,150,149,151,-1,150,151,152,-1,152,151,153,-1,152,153,154,-1,154,153,155,-1,154,155,156,-1,156,155,157,-1,156,157,158,-1,158,157,159,-1,158,159,160,-1,160,159,161,-1,160,161,162,-1,162,161,163,-1,162,163,164,-1,164,163,132,-1,164,132,165,-1,165,132,135,-1,165,135,166,-1,166,135,137,-1,166,137,167,-1,167,137,139,-1,167,139,168,-1,168,139,141,-1,168,141,169,-1,169,141,143,-1,169,143,170,-1,170,143,145,-1,170,145,171,-1,171,145,126,-1,171,126,172,-1,172,126,129,-1,172,129,173,-1,173,129,131,-1,173,131,174,-1,174,131,175,-1,175,131,130,-1,151,176,177,-1,151,177,153,-1,153,177,178,-1,153,178,155,-1,155,178,179,-1,155,179,157,-1,157,179,180,-1,157,180,159,-1,159,180,181,-1,159,181,161,-1,161,181,182,-1,161,182,163,-1,163,182,133,-1,163,133,132,-1,147,183,184,-1,147,184,149,-1,149,184,176,-1,149,176,151,-1,147,146,183,-1,183,146,185,-1,150,186,187,-1,150,187,148,-1,148,187,185,-1,148,185,146,-1,164,188,189,-1,164,189,162,-1,162,189,190,-1,162,190,160,-1,160,190,191,-1,160,191,158,-1,158,191,192,-1,158,192,156,-1,156,192,193,-1,156,193,154,-1,154,193,194,-1,154,194,152,-1,152,194,186,-1,152,186,150,-1,171,195,196,-1,171,196,170,-1,170,196,197,-1,170,197,169,-1,169,197,198,-1,169,198,168,-1,168,198,199,-1,168,199,167,-1,167,199,200,-1,167,200,166,-1,166,200,201,-1,166,201,165,-1,165,201,188,-1,165,188,164,-1,174,175,202,-1,174,202,173,-1,173,202,203,-1,173,203,172,-1,172,203,195,-1,172,195,171,-1,204,205,206,-1,206,205,207,-1,208,209,210,-1,210,209,211,-1,209,212,211,-1,211,212,213,-1,212,214,213,-1,213,214,215,-1,214,204,215,-1,215,204,206,-1,212,209,214,-1,214,209,208,-1,214,208,204,-1,204,208,205,-1,
        ]
    }
}
Shape{
    appearance Appearance {
        material  Material 	{
            diffuseColor 1.0 1.0 1.0
            specularColor 0.5019607843137255 0.5019607843137255 0.5019607843137255
            ambientIntensity 0.2
            transparency 0
            shininess 0.5
        }
    }
    geometry IndexedFaceSet {
        ccw TRUE
        solid FALSE
        coord DEF co Coordinate {
            point [
                0.1322 -0.3445 0.0, 0.1322 -0.4235 0.0, 0.0336 -0.3798 -0.0, 0.0336 -0.388 0.0, 0.0254 -0.382 0.0, 0.0253 -0.3859 -0.0, 0.017 -0.3835 0.0, 0.017 -0.3843 0.0, 0.0141 -0.1037 0.0, 0.1985 -0.1037 0.0, 0.0141 -0.1385 0.0, 0.1985 -0.1372 0.0, 0.1322 -0.2276 0.0, 0.104 -0.2305 0.0, 0.0805 -0.2285 0.0, 0.0618 -0.2229 0.0, 0.0171 -0.1665 0.0, 0.1961 -0.1622 0.0, 0.19 -0.1821 0.0, 0.1803 -0.1982 0.0, 0.0472 -0.2148 0.0, 0.035 -0.2033 0.0, 0.0239 -0.186 0.0, 0.1671 -0.2116 0.0, 0.1511 -0.2213 0.0, 0.1511 -0.2213 0.0
            ]
        }
        coordIndex [
            0,1,2,-1,2,1,3,-1,2,3,4,-1,4,3,5,-1,4,5,6,-1,6,5,7,-1,8,9,10,-1,10,9,11,-1,12,13,10,-1,13,14,10,-1,10,14,15,-1,10,15,16,-1,11,17,10,-1,10,17,18,-1,10,18,19,-1,20,21,15,-1,15,21,22,-1,15,22,16,-1,19,23,10,-1,10,23,24,-1,10,24,12,-1,
        ]
    }
}