#VRML V2.0 utf8
# 3D model generated by easyeda2kicad.py (https://github.com/uPesy/easyeda2kicad.py)

Shape{
    appearance Appearance {
        material  Material 	{
            diffuseColor 1.0 1.0 1.0
            specularColor 0.5019607843137255 0.5019607843137255 0.5019607843137255
            ambientIntensity 0.2
            transparency 0
            shininess 0.5
        }
    }
    geometry IndexedFaceSet {
        ccw TRUE
        solid FALSE
        coord DEF co Coordinate {
            point [
                -1.2589 1.1614 2.3379, -1.2589 1.1614 2.4778, -0.4503 1.1614 2.4778, -1.9685 1.1614 2.6307, -1.9685 1.1614 2.7559, -1.2589 1.1614 2.7559, -0.087 1.1614 2.4768, -0.0951 1.1614 2.4778, -0.0526 1.1614 2.4778, -0.1695 1.1614 2.2004, -0.1651 1.1614 2.1999, -0.1918 1.1614 2.1999, 0.2452 1.1614 2.4862, 0.2332 1.1614 2.4778, 0.0565 1.1614 2.4778, 0.2164 1.1614 2.4661, 0.1897 1.1614 2.4346, 0.1063 1.1614 2.3379, 0.0565 1.1614 2.3379, 0.113 1.1614 2.3546, 0.1285 1.1614 2.3762, 0.1491 1.1614 2.3936, 0.1754 1.1614 2.4061, 0.1716 1.1614 2.4048, 0.3196 1.1614 2.5055, 0.2828 1.1614 2.501, 0.0565 1.1614 2.6307, 0.3531 1.1614 2.5019, 1.9685 1.1614 2.6307, 0.3883 1.1614 2.4894, 0.4076 1.1614 2.4778, 1.9685 1.1614 2.4778, 0.4107 1.1614 2.4759, 1.9685 1.1614 2.3379, 0.5826 1.1614 2.3379, 0.5792 1.1614 2.3569, 0.5671 1.1614 2.3842, 0.5488 1.1614 2.4076, 0.4913 1.1614 2.4404, 0.4616 1.1614 2.444, 0.4285 1.1614 2.4607, 0.4528 1.1614 2.4436, 0.4441 1.1614 2.4425, 0.5436 1.1614 2.4126, 0.5195 1.1614 2.4295, 0.502 1.1614 2.2049, 0.5294 1.1614 2.2184, 1.9685 1.1614 2.1999, 0.5526 1.1614 2.2383, 0.57 1.1614 2.2632, 0.5809 1.1614 2.2914, 0.5845 1.1614 2.3211, 0.5843 1.1614 2.3284, 1.9685 1.1614 2.1576, 0.4512 1.1614 2.1576, 0.4582 1.1614 2.1605, 0.473 1.1614 2.1717, 0.4919 1.1614 2.2019, 0.491 1.1614 2.1999, 0.4843 1.1614 2.1856, 0.748 1.1614 0.315, 0.0565 1.1614 2.1576, 0.3884 1.1614 2.1576, 0.4014 1.1614 2.1526, 0.4198 1.1614 2.1503, 0.4227 1.1614 2.1504, 1.9685 1.1614 0.0, 1.2205 1.1614 0.0, 1.2205 1.1614 0.315, 0.4407 1.1614 2.1531, 0.3487 1.1614 2.1999, 0.3487 1.1614 2.1996, 0.3577 1.1614 2.1827, 0.3694 1.1614 2.1696, 0.3845 1.1614 2.1591, 0.2518 1.1614 2.2446, 0.2466 1.1614 2.2467, 0.2376 1.1614 2.29, 0.3629 1.1614 2.2771, 0.2612 1.1614 2.3302, 0.3761 1.1614 2.2891, 0.3922 1.1614 2.2978, 0.2564 1.1614 2.2413, 0.1133 1.1614 2.2555, 0.1283 1.1614 2.2346, 0.0565 1.1614 2.1999, 0.1477 1.1614 2.3125, 0.1512 1.1614 2.3271, 0.1571 1.1614 2.3379, 0.5348 1.1614 2.3379, 0.1037 1.1614 2.3314, 0.1002 1.1614 2.3067, 0.1037 1.1614 2.2795, 0.2407 1.1614 2.2475, 0.2399 1.1614 2.2474, 0.2377 1.1614 2.2469, 0.5304 1.1614 2.2924, 0.5213 1.1614 2.2769, 0.4828 1.1614 2.2691, 0.5077 1.1614 2.2629, 0.4912 1.1614 2.2528, 0.4547 1.1614 2.2942, 0.4702 1.1614 2.2834, 0.5367 1.1614 2.3226, 0.5358 1.1614 2.3109, 0.4379 1.1614 2.3006, 0.4198 1.1614 2.3029, 0.4106 1.1614 2.3023, 0.149 1.1614 2.2171, 0.1722 1.1614 2.2057, 0.1974 1.1614 2.2004, 0.2642 1.1614 2.2239, 0.264 1.1614 2.2269, 0.3439 1.1614 2.2338, 0.2625 1.1614 2.2327, 0.2596 1.1614 2.2379, 0.1627 1.1614 2.2658, 0.1544 1.1614 2.2776, 0.1491 1.1614 2.2911, 0.1473 1.1614 2.3059, 0.2422 1.1614 2.2004, 0.2465 1.1614 2.2011, 0.2515 1.1614 2.2031, 0.2564 1.1614 2.2066, 0.2582 1.1614 2.2084, 0.2615 1.1614 2.2131, 0.2635 1.1614 2.2183, 0.3443 1.1614 2.2183, 0.3439 1.1614 2.2262, 0.2361 1.1614 2.2467, 0.202 1.1614 2.2467, 0.1884 1.1614 2.2493, 0.175 1.1614 2.2555, 0.1637 1.1614 2.2647, 0.2289 1.1614 2.4107, 0.246 1.1614 2.4311, 0.4206 1.1614 2.3871, 0.248 1.1614 2.4329, 0.2693 1.1614 2.4477, 0.409 1.1614 2.4111, 0.426 1.1614 2.3901, 0.443 1.1614 2.3963, 0.1583 1.1614 2.3402, 0.1671 1.1614 2.35, 0.2065 1.1614 2.3651, 0.1788 1.1614 2.3582, 0.1921 1.1614 2.3633, 0.2126 1.1614 2.3651, 0.2172 1.1614 2.3862, 0.4874 1.1614 2.3937, 0.5043 1.1614 2.3847, 0.4687 1.1614 2.3981, 0.5174 1.1614 2.373, 0.5279 1.1614 2.3579, 0.392 1.1614 2.4315, 0.2931 1.1614 2.4568, 0.3716 1.1614 2.4463, 0.3189 1.1614 2.46, 0.3468 1.1614 2.4564, 0.4608 1.1614 2.3985, 0.5344 1.1614 2.341, -0.3378 1.1614 2.2952, -0.3403 1.1614 2.2129, -0.3503 1.1614 2.3379, -0.3503 1.1614 2.1999, -0.3403 1.1614 2.2008, -0.3166 1.1614 2.1999, -0.3166 1.1614 2.2611, -0.3348 1.1614 2.2611, -0.3348 1.1614 2.2488, -0.3166 1.1614 2.2129, -0.3166 1.1614 2.2488, -0.2966 1.1614 2.2488, -0.2966 1.1614 2.2129, -0.3166 1.1614 2.2952, -0.2966 1.1614 2.2952, -0.2966 1.1614 2.2611, -0.3166 1.1614 2.2008, -0.2828 1.1614 2.2008, -0.238 1.1614 2.1999, -0.2684 1.1614 2.277, -0.2301 1.1614 2.2197, -0.2318 1.1614 2.2134, -0.2321 1.1614 2.2134, -0.2167 1.1614 2.3379, -0.2828 1.1614 2.3075, -0.3166 1.1614 2.3379, -0.3166 1.1614 2.3075, -0.3378 1.1614 2.3075, -0.2327 1.1614 2.216, -0.2338 1.1614 2.2196, -0.2167 1.1614 2.2584, -0.2546 1.1614 2.277, -0.1232 1.1614 2.3379, -0.1232 1.1614 2.1999, -0.1368 1.1614 2.2172, -0.1368 1.1614 2.2034, -0.1423 1.1614 2.2138, -0.143 1.1614 2.2136, -0.143 1.1614 2.242, -0.1407 1.1614 2.2444, -0.1389 1.1614 2.2472, -0.1374 1.1614 2.2512, -0.1369 1.1614 2.2564, -0.1374 1.1614 2.2612, -0.1429 1.1614 2.2421, -0.143 1.1614 2.2011, -0.143 1.1614 2.1999, -0.1447 1.1614 2.2005, -0.1499 1.1614 2.1999, -0.1575 1.1614 2.199, -0.143 1.1614 2.1576, -0.1846 1.1614 2.2754, -0.1846 1.1614 2.2624, -0.1454 1.1614 2.2727, -0.1499 1.1614 2.2753, -0.143 1.1614 2.3379, -0.139 1.1614 2.2655, -0.1415 1.1614 2.2691, -0.143 1.1614 2.2705, -0.1877 1.1614 2.2161, -0.186 1.1614 2.2119, -0.1835 1.1614 2.2084, -0.1574 1.1614 2.2778, -0.1666 1.1614 2.2788, -0.1918 1.1614 2.3379, -0.1759 1.1614 2.2779, -0.1838 1.1614 2.2341, -0.1863 1.1614 2.2304, -0.1877 1.1614 2.2265, -0.1883 1.1614 2.2215, -0.1797 1.1614 2.205, -0.1765 1.1614 2.2031, -0.1653 1.1614 2.2679, -0.1613 1.1614 2.2676, -0.1507 1.1614 2.2576, -0.1577 1.1614 2.2667, -0.1547 1.1614 2.2651, -0.1508 1.1614 2.2559, -0.1513 1.1614 2.2538, -0.1523 1.1614 2.252, -0.1536 1.1614 2.2505, -0.1583 1.1614 2.2476, -0.1736 1.1614 2.267, -0.1666 1.1614 2.244, -0.1812 1.1614 2.2643, -0.1717 1.1614 2.2419, -0.1806 1.1614 2.237, -0.1527 1.1614 2.2633, -0.1516 1.1614 2.2616, -0.1509 1.1614 2.2598, -0.1507 1.1614 2.2108, -0.1571 1.1614 2.2343, -0.1492 1.1614 2.2379, -0.1588 1.1614 2.2099, -0.1594 1.1614 2.2099, -0.1659 1.1614 2.2306, -0.1662 1.1614 2.2106, -0.1746 1.1614 2.2202, -0.1744 1.1614 2.2219, -0.1697 1.1614 2.2119, -0.1709 1.1614 2.2127, -0.1724 1.1614 2.214, -0.1736 1.1614 2.2157, -0.1743 1.1614 2.2176, -0.1738 1.1614 2.2239, -0.1728 1.1614 2.2257, -0.1711 1.1614 2.2275, -0.3895 1.1614 2.3993, -0.3503 1.1614 2.3993, -0.4004 1.1614 2.3701, -0.4156 1.1614 2.3701, -0.4503 1.1614 2.3379, -0.375 1.1614 2.4769, -0.3196 1.1614 2.3701, -0.3348 1.1614 2.3701, -0.3451 1.1614 2.3993, -0.2041 1.1614 2.4646, -0.2167 1.1614 2.4778, -0.2041 1.1614 2.4769, -0.1918 1.1614 2.4778, -0.1918 1.1614 2.4769, -0.2011 1.1614 2.4304, -0.2011 1.1614 2.4182, -0.2066 1.1614 2.3823, -0.1918 1.1614 2.3823, -0.1918 1.1614 2.4182, -0.1629 1.1614 2.4182, -0.1629 1.1614 2.3823, -0.1918 1.1614 2.4646, -0.1918 1.1614 2.4304, -0.1629 1.1614 2.4646, -0.1629 1.1614 2.4304, -0.1492 1.1614 2.3701, -0.1918 1.1614 2.3701, -0.2066 1.1614 2.3701, -0.1492 1.1614 2.4769, -0.143 1.1614 2.4778, -0.4503 1.1614 0.0, -0.748 1.1614 0.0, -0.748 1.1614 0.315, -0.2167 1.1614 0.315, -0.2362 1.1614 0.315, -0.3166 1.1614 2.1576, -0.0462 1.1614 2.1576, -0.0462 1.1614 0.315, -0.0526 1.1614 0.315, 0.748 1.1614 0.0, 0.2362 1.1614 0.0, 0.2362 1.1614 0.315, 0.0565 1.1614 0.315, -0.1232 1.1614 2.3727, -0.126 1.1614 2.3736, -0.1278 1.1614 2.3745, -0.1278 1.1614 2.3878, -0.1158 1.1614 2.4647, -0.1026 1.1614 2.4662, -0.1232 1.1614 2.3857, -0.1278 1.1614 2.4599, -0.1266 1.1614 2.4606, -0.1232 1.1614 2.4618, -0.0973 1.1614 2.466, -0.0882 1.1614 2.464, -0.0799 1.1614 2.4598, -0.0641 1.1614 2.437, -0.0623 1.1614 2.4223, -0.1002 1.1614 2.3806, -0.0735 1.1614 2.4544, -0.0728 1.1614 2.4536, -0.1173 1.1614 2.383, -0.1052 1.1614 2.3808, -0.0677 1.1614 2.4462, -0.0625 1.1614 2.4172, -0.0644 1.1614 2.4068, -0.068 1.1614 2.3983, -0.0728 1.1614 2.3918, -0.0759 1.1614 2.3888, -0.0911 1.1614 2.3815, -0.0832 1.1614 2.3842, -0.1139 1.1614 2.4778, -0.1165 1.1614 2.4776, -0.1232 1.1614 2.4778, -0.1232 1.1614 2.4756, -0.1278 1.1614 2.4743, -0.0555 1.1614 2.4529, -0.0633 1.1614 2.463, -0.0659 1.1614 2.4655, -0.0759 1.1614 2.4725, -0.0462 1.1614 2.4778, -0.0505 1.1614 2.441, -0.0526 1.1614 2.4461, -0.0526 1.1614 2.3973, -0.05 1.1614 2.4041, -0.0462 1.1614 2.3379, -0.0479 1.1614 2.4215, -0.048 1.1614 2.4271, -0.0802 1.1614 2.371, -0.0701 1.1614 2.3758, -0.0526 1.1614 2.3379, -0.0616 1.1614 2.3829, -0.0607 1.1614 2.3838, -0.0543 1.1614 2.393, -0.1145 1.1614 2.3699, -0.0982 1.1614 2.3683, -0.0918 1.1614 2.3686, -0.0624 1.1614 2.2367, -0.0649 1.1614 2.2587, -0.0596 1.1614 2.2323, -0.058 1.1614 2.2274, -0.0944 1.1614 2.2674, -0.0899 1.1614 2.2679, -0.0827 1.1614 2.2461, -0.0663 1.1614 2.2403, -0.0717 1.1614 2.2432, -0.0741 1.1614 2.2645, -0.0824 1.1614 2.2672, -0.0996 1.1614 2.2779, -0.1051 1.1614 2.2762, -0.1053 1.1614 2.2126, -0.1049 1.1614 2.2126, -0.1053 1.1614 2.2008, -0.1018 1.1614 2.208, -0.0974 1.1614 2.2039, -0.0685 1.1614 2.2018, -0.064 1.1614 2.205, -0.0526 1.1614 2.1999, -0.0625 1.1614 2.2065, -0.0597 1.1614 2.2106, -0.1095 1.1614 2.2736, -0.113 1.1614 2.2701, -0.1157 1.1614 2.2657, -0.0581 1.1614 2.2151, -0.0574 1.1614 2.2212, -0.0649 1.1614 2.2717, -0.0676 1.1614 2.2733, -0.0776 1.1614 2.2771, -0.0911 1.1614 2.2788, -0.1053 1.1614 2.2492, -0.1048 1.1614 2.2551, -0.1034 1.1614 2.2599, -0.1019 1.1614 2.2627, -0.1178 1.1614 2.2594, -0.1187 1.1614 2.2498, -0.1187 1.1614 2.2008, -0.0999 1.1614 2.2648, -0.0975 1.1614 2.2663, -0.089 1.1614 2.1999, -0.089 1.1614 2.1999, -0.1232 1.1614 2.1576, -0.0526 1.1614 2.1576, -0.1232 1.1614 0.315, -0.143 1.1614 0.315, -0.0816 1.1614 2.199, -0.0738 1.1614 2.1999, -0.0736 1.1614 2.1999, -0.2167 1.1614 2.1999, -0.2167 1.1614 2.2226, -0.1952 1.1614 2.277, -0.2102 1.1614 2.277, -0.2252 1.1614 2.2009, -0.2247 1.1614 2.1999, -0.2193 1.1614 2.1871, -0.1918 1.1614 2.1576, -0.198 1.1614 2.1659, -0.198 1.1614 2.1778, -0.2167 1.1614 2.1576, -0.212 1.1614 2.1655, -0.2066 1.1614 2.1648, -0.2141 1.1614 2.1794, -0.2166 1.1614 2.1822, -0.2167 1.1614 2.1823, -0.2007 1.1614 2.1769, -0.2056 1.1614 2.1763, -0.2037 1.1614 2.165, -0.209 1.1614 2.1767, -0.2119 1.1614 2.1779, -0.222 1.1614 2.1707, -0.2173 1.1614 2.1675, -0.2167 1.1614 2.1672, -0.2338 1.1614 2.1892, -0.2278 1.1614 2.1775, -0.2229 1.1614 2.1716, -0.1918 1.1614 0.315, -1.9685 1.1614 2.1576, -1.2589 1.1614 2.1576, -1.9685 1.1614 0.0, -1.2589 1.1614 0.0, -1.9685 1.1614 2.4778, -1.9685 1.1614 2.3379, -1.9685 1.1614 2.1999, -1.2589 1.1614 2.1999, -0.4685 1.1614 2.2008, -0.4533 1.1614 2.2008, -0.4503 1.1614 2.1999, -0.5341 1.1614 2.2008, -0.5232 1.1614 2.23, -0.4788 1.1614 2.23, -0.4939 1.1614 2.3075, -0.5087 1.1614 2.3075, -0.5493 1.1614 2.2008, -0.3503 1.1614 2.4778, -0.3602 1.1614 2.4769, -0.3503 1.1614 2.4509, -0.4444 1.1614 2.2362, -0.4392 1.1614 2.2252, -0.4313 1.1614 2.2157, -0.4201 1.1614 2.2077, -0.4079 1.1614 2.203, -0.3898 1.1614 2.2008, -0.3604 1.1614 2.2008, -0.3604 1.1614 2.3075, -0.3909 1.1614 2.3075, -0.4072 1.1614 2.3057, -0.4201 1.1614 2.301, -0.4313 1.1614 2.2934, -0.435 1.1614 2.2897, -0.4416 1.1614 2.2804, -0.4456 1.1614 2.2702, -0.4474 1.1614 2.2555, -0.447 1.1614 2.2487, -1.2205 1.1614 0.0, -1.2205 1.1614 0.315, -0.4503 1.1614 2.1576, -0.3503 1.1614 2.1576, -0.3503 1.1614 0.0, -0.3166 1.1614 0.0, -0.2362 1.1614 0.0, -0.2267 1.1614 2.3701, -0.3133 1.1614 2.4181, -0.3108 1.1614 2.4056, -0.3055 1.1614 2.3945, -0.2976 1.1614 2.3851, -0.3079 1.1614 2.4498, -0.3119 1.1614 2.4396, -0.3166 1.1614 2.4778, -0.3137 1.1614 2.4249, -0.2864 1.1614 2.3771, -0.2742 1.1614 2.3723, -0.2561 1.1614 2.3701, -0.2267 1.1614 2.4769, -0.2572 1.1614 2.4769, -0.2735 1.1614 2.4751, -0.2864 1.1614 2.4704, -0.2976 1.1614 2.4627, -0.3013 1.1614 2.4591, -0.0943 1.1614 2.2019, -0.1232 1.1614 2.6307, -0.143 1.1614 2.6307, -0.1918 1.1614 2.6307, -0.2167 1.1614 2.6307, -0.3166 1.1614 2.6307, -0.3503 1.1614 2.6307, -0.4503 1.1614 2.6307, -1.2589 1.1614 2.6307, -0.0462 1.1614 2.1999, -0.0422 1.1614 2.3075, -0.0422 1.1614 2.2952, -0.0446 1.1614 2.2129, -0.0446 1.1614 2.2008, 0.0128 1.1614 2.2008, 0.0128 1.1614 2.3075, -0.001 1.1614 2.2488, -0.001 1.1614 2.2129, -0.0391 1.1614 2.2488, -0.0391 1.1614 2.2611, -0.001 1.1614 2.2611, -0.001 1.1614 2.2952, -0.001 1.1614 2.4769, -0.001 1.1614 2.3823, -0.0435 1.1614 2.3823, 0.0128 1.1614 2.3701, 0.0128 1.1614 2.4769, -0.0435 1.1614 2.3701, -0.0462 1.1614 2.6307, -0.0526 1.1614 2.6307, -0.1025 1.1614 2.4787, -0.4503 1.1614 2.7559, -0.3503 1.1614 2.7559, -0.3166 1.1614 2.7559, -0.2167 1.1614 2.7559, -0.1918 1.1614 2.7559, -0.143 1.1614 2.7559, -0.1232 1.1614 2.7559, -0.0526 1.1614 2.7559, -0.0462 1.1614 2.7559, 0.0565 1.1614 2.7559, 1.9685 1.1614 2.7559, -1.9685 -1.1614 2.7559, -1.378 -1.1614 2.7559, -1.9685 -0.8465 2.7559, -1.378 -0.8465 2.7559, 1.378 -0.8465 2.7559, 1.378 -1.1614 2.7559, 1.9685 -0.8465 2.7559, 1.9685 -1.1614 2.7559, -0.748 -0.6058 0.1969, -0.8583 -0.3425 0.1969, -0.8583 -0.0906 0.1969, -1.1102 -0.3425 0.1969, -1.2205 -0.6058 0.1969, -1.1102 -0.0906 0.1969, -1.2205 0.6058 0.1969, -0.748 0.6058 0.1969, 0.2362 -0.6058 0.1969, 0.126 -0.3425 0.1969, 0.126 -0.0906 0.1969, -0.126 -0.3425 0.1969, -0.2362 -0.6058 0.1969, -0.126 -0.0906 0.1969, -0.2362 0.6058 0.1969, 0.2362 0.6058 0.1969, 1.2205 -0.6058 0.1969, 1.1102 -0.3425 0.1969, 1.1102 -0.0906 0.1969, 0.8583 -0.3425 0.1969, 0.748 -0.6058 0.1969, 0.8583 -0.0906 0.1969, 0.748 0.6058 0.1969, 1.2205 0.6058 0.1969, 1.2205 0.6058 0.1969
            ]
        }
        coordIndex [
            0,1,2,-1,3,4,5,-1,6,7,8,-1,9,10,11,-1,12,13,14,-1,14,13,15,-1,14,15,16,-1,17,18,19,-1,19,18,14,-1,19,14,20,-1,20,14,21,-1,16,22,14,-1,14,22,23,-1,14,23,21,-1,24,25,26,-1,26,25,12,-1,24,26,27,-1,27,26,28,-1,27,28,29,-1,29,28,30,-1,30,28,31,-1,30,31,32,-1,31,33,34,-1,34,35,31,-1,31,35,36,-1,31,36,37,-1,31,38,32,-1,32,38,39,-1,32,39,40,-1,40,39,41,-1,40,41,42,-1,37,43,31,-1,31,43,44,-1,31,44,38,-1,45,46,47,-1,47,46,48,-1,47,48,49,-1,49,50,47,-1,47,50,51,-1,47,51,33,-1,33,51,52,-1,33,52,34,-1,53,54,47,-1,47,54,55,-1,47,55,56,-1,57,45,58,-1,58,45,47,-1,58,47,59,-1,59,47,56,-1,60,61,62,-1,62,63,60,-1,60,63,64,-1,60,64,65,-1,66,67,53,-1,53,67,68,-1,53,68,54,-1,54,68,60,-1,54,60,69,-1,69,60,65,-1,70,71,61,-1,61,71,72,-1,72,73,61,-1,61,73,74,-1,61,74,62,-1,75,76,77,-1,78,79,80,-1,80,79,81,-1,75,77,82,-1,83,84,85,-1,86,87,79,-1,79,87,88,-1,79,88,89,-1,17,90,18,-1,18,90,91,-1,18,91,85,-1,85,91,92,-1,85,92,83,-1,76,93,77,-1,77,93,94,-1,77,94,95,-1,96,97,98,-1,98,97,99,-1,98,99,100,-1,101,89,102,-1,102,89,103,-1,102,103,98,-1,98,103,104,-1,98,104,96,-1,101,105,89,-1,89,105,106,-1,89,106,79,-1,79,106,107,-1,79,107,81,-1,84,108,85,-1,85,108,109,-1,85,109,110,-1,111,112,113,-1,113,112,114,-1,113,114,77,-1,77,114,115,-1,77,115,82,-1,116,117,77,-1,77,117,118,-1,77,118,79,-1,79,118,119,-1,79,119,86,-1,120,121,70,-1,121,122,70,-1,70,122,123,-1,70,123,124,-1,124,125,70,-1,70,125,126,-1,70,126,127,-1,127,126,111,-1,127,111,128,-1,128,111,113,-1,95,129,77,-1,77,129,130,-1,77,130,131,-1,131,132,77,-1,77,132,133,-1,77,133,116,-1,134,135,136,-1,135,137,136,-1,136,137,138,-1,136,138,139,-1,88,136,89,-1,89,136,140,-1,89,140,141,-1,142,143,144,-1,144,143,145,-1,144,145,146,-1,142,144,88,-1,88,144,147,-1,88,147,136,-1,136,147,148,-1,136,148,134,-1,149,150,151,-1,151,150,152,-1,151,152,153,-1,139,138,154,-1,154,138,155,-1,154,155,156,-1,156,155,157,-1,156,157,158,-1,141,159,89,-1,89,159,151,-1,89,151,160,-1,160,151,153,-1,161,162,163,-1,163,162,164,-1,164,162,165,-1,164,165,166,-1,167,168,161,-1,161,168,162,-1,162,168,169,-1,162,169,170,-1,169,171,170,-1,170,171,172,-1,170,172,173,-1,161,174,167,-1,167,174,175,-1,167,175,176,-1,165,177,166,-1,166,177,178,-1,166,178,179,-1,179,178,180,-1,181,182,183,-1,184,185,186,-1,186,185,187,-1,186,187,163,-1,163,187,188,-1,163,188,161,-1,183,189,181,-1,181,189,190,-1,181,190,191,-1,191,190,192,-1,191,192,184,-1,184,192,180,-1,184,180,185,-1,185,180,178,-1,193,194,195,-1,195,194,196,-1,197,198,199,-1,200,201,195,-1,201,202,195,-1,195,202,203,-1,195,203,193,-1,193,203,204,-1,197,199,195,-1,195,199,205,-1,195,205,200,-1,206,207,208,-1,208,207,209,-1,210,209,211,-1,211,209,207,-1,211,207,194,-1,194,207,206,-1,194,206,196,-1,212,213,11,-1,214,215,216,-1,204,217,193,-1,193,217,218,-1,193,218,216,-1,216,218,219,-1,216,219,214,-1,220,221,11,-1,11,221,222,-1,215,223,216,-1,216,223,224,-1,216,224,225,-1,225,224,226,-1,225,226,212,-1,227,228,213,-1,213,228,229,-1,213,229,11,-1,11,229,230,-1,11,230,220,-1,222,231,11,-1,11,231,232,-1,11,232,9,-1,233,234,235,-1,235,234,236,-1,235,236,237,-1,235,238,233,-1,233,238,239,-1,233,239,240,-1,240,241,233,-1,233,241,242,-1,233,242,243,-1,243,242,244,-1,243,244,245,-1,245,244,246,-1,245,246,213,-1,213,246,247,-1,213,247,227,-1,248,249,237,-1,237,249,250,-1,237,250,235,-1,251,252,198,-1,198,252,253,-1,198,253,199,-1,251,254,252,-1,252,254,255,-1,252,255,256,-1,256,255,257,-1,256,258,259,-1,257,260,256,-1,256,260,261,-1,256,261,262,-1,262,263,256,-1,256,263,264,-1,256,264,258,-1,259,265,256,-1,256,265,266,-1,256,266,267,-1,268,269,270,-1,270,269,163,-1,270,163,271,-1,271,163,272,-1,271,272,273,-1,274,186,275,-1,275,186,163,-1,275,163,276,-1,276,163,269,-1,277,278,279,-1,279,278,280,-1,279,280,281,-1,282,283,284,-1,284,283,285,-1,283,286,285,-1,285,286,287,-1,285,287,288,-1,277,289,290,-1,290,289,291,-1,290,291,292,-1,293,216,294,-1,294,216,225,-1,294,225,295,-1,295,225,184,-1,295,184,284,-1,281,280,296,-1,296,280,297,-1,296,297,293,-1,298,299,300,-1,301,302,303,-1,304,305,306,-1,307,308,60,-1,60,308,309,-1,60,309,61,-1,61,309,310,-1,61,310,305,-1,311,193,312,-1,312,193,216,-1,312,216,313,-1,313,216,314,-1,315,316,317,-1,293,297,216,-1,216,297,318,-1,216,318,314,-1,314,318,319,-1,314,319,317,-1,317,319,320,-1,317,320,315,-1,316,321,317,-1,317,321,322,-1,317,322,323,-1,324,325,326,-1,323,327,317,-1,317,327,328,-1,317,328,329,-1,329,328,330,-1,330,328,326,-1,326,328,331,-1,326,331,324,-1,325,332,326,-1,326,332,333,-1,326,333,334,-1,334,335,326,-1,326,335,336,-1,326,336,337,-1,337,336,338,-1,339,340,341,-1,341,340,342,-1,341,342,297,-1,297,342,343,-1,297,343,318,-1,8,344,345,-1,345,346,8,-1,8,346,347,-1,8,347,6,-1,348,349,8,-1,8,349,350,-1,8,350,344,-1,351,352,353,-1,353,352,354,-1,353,354,348,-1,348,354,355,-1,348,355,349,-1,356,357,358,-1,357,359,358,-1,358,359,360,-1,358,360,361,-1,311,362,193,-1,193,362,363,-1,193,363,358,-1,358,363,364,-1,358,364,356,-1,365,366,367,-1,367,366,368,-1,369,370,371,-1,365,372,366,-1,366,372,373,-1,366,373,374,-1,374,373,371,-1,374,371,375,-1,375,371,370,-1,376,377,193,-1,378,379,380,-1,380,379,381,-1,380,381,382,-1,383,384,385,-1,385,384,386,-1,385,386,387,-1,377,388,193,-1,193,388,389,-1,193,389,390,-1,387,391,385,-1,385,391,392,-1,385,392,358,-1,358,392,368,-1,358,368,393,-1,393,368,366,-1,393,394,358,-1,358,394,395,-1,358,395,193,-1,193,395,396,-1,193,396,376,-1,397,398,371,-1,371,398,399,-1,371,399,400,-1,390,401,193,-1,193,401,402,-1,193,402,194,-1,194,402,403,-1,194,403,380,-1,400,404,371,-1,371,404,405,-1,371,405,369,-1,406,407,408,-1,407,409,408,-1,408,409,410,-1,408,410,411,-1,407,412,409,-1,409,412,413,-1,409,413,385,-1,385,413,414,-1,385,414,383,-1,415,416,11,-1,11,416,417,-1,212,11,225,-1,225,11,417,-1,225,417,184,-1,184,417,418,-1,184,418,191,-1,419,416,420,-1,420,416,415,-1,420,415,421,-1,422,423,424,-1,425,426,427,-1,428,429,415,-1,415,429,430,-1,415,430,421,-1,210,211,10,-1,10,211,422,-1,10,422,11,-1,11,422,424,-1,11,424,415,-1,415,424,431,-1,415,431,432,-1,425,427,422,-1,422,427,433,-1,422,433,423,-1,432,434,415,-1,415,434,435,-1,415,435,428,-1,436,437,425,-1,425,437,438,-1,425,438,426,-1,179,439,303,-1,303,439,440,-1,303,440,441,-1,441,436,303,-1,303,436,425,-1,303,425,301,-1,301,425,422,-1,301,422,442,-1,442,422,211,-1,443,444,445,-1,445,444,446,-1,447,1,448,-1,448,1,0,-1,448,0,449,-1,449,0,450,-1,451,452,453,-1,454,455,456,-1,453,452,272,-1,272,452,457,-1,272,457,458,-1,456,451,454,-1,454,451,453,-1,454,453,459,-1,459,453,450,-1,459,450,458,-1,458,450,0,-1,458,0,272,-1,272,0,2,-1,272,2,273,-1,273,2,460,-1,273,460,461,-1,461,460,462,-1,463,464,453,-1,453,464,465,-1,453,465,466,-1,466,467,453,-1,453,467,468,-1,453,468,164,-1,164,468,469,-1,164,469,163,-1,469,470,163,-1,163,470,471,-1,163,471,272,-1,272,471,472,-1,272,472,473,-1,473,474,272,-1,272,474,475,-1,272,475,476,-1,476,477,272,-1,272,477,478,-1,272,478,453,-1,453,478,479,-1,453,479,463,-1,480,446,481,-1,481,446,444,-1,481,444,300,-1,300,444,482,-1,300,482,298,-1,298,482,483,-1,298,483,484,-1,484,483,303,-1,484,303,485,-1,485,303,302,-1,485,302,486,-1,179,303,166,-1,166,303,483,-1,166,483,164,-1,164,483,482,-1,164,482,453,-1,453,482,444,-1,453,444,450,-1,450,444,443,-1,450,443,449,-1,290,282,277,-1,277,282,284,-1,277,284,278,-1,278,284,184,-1,278,184,487,-1,488,489,186,-1,186,489,490,-1,186,490,491,-1,492,493,494,-1,494,493,495,-1,491,496,186,-1,186,496,497,-1,186,497,184,-1,184,497,498,-1,184,498,487,-1,487,499,278,-1,278,499,500,-1,278,500,494,-1,494,500,501,-1,494,501,502,-1,502,503,494,-1,494,503,504,-1,494,504,492,-1,462,460,274,-1,274,460,494,-1,274,494,186,-1,186,494,495,-1,186,495,488,-1,382,505,380,-1,380,505,406,-1,380,406,194,-1,194,406,408,-1,194,408,211,-1,211,408,411,-1,211,411,442,-1,339,341,506,-1,506,341,297,-1,506,297,507,-1,507,297,280,-1,507,280,508,-1,508,280,278,-1,508,278,509,-1,509,278,494,-1,509,494,510,-1,510,494,460,-1,510,460,511,-1,511,460,2,-1,511,2,512,-1,512,2,1,-1,512,1,513,-1,513,1,447,-1,513,447,3,-1,361,351,358,-1,358,351,353,-1,358,353,385,-1,385,353,514,-1,385,514,409,-1,305,304,61,-1,61,304,85,-1,61,85,70,-1,70,85,110,-1,70,110,120,-1,515,516,353,-1,353,516,517,-1,353,517,514,-1,514,517,518,-1,514,518,519,-1,515,353,520,-1,520,353,18,-1,520,18,519,-1,519,18,85,-1,519,85,514,-1,514,85,304,-1,514,304,409,-1,409,304,306,-1,409,306,410,-1,521,522,523,-1,523,522,517,-1,523,517,524,-1,524,517,516,-1,524,516,525,-1,525,516,526,-1,527,528,529,-1,530,531,14,-1,14,531,527,-1,14,527,348,-1,348,527,529,-1,348,529,353,-1,353,529,532,-1,353,532,18,-1,18,532,530,-1,18,530,14,-1,12,14,26,-1,26,14,348,-1,26,348,533,-1,533,348,8,-1,533,8,534,-1,534,8,7,-1,534,7,506,-1,506,7,535,-1,506,535,339,-1,3,5,513,-1,513,5,536,-1,513,536,512,-1,512,536,537,-1,512,537,511,-1,511,537,538,-1,511,538,510,-1,510,538,539,-1,510,539,509,-1,509,539,540,-1,509,540,508,-1,508,540,541,-1,508,541,507,-1,507,541,542,-1,507,542,506,-1,506,542,543,-1,506,543,534,-1,534,543,544,-1,534,544,533,-1,533,544,545,-1,533,545,26,-1,26,545,546,-1,26,546,28,-1,547,548,549,-1,549,548,550,-1,551,552,553,-1,553,552,554,-1,555,556,557,-1,556,555,558,-1,558,555,559,-1,558,559,560,-1,560,559,561,-1,560,561,557,-1,557,561,562,-1,557,562,555,-1,563,564,565,-1,564,563,566,-1,566,563,567,-1,566,567,568,-1,568,567,569,-1,568,569,565,-1,565,569,570,-1,565,570,563,-1,571,572,573,-1,572,571,574,-1,574,571,575,-1,574,575,576,-1,576,575,577,-1,576,577,573,-1,573,577,578,-1,573,578,571,-1,
        ]
    }
}
Shape{
    appearance Appearance {
        material  Material 	{
            diffuseColor 0.7529411764705882 0.7529411764705882 0.7529411764705882
            specularColor 0.3764705882352941 0.3764705882352941 0.3764705882352941
            ambientIntensity 0.2
            transparency 0
            shininess 0.5
        }
    }
    geometry IndexedFaceSet {
        ccw TRUE
        solid FALSE
        coord DEF co Coordinate {
            point [
                -0.8661 -0.3346 2.3622, -0.9378 -0.263 2.5591, -1.1024 -0.3346 2.3622, -1.0307 -0.263 2.5591, -0.9378 -0.1701 2.5591, -0.8661 -0.0984 2.3622, -1.1024 -0.0984 2.3622, -1.0307 -0.1701 2.5591, -1.1024 -0.3346 0.7874, -0.8661 -0.3346 0.7874, -1.1024 -0.0984 0.7874, -0.8661 -0.0984 0.7874, -0.8661 -0.0984 0.7874
            ]
        }
        coordIndex [
            0,1,2,-1,2,1,3,-1,1,0,4,-1,4,0,5,-1,6,7,5,-1,5,7,4,-1,2,3,6,-1,6,3,7,-1,1,4,3,-1,3,4,7,-1,2,8,0,-1,0,8,9,-1,6,10,2,-1,2,10,8,-1,5,11,6,-1,6,11,10,-1,0,9,5,-1,5,9,11,-1,
        ]
    }
}
Shape{
    appearance Appearance {
        material  Material 	{
            diffuseColor 1.0 1.0 1.0
            specularColor 0.5019607843137255 0.5019607843137255 0.5019607843137255
            ambientIntensity 0.2
            transparency 0
            shininess 0.5
        }
    }
    geometry IndexedFaceSet {
        ccw TRUE
        solid FALSE
        coord DEF co Coordinate {
            point [
                1.6535 -0.8465 0.7874, -0.8661 -0.3346 0.7874, -1.6535 -0.8465 0.7874, -1.1024 -0.3346 0.7874, -1.6535 0.8465 0.7874, 0.1181 -0.0984 0.7874, 1.6535 0.8465 0.7874, -0.1181 -0.0984 0.7874, -0.1181 -0.3346 0.7874, -0.8661 -0.0984 0.7874, -1.1024 -0.0984 0.7874, 0.1181 -0.3346 0.7874, 0.8661 -0.3346 0.7874, 0.8661 -0.0984 0.7874, 1.1024 -0.0984 0.7874, 1.1024 -0.3346 0.7874, -0.748 -1.1614 0.0, -0.748 -1.1614 0.315, -0.748 -0.6058 0.1969, -0.748 1.1614 0.0, -0.748 0.6058 0.1969, -0.748 1.1614 0.315, -1.2205 -0.6058 0.1969, -1.2205 -1.1614 0.315, -1.2205 -1.1614 0.0, -1.2205 0.6058 0.1969, -1.2205 1.1614 0.0, -1.2205 1.1614 0.315, 0.2362 -1.1614 0.0, 0.2362 -1.1614 0.315, 0.2362 -0.6058 0.1969, 0.2362 1.1614 0.0, 0.2362 0.6058 0.1969, 0.2362 1.1614 0.315, -0.2362 -0.6058 0.1969, -0.2362 -1.1614 0.315, -0.2362 -1.1614 0.0, -0.2362 0.6058 0.1969, -0.2362 1.1614 0.0, -0.2362 1.1614 0.315, 0.748 1.1614 0.0, 0.748 -1.1614 0.0, 1.2205 -1.1614 0.0, 1.2205 -1.1614 0.315, 1.2205 -0.6058 0.1969, 1.2205 1.1614 0.0, 1.2205 0.6058 0.1969, 1.2205 1.1614 0.315, 0.748 -0.6058 0.1969, 0.748 -1.1614 0.315, 0.748 0.6058 0.1969, 0.748 1.1614 0.315, 1.9685 1.1614 0.0, 1.9685 -1.1614 0.0, 1.7717 -0.4528 2.7559, 1.9685 -0.4528 2.7559, 1.7717 0.9646 2.7559, 1.9685 1.1614 2.7559, 0.0565 1.1614 2.7559, -0.0462 1.1614 2.7559, -1.7717 0.9646 2.7559, -0.0526 1.1614 2.7559, -0.1232 1.1614 2.7559, -0.143 1.1614 2.7559, -0.1918 1.1614 2.7559, -0.2167 1.1614 2.7559, -0.3166 1.1614 2.7559, -0.3503 1.1614 2.7559, -0.4503 1.1614 2.7559, -1.9685 -0.4528 2.7559, -1.7717 -0.4528 2.7559, -1.9685 1.1614 2.7559, -1.2589 1.1614 2.7559, 1.9685 -0.4528 1.5748, 1.9685 1.1614 2.1576, 1.9685 1.1614 2.1999, 1.9685 1.1614 2.3379, 1.9685 -0.8201 1.6732, 1.9685 -0.8397 1.7207, 1.9685 -0.8465 1.7717, 1.9685 -1.1614 2.7559, 1.9685 -0.8465 2.7559, 1.9685 -0.7006 1.5815, 1.9685 -0.748 1.6012, 1.9685 -0.7888 1.6325, 1.9685 1.1614 2.4778, 1.9685 1.1614 2.6307, 1.9685 -0.6496 1.5748, -1.9685 -0.8397 1.7207, -1.9685 -1.1614 0.0, -1.9685 -0.8465 1.7717, -1.9685 -1.1614 2.7559, -1.9685 -0.8465 2.7559, -1.9685 1.1614 2.6307, -1.9685 1.1614 2.4778, -1.9685 1.1614 2.3379, -1.9685 -0.8201 1.6732, -1.9685 -0.7888 1.6325, -1.9685 -0.748 1.6012, -1.9685 -0.7006 1.5815, -1.9685 -0.6496 1.5748, -1.9685 1.1614 0.0, -1.9685 -0.4528 1.5748, -1.9685 1.1614 2.1576, -1.9685 1.1614 2.1999, -0.9055 -1.1614 2.7559, -0.9055 -1.1614 1.5748, 0.9055 -1.1614 2.7559, 0.9055 -1.1614 1.5748, 1.378 -1.1614 2.7559, 1.378 -1.1614 2.5984, 1.2598 -1.1614 2.4803, 1.378 -1.1614 2.3622, 1.1811 -1.1614 1.6275, 1.2626 -1.1614 1.6901, 1.3252 -1.1614 1.7717, 0.9843 -1.1614 1.5748, 1.0861 -1.1614 1.5882, -1.378 -1.1614 2.3622, -1.2598 -1.1614 2.4803, -1.378 -1.1614 2.5984, -1.378 -1.1614 2.7559, -1.0861 -1.1614 1.5882, -1.1811 -1.1614 1.6275, -1.2626 -1.1614 1.6901, 1.378 -1.1614 1.9685, 1.3645 -1.1614 1.8666, -0.9843 -1.1614 1.5748, -1.3252 -1.1614 1.7717, -1.3645 -1.1614 1.8666, -1.378 -1.1614 1.9685, 0.9055 -0.8465 2.7559, -0.9055 -0.8465 2.7559, 1.0861 -0.8465 1.5882, 1.6535 -0.8465 1.7717, -1.378 -0.8465 2.5984, -1.2598 -0.8465 2.4803, -1.378 -0.8465 2.3622, 1.378 -0.8465 2.3622, 1.2598 -0.8465 2.4803, 1.378 -0.8465 2.5984, 1.378 -0.8465 2.7559, -1.1811 -0.8465 1.6275, -1.0861 -0.8465 1.5882, 1.3252 -0.8465 1.7717, 1.3645 -0.8465 1.8666, -1.378 -0.8465 2.7559, -1.378 -0.8465 1.9685, -1.6535 -0.8465 1.7717, 1.1811 -0.8465 1.6275, 1.2626 -0.8465 1.6901, 1.378 -0.8465 1.9685, -0.9843 -0.8465 1.5748, -0.9055 -0.8465 1.5748, -1.3645 -0.8465 1.8666, -1.3252 -0.8465 1.7717, -1.2626 -0.8465 1.6901, 0.9055 -0.8465 1.5748, 0.9843 -0.8465 1.5748, -1.6535 -0.7888 1.6325, -1.6535 -0.748 1.6012, -1.6535 -0.7006 1.5815, -1.6535 -0.8201 1.6732, -1.6535 -0.8397 1.7207, -1.6535 0.8465 2.6378, -1.6535 -0.4528 2.6378, -1.6535 -0.4528 1.5748, -1.6535 -0.6496 1.5748, 1.6535 0.8465 2.6378, 1.6535 -0.8397 1.7207, 1.6535 -0.8201 1.6732, 1.6535 -0.7888 1.6325, 1.6535 -0.748 1.6012, 1.6535 -0.4528 2.6378, 1.6535 -0.4528 1.5748, 1.6535 -0.6496 1.5748, 1.6535 -0.7006 1.5815, 1.6535 -0.7006 1.5815
            ]
        }
        coordIndex [
            0,1,2,-1,2,1,3,-1,2,3,4,-1,5,6,7,-1,7,6,4,-1,8,7,9,-1,9,7,4,-1,9,4,10,-1,10,4,3,-1,9,1,8,-1,8,1,0,-1,8,0,11,-1,11,0,12,-1,11,12,5,-1,5,12,13,-1,5,13,6,-1,6,13,14,-1,6,14,0,-1,0,14,15,-1,0,15,12,-1,16,17,18,-1,16,18,19,-1,19,18,20,-1,19,20,21,-1,22,23,24,-1,22,24,25,-1,25,24,26,-1,25,26,27,-1,28,29,30,-1,28,30,31,-1,31,30,32,-1,31,32,33,-1,34,35,36,-1,34,36,37,-1,37,36,38,-1,37,38,39,-1,31,40,28,-1,28,40,41,-1,36,16,38,-1,38,16,19,-1,42,43,44,-1,42,44,45,-1,45,44,46,-1,45,46,47,-1,48,49,41,-1,48,41,50,-1,50,41,40,-1,50,40,51,-1,45,52,42,-1,42,52,53,-1,54,55,56,-1,56,55,57,-1,57,58,56,-1,56,58,59,-1,56,59,60,-1,60,59,61,-1,60,61,62,-1,62,63,60,-1,60,63,64,-1,60,64,65,-1,65,66,60,-1,60,66,67,-1,60,67,68,-1,69,70,71,-1,71,70,60,-1,71,60,72,-1,72,60,68,-1,73,52,74,-1,73,74,55,-1,55,74,75,-1,55,75,76,-1,77,78,53,-1,53,78,79,-1,53,79,80,-1,80,79,81,-1,82,83,53,-1,53,83,84,-1,53,84,77,-1,76,85,55,-1,55,85,86,-1,55,86,57,-1,52,73,53,-1,53,73,87,-1,53,87,82,-1,88,89,90,-1,90,89,91,-1,90,91,92,-1,71,93,69,-1,69,93,94,-1,69,94,95,-1,88,96,89,-1,89,96,97,-1,89,97,98,-1,98,99,89,-1,89,99,100,-1,89,100,101,-1,101,100,102,-1,101,102,103,-1,103,102,69,-1,103,69,104,-1,104,69,95,-1,42,53,43,-1,43,53,80,-1,105,106,107,-1,107,106,108,-1,91,89,23,-1,23,89,24,-1,109,110,80,-1,80,110,111,-1,80,111,112,-1,113,29,114,-1,114,29,115,-1,108,35,116,-1,116,35,29,-1,116,29,117,-1,117,29,113,-1,118,119,91,-1,91,119,120,-1,91,120,121,-1,122,123,23,-1,23,123,124,-1,112,125,80,-1,80,125,126,-1,80,126,43,-1,43,126,115,-1,43,115,49,-1,49,115,29,-1,49,29,41,-1,41,29,28,-1,36,35,16,-1,16,35,108,-1,16,108,17,-1,17,108,106,-1,17,106,23,-1,23,106,127,-1,23,127,122,-1,124,128,23,-1,23,128,129,-1,23,129,91,-1,91,129,130,-1,91,130,118,-1,107,131,105,-1,105,131,132,-1,24,89,26,-1,26,89,101,-1,133,134,0,-1,135,136,137,-1,138,139,81,-1,81,139,140,-1,81,140,141,-1,142,143,2,-1,134,144,145,-1,146,135,92,-1,92,135,137,-1,92,137,90,-1,90,137,147,-1,90,147,148,-1,133,149,134,-1,134,149,150,-1,134,150,144,-1,81,79,138,-1,138,79,134,-1,138,134,151,-1,151,134,145,-1,143,152,2,-1,2,152,153,-1,2,153,0,-1,147,154,148,-1,148,154,155,-1,148,155,2,-1,2,155,156,-1,2,156,142,-1,132,131,153,-1,153,131,157,-1,153,157,0,-1,0,157,158,-1,0,158,133,-1,159,2,160,-1,160,2,161,-1,159,162,2,-1,2,162,163,-1,2,163,148,-1,164,165,4,-1,4,165,166,-1,4,166,2,-1,2,166,167,-1,2,167,161,-1,164,4,168,-1,168,4,6,-1,0,134,169,-1,169,170,0,-1,0,170,171,-1,0,171,172,-1,173,168,174,-1,174,168,6,-1,174,6,175,-1,175,6,0,-1,175,0,176,-1,176,0,172,-1,109,141,110,-1,110,141,140,-1,110,140,111,-1,111,140,139,-1,111,139,112,-1,112,139,138,-1,112,138,125,-1,125,138,151,-1,158,116,133,-1,133,116,117,-1,133,117,149,-1,149,117,113,-1,149,113,150,-1,150,113,114,-1,150,114,144,-1,144,114,115,-1,144,115,145,-1,145,115,126,-1,145,126,151,-1,151,126,125,-1,116,158,108,-1,108,158,157,-1,108,157,107,-1,107,157,131,-1,120,135,121,-1,121,135,146,-1,105,132,106,-1,106,132,153,-1,106,153,127,-1,127,153,152,-1,147,130,154,-1,154,130,129,-1,154,129,155,-1,155,129,128,-1,155,128,156,-1,156,128,124,-1,156,124,142,-1,142,124,123,-1,142,123,143,-1,143,123,122,-1,143,122,152,-1,152,122,127,-1,130,147,118,-1,118,147,137,-1,118,137,119,-1,119,137,136,-1,119,136,120,-1,120,136,135,-1,49,48,43,-1,43,48,44,-1,47,46,51,-1,51,46,50,-1,35,34,29,-1,29,34,30,-1,33,32,39,-1,39,32,37,-1,23,22,17,-1,17,22,18,-1,21,20,27,-1,27,20,25,-1,
        ]
    }
}
Shape{
    appearance Appearance {
        material  Material 	{
            diffuseColor 0.7529411764705882 0.7529411764705882 0.7529411764705882
            specularColor 0.3764705882352941 0.3764705882352941 0.3764705882352941
            ambientIntensity 0.2
            transparency 0
            shininess 0.5
        }
    }
    geometry IndexedFaceSet {
        ccw TRUE
        solid FALSE
        coord DEF co Coordinate {
            point [
                1.1024 -0.3346 2.3622, 1.1024 -0.3346 0.7874, 1.1024 -0.0984 2.3622, 1.1024 -0.0984 0.7874, 0.8661 -0.0984 2.3622, 0.8661 -0.0984 0.7874, 0.8661 -0.3346 2.3622, 0.8661 -0.3346 0.7874, 1.0307 -0.263 2.5591, 1.0307 -0.1701 2.5591, 0.9378 -0.263 2.5591, 0.9378 -0.1701 2.5591, 0.1181 -0.3346 2.3622, 0.1181 -0.3346 0.7874, 0.1181 -0.0984 2.3622, 0.1181 -0.0984 0.7874, -0.1181 -0.0984 2.3622, -0.1181 -0.0984 0.7874, -0.1181 -0.3346 2.3622, -0.1181 -0.3346 0.7874, 0.0465 -0.263 2.5591, 0.0465 -0.1701 2.5591, -0.0465 -0.263 2.5591, -0.0465 -0.1701 2.5591, 1.1102 -0.3425 -1.1417, 1.1102 -0.3425 0.1969, 0.8583 -0.3425 -1.1417, 0.8583 -0.3425 0.1969, 0.9299 -0.2709 -1.3386, 0.9299 -0.1622 -1.3386, 1.0386 -0.2709 -1.3386, 1.0386 -0.1622 -1.3386, 0.8583 -0.0906 -1.1417, 0.8583 -0.0906 0.1969, 1.1102 -0.0906 -1.1417, 1.1102 -0.0906 0.1969, 0.126 -0.3425 -1.1417, 0.126 -0.3425 0.1969, -0.126 -0.3425 -1.1417, -0.126 -0.3425 0.1969, -0.0543 -0.2709 -1.3386, -0.0543 -0.1622 -1.3386, 0.0543 -0.2709 -1.3386, 0.0543 -0.1622 -1.3386, -0.126 -0.0906 -1.1417, -0.126 -0.0906 0.1969, 0.126 -0.0906 -1.1417, 0.126 -0.0906 0.1969, -0.8583 -0.3425 -1.1417, -0.8583 -0.3425 0.1969, -1.1102 -0.3425 -1.1417, -1.1102 -0.3425 0.1969, -1.0386 -0.2709 -1.3386, -1.0386 -0.1622 -1.3386, -0.9299 -0.2709 -1.3386, -0.9299 -0.1622 -1.3386, -1.1102 -0.0906 -1.1417, -1.1102 -0.0906 0.1969, -0.8583 -0.0906 -1.1417, -0.8583 -0.0906 0.1969, -0.8583 -0.0906 0.1969
            ]
        }
        coordIndex [
            0,1,2,-1,2,1,3,-1,2,3,4,-1,4,3,5,-1,4,5,6,-1,6,5,7,-1,6,7,0,-1,0,7,1,-1,8,9,10,-1,10,9,11,-1,4,11,2,-1,2,11,9,-1,6,10,4,-1,4,10,11,-1,8,0,9,-1,9,0,2,-1,0,8,6,-1,6,8,10,-1,12,13,14,-1,14,13,15,-1,14,15,16,-1,16,15,17,-1,16,17,18,-1,18,17,19,-1,18,19,12,-1,12,19,13,-1,20,21,22,-1,22,21,23,-1,18,22,16,-1,16,22,23,-1,16,23,14,-1,14,23,21,-1,20,12,21,-1,21,12,14,-1,12,20,18,-1,18,20,22,-1,24,25,26,-1,26,25,27,-1,28,29,30,-1,30,29,31,-1,32,33,34,-1,34,33,35,-1,34,35,24,-1,24,35,25,-1,26,27,32,-1,32,27,33,-1,34,31,32,-1,32,31,29,-1,24,30,34,-1,34,30,31,-1,28,26,29,-1,29,26,32,-1,26,28,24,-1,24,28,30,-1,36,37,38,-1,38,37,39,-1,40,41,42,-1,42,41,43,-1,44,45,46,-1,46,45,47,-1,46,47,36,-1,36,47,37,-1,38,39,44,-1,44,39,45,-1,48,49,50,-1,50,49,51,-1,52,53,54,-1,54,53,55,-1,56,57,58,-1,58,57,59,-1,58,59,48,-1,48,59,49,-1,50,51,56,-1,56,51,57,-1,46,43,44,-1,44,43,41,-1,36,42,46,-1,46,42,43,-1,40,38,41,-1,41,38,44,-1,38,40,36,-1,36,40,42,-1,58,55,56,-1,56,55,53,-1,48,54,58,-1,58,54,55,-1,52,50,53,-1,53,50,56,-1,50,52,48,-1,48,52,54,-1,
        ]
    }
}
Shape{
    appearance Appearance {
        material  Material 	{
            diffuseColor 1.0 1.0 1.0
            specularColor 0.5019607843137255 0.5019607843137255 0.5019607843137255
            ambientIntensity 0.2
            transparency 0
            shininess 0.5
        }
    }
    geometry IndexedFaceSet {
        ccw TRUE
        solid FALSE
        coord DEF co Coordinate {
            point [
                1.6535 -0.4528 2.6378, 1.6535 -0.4528 1.5748, 1.7717 -0.4528 2.7559, 1.9685 -0.4528 1.5748, 1.9685 -0.4528 2.7559, 1.9685 -0.6496 1.5748, 1.6535 -0.6496 1.5748, -1.6535 -0.4528 1.5748, -1.6535 -0.4528 2.6378, -1.9685 -0.4528 1.5748, -1.7717 -0.4528 2.7559, -1.9685 -0.4528 2.7559, -1.6535 -0.6496 1.5748, -1.9685 -0.6496 1.5748, 1.6535 -0.8465 1.7717, 1.9685 -0.8465 1.7717, 1.6535 -0.8397 1.7207, 1.9685 -0.8397 1.7207, 1.6535 -0.8201 1.6732, 1.9685 -0.8201 1.6732, 1.6535 -0.7888 1.6325, 1.9685 -0.7888 1.6325, 1.6535 -0.748 1.6012, 1.9685 -0.748 1.6012, 1.6535 -0.7006 1.5815, 1.9685 -0.7006 1.5815, -1.9685 -0.8465 1.7717, -1.6535 -0.8465 1.7717, -1.9685 -0.8397 1.7207, -1.6535 -0.8397 1.7207, -1.9685 -0.8201 1.6732, -1.6535 -0.8201 1.6732, -1.9685 -0.7888 1.6325, -1.6535 -0.7888 1.6325, -1.9685 -0.748 1.6012, -1.6535 -0.748 1.6012, -1.9685 -0.7006 1.5815, -1.6535 -0.7006 1.5815, -1.6535 -0.7006 1.5815
            ]
        }
        coordIndex [
            0,1,2,-1,2,1,3,-1,2,3,4,-1,5,3,6,-1,6,3,1,-1,7,8,9,-1,9,8,10,-1,9,10,11,-1,12,7,13,-1,13,7,9,-1,14,15,16,-1,16,15,17,-1,16,17,18,-1,18,17,19,-1,18,19,20,-1,20,19,21,-1,20,21,22,-1,22,21,23,-1,22,23,24,-1,24,23,25,-1,24,25,6,-1,6,25,5,-1,26,27,28,-1,28,27,29,-1,28,29,30,-1,30,29,31,-1,30,31,32,-1,32,31,33,-1,32,33,34,-1,34,33,35,-1,34,35,36,-1,36,35,37,-1,36,37,13,-1,13,37,12,-1,
        ]
    }
}
Shape{
    appearance Appearance {
        material  Material 	{
            diffuseColor 0.0 0.0 0.0
            specularColor 0.0 0.0 0.0
            ambientIntensity 0.2
            transparency 0
            shininess 0.5
        }
    }
    geometry IndexedFaceSet {
        ccw TRUE
        solid FALSE
        coord DEF co Coordinate {
            point [
                -0.0435 1.1654 2.3823, -0.0435 1.1654 2.3701, -0.0435 1.1614 2.3823, -0.0435 1.1614 2.3701, -0.001 1.1654 2.3823, -0.001 1.1614 2.3823, -0.001 1.1654 2.4769, -0.001 1.1614 2.4769, 0.0128 1.1654 2.4769, 0.0128 1.1614 2.4769, 0.0128 1.1654 2.3701, 0.0128 1.1614 2.3701, -0.0982 1.1654 2.3683, -0.0982 1.1614 2.3683, -0.1145 1.1614 2.3699, -0.1232 1.1614 2.3727, -0.126 1.1654 2.3736, -0.1145 1.1654 2.3699, -0.126 1.1614 2.3736, -0.1278 1.1614 2.3745, -0.1278 1.1654 2.3745, -0.1278 1.1654 2.3878, -0.1278 1.1614 2.3878, -0.1232 1.1614 2.3857, -0.1173 1.1654 2.383, -0.1173 1.1614 2.383, -0.1052 1.1614 2.3808, -0.1052 1.1654 2.3808, -0.1002 1.1614 2.3806, -0.1002 1.1654 2.3806, -0.0911 1.1614 2.3815, -0.0911 1.1654 2.3815, -0.0832 1.1614 2.3842, -0.0832 1.1654 2.3842, -0.0759 1.1614 2.3888, -0.0759 1.1654 2.3888, -0.0728 1.1614 2.3918, -0.0728 1.1654 2.3918, -0.068 1.1614 2.3983, -0.068 1.1654 2.3983, -0.0644 1.1614 2.4068, -0.0644 1.1654 2.4068, -0.0625 1.1614 2.4172, -0.0625 1.1654 2.4172, -0.0623 1.1614 2.4223, -0.0623 1.1654 2.4223, -0.0641 1.1614 2.437, -0.0641 1.1654 2.437, -0.0677 1.1614 2.4462, -0.0677 1.1654 2.4462, -0.0728 1.1614 2.4536, -0.0728 1.1654 2.4536, -0.0735 1.1614 2.4544, -0.0735 1.1654 2.4544, -0.0799 1.1614 2.4598, -0.0799 1.1654 2.4598, -0.0882 1.1614 2.464, -0.0882 1.1654 2.464, -0.0973 1.1614 2.466, -0.0973 1.1654 2.466, -0.1026 1.1614 2.4662, -0.1026 1.1654 2.4662, -0.1158 1.1614 2.4647, -0.1232 1.1614 2.4618, -0.1266 1.1654 2.4606, -0.1158 1.1654 2.4647, -0.1266 1.1614 2.4606, -0.1278 1.1614 2.4599, -0.1278 1.1654 2.4599, -0.1278 1.1654 2.4743, -0.1278 1.1614 2.4743, -0.1232 1.1614 2.4756, -0.1165 1.1654 2.4776, -0.1025 1.1614 2.4787, -0.1025 1.1654 2.4787, -0.1139 1.1614 2.4778, -0.1165 1.1614 2.4776, -0.0951 1.1614 2.4778, -0.087 1.1654 2.4768, -0.087 1.1614 2.4768, -0.0759 1.1614 2.4725, -0.0759 1.1654 2.4725, -0.0659 1.1614 2.4655, -0.0659 1.1654 2.4655, -0.0633 1.1614 2.463, -0.0633 1.1654 2.463, -0.0555 1.1614 2.4529, -0.0526 1.1614 2.4461, -0.0505 1.1654 2.441, -0.0555 1.1654 2.4529, -0.0505 1.1614 2.441, -0.048 1.1614 2.4271, -0.048 1.1654 2.4271, -0.0479 1.1614 2.4215, -0.0479 1.1654 2.4215, -0.05 1.1614 2.4041, -0.0526 1.1614 2.3973, -0.0543 1.1654 2.393, -0.05 1.1654 2.4041, -0.0543 1.1614 2.393, -0.0607 1.1614 2.3838, -0.0607 1.1654 2.3838, -0.0616 1.1614 2.3829, -0.0616 1.1654 2.3829, -0.0701 1.1614 2.3758, -0.0701 1.1654 2.3758, -0.0802 1.1614 2.371, -0.0802 1.1654 2.371, -0.0918 1.1614 2.3686, -0.0918 1.1654 2.3686, -0.2066 1.1654 2.3823, -0.2066 1.1654 2.3701, -0.2066 1.1614 2.3823, -0.2066 1.1614 2.3701, -0.1629 1.1614 2.3823, -0.1629 1.1654 2.3823, -0.1918 1.1614 2.3823, -0.1629 1.1654 2.4182, -0.1629 1.1614 2.4182, -0.2011 1.1654 2.4182, -0.1918 1.1614 2.4182, -0.2011 1.1614 2.4182, -0.2011 1.1654 2.4304, -0.2011 1.1614 2.4304, -0.1629 1.1614 2.4304, -0.1629 1.1654 2.4304, -0.1918 1.1614 2.4304, -0.1629 1.1654 2.4646, -0.1629 1.1614 2.4646, -0.2041 1.1614 2.4646, -0.2041 1.1654 2.4646, -0.1918 1.1614 2.4646, -0.2041 1.1654 2.4769, -0.2041 1.1614 2.4769, -0.1492 1.1614 2.4769, -0.1492 1.1654 2.4769, -0.1918 1.1614 2.4769, -0.1492 1.1654 2.3701, -0.1492 1.1614 2.3701, -0.1918 1.1614 2.3701, -0.2976 1.1654 2.3851, -0.2865 1.1654 2.3923, -0.2864 1.1654 2.3771, -0.2796 1.1654 2.3875, -0.2742 1.1654 2.3723, -0.2708 1.1654 2.3841, -0.2561 1.1654 2.3701, -0.256 1.1654 2.3823, -0.2267 1.1654 2.3701, -0.2405 1.1654 2.3823, -0.2267 1.1654 2.4769, -0.2405 1.1654 2.4646, -0.2572 1.1654 2.4769, -0.2566 1.1654 2.4646, -0.2581 1.1654 2.4646, -0.2735 1.1654 2.4751, -0.2716 1.1654 2.4628, -0.2864 1.1654 2.4704, -0.2807 1.1654 2.4592, -0.2976 1.1654 2.4627, -0.2875 1.1654 2.4546, -0.3013 1.1654 2.4591, -0.2904 1.1654 2.4516, -0.3079 1.1654 2.4498, -0.2946 1.1654 2.4457, -0.3119 1.1654 2.4396, -0.2976 1.1654 2.4379, -0.3137 1.1654 2.4249, -0.2992 1.1654 2.4245, -0.3133 1.1654 2.4181, -0.2987 1.1654 2.4169, -0.3108 1.1654 2.4056, -0.2965 1.1654 2.4073, -0.3055 1.1654 2.3945, -0.2927 1.1654 2.3995, -0.2878 1.1654 2.3934, -0.2561 1.1614 2.3701, -0.2267 1.1614 2.3701, -0.2742 1.1614 2.3723, -0.2864 1.1614 2.3771, -0.2976 1.1614 2.3851, -0.3055 1.1614 2.3945, -0.3108 1.1614 2.4056, -0.3133 1.1614 2.4181, -0.3137 1.1614 2.4249, -0.3119 1.1614 2.4396, -0.3079 1.1614 2.4498, -0.3013 1.1614 2.4591, -0.2976 1.1614 2.4627, -0.2864 1.1614 2.4704, -0.2735 1.1614 2.4751, -0.2572 1.1614 2.4769, -0.2267 1.1614 2.4769, -0.2566 1.1614 2.4646, -0.2405 1.1614 2.4646, -0.2405 1.1614 2.3823, -0.256 1.1614 2.3823, -0.2878 1.1614 2.3934, -0.2865 1.1614 2.3923, -0.2796 1.1614 2.3875, -0.2708 1.1614 2.3841, -0.2992 1.1614 2.4245, -0.2987 1.1614 2.4169, -0.2965 1.1614 2.4073, -0.2927 1.1614 2.3995, -0.2875 1.1614 2.4546, -0.2904 1.1614 2.4516, -0.2946 1.1614 2.4457, -0.2976 1.1614 2.4379, -0.2581 1.1614 2.4646, -0.2716 1.1614 2.4628, -0.2807 1.1614 2.4592, -0.2807 1.1614 2.4592
            ]
        }
        coordIndex [
            0,1,2,-1,2,1,3,-1,4,0,5,-1,5,0,2,-1,6,4,7,-1,7,4,5,-1,8,6,9,-1,9,6,7,-1,10,8,11,-1,11,8,9,-1,1,10,3,-1,3,10,11,-1,6,8,4,-1,4,8,10,-1,4,10,0,-1,0,10,1,-1,12,13,14,-1,15,16,14,-1,14,16,17,-1,14,17,12,-1,15,18,16,-1,16,18,19,-1,16,19,20,-1,21,20,22,-1,22,20,19,-1,21,22,23,-1,21,23,24,-1,23,25,24,-1,24,25,26,-1,24,26,27,-1,27,26,28,-1,27,28,29,-1,29,28,30,-1,29,30,31,-1,31,30,32,-1,31,32,33,-1,33,32,34,-1,33,34,35,-1,35,34,36,-1,35,36,37,-1,37,36,38,-1,37,38,39,-1,39,38,40,-1,39,40,41,-1,41,40,42,-1,41,42,43,-1,43,42,44,-1,43,44,45,-1,45,44,46,-1,45,46,47,-1,47,46,48,-1,47,48,49,-1,49,48,50,-1,49,50,51,-1,51,50,52,-1,51,52,53,-1,53,52,54,-1,53,54,55,-1,55,54,56,-1,55,56,57,-1,57,56,58,-1,57,58,59,-1,59,58,60,-1,59,60,61,-1,61,60,62,-1,63,64,62,-1,62,64,65,-1,62,65,61,-1,63,66,64,-1,64,66,67,-1,64,67,68,-1,69,68,70,-1,70,68,67,-1,69,70,71,-1,69,71,72,-1,73,74,75,-1,75,74,72,-1,75,72,76,-1,76,72,71,-1,74,73,77,-1,74,77,78,-1,77,79,78,-1,78,79,80,-1,78,80,81,-1,81,80,82,-1,81,82,83,-1,83,82,84,-1,83,84,85,-1,85,84,86,-1,87,88,86,-1,86,88,89,-1,86,89,85,-1,87,90,88,-1,88,90,91,-1,88,91,92,-1,92,91,93,-1,92,93,94,-1,94,93,95,-1,96,97,95,-1,95,97,98,-1,95,98,94,-1,96,99,97,-1,97,99,100,-1,97,100,101,-1,101,100,102,-1,101,102,103,-1,103,102,104,-1,103,104,105,-1,105,104,106,-1,105,106,107,-1,107,106,108,-1,107,108,109,-1,109,108,13,-1,109,13,12,-1,55,57,78,-1,47,49,89,-1,89,49,85,-1,78,57,74,-1,94,45,92,-1,92,45,47,-1,92,47,88,-1,88,47,89,-1,57,59,74,-1,74,59,61,-1,74,61,72,-1,72,61,65,-1,72,65,69,-1,69,65,64,-1,69,64,68,-1,20,21,16,-1,16,21,24,-1,16,24,17,-1,17,24,27,-1,17,27,12,-1,12,27,29,-1,12,29,109,-1,109,29,31,-1,109,31,107,-1,107,31,33,-1,107,33,105,-1,105,33,35,-1,105,35,103,-1,103,35,37,-1,103,37,101,-1,101,37,39,-1,101,39,97,-1,97,39,98,-1,98,39,41,-1,98,41,94,-1,94,41,43,-1,94,43,45,-1,49,51,85,-1,85,51,53,-1,85,53,83,-1,83,53,55,-1,83,55,81,-1,81,55,78,-1,110,111,112,-1,112,111,113,-1,114,115,116,-1,116,115,110,-1,116,110,112,-1,117,115,118,-1,118,115,114,-1,117,118,119,-1,119,118,120,-1,119,120,121,-1,122,119,123,-1,123,119,121,-1,124,125,126,-1,126,125,122,-1,126,122,123,-1,127,125,128,-1,128,125,124,-1,129,130,131,-1,131,130,127,-1,131,127,128,-1,132,130,133,-1,133,130,129,-1,134,135,136,-1,136,135,132,-1,136,132,133,-1,137,135,138,-1,138,135,134,-1,113,111,139,-1,139,111,137,-1,139,137,138,-1,130,132,127,-1,127,132,135,-1,127,135,125,-1,111,110,137,-1,137,110,115,-1,137,115,117,-1,119,122,117,-1,117,122,125,-1,117,125,137,-1,137,125,135,-1,140,141,142,-1,142,141,143,-1,142,143,144,-1,144,143,145,-1,144,145,146,-1,146,145,147,-1,146,147,148,-1,148,147,149,-1,148,149,150,-1,150,149,151,-1,150,151,152,-1,151,153,152,-1,152,153,154,-1,152,154,155,-1,155,154,156,-1,155,156,157,-1,157,156,158,-1,157,158,159,-1,159,158,160,-1,159,160,161,-1,161,160,162,-1,161,162,163,-1,163,162,164,-1,163,164,165,-1,165,164,166,-1,165,166,167,-1,167,166,168,-1,167,168,169,-1,169,168,170,-1,169,170,171,-1,171,170,172,-1,171,172,173,-1,173,172,174,-1,173,174,140,-1,140,174,175,-1,140,175,141,-1,146,148,176,-1,176,148,177,-1,146,176,178,-1,146,178,144,-1,144,178,179,-1,144,179,142,-1,142,179,180,-1,142,180,140,-1,140,180,181,-1,140,181,173,-1,173,181,182,-1,173,182,171,-1,171,182,183,-1,171,183,169,-1,169,183,184,-1,169,184,167,-1,167,184,185,-1,167,185,165,-1,165,185,186,-1,165,186,163,-1,163,186,187,-1,163,187,161,-1,161,187,188,-1,161,188,159,-1,159,188,189,-1,159,189,157,-1,157,189,190,-1,157,190,155,-1,155,190,191,-1,155,191,152,-1,150,152,192,-1,192,152,191,-1,148,150,177,-1,177,150,192,-1,153,151,193,-1,193,151,194,-1,151,149,194,-1,194,149,195,-1,149,147,195,-1,195,147,196,-1,175,197,198,-1,175,198,141,-1,141,198,199,-1,141,199,143,-1,143,199,200,-1,143,200,145,-1,145,200,196,-1,145,196,147,-1,168,201,202,-1,168,202,170,-1,170,202,203,-1,170,203,172,-1,172,203,204,-1,172,204,174,-1,174,204,197,-1,174,197,175,-1,160,205,206,-1,160,206,162,-1,162,206,207,-1,162,207,164,-1,164,207,208,-1,164,208,166,-1,166,208,201,-1,166,201,168,-1,153,193,209,-1,153,209,154,-1,154,209,210,-1,154,210,156,-1,156,210,211,-1,156,211,158,-1,158,211,205,-1,158,205,160,-1,
        ]
    }
}
Shape{
    appearance Appearance {
        material  Material 	{
            diffuseColor 1.0 1.0 1.0
            specularColor 0.5019607843137255 0.5019607843137255 0.5019607843137255
            ambientIntensity 0.2
            transparency 0
            shininess 0.5
        }
    }
    geometry IndexedFaceSet {
        ccw TRUE
        solid FALSE
        coord DEF co Coordinate {
            point [
                -0.2405 1.1614 2.4646, -0.2405 1.1614 2.3823, -0.2566 1.1614 2.4646, -0.256 1.1614 2.3823, -0.2581 1.1614 2.4646, -0.2708 1.1614 2.3841, -0.2796 1.1614 2.3875, -0.2865 1.1614 2.3923, -0.2878 1.1614 2.3934, -0.2927 1.1614 2.3995, -0.2992 1.1614 2.4245, -0.2875 1.1614 2.4546, -0.2987 1.1614 2.4169, -0.2807 1.1614 2.4592, -0.2965 1.1614 2.4073, -0.2716 1.1614 2.4628, -0.2976 1.1614 2.4379, -0.2946 1.1614 2.4457, -0.2904 1.1614 2.4516, -0.2904 1.1614 2.4516
            ]
        }
        coordIndex [
            0,1,2,-1,2,1,3,-1,2,3,4,-1,4,3,5,-1,4,5,6,-1,6,7,4,-1,4,7,8,-1,4,8,9,-1,10,11,12,-1,12,11,13,-1,9,14,4,-1,4,14,12,-1,4,12,15,-1,15,12,13,-1,16,17,10,-1,10,17,18,-1,10,18,11,-1,
        ]
    }
}
Shape{
    appearance Appearance {
        material  Material 	{
            diffuseColor 0.0 0.0 0.0
            specularColor 0.0 0.0 0.0
            ambientIntensity 0.2
            transparency 0
            shininess 0.5
        }
    }
    geometry IndexedFaceSet {
        ccw TRUE
        solid FALSE
        coord DEF co Coordinate {
            point [
                -0.3494 1.1654 2.4114, -0.3654 1.1654 2.4558, -0.3602 1.1654 2.4769, -0.3196 1.1654 2.3701, -0.3348 1.1654 2.3701, -0.3451 1.1654 2.3993, -0.3663 1.1654 2.4589, -0.3671 1.1654 2.4632, -0.375 1.1654 2.4769, -0.3675 1.1654 2.4632, -0.3683 1.1654 2.4587, -0.3691 1.1654 2.4558, -0.3853 1.1654 2.4114, -0.4156 1.1654 2.3701, -0.4004 1.1654 2.3701, -0.3895 1.1654 2.3993, -0.375 1.1614 2.4769, -0.4156 1.1614 2.3701, -0.3602 1.1614 2.4769, -0.3196 1.1614 2.3701, -0.3503 1.1614 2.4509, -0.3348 1.1614 2.3701, -0.3451 1.1614 2.3993, -0.3895 1.1614 2.3993, -0.3503 1.1614 2.3993, -0.4004 1.1614 2.3701, -0.3494 1.1614 2.4114, -0.3853 1.1614 2.4114, -0.3691 1.1614 2.4558, -0.3675 1.1614 2.4632, -0.3683 1.1614 2.4587, -0.3671 1.1614 2.4632, -0.3654 1.1614 2.4558, -0.3663 1.1614 2.4589, -0.3663 1.1614 2.4589
            ]
        }
        coordIndex [
            0,1,2,-1,3,4,5,-1,1,6,2,-1,2,6,7,-1,2,7,8,-1,8,7,9,-1,8,9,10,-1,10,11,8,-1,8,11,12,-1,8,12,13,-1,14,13,15,-1,15,13,12,-1,15,12,5,-1,5,12,0,-1,5,0,3,-1,3,0,2,-1,8,13,16,-1,16,13,17,-1,2,8,18,-1,18,8,16,-1,19,3,20,-1,20,3,2,-1,20,2,18,-1,4,3,21,-1,21,3,19,-1,5,4,22,-1,22,4,21,-1,23,15,24,-1,24,15,5,-1,24,5,22,-1,14,15,25,-1,25,15,23,-1,13,14,17,-1,17,14,25,-1,0,12,26,-1,26,12,27,-1,12,11,27,-1,27,11,28,-1,9,29,30,-1,9,30,10,-1,10,30,28,-1,10,28,11,-1,9,7,29,-1,29,7,31,-1,1,32,33,-1,1,33,6,-1,6,33,31,-1,6,31,7,-1,1,0,32,-1,32,0,26,-1,
        ]
    }
}
Shape{
    appearance Appearance {
        material  Material 	{
            diffuseColor 1.0 1.0 1.0
            specularColor 0.5019607843137255 0.5019607843137255 0.5019607843137255
            ambientIntensity 0.2
            transparency 0
            shininess 0.5
        }
    }
    geometry IndexedFaceSet {
        ccw TRUE
        solid FALSE
        coord DEF co Coordinate {
            point [
                -0.3675 1.1614 2.4632, -0.3671 1.1614 2.4632, -0.3683 1.1614 2.4587, -0.3663 1.1614 2.4589, -0.3691 1.1614 2.4558, -0.3654 1.1614 2.4558, -0.3853 1.1614 2.4114, -0.3494 1.1614 2.4114, -0.3494 1.1614 2.4114
            ]
        }
        coordIndex [
            0,1,2,-1,2,1,3,-1,2,3,4,-1,4,3,5,-1,4,5,6,-1,6,5,7,-1,
        ]
    }
}
Shape{
    appearance Appearance {
        material  Material 	{
            diffuseColor 0.0 0.0 0.0
            specularColor 0.0 0.0 0.0
            ambientIntensity 0.2
            transparency 0
            shininess 0.5
        }
    }
    geometry IndexedFaceSet {
        ccw TRUE
        solid FALSE
        coord DEF co Coordinate {
            point [
                -0.0446 1.1654 2.2129, -0.0446 1.1654 2.2008, -0.0446 1.1614 2.2129, -0.0446 1.1614 2.2008, -0.001 1.1654 2.2129, -0.001 1.1614 2.2129, -0.001 1.1654 2.2488, -0.001 1.1614 2.2488, -0.0391 1.1654 2.2488, -0.0391 1.1614 2.2488, -0.0391 1.1654 2.2611, -0.0391 1.1614 2.2611, -0.001 1.1654 2.2611, -0.001 1.1614 2.2611, -0.001 1.1654 2.2952, -0.001 1.1614 2.2952, -0.0422 1.1654 2.2952, -0.0422 1.1614 2.2952, -0.0422 1.1654 2.3075, -0.0422 1.1614 2.3075, 0.0128 1.1654 2.3075, 0.0128 1.1614 2.3075, 0.0128 1.1654 2.2008, 0.0128 1.1614 2.2008, -0.1053 1.1654 2.2008, -0.1187 1.1654 2.2008, -0.1053 1.1654 2.2126, -0.1187 1.1654 2.2498, -0.0757 1.1654 2.2329, -0.0786 1.1654 2.2344, -0.1053 1.1654 2.2492, -0.0874 1.1654 2.2366, -0.1053 1.1654 2.239, -0.1049 1.1654 2.2126, -0.0979 1.1654 2.2145, -0.1018 1.1654 2.208, -0.0941 1.1654 2.212, -0.1053 1.1654 2.2317, -0.1178 1.1654 2.2594, -0.1053 1.1654 2.2308, -0.1044 1.1654 2.2249, -0.1025 1.1654 2.2201, -0.0996 1.1654 2.2162, -0.0649 1.1654 2.2717, -0.0649 1.1654 2.2587, -0.0676 1.1654 2.2733, -0.0741 1.1654 2.2645, -0.0776 1.1654 2.2771, -0.0824 1.1654 2.2672, -0.0911 1.1654 2.2788, -0.0899 1.1654 2.2679, -0.0996 1.1654 2.2779, -0.0944 1.1654 2.2674, -0.1051 1.1654 2.2762, -0.0975 1.1654 2.2663, -0.1095 1.1654 2.2736, -0.0999 1.1654 2.2648, -0.113 1.1654 2.2701, -0.1019 1.1654 2.2627, -0.1157 1.1654 2.2657, -0.1034 1.1654 2.2599, -0.1048 1.1654 2.2551, -0.0737 1.1654 2.2145, -0.064 1.1654 2.205, -0.0748 1.1654 2.2134, -0.0685 1.1654 2.2018, -0.0775 1.1654 2.2116, -0.0736 1.1654 2.1999, -0.0805 1.1654 2.2104, -0.0816 1.1654 2.199, -0.085 1.1654 2.2099, -0.089 1.1654 2.1999, -0.0901 1.1654 2.2105, -0.0943 1.1654 2.2019, -0.0974 1.1654 2.2039, -0.0827 1.1654 2.2461, -0.0717 1.1654 2.2432, -0.0745 1.1654 2.2319, -0.0663 1.1654 2.2403, -0.0729 1.1654 2.2299, -0.0624 1.1654 2.2367, -0.0717 1.1654 2.2275, -0.0596 1.1654 2.2323, -0.0711 1.1654 2.2244, -0.058 1.1654 2.2274, -0.071 1.1654 2.2223, -0.0574 1.1654 2.2212, -0.0713 1.1654 2.2192, -0.0581 1.1654 2.2151, -0.0722 1.1654 2.2168, -0.0597 1.1654 2.2106, -0.0625 1.1654 2.2065, -0.0911 1.1614 2.2788, -0.0776 1.1614 2.2771, -0.0676 1.1614 2.2733, -0.0649 1.1614 2.2717, -0.0649 1.1614 2.2587, -0.0741 1.1614 2.2645, -0.0824 1.1614 2.2672, -0.0899 1.1614 2.2679, -0.0944 1.1614 2.2674, -0.0975 1.1614 2.2663, -0.0999 1.1614 2.2648, -0.1019 1.1614 2.2627, -0.1034 1.1614 2.2599, -0.1048 1.1614 2.2551, -0.1053 1.1614 2.2492, -0.0827 1.1614 2.2461, -0.0717 1.1614 2.2432, -0.0663 1.1614 2.2403, -0.0624 1.1614 2.2367, -0.0596 1.1614 2.2323, -0.058 1.1614 2.2274, -0.0574 1.1614 2.2212, -0.0581 1.1614 2.2151, -0.0597 1.1614 2.2106, -0.0625 1.1614 2.2065, -0.064 1.1614 2.205, -0.0816 1.1614 2.199, -0.0738 1.1614 2.1999, -0.0736 1.1614 2.1999, -0.0685 1.1614 2.2018, -0.089 1.1614 2.1999, -0.089 1.1614 2.1999, -0.0943 1.1614 2.2019, -0.0974 1.1614 2.2039, -0.1018 1.1614 2.208, -0.1049 1.1614 2.2126, -0.1053 1.1614 2.2126, -0.1053 1.1614 2.2008, -0.1187 1.1614 2.2008, -0.1187 1.1614 2.2498, -0.1178 1.1614 2.2594, -0.1157 1.1614 2.2657, -0.113 1.1614 2.2701, -0.1095 1.1614 2.2736, -0.1051 1.1614 2.2762, -0.0996 1.1614 2.2779, -0.0745 1.1614 2.2319, -0.0757 1.1614 2.2329, -0.0786 1.1614 2.2344, -0.0874 1.1614 2.2366, -0.071 1.1614 2.2223, -0.0711 1.1614 2.2244, -0.0717 1.1614 2.2275, -0.0729 1.1614 2.2299, -0.0748 1.1614 2.2134, -0.0737 1.1614 2.2145, -0.0722 1.1614 2.2168, -0.0713 1.1614 2.2192, -0.085 1.1614 2.2099, -0.0805 1.1614 2.2104, -0.0775 1.1614 2.2116, -0.0996 1.1614 2.2162, -0.0979 1.1614 2.2145, -0.0941 1.1614 2.212, -0.0901 1.1614 2.2105, -0.1053 1.1614 2.2317, -0.1053 1.1614 2.2308, -0.1044 1.1614 2.2249, -0.1025 1.1614 2.2201, -0.1053 1.1614 2.239, -0.1053 1.1614 2.239
            ]
        }
        coordIndex [
            0,1,2,-1,2,1,3,-1,4,0,5,-1,5,0,2,-1,6,4,7,-1,7,4,5,-1,8,6,9,-1,9,6,7,-1,10,8,11,-1,11,8,9,-1,12,10,13,-1,13,10,11,-1,14,12,15,-1,15,12,13,-1,16,14,17,-1,17,14,15,-1,18,16,19,-1,19,16,17,-1,20,18,21,-1,21,18,19,-1,22,20,23,-1,23,20,21,-1,1,22,3,-1,3,22,23,-1,22,1,0,-1,0,4,22,-1,22,4,6,-1,22,6,20,-1,16,18,14,-1,14,18,20,-1,14,20,12,-1,12,20,6,-1,12,6,10,-1,10,6,8,-1,24,25,26,-1,26,25,27,-1,28,29,30,-1,30,29,31,-1,30,31,32,-1,33,34,35,-1,35,34,36,-1,37,27,32,-1,32,27,38,-1,32,38,30,-1,37,39,27,-1,27,39,40,-1,27,40,26,-1,26,40,41,-1,26,41,33,-1,33,41,42,-1,33,42,34,-1,43,44,45,-1,45,44,46,-1,45,46,47,-1,47,46,48,-1,47,48,49,-1,49,48,50,-1,49,50,51,-1,51,50,52,-1,51,52,53,-1,53,52,54,-1,53,54,55,-1,55,54,56,-1,55,56,57,-1,57,56,58,-1,57,58,59,-1,59,58,60,-1,59,60,38,-1,38,60,61,-1,38,61,30,-1,62,63,64,-1,64,63,65,-1,64,65,66,-1,66,65,67,-1,66,67,68,-1,68,67,69,-1,68,69,70,-1,70,69,71,-1,70,71,72,-1,72,71,73,-1,72,73,36,-1,36,73,74,-1,36,74,35,-1,30,75,28,-1,28,75,76,-1,28,76,77,-1,77,76,78,-1,77,78,79,-1,79,78,80,-1,79,80,81,-1,81,80,82,-1,81,82,83,-1,83,82,84,-1,83,84,85,-1,85,84,86,-1,85,86,87,-1,87,86,88,-1,87,88,89,-1,89,88,90,-1,89,90,62,-1,62,90,91,-1,62,91,63,-1,49,92,93,-1,49,93,47,-1,47,93,94,-1,47,94,45,-1,45,94,95,-1,45,95,43,-1,44,43,96,-1,96,43,95,-1,44,96,97,-1,44,97,46,-1,46,97,98,-1,46,98,48,-1,48,98,99,-1,48,99,50,-1,50,99,100,-1,50,100,52,-1,52,100,101,-1,52,101,54,-1,54,101,102,-1,54,102,56,-1,56,102,103,-1,56,103,58,-1,58,103,104,-1,58,104,60,-1,60,104,105,-1,60,105,61,-1,61,105,106,-1,61,106,30,-1,75,30,107,-1,107,30,106,-1,75,107,108,-1,75,108,76,-1,76,108,109,-1,76,109,78,-1,78,109,110,-1,78,110,80,-1,80,110,111,-1,80,111,82,-1,82,111,112,-1,82,112,84,-1,84,112,113,-1,84,113,86,-1,86,113,114,-1,86,114,88,-1,88,114,115,-1,88,115,90,-1,90,115,116,-1,90,116,91,-1,91,116,117,-1,91,117,63,-1,118,69,119,-1,119,69,67,-1,119,67,120,-1,120,67,65,-1,120,65,121,-1,121,65,63,-1,121,63,117,-1,69,118,122,-1,69,122,71,-1,71,122,123,-1,71,123,73,-1,123,124,73,-1,73,124,125,-1,73,125,74,-1,74,125,126,-1,74,126,35,-1,35,126,127,-1,35,127,33,-1,26,33,128,-1,128,33,127,-1,24,26,129,-1,129,26,128,-1,25,24,130,-1,130,24,129,-1,27,25,131,-1,131,25,130,-1,27,131,132,-1,27,132,38,-1,38,132,133,-1,38,133,59,-1,59,133,134,-1,59,134,57,-1,57,134,135,-1,57,135,55,-1,55,135,136,-1,55,136,53,-1,53,136,137,-1,53,137,51,-1,51,137,92,-1,51,92,49,-1,77,138,139,-1,77,139,28,-1,28,139,140,-1,28,140,29,-1,29,140,141,-1,29,141,31,-1,85,142,143,-1,85,143,83,-1,83,143,144,-1,83,144,81,-1,81,144,145,-1,81,145,79,-1,79,145,138,-1,79,138,77,-1,64,146,147,-1,64,147,62,-1,62,147,148,-1,62,148,89,-1,89,148,149,-1,89,149,87,-1,87,149,142,-1,87,142,85,-1,70,150,151,-1,70,151,68,-1,68,151,152,-1,68,152,66,-1,66,152,146,-1,66,146,64,-1,42,153,154,-1,42,154,34,-1,34,154,155,-1,34,155,36,-1,36,155,156,-1,36,156,72,-1,72,156,150,-1,72,150,70,-1,37,157,158,-1,37,158,39,-1,39,158,159,-1,39,159,40,-1,40,159,160,-1,40,160,41,-1,41,160,153,-1,41,153,42,-1,37,32,157,-1,157,32,161,-1,32,31,161,-1,161,31,141,-1,
        ]
    }
}
Shape{
    appearance Appearance {
        material  Material 	{
            diffuseColor 1.0 1.0 1.0
            specularColor 0.5019607843137255 0.5019607843137255 0.5019607843137255
            ambientIntensity 0.2
            transparency 0
            shininess 0.5
        }
    }
    geometry IndexedFaceSet {
        ccw TRUE
        solid FALSE
        coord DEF co Coordinate {
            point [
                -0.1053 1.1614 2.2308, -0.1053 1.1614 2.2317, -0.0745 1.1614 2.2319, -0.1053 1.1614 2.239, -0.0874 1.1614 2.2366, -0.0786 1.1614 2.2344, -0.0757 1.1614 2.2329, -0.1044 1.1614 2.2249, -0.0729 1.1614 2.2299, -0.1025 1.1614 2.2201, -0.0737 1.1614 2.2145, -0.0748 1.1614 2.2134, -0.0979 1.1614 2.2145, -0.0722 1.1614 2.2168, -0.0941 1.1614 2.212, -0.0901 1.1614 2.2105, -0.085 1.1614 2.2099, -0.0717 1.1614 2.2275, -0.0711 1.1614 2.2244, -0.0996 1.1614 2.2162, -0.071 1.1614 2.2223, -0.0713 1.1614 2.2192, -0.0775 1.1614 2.2116, -0.0805 1.1614 2.2104, -0.0805 1.1614 2.2104
            ]
        }
        coordIndex [
            0,1,2,-1,1,3,4,-1,4,5,1,-1,1,5,6,-1,1,6,2,-1,0,2,7,-1,7,2,8,-1,7,8,9,-1,10,11,12,-1,10,12,13,-1,14,12,15,-1,15,12,16,-1,8,17,9,-1,9,17,18,-1,9,18,19,-1,19,18,20,-1,19,20,12,-1,12,20,21,-1,12,21,13,-1,11,22,12,-1,12,22,23,-1,12,23,16,-1,
        ]
    }
}
Shape{
    appearance Appearance {
        material  Material 	{
            diffuseColor 0.0 0.0 0.0
            specularColor 0.0 0.0 0.0
            ambientIntensity 0.2
            transparency 0
            shininess 0.5
        }
    }
    geometry IndexedFaceSet {
        ccw TRUE
        solid FALSE
        coord DEF co Coordinate {
            point [
                -0.1368 1.1614 2.2172, -0.1368 1.1654 2.2172, -0.1423 1.1654 2.2138, -0.1588 1.1654 2.2099, -0.1588 1.1614 2.2099, -0.1507 1.1614 2.2108, -0.1507 1.1654 2.2108, -0.143 1.1614 2.2136, -0.1423 1.1614 2.2138, -0.1368 1.1654 2.2034, -0.1368 1.1614 2.2034, -0.143 1.1614 2.2011, -0.1447 1.1654 2.2005, -0.1575 1.1614 2.199, -0.1575 1.1654 2.199, -0.1499 1.1614 2.1999, -0.1447 1.1614 2.2005, -0.1695 1.1654 2.2004, -0.1651 1.1614 2.1999, -0.1695 1.1614 2.2004, -0.1765 1.1614 2.2031, -0.1765 1.1654 2.2031, -0.1797 1.1614 2.205, -0.1797 1.1654 2.205, -0.1835 1.1614 2.2084, -0.1835 1.1654 2.2084, -0.186 1.1614 2.2119, -0.186 1.1654 2.2119, -0.1877 1.1614 2.2161, -0.1877 1.1654 2.2161, -0.1883 1.1614 2.2215, -0.1883 1.1654 2.2215, -0.1877 1.1614 2.2265, -0.1877 1.1654 2.2265, -0.1863 1.1614 2.2304, -0.1863 1.1654 2.2304, -0.1838 1.1614 2.2341, -0.1838 1.1654 2.2341, -0.1806 1.1614 2.237, -0.1806 1.1654 2.237, -0.1717 1.1614 2.2419, -0.1717 1.1654 2.2419, -0.1666 1.1614 2.244, -0.1666 1.1654 2.244, -0.1583 1.1614 2.2476, -0.1583 1.1654 2.2476, -0.1536 1.1614 2.2505, -0.1536 1.1654 2.2505, -0.1523 1.1614 2.252, -0.1523 1.1654 2.252, -0.1513 1.1614 2.2538, -0.1513 1.1654 2.2538, -0.1508 1.1614 2.2559, -0.1508 1.1654 2.2559, -0.1507 1.1614 2.2576, -0.1507 1.1654 2.2576, -0.1509 1.1614 2.2598, -0.1509 1.1654 2.2598, -0.1516 1.1614 2.2616, -0.1516 1.1654 2.2616, -0.1527 1.1614 2.2633, -0.1527 1.1654 2.2633, -0.1547 1.1614 2.2651, -0.1547 1.1654 2.2651, -0.1577 1.1614 2.2667, -0.1577 1.1654 2.2667, -0.1613 1.1614 2.2676, -0.1613 1.1654 2.2676, -0.1653 1.1614 2.2679, -0.1653 1.1654 2.2679, -0.1736 1.1614 2.267, -0.1736 1.1654 2.267, -0.1812 1.1614 2.2643, -0.1812 1.1654 2.2643, -0.1846 1.1614 2.2624, -0.1846 1.1654 2.2624, -0.1846 1.1654 2.2754, -0.1846 1.1614 2.2754, -0.1759 1.1614 2.2779, -0.1759 1.1654 2.2779, -0.1666 1.1614 2.2788, -0.1666 1.1654 2.2788, -0.1574 1.1614 2.2778, -0.1574 1.1654 2.2778, -0.1499 1.1614 2.2753, -0.1499 1.1654 2.2753, -0.1454 1.1614 2.2727, -0.1454 1.1654 2.2727, -0.143 1.1614 2.2705, -0.1415 1.1654 2.2691, -0.1415 1.1614 2.2691, -0.139 1.1614 2.2655, -0.139 1.1654 2.2655, -0.1374 1.1614 2.2612, -0.1374 1.1654 2.2612, -0.1369 1.1614 2.2564, -0.1369 1.1654 2.2564, -0.1374 1.1614 2.2512, -0.1374 1.1654 2.2512, -0.1389 1.1614 2.2472, -0.1389 1.1654 2.2472, -0.1407 1.1614 2.2444, -0.1407 1.1654 2.2444, -0.1571 1.1614 2.2343, -0.1571 1.1654 2.2343, -0.1492 1.1654 2.2379, -0.1429 1.1614 2.2421, -0.1429 1.1654 2.2421, -0.143 1.1614 2.242, -0.1492 1.1614 2.2379, -0.1659 1.1614 2.2306, -0.1659 1.1654 2.2306, -0.1711 1.1614 2.2275, -0.1711 1.1654 2.2275, -0.1728 1.1614 2.2257, -0.1728 1.1654 2.2257, -0.1738 1.1614 2.2239, -0.1738 1.1654 2.2239, -0.1744 1.1614 2.2219, -0.1744 1.1654 2.2219, -0.1746 1.1614 2.2202, -0.1746 1.1654 2.2202, -0.1743 1.1614 2.2176, -0.1743 1.1654 2.2176, -0.1736 1.1614 2.2157, -0.1736 1.1654 2.2157, -0.1724 1.1614 2.214, -0.1724 1.1654 2.214, -0.1709 1.1614 2.2127, -0.1709 1.1654 2.2127, -0.1697 1.1614 2.2119, -0.1697 1.1654 2.2119, -0.1662 1.1614 2.2106, -0.1662 1.1654 2.2106, -0.1594 1.1614 2.2099, -0.1594 1.1654 2.2099, -0.2546 1.1654 2.277, -0.2684 1.1654 2.277, -0.2546 1.1614 2.277, -0.2684 1.1614 2.277, -0.2338 1.1654 2.2196, -0.2338 1.1614 2.2196, -0.2327 1.1614 2.216, -0.2327 1.1654 2.216, -0.2321 1.1614 2.2134, -0.2321 1.1654 2.2134, -0.2318 1.1654 2.2134, -0.2318 1.1614 2.2134, -0.2301 1.1654 2.2197, -0.2301 1.1614 2.2197, -0.2102 1.1614 2.277, -0.2102 1.1654 2.277, -0.2167 1.1614 2.2584, -0.1952 1.1654 2.277, -0.1952 1.1614 2.277, -0.2252 1.1614 2.2009, -0.2252 1.1654 2.2009, -0.2167 1.1614 2.2226, -0.2193 1.1614 2.1871, -0.2193 1.1654 2.1871, -0.2247 1.1614 2.1999, -0.2167 1.1614 2.1823, -0.2166 1.1654 2.1822, -0.2166 1.1614 2.1822, -0.2141 1.1614 2.1794, -0.2141 1.1654 2.1794, -0.2119 1.1614 2.1779, -0.2119 1.1654 2.1779, -0.209 1.1614 2.1767, -0.209 1.1654 2.1767, -0.2056 1.1614 2.1763, -0.2056 1.1654 2.1763, -0.2007 1.1614 2.1769, -0.2007 1.1654 2.1769, -0.198 1.1614 2.1778, -0.198 1.1654 2.1778, -0.198 1.1654 2.1659, -0.198 1.1614 2.1659, -0.2037 1.1614 2.165, -0.2037 1.1654 2.165, -0.2066 1.1614 2.1648, -0.2066 1.1654 2.1648, -0.212 1.1614 2.1655, -0.212 1.1654 2.1655, -0.2167 1.1614 2.1672, -0.2173 1.1654 2.1675, -0.2173 1.1614 2.1675, -0.222 1.1614 2.1707, -0.222 1.1654 2.1707, -0.2229 1.1614 2.1716, -0.2229 1.1654 2.1716, -0.2278 1.1614 2.1775, -0.2278 1.1654 2.1775, -0.2338 1.1614 2.1892, -0.2338 1.1654 2.1892, -0.238 1.1614 2.1999, -0.3403 1.1654 2.2129, -0.3403 1.1654 2.2008, -0.3403 1.1614 2.2129, -0.3403 1.1614 2.2008, -0.2966 1.1614 2.2129, -0.2966 1.1654 2.2129, -0.3166 1.1614 2.2129, -0.2966 1.1654 2.2488, -0.2966 1.1614 2.2488, -0.3348 1.1614 2.2488, -0.3348 1.1654 2.2488, -0.3166 1.1614 2.2488, -0.3348 1.1654 2.2611, -0.3348 1.1614 2.2611, -0.2966 1.1614 2.2611, -0.2966 1.1654 2.2611, -0.3166 1.1614 2.2611, -0.2966 1.1654 2.2952, -0.2966 1.1614 2.2952, -0.3378 1.1614 2.2952, -0.3378 1.1654 2.2952, -0.3166 1.1614 2.2952, -0.3378 1.1654 2.3075, -0.3378 1.1614 2.3075, -0.2828 1.1614 2.3075, -0.2828 1.1654 2.3075, -0.3166 1.1614 2.3075, -0.2828 1.1654 2.2008, -0.2828 1.1614 2.2008, -0.3166 1.1614 2.2008, -0.4313 1.1654 2.2157, -0.4202 1.1654 2.2229, -0.4201 1.1654 2.2077, -0.4133 1.1654 2.2181, -0.4079 1.1654 2.203, -0.4045 1.1654 2.2147, -0.3898 1.1654 2.2008, -0.3897 1.1654 2.2129, -0.3604 1.1654 2.2008, -0.3742 1.1654 2.2129, -0.3604 1.1654 2.3075, -0.3742 1.1654 2.2952, -0.3909 1.1654 2.3075, -0.3903 1.1654 2.2952, -0.3917 1.1654 2.2952, -0.4072 1.1654 2.3057, -0.4053 1.1654 2.2934, -0.4201 1.1654 2.301, -0.4144 1.1654 2.2899, -0.4313 1.1654 2.2934, -0.4212 1.1654 2.2852, -0.435 1.1654 2.2897, -0.4241 1.1654 2.2823, -0.4416 1.1654 2.2804, -0.4283 1.1654 2.2763, -0.4456 1.1654 2.2702, -0.4313 1.1654 2.2685, -0.4474 1.1654 2.2555, -0.4329 1.1654 2.2551, -0.447 1.1654 2.2487, -0.4324 1.1654 2.2475, -0.4444 1.1654 2.2362, -0.4302 1.1654 2.238, -0.4392 1.1654 2.2252, -0.4264 1.1654 2.2301, -0.4215 1.1654 2.2241, -0.3898 1.1614 2.2008, -0.3604 1.1614 2.2008, -0.4079 1.1614 2.203, -0.4201 1.1614 2.2077, -0.4313 1.1614 2.2157, -0.4392 1.1614 2.2252, -0.4444 1.1614 2.2362, -0.447 1.1614 2.2487, -0.4474 1.1614 2.2555, -0.4456 1.1614 2.2702, -0.4416 1.1614 2.2804, -0.435 1.1614 2.2897, -0.4313 1.1614 2.2934, -0.4201 1.1614 2.301, -0.4072 1.1614 2.3057, -0.3909 1.1614 2.3075, -0.3604 1.1614 2.3075, -0.3903 1.1614 2.2952, -0.3742 1.1614 2.2952, -0.3742 1.1614 2.2129, -0.3897 1.1614 2.2129, -0.4215 1.1614 2.2241, -0.4202 1.1614 2.2229, -0.4133 1.1614 2.2181, -0.4045 1.1614 2.2147, -0.4329 1.1614 2.2551, -0.4324 1.1614 2.2475, -0.4302 1.1614 2.238, -0.4264 1.1614 2.2301, -0.4212 1.1614 2.2852, -0.4241 1.1614 2.2823, -0.4283 1.1614 2.2763, -0.4313 1.1614 2.2685, -0.3917 1.1614 2.2952, -0.4053 1.1614 2.2934, -0.4144 1.1614 2.2899, -0.4144 1.1614 2.2899
            ]
        }
        coordIndex [
            0,1,2,-1,3,4,5,-1,3,5,6,-1,6,5,7,-1,6,7,2,-1,2,7,8,-1,2,8,0,-1,9,1,10,-1,10,1,0,-1,10,11,9,-1,9,11,12,-1,13,14,15,-1,15,14,12,-1,15,12,16,-1,16,12,11,-1,14,13,17,-1,17,13,18,-1,18,19,17,-1,17,19,20,-1,17,20,21,-1,21,20,22,-1,21,22,23,-1,23,22,24,-1,23,24,25,-1,25,24,26,-1,25,26,27,-1,27,26,28,-1,27,28,29,-1,29,28,30,-1,29,30,31,-1,31,30,32,-1,31,32,33,-1,33,32,34,-1,33,34,35,-1,35,34,36,-1,35,36,37,-1,37,36,38,-1,37,38,39,-1,39,38,40,-1,39,40,41,-1,41,40,42,-1,41,42,43,-1,43,42,44,-1,43,44,45,-1,45,44,46,-1,45,46,47,-1,47,46,48,-1,47,48,49,-1,49,48,50,-1,49,50,51,-1,51,50,52,-1,51,52,53,-1,53,52,54,-1,53,54,55,-1,55,54,56,-1,55,56,57,-1,57,56,58,-1,57,58,59,-1,59,58,60,-1,59,60,61,-1,61,60,62,-1,61,62,63,-1,63,62,64,-1,63,64,65,-1,65,64,66,-1,65,66,67,-1,67,66,68,-1,67,68,69,-1,69,68,70,-1,69,70,71,-1,71,70,72,-1,71,72,73,-1,73,72,74,-1,73,74,75,-1,76,75,77,-1,77,75,74,-1,76,77,78,-1,76,78,79,-1,79,78,80,-1,79,80,81,-1,81,80,82,-1,81,82,83,-1,83,82,84,-1,83,84,85,-1,85,84,86,-1,85,86,87,-1,86,88,87,-1,87,88,89,-1,88,90,89,-1,89,90,91,-1,89,91,92,-1,92,91,93,-1,92,93,94,-1,94,93,95,-1,94,95,96,-1,96,95,97,-1,96,97,98,-1,98,97,99,-1,98,99,100,-1,100,99,101,-1,100,101,102,-1,103,104,105,-1,102,101,106,-1,102,106,107,-1,107,106,108,-1,107,108,105,-1,105,108,109,-1,105,109,103,-1,104,103,110,-1,104,110,111,-1,111,110,112,-1,111,112,113,-1,113,112,114,-1,113,114,115,-1,115,114,116,-1,115,116,117,-1,117,116,118,-1,117,118,119,-1,119,118,120,-1,119,120,121,-1,121,120,122,-1,121,122,123,-1,123,122,124,-1,123,124,125,-1,125,124,126,-1,125,126,127,-1,127,126,128,-1,127,128,129,-1,129,128,130,-1,129,130,131,-1,131,130,132,-1,131,132,133,-1,133,132,134,-1,133,134,135,-1,135,134,4,-1,135,4,3,-1,61,63,85,-1,85,63,83,-1,111,43,104,-1,104,43,45,-1,21,23,127,-1,127,23,25,-1,127,25,125,-1,125,25,27,-1,125,27,123,-1,123,27,29,-1,123,29,121,-1,121,29,31,-1,121,31,119,-1,119,31,33,-1,119,33,117,-1,117,33,35,-1,117,35,115,-1,115,35,37,-1,115,37,113,-1,113,37,39,-1,113,39,111,-1,111,39,41,-1,111,41,43,-1,14,3,12,-1,12,3,6,-1,12,6,9,-1,9,6,2,-1,9,2,1,-1,63,65,83,-1,83,65,67,-1,83,67,81,-1,81,67,69,-1,81,69,79,-1,79,69,71,-1,79,71,76,-1,76,71,73,-1,76,73,75,-1,127,129,21,-1,21,129,131,-1,21,131,17,-1,17,131,133,-1,17,133,14,-1,14,133,135,-1,14,135,3,-1,85,87,61,-1,61,87,89,-1,61,89,59,-1,59,89,92,-1,59,92,57,-1,57,92,94,-1,57,94,55,-1,55,94,96,-1,55,96,53,-1,53,96,98,-1,53,98,51,-1,51,98,100,-1,51,100,49,-1,49,100,102,-1,49,102,47,-1,47,102,107,-1,47,107,45,-1,45,107,105,-1,45,105,104,-1,136,137,138,-1,138,137,139,-1,140,136,141,-1,141,136,138,-1,140,141,142,-1,140,142,143,-1,143,142,144,-1,143,144,145,-1,146,145,147,-1,147,145,144,-1,148,146,149,-1,149,146,147,-1,150,151,152,-1,152,151,148,-1,152,148,149,-1,153,151,154,-1,154,151,150,-1,155,156,157,-1,157,156,153,-1,157,153,154,-1,158,159,160,-1,160,159,156,-1,160,156,155,-1,158,161,159,-1,159,161,162,-1,161,163,162,-1,162,163,164,-1,162,164,165,-1,165,164,166,-1,165,166,167,-1,167,166,168,-1,167,168,169,-1,169,168,170,-1,169,170,171,-1,171,170,172,-1,171,172,173,-1,173,172,174,-1,173,174,175,-1,176,175,177,-1,177,175,174,-1,176,177,178,-1,176,178,179,-1,179,178,180,-1,179,180,181,-1,181,180,182,-1,181,182,183,-1,183,182,184,-1,183,184,185,-1,184,186,185,-1,185,186,187,-1,185,187,188,-1,188,187,189,-1,188,189,190,-1,190,189,191,-1,190,191,192,-1,192,191,193,-1,192,193,194,-1,139,137,195,-1,195,137,194,-1,195,194,193,-1,143,145,194,-1,137,136,194,-1,194,136,140,-1,194,140,143,-1,151,153,148,-1,148,153,156,-1,148,156,146,-1,175,176,173,-1,173,176,179,-1,173,179,171,-1,171,179,181,-1,171,181,169,-1,169,181,183,-1,169,183,167,-1,167,183,185,-1,167,185,165,-1,145,146,194,-1,194,146,156,-1,194,156,192,-1,156,159,192,-1,192,159,162,-1,192,162,190,-1,190,162,165,-1,190,165,188,-1,188,165,185,-1,196,197,198,-1,198,197,199,-1,200,201,202,-1,202,201,196,-1,202,196,198,-1,203,201,204,-1,204,201,200,-1,205,206,207,-1,207,206,203,-1,207,203,204,-1,208,206,209,-1,209,206,205,-1,210,211,212,-1,212,211,208,-1,212,208,209,-1,213,211,214,-1,214,211,210,-1,215,216,217,-1,217,216,213,-1,217,213,214,-1,218,216,219,-1,219,216,215,-1,220,221,222,-1,222,221,218,-1,222,218,219,-1,223,221,224,-1,224,221,220,-1,199,197,225,-1,225,197,223,-1,225,223,224,-1,223,197,196,-1,196,201,223,-1,223,201,203,-1,223,203,221,-1,216,218,213,-1,213,218,221,-1,213,221,211,-1,211,221,203,-1,211,203,208,-1,208,203,206,-1,226,227,228,-1,228,227,229,-1,228,229,230,-1,230,229,231,-1,230,231,232,-1,232,231,233,-1,232,233,234,-1,234,233,235,-1,234,235,236,-1,236,235,237,-1,236,237,238,-1,237,239,238,-1,238,239,240,-1,238,240,241,-1,241,240,242,-1,241,242,243,-1,243,242,244,-1,243,244,245,-1,245,244,246,-1,245,246,247,-1,247,246,248,-1,247,248,249,-1,249,248,250,-1,249,250,251,-1,251,250,252,-1,251,252,253,-1,253,252,254,-1,253,254,255,-1,255,254,256,-1,255,256,257,-1,257,256,258,-1,257,258,259,-1,259,258,260,-1,259,260,226,-1,226,260,261,-1,226,261,227,-1,232,234,262,-1,262,234,263,-1,232,262,264,-1,232,264,230,-1,230,264,265,-1,230,265,228,-1,228,265,266,-1,228,266,226,-1,226,266,267,-1,226,267,259,-1,259,267,268,-1,259,268,257,-1,257,268,269,-1,257,269,255,-1,255,269,270,-1,255,270,253,-1,253,270,271,-1,253,271,251,-1,251,271,272,-1,251,272,249,-1,249,272,273,-1,249,273,247,-1,247,273,274,-1,247,274,245,-1,245,274,275,-1,245,275,243,-1,243,275,276,-1,243,276,241,-1,241,276,277,-1,241,277,238,-1,236,238,278,-1,278,238,277,-1,234,236,263,-1,263,236,278,-1,239,237,279,-1,279,237,280,-1,237,235,280,-1,280,235,281,-1,235,233,281,-1,281,233,282,-1,261,283,284,-1,261,284,227,-1,227,284,285,-1,227,285,229,-1,229,285,286,-1,229,286,231,-1,231,286,282,-1,231,282,233,-1,254,287,288,-1,254,288,256,-1,256,288,289,-1,256,289,258,-1,258,289,290,-1,258,290,260,-1,260,290,283,-1,260,283,261,-1,246,291,292,-1,246,292,248,-1,248,292,293,-1,248,293,250,-1,250,293,294,-1,250,294,252,-1,252,294,287,-1,252,287,254,-1,239,279,295,-1,239,295,240,-1,240,295,296,-1,240,296,242,-1,242,296,297,-1,242,297,244,-1,244,297,291,-1,244,291,246,-1,
        ]
    }
}
Shape{
    appearance Appearance {
        material  Material 	{
            diffuseColor 1.0 1.0 1.0
            specularColor 0.5019607843137255 0.5019607843137255 0.5019607843137255
            ambientIntensity 0.2
            transparency 0
            shininess 0.5
        }
    }
    geometry IndexedFaceSet {
        ccw TRUE
        solid FALSE
        coord DEF co Coordinate {
            point [
                -0.3742 1.1614 2.2952, -0.3742 1.1614 2.2129, -0.3903 1.1614 2.2952, -0.3897 1.1614 2.2129, -0.3917 1.1614 2.2952, -0.4045 1.1614 2.2147, -0.4133 1.1614 2.2181, -0.4202 1.1614 2.2229, -0.4215 1.1614 2.2241, -0.4264 1.1614 2.2301, -0.4329 1.1614 2.2551, -0.4212 1.1614 2.2852, -0.4324 1.1614 2.2475, -0.4144 1.1614 2.2899, -0.4302 1.1614 2.238, -0.4053 1.1614 2.2934, -0.4313 1.1614 2.2685, -0.4283 1.1614 2.2763, -0.4241 1.1614 2.2823, -0.4241 1.1614 2.2823
            ]
        }
        coordIndex [
            0,1,2,-1,2,1,3,-1,2,3,4,-1,4,3,5,-1,4,5,6,-1,6,7,4,-1,4,7,8,-1,4,8,9,-1,10,11,12,-1,12,11,13,-1,9,14,4,-1,4,14,12,-1,4,12,15,-1,15,12,13,-1,16,17,10,-1,10,17,18,-1,10,18,11,-1,
        ]
    }
}
Shape{
    appearance Appearance {
        material  Material 	{
            diffuseColor 0.0 0.0 0.0
            specularColor 0.0 0.0 0.0
            ambientIntensity 0.2
            transparency 0
            shininess 0.5
        }
    }
    geometry IndexedFaceSet {
        ccw TRUE
        solid FALSE
        coord DEF co Coordinate {
            point [
                -0.4831 1.1654 2.242, -0.4991 1.1654 2.2864, -0.4939 1.1654 2.3075, -0.4533 1.1654 2.2008, -0.4685 1.1654 2.2008, -0.4788 1.1654 2.23, -0.5 1.1654 2.2896, -0.5008 1.1654 2.2939, -0.5087 1.1654 2.3075, -0.5012 1.1654 2.2939, -0.502 1.1654 2.2894, -0.5028 1.1654 2.2864, -0.519 1.1654 2.242, -0.5493 1.1654 2.2008, -0.5341 1.1654 2.2008, -0.5232 1.1654 2.23, -0.5087 1.1614 2.3075, -0.5493 1.1614 2.2008, -0.4939 1.1614 2.3075, -0.4533 1.1614 2.2008, -0.4685 1.1614 2.2008, -0.4788 1.1614 2.23, -0.5232 1.1614 2.23, -0.5341 1.1614 2.2008, -0.4831 1.1614 2.242, -0.519 1.1614 2.242, -0.5028 1.1614 2.2864, -0.5012 1.1614 2.2939, -0.502 1.1614 2.2894, -0.5008 1.1614 2.2939, -0.4991 1.1614 2.2864, -0.5 1.1614 2.2896, -0.5 1.1614 2.2896
            ]
        }
        coordIndex [
            0,1,2,-1,3,4,5,-1,1,6,2,-1,2,6,7,-1,2,7,8,-1,8,7,9,-1,8,9,10,-1,10,11,8,-1,8,11,12,-1,8,12,13,-1,14,13,15,-1,15,13,12,-1,15,12,5,-1,5,12,0,-1,5,0,3,-1,3,0,2,-1,8,13,16,-1,16,13,17,-1,2,8,18,-1,18,8,16,-1,3,2,19,-1,19,2,18,-1,4,3,20,-1,20,3,19,-1,5,4,21,-1,21,4,20,-1,15,5,22,-1,22,5,21,-1,14,15,23,-1,23,15,22,-1,13,14,17,-1,17,14,23,-1,0,12,24,-1,24,12,25,-1,12,11,25,-1,25,11,26,-1,9,27,28,-1,9,28,10,-1,10,28,26,-1,10,26,11,-1,9,7,27,-1,27,7,29,-1,1,30,31,-1,1,31,6,-1,6,31,29,-1,6,29,7,-1,1,0,30,-1,30,0,24,-1,
        ]
    }
}
Shape{
    appearance Appearance {
        material  Material 	{
            diffuseColor 1.0 1.0 1.0
            specularColor 0.5019607843137255 0.5019607843137255 0.5019607843137255
            ambientIntensity 0.2
            transparency 0
            shininess 0.5
        }
    }
    geometry IndexedFaceSet {
        ccw TRUE
        solid FALSE
        coord DEF co Coordinate {
            point [
                -0.5012 1.1614 2.2939, -0.5008 1.1614 2.2939, -0.502 1.1614 2.2894, -0.5 1.1614 2.2896, -0.5028 1.1614 2.2864, -0.4991 1.1614 2.2864, -0.519 1.1614 2.242, -0.4831 1.1614 2.242, -0.4831 1.1614 2.242
            ]
        }
        coordIndex [
            0,1,2,-1,2,1,3,-1,2,3,4,-1,4,3,5,-1,4,5,6,-1,6,5,7,-1,
        ]
    }
}
Shape{
    appearance Appearance {
        material  Material 	{
            diffuseColor 0.0 0.0 0.0
            specularColor 0.0 0.0 0.0
            ambientIntensity 0.2
            transparency 0
            shininess 0.5
        }
    }
    geometry IndexedFaceSet {
        ccw TRUE
        solid FALSE
        coord DEF co Coordinate {
            point [
                0.4843 1.1654 2.1856, 0.473 1.1654 2.1717, 0.4912 1.1654 2.2528, 0.2376 1.1654 2.29, 0.2612 1.1654 2.3302, 0.3629 1.1654 2.2771, 0.4153 1.1654 2.2546, 0.4081 1.1654 2.2523, 0.5043 1.1654 2.3847, 0.4874 1.1654 2.3937, 0.4913 1.1654 2.4404, 0.4441 1.1654 2.4425, 0.4206 1.1654 2.3871, 0.409 1.1654 2.4111, 0.5077 1.1654 2.2629, 0.502 1.1654 2.2049, 0.4919 1.1654 2.2019, 0.4616 1.1654 2.444, 0.4019 1.1654 2.2484, 0.3968 1.1654 2.2431, 0.3439 1.1654 2.2338, 0.3933 1.1654 2.237, 0.3913 1.1654 2.23, 0.3439 1.1654 2.2262, 0.3911 1.1654 2.2227, 0.4276 1.1654 2.2542, 0.4379 1.1654 2.3006, 0.4343 1.1654 2.2517, 0.4547 1.1654 2.2942, 0.4402 1.1654 2.2475, 0.4702 1.1654 2.2834, 0.4443 1.1654 2.2431, 0.4828 1.1654 2.2691, 0.448 1.1654 2.2366, 0.4499 1.1654 2.2294, 0.3922 1.1654 2.2978, 0.4106 1.1654 2.3023, 0.4198 1.1654 2.3029, 0.2126 1.1654 2.3651, 0.2065 1.1654 2.3651, 0.1754 1.1654 2.4061, 0.1921 1.1654 2.3633, 0.1716 1.1654 2.4048, 0.1788 1.1654 2.3582, 0.1491 1.1654 2.3936, 0.1285 1.1654 2.3762, 0.4285 1.1654 2.4607, 0.392 1.1654 2.4315, 0.4107 1.1654 2.4759, 0.3716 1.1654 2.4463, 0.3883 1.1654 2.4894, 0.4687 1.1654 2.3981, 0.4608 1.1654 2.3985, 0.4528 1.1654 2.4436, 0.443 1.1654 2.3963, 0.426 1.1654 2.3901, 0.4401 1.1654 2.2033, 0.4341 1.1654 2.1991, 0.4582 1.1654 2.1605, 0.427 1.1654 2.1966, 0.1283 1.1654 2.2346, 0.1637 1.1654 2.2647, 0.149 1.1654 2.2171, 0.175 1.1654 2.2555, 0.1722 1.1654 2.2057, 0.1884 1.1654 2.2493, 0.1974 1.1654 2.2004, 0.202 1.1654 2.2467, 0.2422 1.1654 2.2004, 0.2361 1.1654 2.2467, 0.2465 1.1654 2.2011, 0.4206 1.1654 2.255, 0.3761 1.1654 2.2891, 0.1671 1.1654 2.35, 0.1583 1.1654 2.3402, 0.113 1.1654 2.3546, 0.1512 1.1654 2.3271, 0.1037 1.1654 2.3314, 0.1477 1.1654 2.3125, 0.1002 1.1654 2.3067, 0.1473 1.1654 2.3059, 0.1037 1.1654 2.2795, 0.1491 1.1654 2.2911, 0.1133 1.1654 2.2555, 0.1544 1.1654 2.2776, 0.1627 1.1654 2.2658, 0.2164 1.1654 2.4661, 0.246 1.1654 2.4311, 0.1897 1.1654 2.4346, 0.2289 1.1654 2.4107, 0.2172 1.1654 2.3862, 0.5344 1.1654 2.341, 0.5843 1.1654 2.3284, 0.5367 1.1654 2.3226, 0.5845 1.1654 2.3211, 0.5358 1.1654 2.3109, 0.5809 1.1654 2.2914, 0.5304 1.1654 2.2924, 0.57 1.1654 2.2632, 0.5213 1.1654 2.2769, 0.5526 1.1654 2.2383, 0.5294 1.1654 2.2184, 0.445 1.1654 2.2087, 0.4483 1.1654 2.215, 0.45 1.1654 2.222, 0.3531 1.1654 2.5019, 0.3468 1.1654 2.4564, 0.3196 1.1654 2.5055, 0.3189 1.1654 2.46, 0.2828 1.1654 2.501, 0.2931 1.1654 2.4568, 0.2452 1.1654 2.4862, 0.2693 1.1654 2.4477, 0.248 1.1654 2.4329, 0.5195 1.1654 2.4295, 0.5436 1.1654 2.4126, 0.5174 1.1654 2.373, 0.5488 1.1654 2.4076, 0.5279 1.1654 2.3579, 0.5671 1.1654 2.3842, 0.5792 1.1654 2.3569, 0.2399 1.1654 2.2474, 0.2582 1.1654 2.2084, 0.2564 1.1654 2.2066, 0.4407 1.1654 2.1531, 0.4227 1.1654 2.1504, 0.4206 1.1654 2.1958, 0.4198 1.1654 2.1503, 0.4135 1.1654 2.1967, 0.4014 1.1654 2.1526, 0.4068 1.1654 2.1992, 0.3845 1.1654 2.1591, 0.401 1.1654 2.2032, 0.3694 1.1654 2.1696, 0.3962 1.1654 2.2087, 0.3577 1.1654 2.1827, 0.3927 1.1654 2.2154, 0.3487 1.1654 2.1996, 0.3443 1.1654 2.2183, 0.2377 1.1654 2.2469, 0.2515 1.1654 2.2031, 0.2642 1.1654 2.2239, 0.2635 1.1654 2.2183, 0.2615 1.1654 2.2131, 0.2466 1.1654 2.2467, 0.2518 1.1654 2.2446, 0.264 1.1654 2.2269, 0.2564 1.1654 2.2413, 0.2596 1.1654 2.2379, 0.2625 1.1654 2.2327, 0.2407 1.1654 2.2475, 0.1002 1.1614 2.3067, 0.1037 1.1614 2.3314, 0.1063 1.1614 2.3379, 0.113 1.1614 2.3546, 0.1285 1.1614 2.3762, 0.1491 1.1614 2.3936, 0.1716 1.1614 2.4048, 0.1754 1.1614 2.4061, 0.1897 1.1614 2.4346, 0.2164 1.1614 2.4661, 0.2332 1.1614 2.4778, 0.2452 1.1614 2.4862, 0.2828 1.1614 2.501, 0.3196 1.1614 2.5055, 0.3531 1.1614 2.5019, 0.3883 1.1614 2.4894, 0.4076 1.1614 2.4778, 0.4107 1.1614 2.4759, 0.4285 1.1614 2.4607, 0.4441 1.1614 2.4425, 0.4528 1.1614 2.4436, 0.4616 1.1614 2.444, 0.4913 1.1614 2.4404, 0.5195 1.1614 2.4295, 0.5436 1.1614 2.4126, 0.5488 1.1614 2.4076, 0.5792 1.1614 2.3569, 0.5671 1.1614 2.3842, 0.5826 1.1614 2.3379, 0.5843 1.1614 2.3284, 0.5845 1.1614 2.3211, 0.5809 1.1614 2.2914, 0.57 1.1614 2.2632, 0.5526 1.1614 2.2383, 0.5294 1.1614 2.2184, 0.502 1.1614 2.2049, 0.4919 1.1614 2.2019, 0.491 1.1614 2.1999, 0.4843 1.1614 2.1856, 0.473 1.1614 2.1717, 0.4582 1.1614 2.1605, 0.4512 1.1614 2.1576, 0.4407 1.1614 2.1531, 0.4227 1.1614 2.1504, 0.4198 1.1614 2.1503, 0.3439 1.1614 2.2262, 0.4014 1.1614 2.1526, 0.3884 1.1614 2.1576, 0.3845 1.1614 2.1591, 0.3694 1.1614 2.1696, 0.3577 1.1614 2.1827, 0.3487 1.1614 2.1996, 0.3487 1.1614 2.1999, 0.3443 1.1614 2.2183, 0.3439 1.1614 2.2338, 0.2376 1.1614 2.29, 0.2612 1.1614 2.3302, 0.3629 1.1614 2.2771, 0.3761 1.1614 2.2891, 0.3922 1.1614 2.2978, 0.4106 1.1614 2.3023, 0.4198 1.1614 2.3029, 0.4379 1.1614 2.3006, 0.4547 1.1614 2.2942, 0.4702 1.1614 2.2834, 0.4828 1.1614 2.2691, 0.4912 1.1614 2.2528, 0.5077 1.1614 2.2629, 0.5213 1.1614 2.2769, 0.5304 1.1614 2.2924, 0.5358 1.1614 2.3109, 0.5367 1.1614 2.3226, 0.5348 1.1614 2.3379, 0.5344 1.1614 2.341, 0.5279 1.1614 2.3579, 0.5174 1.1614 2.373, 0.5043 1.1614 2.3847, 0.4874 1.1614 2.3937, 0.4687 1.1614 2.3981, 0.4608 1.1614 2.3985, 0.443 1.1614 2.3963, 0.426 1.1614 2.3901, 0.4206 1.1614 2.3871, 0.409 1.1614 2.4111, 0.392 1.1614 2.4315, 0.3716 1.1614 2.4463, 0.3468 1.1614 2.4564, 0.3189 1.1614 2.46, 0.2931 1.1614 2.4568, 0.2693 1.1614 2.4477, 0.248 1.1614 2.4329, 0.246 1.1614 2.4311, 0.2289 1.1614 2.4107, 0.2172 1.1614 2.3862, 0.2126 1.1614 2.3651, 0.2065 1.1614 2.3651, 0.1921 1.1614 2.3633, 0.1788 1.1614 2.3582, 0.1671 1.1614 2.35, 0.1583 1.1614 2.3402, 0.1571 1.1614 2.3379, 0.1512 1.1614 2.3271, 0.1477 1.1614 2.3125, 0.1473 1.1614 2.3059, 0.1491 1.1614 2.2911, 0.1544 1.1614 2.2776, 0.1627 1.1614 2.2658, 0.1637 1.1614 2.2647, 0.175 1.1614 2.2555, 0.1884 1.1614 2.2493, 0.202 1.1614 2.2467, 0.2361 1.1614 2.2467, 0.2377 1.1614 2.2469, 0.2399 1.1614 2.2474, 0.2407 1.1614 2.2475, 0.2466 1.1614 2.2467, 0.2518 1.1614 2.2446, 0.2564 1.1614 2.2413, 0.2596 1.1614 2.2379, 0.2625 1.1614 2.2327, 0.264 1.1614 2.2269, 0.2642 1.1614 2.2239, 0.2635 1.1614 2.2183, 0.2615 1.1614 2.2131, 0.2582 1.1614 2.2084, 0.2564 1.1614 2.2066, 0.2515 1.1614 2.2031, 0.2465 1.1614 2.2011, 0.2422 1.1614 2.2004, 0.1974 1.1614 2.2004, 0.1722 1.1614 2.2057, 0.149 1.1614 2.2171, 0.1283 1.1614 2.2346, 0.1133 1.1614 2.2555, 0.1037 1.1614 2.2795, 0.4206 1.1614 2.255, 0.4153 1.1614 2.2546, 0.4081 1.1614 2.2523, 0.4019 1.1614 2.2484, 0.3968 1.1614 2.2431, 0.3933 1.1614 2.237, 0.3913 1.1614 2.23, 0.3911 1.1614 2.2227, 0.3927 1.1614 2.2154, 0.3962 1.1614 2.2087, 0.401 1.1614 2.2032, 0.4068 1.1614 2.1992, 0.4135 1.1614 2.1967, 0.4206 1.1614 2.1958, 0.427 1.1614 2.1966, 0.4341 1.1614 2.1991, 0.4401 1.1614 2.2033, 0.445 1.1614 2.2087, 0.4483 1.1614 2.215, 0.45 1.1614 2.222, 0.4499 1.1614 2.2294, 0.448 1.1614 2.2366, 0.4443 1.1614 2.2431, 0.4402 1.1614 2.2475, 0.4343 1.1614 2.2517, 0.4276 1.1614 2.2542, 0.4276 1.1614 2.2542
            ]
        }
        coordIndex [
            0,1,2,-1,3,4,5,-1,6,7,3,-1,8,9,10,-1,11,12,13,-1,14,15,2,-1,2,15,16,-1,2,16,0,-1,10,9,17,-1,7,18,3,-1,3,18,19,-1,3,19,20,-1,19,21,20,-1,20,21,22,-1,20,22,23,-1,23,22,24,-1,25,26,27,-1,27,26,28,-1,27,28,29,-1,29,28,30,-1,29,30,31,-1,31,30,32,-1,31,32,33,-1,33,32,2,-1,33,2,34,-1,35,36,25,-1,25,36,37,-1,25,37,26,-1,38,39,40,-1,40,39,41,-1,40,41,42,-1,42,41,43,-1,42,43,44,-1,44,43,45,-1,11,13,46,-1,46,13,47,-1,46,47,48,-1,48,47,49,-1,48,49,50,-1,9,51,17,-1,17,51,52,-1,17,52,53,-1,53,52,54,-1,53,54,11,-1,11,54,55,-1,11,55,12,-1,56,1,57,-1,57,1,58,-1,57,58,59,-1,60,61,62,-1,62,61,63,-1,62,63,64,-1,64,63,65,-1,64,65,66,-1,66,65,67,-1,66,67,68,-1,68,67,69,-1,68,69,70,-1,6,3,71,-1,71,3,5,-1,71,5,25,-1,25,5,72,-1,25,72,35,-1,43,73,45,-1,45,73,74,-1,45,74,75,-1,75,74,76,-1,75,76,77,-1,77,76,78,-1,77,78,79,-1,79,78,80,-1,79,80,81,-1,81,80,82,-1,81,82,83,-1,83,82,84,-1,83,84,60,-1,60,84,85,-1,60,85,61,-1,86,87,88,-1,88,87,89,-1,88,89,40,-1,40,89,90,-1,40,90,38,-1,91,92,93,-1,93,92,94,-1,93,94,95,-1,95,94,96,-1,95,96,97,-1,97,96,98,-1,97,98,99,-1,99,98,100,-1,99,100,14,-1,14,100,101,-1,14,101,15,-1,56,102,1,-1,1,102,103,-1,1,103,2,-1,2,103,104,-1,2,104,34,-1,50,49,105,-1,105,49,106,-1,105,106,107,-1,107,106,108,-1,107,108,109,-1,109,108,110,-1,109,110,111,-1,111,110,112,-1,111,112,86,-1,86,112,113,-1,86,113,87,-1,10,114,8,-1,8,114,115,-1,8,115,116,-1,116,115,117,-1,116,117,118,-1,118,117,119,-1,118,119,91,-1,91,119,120,-1,91,120,92,-1,121,122,123,-1,58,124,59,-1,59,124,125,-1,59,125,126,-1,126,125,127,-1,126,127,128,-1,128,127,129,-1,128,129,130,-1,130,129,131,-1,130,131,132,-1,132,131,133,-1,132,133,134,-1,134,133,135,-1,134,135,136,-1,136,135,137,-1,136,137,24,-1,24,137,138,-1,24,138,23,-1,69,139,70,-1,70,139,121,-1,70,121,140,-1,140,121,123,-1,141,142,121,-1,121,142,143,-1,121,143,122,-1,144,145,146,-1,145,147,146,-1,146,147,148,-1,146,148,149,-1,141,121,146,-1,146,121,150,-1,146,150,144,-1,79,151,152,-1,79,152,77,-1,77,152,153,-1,77,153,75,-1,153,154,75,-1,75,154,155,-1,75,155,45,-1,45,155,156,-1,45,156,44,-1,44,156,157,-1,44,157,42,-1,42,157,158,-1,42,158,40,-1,40,158,159,-1,40,159,88,-1,88,159,160,-1,88,160,86,-1,111,86,161,-1,161,86,160,-1,161,162,111,-1,111,162,163,-1,111,163,109,-1,109,163,164,-1,109,164,107,-1,107,164,165,-1,107,165,105,-1,105,165,166,-1,105,166,50,-1,50,166,48,-1,48,166,167,-1,48,167,168,-1,48,168,169,-1,48,169,46,-1,46,169,170,-1,46,170,11,-1,11,170,171,-1,11,171,53,-1,53,171,172,-1,53,172,17,-1,17,172,173,-1,17,173,10,-1,10,173,174,-1,10,174,114,-1,114,174,175,-1,114,175,115,-1,115,175,176,-1,115,176,117,-1,177,119,178,-1,178,119,117,-1,178,117,176,-1,179,92,177,-1,177,92,120,-1,177,120,119,-1,179,180,92,-1,92,180,181,-1,92,181,94,-1,94,181,182,-1,94,182,96,-1,96,182,183,-1,96,183,98,-1,98,183,184,-1,98,184,100,-1,100,184,185,-1,100,185,101,-1,101,185,186,-1,101,186,15,-1,15,186,187,-1,15,187,16,-1,16,187,188,-1,16,188,0,-1,188,189,0,-1,0,189,190,-1,0,190,1,-1,1,190,191,-1,1,191,58,-1,58,191,192,-1,58,192,124,-1,192,193,124,-1,124,193,194,-1,124,194,125,-1,125,194,195,-1,125,195,127,-1,196,23,138,-1,127,195,197,-1,198,131,197,-1,197,131,129,-1,197,129,127,-1,198,199,131,-1,131,199,200,-1,131,200,133,-1,133,200,201,-1,133,201,135,-1,135,201,202,-1,135,202,137,-1,137,202,203,-1,137,203,138,-1,138,203,204,-1,138,204,196,-1,20,23,205,-1,205,23,196,-1,3,20,206,-1,206,20,205,-1,4,3,207,-1,207,3,206,-1,5,4,208,-1,208,4,207,-1,5,208,209,-1,5,209,72,-1,72,209,210,-1,72,210,35,-1,35,210,211,-1,35,211,36,-1,36,211,212,-1,36,212,37,-1,37,212,213,-1,37,213,26,-1,26,213,214,-1,26,214,28,-1,28,214,215,-1,28,215,30,-1,30,215,216,-1,30,216,32,-1,32,216,217,-1,32,217,2,-1,2,217,218,-1,2,218,14,-1,14,218,219,-1,14,219,99,-1,99,219,220,-1,99,220,97,-1,97,220,221,-1,97,221,95,-1,95,221,222,-1,95,222,93,-1,93,222,91,-1,91,222,223,-1,223,224,91,-1,91,224,225,-1,91,225,118,-1,118,225,226,-1,118,226,116,-1,116,226,227,-1,116,227,8,-1,8,227,228,-1,8,228,9,-1,9,228,229,-1,9,229,51,-1,51,229,230,-1,51,230,52,-1,52,230,231,-1,52,231,54,-1,54,231,232,-1,54,232,55,-1,55,232,233,-1,55,233,12,-1,12,233,234,-1,12,234,13,-1,13,234,235,-1,13,235,47,-1,47,235,236,-1,47,236,49,-1,49,236,237,-1,49,237,106,-1,106,237,238,-1,106,238,108,-1,108,238,239,-1,108,239,110,-1,110,239,240,-1,110,240,112,-1,112,240,241,-1,112,241,113,-1,113,241,242,-1,113,242,87,-1,87,242,243,-1,87,243,89,-1,89,243,244,-1,89,244,90,-1,90,244,245,-1,90,245,38,-1,39,38,246,-1,246,38,245,-1,39,246,247,-1,39,247,41,-1,41,247,248,-1,41,248,43,-1,43,248,249,-1,43,249,73,-1,73,249,250,-1,73,250,74,-1,74,250,251,-1,74,251,76,-1,251,252,76,-1,76,252,253,-1,76,253,78,-1,78,253,254,-1,78,254,80,-1,80,254,255,-1,80,255,82,-1,82,255,256,-1,82,256,84,-1,84,256,257,-1,84,257,85,-1,85,257,258,-1,85,258,61,-1,61,258,259,-1,61,259,63,-1,63,259,260,-1,63,260,65,-1,65,260,261,-1,65,261,67,-1,69,67,262,-1,262,67,261,-1,69,262,263,-1,69,263,139,-1,139,263,264,-1,139,264,121,-1,121,264,265,-1,121,265,150,-1,150,265,266,-1,150,266,144,-1,144,266,267,-1,144,267,145,-1,145,267,268,-1,145,268,147,-1,147,268,269,-1,147,269,148,-1,148,269,270,-1,148,270,149,-1,149,270,271,-1,149,271,146,-1,146,271,272,-1,146,272,141,-1,141,272,273,-1,141,273,142,-1,142,273,274,-1,142,274,143,-1,143,274,275,-1,143,275,122,-1,122,275,276,-1,122,276,123,-1,123,276,277,-1,123,277,140,-1,140,277,278,-1,140,278,70,-1,70,278,279,-1,70,279,68,-1,66,68,280,-1,280,68,279,-1,66,280,281,-1,66,281,64,-1,64,281,282,-1,64,282,62,-1,62,282,283,-1,62,283,60,-1,60,283,284,-1,60,284,83,-1,83,284,285,-1,83,285,81,-1,81,285,151,-1,81,151,79,-1,71,286,287,-1,71,287,6,-1,6,287,288,-1,6,288,7,-1,7,288,289,-1,7,289,18,-1,18,289,290,-1,18,290,19,-1,19,290,291,-1,19,291,21,-1,21,291,292,-1,21,292,22,-1,22,292,293,-1,22,293,24,-1,24,293,294,-1,24,294,136,-1,136,294,295,-1,136,295,134,-1,134,295,296,-1,134,296,132,-1,132,296,297,-1,132,297,130,-1,130,297,298,-1,130,298,128,-1,128,298,299,-1,128,299,126,-1,126,299,300,-1,126,300,59,-1,59,300,301,-1,59,301,57,-1,57,301,302,-1,57,302,56,-1,56,302,303,-1,56,303,102,-1,102,303,304,-1,102,304,103,-1,103,304,305,-1,103,305,104,-1,104,305,306,-1,104,306,34,-1,34,306,307,-1,34,307,33,-1,33,307,308,-1,33,308,31,-1,31,308,309,-1,31,309,29,-1,29,309,310,-1,29,310,27,-1,27,310,311,-1,27,311,25,-1,25,311,286,-1,25,286,71,-1,
        ]
    }
}
Shape{
    appearance Appearance {
        material  Material 	{
            diffuseColor 1.0 1.0 1.0
            specularColor 0.5019607843137255 0.5019607843137255 0.5019607843137255
            ambientIntensity 0.2
            transparency 0
            shininess 0.5
        }
    }
    geometry IndexedFaceSet {
        ccw TRUE
        solid FALSE
        coord DEF co Coordinate {
            point [
                0.4135 1.1614 2.1967, 0.4153 1.1614 2.2546, 0.4206 1.1614 2.1958, 0.4206 1.1614 2.255, 0.4276 1.1614 2.2542, 0.4343 1.1614 2.2517, 0.4402 1.1614 2.2475, 0.4443 1.1614 2.2431, 0.401 1.1614 2.2032, 0.3968 1.1614 2.2431, 0.4019 1.1614 2.2484, 0.4483 1.1614 2.215, 0.445 1.1614 2.2087, 0.4401 1.1614 2.2033, 0.4068 1.1614 2.1992, 0.4081 1.1614 2.2523, 0.4341 1.1614 2.1991, 0.427 1.1614 2.1966, 0.448 1.1614 2.2366, 0.4499 1.1614 2.2294, 0.45 1.1614 2.222, 0.3927 1.1614 2.2154, 0.3911 1.1614 2.2227, 0.3962 1.1614 2.2087, 0.3913 1.1614 2.23, 0.3933 1.1614 2.237, 1.7717 0.9646 2.7559, 1.6535 0.8465 2.6378, 1.7717 -0.4528 2.7559, 1.6535 -0.4528 2.6378, -1.7717 0.9646 2.7559, -1.6535 0.8465 2.6378, -1.7717 -0.4528 2.7559, -1.6535 -0.4528 2.6378, -1.6535 -0.4528 2.6378
            ]
        }
        coordIndex [
            0,1,2,-1,2,1,3,-1,2,3,4,-1,4,5,2,-1,2,5,6,-1,2,6,7,-1,8,9,10,-1,11,12,7,-1,7,12,13,-1,0,14,1,-1,1,14,8,-1,1,8,15,-1,15,8,10,-1,13,16,7,-1,7,16,17,-1,7,17,2,-1,18,19,7,-1,7,19,20,-1,7,20,11,-1,21,22,23,-1,23,22,24,-1,23,24,8,-1,8,24,25,-1,8,25,9,-1,26,27,28,-1,28,27,29,-1,30,31,26,-1,26,31,27,-1,32,33,30,-1,30,33,31,-1,
        ]
    }
}