#VRML V2.0 utf8
# 3D model generated by easyeda2kicad.py (https://github.com/uPesy/easyeda2kicad.py)

Shape{
    appearance Appearance {
        material  Material 	{
            diffuseColor 0.20784313725490197 0.20784313725490197 0.20784313725490197
            specularColor 0.01568627450980392 0.01568627450980392 0.01568627450980392
            ambientIntensity 0.298
            transparency 0.0
            shininess 0.5
        }
    }
    geometry IndexedFaceSet {
        ccw TRUE
        solid FALSE
        coord DEF co Coordinate {
            point [
                -2.5 -5.0766 2.1508, -1.6751 -5.0766 2.1508, -1.6751 -1.2866 2.1508, 0.4776 -1.0571 2.1508, 0.5293 -1.0571 2.1508, 0.5293 -1.0105 2.1508, 0.3023 -1.2215 2.1508, 0.2988 -1.2219 2.1508, 0.3381 -1.2219 2.1508, 0.3608 -0.9426 2.1508, 0.3608 -0.9612 2.1508, 0.3762 -1.0105 2.1508, 0.3381 -1.0105 2.1508, 0.3571 -0.8166 2.1508, 0.3762 -0.7965 2.1508, 0.3571 -0.7978 2.1508, 0.3381 -0.7965 2.1508, 0.3381 -0.7978 2.1508, 0.294 -0.8876 2.1508, 0.294 -0.9426 2.1508, 0.3381 -0.8876 2.1508, 0.3381 -0.9426 2.1508, 0.3525 -0.8876 2.1508, 0.3525 -0.8689 2.1508, 0.294 -0.8166 2.1508, 0.294 -0.8689 2.1508, 0.3381 -0.8166 2.1508, 0.3381 -0.8689 2.1508, 0.3381 -0.9612 2.1508, 0.2729 -0.9612 2.1508, 0.2635 -1.0105 2.1508, 0.2729 -0.7978 2.1508, 0.2635 -0.7965 2.1508, 0.5571 -0.9612 2.1508, 0.5338 -0.9612 2.1508, 0.5728 -0.9166 2.1508, 0.5809 -1.0105 2.1508, 0.6808 -0.9612 2.1508, 0.6575 -0.9612 2.1508, 0.5809 -0.9166 2.1508, 0.6409 -0.9166 2.1508, 2.5 -1.0105 2.1508, 2.5 -0.7965 2.1508, 0.6186 -0.7978 2.1508, 0.5809 -0.7965 2.1508, 0.596 -0.7978 2.1508, 0.5809 -0.8376 2.1508, 0.2183 -0.7965 2.1508, 0.2241 -0.797 2.1508, 0.2402 -0.8018 2.1508, 0.2402 -0.8238 2.1508, 0.2402 -0.9343 2.1508, 0.2402 -0.9545 2.1508, 0.2049 -0.945 2.1508, 0.2235 -0.9417 2.1508, 0.14 -0.8829 2.1508, 0.14 -0.8814 2.1508, 0.1549 -0.8348 2.1508, 0.1473 -0.8464 2.1508, 0.1422 -0.861 2.1508, 0.1665 -0.9596 2.1508, 0.1512 -0.9521 2.1508, 0.1252 -1.0105 2.1508, 0.1388 -0.9417 2.1508, 0.1362 -0.9387 2.1508, 0.2209 -0.8163 2.1508, 0.2017 -0.8141 2.1508, 0.1945 -0.8145 2.1508, 0.1804 -0.8174 2.1508, 0.1426 -0.903 2.1508, 0.1477 -0.9163 2.1508, 0.156 -0.928 2.1508, 0.1709 -0.9392 2.1508, 0.1828 -0.9435 2.1508, 0.198 -0.9452 2.1508, 0.2376 -0.8224 2.1508, 0.1676 -0.8235 2.1508, 0.1572 -0.8323 2.1508, 0.16 -0.9319 2.1508, 0.2218 -0.9612 2.1508, 0.195 -0.964 2.1508, 0.184 -0.9634 2.1508, 0.203 -0.7951 2.1508, 0.2635 -0.6653 2.1508, 0.2015 -0.7951 2.1508, 0.1252 -0.6653 2.1508, 0.1891 -0.7965 2.1508, 0.1252 -0.7965 2.1508, 0.1623 -0.8038 2.1508, 0.1797 -0.7975 2.1508, 0.1301 -0.8338 2.1508, 0.1415 -0.8191 2.1508, 0.1462 -0.8146 2.1508, 0.1268 -0.9244 2.1508, 0.1252 -0.9199 2.1508, 0.1154 -1.0105 2.1508, 0.1154 -0.7965 2.1508, 0.1221 -0.8518 2.1508, 0.1252 -0.8449 2.1508, 0.1205 -0.9069 2.1508, 0.1179 -0.8826 2.1508, 0.1182 -0.8729 2.1508, 0.5293 -0.7965 2.1508, 0.4665 -0.7965 2.1508, 0.4665 -0.8017 2.1508, 0.5241 -0.8891 2.1508, 0.5199 -0.908 2.1508, 0.4839 -0.8083 2.1508, 0.5001 -0.8195 2.1508, 0.5069 -0.8263 2.1508, 0.5117 -0.9248 2.1508, 0.5001 -0.9384 2.1508, 0.4971 -0.941 2.1508, 0.5167 -0.8408 2.1508, 0.5225 -0.8568 2.1508, 0.5247 -0.8775 2.1508, 0.4811 -0.9516 2.1508, 0.4665 -0.9568 2.1508, 0.4665 -1.0105 2.1508, 0.462 -0.9585 2.1508, 0.4366 -0.9612 2.1508, 0.3917 -0.9612 2.1508, 0.3917 -0.7978 2.1508, 0.4383 -0.7978 2.1508, 0.4643 -0.8008 2.1508, 0.1368 -1.1704 2.1508, 0.141 -1.1646 2.1508, 0.1439 -1.1319 2.1508, 0.1883 -1.2191 2.1508, 0.1806 -1.2219 2.1508, 0.2058 -1.2205 2.1508, 0.1956 -1.2143 2.1508, 0.1494 -1.2189 2.1508, 0.1252 -1.2219 2.1508, 0.1572 -1.2218 2.1508, 0.1576 -1.2219 2.1508, 0.136 -1.2055 2.1508, 0.1335 -1.1985 2.1508, 0.1325 -1.1892 2.1508, 0.2052 -1.1049 2.1508, 0.2574 -1.1214 2.1508, 0.2612 -1.1158 2.1508, 0.1474 -1.1592 2.1508, 0.1563 -1.1548 2.1508, 0.157 -1.1235 2.1508, 0.1712 -1.1512 2.1508, 0.1891 -1.1185 2.1508, 0.1821 -1.1177 2.1508, 0.1698 -1.119 2.1508, 0.1425 -1.2141 2.1508, 0.1402 -1.2117 2.1508, 0.2058 -1.2024 2.1508, 0.2052 -1.2024 2.1508, 0.2021 -1.2073 2.1508, 0.1326 -1.1863 2.1508, 0.1339 -1.1776 2.1508, 0.212 -1.1088 2.1508, 0.2174 -1.1141 2.1508, 0.2549 -1.128 2.1508, 0.2216 -1.1208 2.1508, 0.2247 -1.1302 2.1508, 0.1967 -1.1023 2.1508, 0.1841 -1.1011 2.1508, 0.1648 -1.1032 2.1508, 0.1439 -1.112 2.1508, 0.1494 -1.1089 2.1508, 0.2058 -1.1463 2.1508, 0.2051 -1.1373 2.1508, 0.203 -1.13 2.1508, 0.2006 -1.1258 2.1508, 0.2633 -1.1572 2.1508, 0.254 -1.1953 2.1508, 0.2635 -1.1574 2.1508, 0.262 -1.2002 2.1508, 0.2635 -1.2008 2.1508, 0.2599 -1.1537 2.1508, 0.2573 -1.1495 2.1508, 0.2263 -1.1454 2.1508, 0.255 -1.1432 2.1508, 0.2541 -1.1353 2.1508, 0.1975 -1.1225 2.1508, 0.1938 -1.1201 2.1508, 0.1695 -1.2233 2.1508, 0.1252 -1.2866 2.1508, 0.18 -1.2221 2.1508, 0.2635 -1.2866 2.1508, -0.0419 -1.2866 2.1508, -0.55 -1.2866 2.1508, -0.0419 -1.5766 2.1508, -0.5 -1.5766 2.1508, -0.5 -3.9766 2.1508, -1.2 -3.9766 2.1508, -1.6 -3.9766 2.1508, -1.6 -5.0766 2.1508, -0.5694 -1.2941 2.1508, -0.598 -1.2977 2.1508, -0.6014 -1.2977 2.1508, 1.6 -5.0766 2.1508, 2.5 -5.0766 2.1508, 1.6 -3.9766 2.1508, 2.5 -1.2866 2.1508, 1.2 -3.9766 2.1508, 0.5809 -1.2866 2.1508, 0.5293 -1.2866 2.1508, 0.5293 -3.9766 2.1508, 0.5809 -3.9766 2.1508, 0.5 -3.9766 2.1508, 0.5 -1.5766 2.1508, 0.4665 -1.5766 2.1508, 0.4665 -1.2866 2.1508, 0.3762 -1.5766 2.1508, 0.3762 -1.2866 2.1508, 0.3381 -1.5766 2.1508, 0.3381 -1.2866 2.1508, 0.2635 -1.5766 2.1508, 0.1252 -1.5766 2.1508, 0.1154 -1.5766 2.1508, 0.1154 -1.2866 2.1508, 0.4343 -1.1038 2.1508, 0.4555 -1.1038 2.1508, 0.4665 -1.2219 2.1508, 0.3969 -1.1915 2.1508, 0.3994 -1.2011 2.1508, 0.3999 -1.2011 2.1508, 0.3762 -1.1322 2.1508, 0.4024 -1.1917 2.1508, 0.4008 -1.1971 2.1508, 0.3435 -1.1038 2.1508, 0.3762 -1.1871 2.1508, 0.3664 -1.1038 2.1508, 0.3762 -1.2219 2.1508, 0.3886 -1.2219 2.1508, 0.3893 -1.2202 2.1508, 0.3762 -1.2488 2.1508, 0.3763 -1.2488 2.1508, 0.3803 -1.2415 2.1508, 0.3477 -1.2738 2.1508, 0.3477 -1.2556 2.1508, 0.3593 -1.2579 2.1508, 0.3642 -1.2574 2.1508, 0.3762 -1.2718 2.1508, 0.3692 -1.2745 2.1508, 0.3609 -1.2755 2.1508, 0.3564 -1.2753 2.1508, 0.3687 -1.2557 2.1508, 0.3725 -1.2531 2.1508, 0.4025 -1.2381 2.1508, 0.3933 -1.2562 2.1508, 0.4089 -1.2219 2.1508, 0.3858 -1.2652 2.1508, 0.3844 -1.2664 2.1508, 0.3772 -1.2714 2.1508, 0.2733 -1.1068 2.1508, 0.2845 -1.1027 2.1508, 0.326 -1.1694 2.1508, 0.3298 -1.1751 2.1508, 0.3272 -1.1262 2.1508, 0.2672 -1.1104 2.1508, 0.3293 -1.2035 2.1508, 0.3255 -1.2089 2.1508, 0.2635 -1.1138 2.1508, 0.332 -1.1811 2.1508, 0.3328 -1.1887 2.1508, 0.3318 -1.197 2.1508, 0.2996 -1.1011 2.1508, 0.3272 -1.1063 2.1508, 0.3109 -1.1019 2.1508, 0.3197 -1.214 2.1508, 0.3135 -1.2176 2.1508, 0.2976 -1.1177 2.1508, 0.2915 -1.1182 2.1508, 0.2752 -1.1334 2.1508, 0.286 -1.1196 2.1508, 0.2814 -1.1221 2.1508, 0.2754 -1.1362 2.1508, 0.2762 -1.1393 2.1508, 0.2777 -1.1421 2.1508, 0.2797 -1.1443 2.1508, 0.2869 -1.1488 2.1508, 0.311 -1.1193 2.1508, 0.2996 -1.1543 2.1508, 0.3225 -1.1235 2.1508, 0.3075 -1.1575 2.1508, 0.3211 -1.1651 2.1508, 0.2783 -1.1248 2.1508, 0.2766 -1.1274 2.1508, 0.2756 -1.1302 2.1508, 0.2748 -1.205 2.1508, 0.2851 -1.1692 2.1508, 0.2729 -1.1636 2.1508, 0.2877 -1.2065 2.1508, 0.2886 -1.2065 2.1508, 0.2986 -1.1748 2.1508, 0.2991 -1.2054 2.1508, 0.3118 -1.1908 2.1508, 0.3116 -1.1882 2.1508, 0.3043 -1.2034 2.1508, 0.3062 -1.2023 2.1508, 0.3086 -1.2002 2.1508, 0.3103 -1.1976 2.1508, 0.3114 -1.1947 2.1508, 0.3107 -1.185 2.1508, 0.3091 -1.1823 2.1508, 0.3065 -1.1796 2.1508, 0.254 -1.2164 2.1508, 0.2263 -1.2205 2.1508, 0.2635 -1.2197 2.1508, 0.2635 -1.2219 2.1508, 0.2686 -1.2215 2.1508, 0.2722 -1.2219 2.1508, 0.2857 -1.2233 2.1508, 0.3519 -1.257 2.1508, -0.3384 -0.7796 2.1508, -0.3133 -0.7965 2.1508, -0.0419 -0.7965 2.1508, -0.2866 -0.8144 2.1508, -0.2485 -0.8584 2.1508, -0.2239 -0.9062 2.1508, -0.214 -0.9097 2.1508, -0.1798 -0.9278 2.1508, -0.5558 -0.7818 2.1508, -0.5022 -0.7611 2.1508, -1.6751 -0.6653 2.1508, -0.4446 -0.754 2.1508, -0.0419 -0.6653 2.1508, -0.3967 -0.759 2.1508, -0.5795 -0.7965 2.1508, -1.6751 -0.7965 2.1508, -0.5841 -0.7993 2.1508, -0.8236 -0.9399 2.1508, -0.7955 -0.9039 2.1508, -0.7079 -0.8538 2.1508, -0.6619 -0.8481 2.1508, -0.6114 -0.8227 2.1508, -0.6485 -0.8488 2.1508, -0.6352 -0.8504 2.1508, -0.7878 -0.8966 2.1508, -0.7509 -0.8706 2.1508, -0.7652 -1.1938 2.1508, -0.8013 -1.163 2.1508, -1.6751 -1.2219 2.1508, -0.7233 -1.2143 2.1508, -0.8277 -1.1254 2.1508, -0.8444 -1.0822 2.1508, -1.6751 -1.0105 2.1508, -0.8501 -1.0363 2.1508, -0.8498 -1.0255 2.1508, -0.8472 -1.0105 2.1508, -0.8421 -0.9818 2.1508, -0.7084 -1.2187 2.1508, -0.7069 -1.2219 2.1508, -0.6962 -1.2445 2.1508, -0.6787 -1.2657 2.1508, -0.6289 -1.2937 2.1508, -0.6461 -1.2866 2.1508, -0.6558 -1.2826 2.1508, -0.0419 -1.2219 2.1508, -0.4893 -1.2219 2.1508, -0.4899 -1.2239 2.1508, -0.504 -1.2496 2.1508, -0.5204 -1.2678 2.1508, -0.5435 -1.2841 2.1508, -0.5321 -1.0846 2.1508, -0.5109 -1.1037 2.1508, -0.3552 -1.0224 2.1508, -0.3479 -1.1584 2.1508, -0.3408 -1.1533 2.1508, -0.3191 -1.084 2.1508, -0.1818 -1.0464 2.1508, -0.188 -1.0243 2.1508, -0.196 -1.0105 2.1508, -0.774 -1.0105 2.1508, -0.3328 -1.1502 2.1508, -0.3238 -1.149 2.1508, -0.3227 -1.1491 2.1508, -0.1491 -0.9552 2.1508, -0.1263 -0.9889 2.1508, -0.0419 -1.0105 2.1508, -0.1183 -1.0105 2.1508, -0.1131 -1.0247 2.1508, -0.3327 -1.22 2.1508, -0.3403 -1.217 2.1508, -0.3479 -1.2116 2.1508, -0.3506 -1.2089 2.1508, -0.3557 -1.2016 2.1508, -0.3587 -1.1937 2.1508, -0.4826 -1.1954 2.1508, -0.3598 -1.185 2.1508, -0.4818 -1.1816 2.1508, -0.4818 -1.1699 2.1508, -0.3595 -1.1805 2.1508, -0.3572 -1.1716 2.1508, -0.3527 -1.1637 2.1508, -0.1312 -1.1409 2.1508, -0.1518 -1.1688 2.1508, -0.1567 -1.1739 2.1508, -0.1876 -1.1981 2.1508, -0.6264 -1.0678 2.1508, -0.598 -1.0642 2.1508, -0.5851 -1.0649 2.1508, -0.5569 -1.0716 2.1508, -0.3192 -1.1499 2.1508, -0.3168 -1.1502 2.1508, -0.2645 -1.1502 2.1508, -0.1088 -1.0584 2.1508, -0.1091 -1.0667 2.1508, -0.1155 -1.1047 2.1508, -0.2234 -1.2144 2.1508, -0.2576 -1.2211 2.1508, -0.3261 -1.2211 2.1508, -0.6948 -1.1165 2.1508, -0.7755 -1.0522 2.1508, -0.7671 -1.0806 2.1508, -0.7534 -1.1038 2.1508, -0.7326 -1.1252 2.1508, -0.7072 -1.1409 2.1508, -0.7769 -1.034 2.1508, -0.6757 -1.0944 2.1508, -0.652 -1.0778 2.1508, -0.2048 -1.1214 2.1508, -0.1922 -1.1038 2.1508, -0.1839 -1.0832 2.1508, -0.1809 -1.0596 2.1508, -0.2423 -1.1457 2.1508, -0.2219 -1.1359 2.1508, -0.5992 -0.9352 2.1508, -0.6079 -0.9305 2.1508, -0.6339 -0.9211 2.1508, -0.5843 -0.9032 2.1508, -0.2808 -0.9689 2.1508, -0.2715 -0.9689 2.1508, -0.1994 -1.0047 2.1508, -0.2104 -0.9927 2.1508, -0.2283 -0.9799 2.1508, -0.2485 -0.9719 2.1508, -0.339 -0.8617 2.1508, -0.2837 -0.952 2.1508, -0.3211 -0.8791 2.1508, -0.2979 -0.9129 2.1508, -0.4435 -0.8237 2.1508, -0.4515 -0.8239 2.1508, -0.49 -0.8303 2.1508, -0.3722 -0.8402 2.1508, -0.409 -0.8274 2.1508, -0.7031 -0.9259 2.1508, -0.7288 -0.94 2.1508, -0.6746 -0.9186 2.1508, -0.747 -0.9564 2.1508, -0.7633 -0.9795 2.1508, -0.5276 -0.8466 2.1508, -0.5594 -0.8712 2.1508, -0.6607 -0.9178 2.1508, -0.7733 -1.0054 2.1508, 0.5617 -1.0571 2.1508, 0.5617 -1.0759 2.1508, 0.5655 -1.2019 2.1508, 0.5809 -1.2219 2.1508, 0.5655 -1.2205 2.1508, 0.5293 -1.2219 2.1508, 0.4987 -1.1469 2.1508, 0.4987 -1.2019 2.1508, 0.5293 -1.1469 2.1508, 0.5293 -1.2019 2.1508, 0.5571 -1.1469 2.1508, 0.5571 -1.1282 2.1508, 0.5293 -1.1282 2.1508, 0.5293 -1.0759 2.1508, 0.4987 -1.1282 2.1508, 0.4987 -1.0759 2.1508, 0.5293 -1.2205 2.1508, 0.4776 -1.2205 2.1508, 0.7384 -1.2205 2.1508, 0.7288 -1.1483 2.1508, 0.7246 -1.1672 2.1508, 2.5 -1.2219 2.1508, 0.8232 -1.0571 2.1508, 0.8622 -1.2205 2.1508, 0.8455 -1.1758 2.1508, 0.7775 -1.1758 2.1508, 0.8007 -1.0571 2.1508, 0.6429 -1.0571 2.1508, 0.669 -1.0601 2.1508, 0.7163 -1.184 2.1508, 0.7047 -1.1976 2.1508, 0.7018 -1.2002 2.1508, 0.7294 -1.1367 2.1508, 0.7271 -1.116 2.1508, 0.7047 -1.0787 2.1508, 0.7115 -1.0855 2.1508, 0.7214 -1.1001 2.1508, 0.6885 -1.0675 2.1508, 0.6858 -1.2108 2.1508, 0.6667 -1.2177 2.1508, 0.6413 -1.2205 2.1508, 0.7617 -1.2205 2.1508, 0.8855 -1.2205 2.1508, 0.5963 -1.2205 2.1508, 0.5963 -1.0571 2.1508, 2.5 -0.6653 2.1508, 0.5809 -0.6653 2.1508, 0.5293 -0.6653 2.1508, 0.4665 -0.6653 2.1508, 0.3762 -0.6653 2.1508, 0.3381 -0.6653 2.1508, 0.1154 -1.2219 2.1508, 0.1129 -1.2019 2.1508, 0.1129 -1.2205 2.1508, 0.025 -1.2205 2.1508, 0.1092 -1.0759 2.1508, 0.025 -1.0571 2.1508, 0.1092 -1.0571 2.1508, 0.0461 -1.1469 2.1508, 0.0461 -1.2019 2.1508, 0.1045 -1.1469 2.1508, 0.1045 -1.1282 2.1508, 0.0461 -1.1282 2.1508, 0.0461 -1.0759 2.1508, 0.0461 -0.7978 2.1508, 0.0461 -0.9426 2.1508, 0.1112 -0.9426 2.1508, 0.1112 -0.9612 2.1508, 0.025 -0.9612 2.1508, 0.025 -0.7978 2.1508, 0.1154 -0.6653 2.1508, -2.5 -1.2866 2.1508, -2.5 -1.2219 2.1508, -2.5 -1.0105 2.1508, -2.5 -0.7965 2.1508, -2.5 -0.6653 2.1508, 2.5 -0.5766 2.1508, 0.5809 -0.5766 2.1508, 0.5293 -0.5766 2.1508, 0.4665 -0.5766 2.1508, 0.3762 -0.5766 2.1508, 0.3381 -0.5766 2.1508, 0.2635 -0.5766 2.1508, 0.1252 -0.5766 2.1508, 0.1154 -0.5766 2.1508, -0.0419 -0.5766 2.1508, -1.6751 -0.5766 2.1508, -2.5 -0.5766 2.1508, -0.373 -1.5766 1.0208, 0.375 -1.5766 1.0208, -0.373 -1.5766 1.2708, 0.375 -1.5766 1.2708, 0.5 -1.5766 1.7508, 0.627 -1.5766 1.2708, 2.1 -1.5766 1.7508, 0.8 -1.5766 0.1508, 1.2 -1.5766 0.1508, 0.8 -1.5766 0.5508, 1.2 -1.5766 0.5508, 0.627 -1.5766 1.0208, 1.627 -1.5766 1.2708, 1.375 -1.5766 1.2708, 1.375 -1.5766 1.0208, 1.627 -1.5766 1.0208, 2.1 -1.5766 0.5508, -1.2 -1.5766 0.5508, -1.373 -1.5766 1.0208, -2.1 -1.5766 0.5508, -1.625 -1.5766 1.0208, -2.1 -1.5766 1.7508, -1.625 -1.5766 1.2708, -0.5 -1.5766 1.7508, -1.373 -1.5766 1.2708, -1.2 -1.5766 0.1508, -0.8 -1.5766 0.1508, -0.8 -1.5766 0.5508, -0.625 -1.5766 1.2708, -0.625 -1.5766 1.0208, -1.625 -0.2766 1.4508, -2.1 -0.2766 1.4508, -2.1 -0.2766 1.8508, 2.1 -0.2766 1.8508, 2.1 -0.2766 1.4508, 1.625 -0.2766 1.4508, 0.625 -0.2766 1.2607, 0.375 -0.2766 1.2607, 0.625 -0.2766 1.4508, 0.375 -0.2766 1.4508, 1.625 -0.2766 1.2607, 1.375 -0.2766 1.2607, 1.375 -0.2766 1.4508, -0.375 -0.2766 1.4508, -1.375 -0.2766 1.4508, -1.375 -0.2766 1.2607, -1.625 -0.2766 1.2607, -0.625 -0.2766 1.4508, -0.625 -0.2766 1.2607, -0.375 -0.2766 1.2607, 1.375 0.2734 1.4508, 1.375 -0.0709 1.1664, 1.375 0.1234 0.4508, 1.375 0.2734 0.4508, 1.375 0.1234 0.7708, 1.375 0.0722 0.9912, 1.625 -0.2766 0.4508, 1.375 -0.2766 0.4508, 1.625 -0.2766 0.9999, 1.375 -0.2766 0.9999, 0.375 0.2734 1.4508, 0.375 -0.0709 1.1664, 0.375 0.1234 0.4508, 0.375 0.2734 0.4508, 0.375 0.1234 0.7708, 0.375 0.0722 0.9912, 0.625 -0.2766 0.4508, 0.375 -0.2766 0.4508, 0.625 -0.2766 0.9999, 0.375 -0.2766 0.9999, -0.625 0.2734 1.4508, -0.625 -0.0709 1.1664, -0.625 0.1234 0.4508, -0.625 0.2734 0.4508, -0.625 0.1234 0.7708, -0.625 0.0722 0.9912, -1.625 0.2734 1.4508, -1.625 -0.0709 1.1664, -1.625 0.1234 0.4508, -1.625 0.2734 0.4508, -1.625 0.1234 0.7708, -1.625 0.0722 0.9912, -0.375 -0.2766 0.4508, -0.625 -0.2766 0.4508, -0.375 -0.2766 0.9999, -0.625 -0.2766 0.9999, -1.375 -0.1266 0.7708, -1.375 -0.1266 0.4508, -1.375 -0.2766 0.4508, -1.375 -0.2766 0.9999, -1.375 -0.1976 0.9453, -1.375 -0.145 0.865, -0.375 -0.1266 0.7708, -0.375 -0.1266 0.4508, -0.375 -0.1976 0.9453, -0.375 -0.145 0.865, 1.625 -0.1266 0.7708, 1.625 -0.1266 0.4508, 1.625 -0.1976 0.9453, 1.625 -0.145 0.865, 0.625 -0.1266 0.7708, 0.625 -0.1266 0.4508, 0.625 -0.1976 0.9453, 0.625 -0.145 0.865, -1.625 -0.2766 0.4508, -1.625 -0.1266 0.4508, -1.625 -0.1266 0.7708, -1.625 -0.145 0.865, -1.625 -0.1976 0.9453, -1.625 -0.2766 0.9999, 1.625 -0.0709 1.1664, 1.625 0.2734 1.4508, 1.625 0.0722 0.9912, 1.625 0.1234 0.7708, 1.625 0.2734 0.4508, 1.625 0.1234 0.4508, -0.625 -0.1266 0.4508, -0.625 -0.1266 0.7708, -0.625 -0.145 0.865, -0.625 -0.1976 0.9453, -1.375 0.2734 1.4508, -1.375 -0.0709 1.1664, -1.375 0.0722 0.9912, -1.375 0.1234 0.7708, -1.375 0.2734 0.4508, -1.375 0.1234 0.4508, 0.375 -0.1266 0.4508, 0.375 -0.1266 0.7708, 0.375 -0.145 0.865, 0.375 -0.1976 0.9453, -0.375 0.2734 1.4508, -0.375 -0.0709 1.1664, -0.375 0.0722 0.9912, -0.375 0.1234 0.7708, -0.375 0.2734 0.4508, -0.375 0.1234 0.4508, 1.375 -0.1266 0.4508, 1.375 -0.1266 0.7708, 1.375 -0.145 0.865, 1.375 -0.1976 0.9453, 0.625 0.2734 1.4508, 0.625 -0.0709 1.1664, 0.625 0.0722 0.9912, 0.625 0.1234 0.7708, 0.625 0.2734 0.4508, 0.625 0.1234 0.4508, 2.1 -5.0766 0.1508, 1.95 -5.0766 0.0008, 2.1 -0.5766 0.1508, 1.95 -0.5766 0.0008, -1.8 -5.0766 0.1508, -1.95 -5.0766 0.0008, -1.8 -0.5766 0.1508, -1.95 -0.5766 0.0008, 1.8 -0.5766 0.1508, 1.8 -5.0766 0.1508, 0.8 -5.0766 0.3508, -0.8 -5.0766 0.3508, 0.8 -5.0766 0.1508, -0.8 -5.0766 0.1508, -2.1 0.2734 1.4508, -2.1 0.2734 0.4508, 2.1 0.2734 1.4508, 2.1 0.2734 0.4508, -2.1 -0.5766 0.1508, -2.1 -5.0766 0.1508, 1.0 -3.9766 2.3508, 1.2 -3.9766 2.3508, 1.0 -4.3266 2.3508, 1.2 -4.8766 2.3508, 0.9464 -4.5266 2.3508, 0.8 -4.673 2.3508, -1.2 -3.9766 2.3508, -1.0 -3.9766 2.3508, -1.2 -4.8766 2.3508, -1.0 -4.3266 2.3508, -0.9464 -4.5266 2.3508, -0.8 -4.673 2.3508, -0.6 -4.7266 2.3508, 0.6 -4.7266 2.3508, 1.0 -4.3266 2.7508, 0.9464 -4.5266 2.7508, 0.8 -4.673 2.7508, 0.6 -4.7266 2.7508, -0.6 -4.7266 2.7508, -0.8 -4.673 2.7508, -0.9464 -4.5266 2.7508, -1.0 -4.3266 2.7508, 1.2 -3.9766 1.9508, 1.2 -3.7766 1.7508, 1.2 -4.8766 1.7508, -1.2 -4.8766 1.7508, -1.2 -3.9766 1.9508, -1.2 -3.7766 1.7508, -1.2 -5.0766 0.3508, -1.2 -5.0766 0.1508, -1.2 -4.8766 0.5508, 0.8 -4.8766 0.5508, -0.8 -4.8766 0.5508, 1.2 -4.8766 0.5508, 1.2 -5.0766 0.1508, 1.2 -5.0766 0.3508, 0.5 -3.9766 1.9508, 0.5 -3.7766 1.7508, 1.0 -3.9766 2.7508, 2.5 -0.5766 0.1508, 2.5 -5.0766 0.1508, -2.1 -0.5766 1.8508, -2.1 -0.5766 0.4508, 2.1 -0.5766 1.8508, 2.1 -0.5766 0.4508, -1.373 0.1234 0.4508, -0.373 0.1234 0.4508, 0.627 0.1234 0.4508, -1.373 -0.1266 0.4508, -0.373 -0.1266 0.4508, 0.627 -0.1266 0.4508, 1.627 0.1234 0.4508, 1.627 -0.1266 0.4508, -2.5 -5.0766 0.1508, -2.5 -0.5766 0.1508, -2.3 -5.0766 0.3508, -2.1 -4.8766 0.5508, -2.3 -5.0766 1.9508, -2.1 -4.8766 1.7508, -1.4 -5.0766 1.9508, -1.4 -5.0766 2.5508, 1.4 -5.0766 2.5508, 1.4 -5.0766 1.9508, 2.3 -5.0766 1.9508, 2.1 -4.8766 1.7508, 2.3 -5.0766 0.3508, 2.1 -4.8766 0.5508, 1.6 -5.0766 2.7508, 1.6 -3.9766 2.7508, -1.6 -5.0766 2.7508, -1.6 -3.9766 2.7508, -1.0 -3.9766 2.7508, -0.5 -3.9766 1.9508, -0.5 -3.7766 1.7508
            ]
        }
        coordIndex [
            0,1,2,-1,3,4,5,-1,6,7,8,-1,9,10,11,-1,11,10,12,-1,13,14,15,-1,15,14,16,-1,15,16,17,-1,18,19,20,-1,20,19,21,-1,20,21,22,-1,22,21,9,-1,22,9,23,-1,24,25,26,-1,26,25,27,-1,26,27,13,-1,28,29,30,-1,17,16,31,-1,31,16,32,-1,31,32,29,-1,33,34,5,-1,35,33,36,-1,37,38,36,-1,35,36,39,-1,39,36,38,-1,39,38,40,-1,41,42,43,-1,43,42,44,-1,43,44,45,-1,45,44,46,-1,47,48,32,-1,32,48,49,-1,32,49,50,-1,51,52,30,-1,53,54,55,-1,55,54,51,-1,55,51,56,-1,57,58,51,-1,51,58,59,-1,51,59,56,-1,60,61,62,-1,62,61,63,-1,62,63,64,-1,65,66,51,-1,51,66,67,-1,51,67,68,-1,69,70,71,-1,72,73,55,-1,55,73,74,-1,55,74,53,-1,29,32,30,-1,30,32,50,-1,30,50,51,-1,51,50,75,-1,51,75,65,-1,68,76,51,-1,51,76,77,-1,51,77,57,-1,69,71,55,-1,55,71,78,-1,55,78,72,-1,52,79,30,-1,30,79,80,-1,30,80,62,-1,62,80,81,-1,62,81,60,-1,82,83,84,-1,84,83,85,-1,84,85,86,-1,87,88,89,-1,90,91,87,-1,87,91,92,-1,87,92,88,-1,64,93,62,-1,62,93,94,-1,62,94,95,-1,96,97,87,-1,87,97,98,-1,87,98,90,-1,94,99,95,-1,95,99,100,-1,95,100,96,-1,96,100,101,-1,96,101,97,-1,102,103,104,-1,105,106,5,-1,104,107,102,-1,102,107,108,-1,102,108,109,-1,106,110,5,-1,5,110,111,-1,5,111,112,-1,109,113,102,-1,102,113,114,-1,102,114,115,-1,46,44,34,-1,34,44,102,-1,34,102,5,-1,5,102,115,-1,5,115,105,-1,116,117,118,-1,118,117,119,-1,120,121,11,-1,11,121,14,-1,11,14,9,-1,9,14,13,-1,9,13,23,-1,23,13,27,-1,121,122,14,-1,14,122,123,-1,14,123,103,-1,103,123,124,-1,103,124,104,-1,125,126,127,-1,128,129,130,-1,128,130,131,-1,132,133,134,-1,134,133,135,-1,136,137,133,-1,133,137,138,-1,139,140,141,-1,126,142,127,-1,127,142,143,-1,127,143,144,-1,144,143,145,-1,146,147,145,-1,145,147,148,-1,145,148,144,-1,132,149,133,-1,133,149,150,-1,133,150,136,-1,151,152,130,-1,130,152,153,-1,130,153,131,-1,62,154,155,-1,139,156,140,-1,140,156,157,-1,140,157,158,-1,158,157,159,-1,158,159,160,-1,161,62,162,-1,162,62,163,-1,125,127,155,-1,155,127,164,-1,155,164,62,-1,62,164,165,-1,62,165,163,-1,166,167,145,-1,145,167,168,-1,145,168,169,-1,170,171,172,-1,172,171,173,-1,172,173,174,-1,175,176,177,-1,177,176,178,-1,177,178,160,-1,160,178,179,-1,160,179,158,-1,169,180,145,-1,145,180,181,-1,145,181,146,-1,182,183,184,-1,184,183,185,-1,184,185,129,-1,186,187,188,-1,188,187,189,-1,190,189,191,-1,191,189,2,-1,191,2,192,-1,192,2,1,-1,192,1,193,-1,187,194,189,-1,189,194,195,-1,189,195,196,-1,197,198,199,-1,199,198,200,-1,199,200,201,-1,201,200,202,-1,203,204,202,-1,202,204,205,-1,202,205,201,-1,206,204,207,-1,207,204,203,-1,207,203,208,-1,208,203,209,-1,208,209,210,-1,210,209,211,-1,210,211,212,-1,212,211,213,-1,212,213,214,-1,214,213,185,-1,214,185,215,-1,215,185,183,-1,215,183,216,-1,216,183,217,-1,216,217,188,-1,218,219,118,-1,118,219,220,-1,221,222,223,-1,119,120,118,-1,118,120,11,-1,118,11,218,-1,218,11,224,-1,218,224,225,-1,225,224,221,-1,225,221,226,-1,226,221,223,-1,227,12,8,-1,227,8,228,-1,12,227,11,-1,11,227,229,-1,11,229,224,-1,8,230,228,-1,228,230,231,-1,228,231,232,-1,233,234,230,-1,230,234,235,-1,230,235,231,-1,213,236,237,-1,230,238,239,-1,240,241,211,-1,211,241,242,-1,211,242,213,-1,213,242,243,-1,213,243,236,-1,239,244,230,-1,230,244,245,-1,230,245,233,-1,246,247,209,-1,246,209,248,-1,247,249,209,-1,209,249,250,-1,209,250,211,-1,211,250,251,-1,211,251,240,-1,252,253,30,-1,254,255,256,-1,252,30,257,-1,8,258,259,-1,161,139,62,-1,62,139,141,-1,62,141,30,-1,30,141,260,-1,30,260,257,-1,261,262,8,-1,8,262,263,-1,8,263,258,-1,253,264,30,-1,30,264,12,-1,30,12,28,-1,28,12,10,-1,255,261,256,-1,256,261,8,-1,256,8,265,-1,265,8,12,-1,265,12,266,-1,266,12,264,-1,259,267,8,-1,8,267,268,-1,8,268,6,-1,269,270,271,-1,271,270,272,-1,271,272,273,-1,271,274,269,-1,269,274,275,-1,269,275,276,-1,276,277,269,-1,269,277,278,-1,269,278,279,-1,279,278,280,-1,279,280,281,-1,281,280,282,-1,281,282,256,-1,256,282,283,-1,256,283,254,-1,284,285,273,-1,273,285,286,-1,273,286,271,-1,287,288,174,-1,174,288,289,-1,174,289,172,-1,287,290,288,-1,288,290,291,-1,288,291,292,-1,292,291,293,-1,292,294,295,-1,293,296,292,-1,292,296,297,-1,292,297,298,-1,298,299,292,-1,292,299,300,-1,292,300,294,-1,295,301,292,-1,292,301,302,-1,292,302,303,-1,170,175,171,-1,171,175,177,-1,171,177,304,-1,304,177,305,-1,304,305,306,-1,306,305,307,-1,306,307,308,-1,308,307,309,-1,310,309,185,-1,185,309,307,-1,185,307,129,-1,129,307,305,-1,129,305,130,-1,310,185,7,-1,7,185,213,-1,7,213,8,-1,8,213,237,-1,8,237,230,-1,230,237,311,-1,230,311,238,-1,312,313,314,-1,314,313,315,-1,314,315,316,-1,316,317,314,-1,314,317,318,-1,314,318,319,-1,320,321,322,-1,322,321,323,-1,322,323,324,-1,324,323,325,-1,320,322,326,-1,326,322,327,-1,326,327,328,-1,327,329,330,-1,327,331,328,-1,328,331,332,-1,328,332,333,-1,333,332,334,-1,333,334,335,-1,330,336,327,-1,327,336,337,-1,327,337,331,-1,338,339,340,-1,338,340,341,-1,339,342,340,-1,340,342,343,-1,340,343,344,-1,344,343,345,-1,345,346,344,-1,344,346,347,-1,344,347,327,-1,327,347,348,-1,327,348,329,-1,349,341,350,-1,350,341,340,-1,350,340,351,-1,351,340,2,-1,351,2,352,-1,196,353,189,-1,189,353,354,-1,189,354,2,-1,2,354,355,-1,2,355,352,-1,356,357,186,-1,186,357,358,-1,186,358,359,-1,359,360,186,-1,186,360,361,-1,186,361,187,-1,362,363,364,-1,365,366,367,-1,368,369,364,-1,364,369,370,-1,364,370,371,-1,366,372,367,-1,367,372,373,-1,367,373,374,-1,319,375,314,-1,314,375,376,-1,314,376,377,-1,377,376,378,-1,377,378,379,-1,380,381,357,-1,357,381,382,-1,357,382,383,-1,383,384,357,-1,357,384,385,-1,357,385,386,-1,386,385,387,-1,386,387,388,-1,388,387,389,-1,387,390,389,-1,389,390,391,-1,389,391,367,-1,367,391,392,-1,367,392,365,-1,393,394,356,-1,356,394,395,-1,356,395,396,-1,397,398,371,-1,371,398,399,-1,371,399,364,-1,364,399,400,-1,364,400,362,-1,374,401,367,-1,367,401,402,-1,367,402,403,-1,379,404,377,-1,377,404,405,-1,377,405,356,-1,356,405,406,-1,356,406,393,-1,396,407,356,-1,356,407,408,-1,356,408,357,-1,357,408,409,-1,357,409,380,-1,410,411,412,-1,412,413,410,-1,410,413,414,-1,410,414,415,-1,411,410,416,-1,416,410,417,-1,416,417,371,-1,371,417,418,-1,371,418,397,-1,419,420,367,-1,367,420,421,-1,367,421,364,-1,364,421,422,-1,364,422,368,-1,403,423,367,-1,367,423,424,-1,367,424,419,-1,370,425,371,-1,371,425,426,-1,371,426,427,-1,428,425,429,-1,429,425,370,-1,429,370,430,-1,430,370,431,-1,431,432,430,-1,430,432,433,-1,430,433,434,-1,435,436,437,-1,437,436,438,-1,436,439,429,-1,429,439,440,-1,429,440,441,-1,435,442,436,-1,436,442,443,-1,436,443,439,-1,444,445,446,-1,446,445,447,-1,446,447,448,-1,441,449,429,-1,429,449,450,-1,429,450,428,-1,427,451,371,-1,371,451,446,-1,371,446,452,-1,452,446,448,-1,33,5,36,-1,36,5,4,-1,36,4,453,-1,453,454,36,-1,36,454,455,-1,36,455,456,-1,456,455,457,-1,456,457,458,-1,459,460,461,-1,461,460,462,-1,461,462,463,-1,463,462,455,-1,463,455,464,-1,464,455,454,-1,464,454,465,-1,465,454,466,-1,465,466,467,-1,467,466,468,-1,457,469,458,-1,458,469,470,-1,458,470,220,-1,220,470,3,-1,220,3,118,-1,118,3,5,-1,118,5,116,-1,116,5,112,-1,471,472,473,-1,474,41,475,-1,476,477,478,-1,43,37,41,-1,41,37,36,-1,41,36,475,-1,475,36,479,-1,480,481,36,-1,473,482,471,-1,471,482,483,-1,471,483,484,-1,472,471,485,-1,485,471,479,-1,485,479,486,-1,487,488,479,-1,479,488,489,-1,479,489,486,-1,36,481,479,-1,479,481,490,-1,479,490,487,-1,484,491,471,-1,471,491,492,-1,471,492,493,-1,478,494,476,-1,476,494,474,-1,476,474,495,-1,495,474,475,-1,494,471,474,-1,474,471,493,-1,474,493,456,-1,456,493,496,-1,456,496,36,-1,36,496,497,-1,36,497,480,-1,200,474,202,-1,202,474,456,-1,202,456,203,-1,203,456,458,-1,203,458,209,-1,209,458,220,-1,209,220,248,-1,248,220,219,-1,42,498,44,-1,44,498,499,-1,44,499,102,-1,102,499,500,-1,102,500,103,-1,103,500,501,-1,103,501,14,-1,14,501,502,-1,14,502,16,-1,16,502,503,-1,16,503,32,-1,32,503,83,-1,32,83,47,-1,47,83,82,-1,182,135,183,-1,183,135,133,-1,183,133,217,-1,217,133,504,-1,505,506,504,-1,504,506,507,-1,138,154,133,-1,133,154,62,-1,133,62,504,-1,504,62,95,-1,504,95,505,-1,505,95,508,-1,188,217,186,-1,186,217,504,-1,186,504,356,-1,356,504,507,-1,356,507,377,-1,377,507,509,-1,377,509,95,-1,95,509,510,-1,95,510,508,-1,511,512,513,-1,513,512,505,-1,513,505,514,-1,514,505,508,-1,514,508,515,-1,515,508,516,-1,517,96,314,-1,517,518,96,-1,96,518,519,-1,96,519,95,-1,95,519,520,-1,95,520,377,-1,377,520,521,-1,377,521,314,-1,314,521,522,-1,314,522,517,-1,89,86,87,-1,87,86,85,-1,87,85,96,-1,96,85,523,-1,96,523,314,-1,314,523,324,-1,314,324,312,-1,312,324,325,-1,0,2,524,-1,524,2,340,-1,524,340,525,-1,525,340,344,-1,525,344,526,-1,526,344,327,-1,526,327,527,-1,527,327,322,-1,527,322,528,-1,498,529,499,-1,499,529,530,-1,499,530,500,-1,500,530,531,-1,500,531,501,-1,501,531,532,-1,501,532,502,-1,502,532,533,-1,502,533,503,-1,503,533,534,-1,503,534,83,-1,83,534,535,-1,83,535,85,-1,85,535,536,-1,85,536,523,-1,523,536,537,-1,523,537,324,-1,324,537,538,-1,324,538,322,-1,322,538,539,-1,322,539,528,-1,528,539,540,-1,541,542,543,-1,543,542,544,-1,545,207,189,-1,544,546,547,-1,548,549,550,-1,550,549,551,-1,550,551,552,-1,552,551,546,-1,553,547,554,-1,554,547,546,-1,554,546,555,-1,555,546,551,-1,555,551,556,-1,556,551,557,-1,556,557,553,-1,553,557,547,-1,558,559,560,-1,560,559,561,-1,560,561,562,-1,562,561,563,-1,562,563,564,-1,564,563,565,-1,566,567,558,-1,558,567,568,-1,558,568,559,-1,559,568,565,-1,547,545,544,-1,544,545,189,-1,544,189,543,-1,543,189,564,-1,543,564,569,-1,569,564,565,-1,569,565,570,-1,570,565,568,-1,570,568,541,-1,541,568,550,-1,541,550,542,-1,542,550,552,-1,571,572,573,-1,574,575,576,-1,577,578,579,-1,579,578,580,-1,581,582,576,-1,576,582,583,-1,576,583,574,-1,574,583,579,-1,574,579,573,-1,573,579,580,-1,573,580,584,-1,585,586,587,-1,587,571,585,-1,585,571,573,-1,585,573,588,-1,588,573,584,-1,588,584,589,-1,589,584,590,-1,583,582,591,-1,591,582,592,-1,593,594,595,-1,595,594,591,-1,595,591,596,-1,596,591,592,-1,597,598,599,-1,599,598,600,-1,580,578,601,-1,601,578,602,-1,603,604,605,-1,605,604,601,-1,605,601,606,-1,606,601,602,-1,607,608,609,-1,609,608,610,-1,588,589,611,-1,611,589,612,-1,613,614,615,-1,615,614,611,-1,615,611,616,-1,616,611,612,-1,571,587,617,-1,617,587,618,-1,619,620,621,-1,621,620,617,-1,621,617,622,-1,622,617,618,-1,623,624,625,-1,625,624,626,-1,627,628,629,-1,630,631,629,-1,629,631,632,-1,629,632,627,-1,633,634,623,-1,625,635,623,-1,623,635,636,-1,623,636,633,-1,637,638,597,-1,599,639,597,-1,597,639,640,-1,597,640,637,-1,641,642,607,-1,609,643,607,-1,607,643,644,-1,607,644,641,-1,645,646,647,-1,647,648,645,-1,645,648,649,-1,645,649,650,-1,581,576,651,-1,651,576,652,-1,651,652,653,-1,653,652,654,-1,654,652,655,-1,654,655,656,-1,624,657,658,-1,658,659,624,-1,624,659,660,-1,624,660,626,-1,588,611,585,-1,585,611,661,-1,586,585,662,-1,662,585,661,-1,662,661,663,-1,663,661,664,-1,664,661,665,-1,664,665,666,-1,608,667,668,-1,668,669,608,-1,608,669,670,-1,608,670,610,-1,580,601,584,-1,584,601,671,-1,590,584,672,-1,672,584,671,-1,672,671,673,-1,673,671,674,-1,674,671,675,-1,674,675,676,-1,598,677,678,-1,678,679,598,-1,598,679,680,-1,598,680,600,-1,583,591,579,-1,579,591,681,-1,577,579,682,-1,682,579,681,-1,682,681,683,-1,683,681,684,-1,684,681,685,-1,684,685,686,-1,687,688,689,-1,689,688,690,-1,691,692,693,-1,693,692,694,-1,695,690,696,-1,696,690,688,-1,697,698,699,-1,699,698,700,-1,571,617,572,-1,572,617,701,-1,620,702,617,-1,617,702,701,-1,629,645,630,-1,630,645,650,-1,703,704,652,-1,652,704,655,-1,575,703,576,-1,576,703,652,-1,611,614,661,-1,661,614,665,-1,601,604,671,-1,671,604,675,-1,591,594,681,-1,681,594,685,-1,705,694,706,-1,706,694,692,-1,707,708,709,-1,709,708,710,-1,709,710,711,-1,711,710,712,-1,713,714,715,-1,715,714,716,-1,715,716,717,-1,717,718,715,-1,715,718,719,-1,715,719,710,-1,710,719,720,-1,710,720,712,-1,721,709,722,-1,722,709,711,-1,722,711,723,-1,723,711,712,-1,723,712,724,-1,724,712,720,-1,725,724,719,-1,719,724,720,-1,725,719,726,-1,726,719,718,-1,726,718,727,-1,727,718,717,-1,727,717,728,-1,728,717,716,-1,729,730,731,-1,729,731,201,-1,201,731,710,-1,201,710,708,-1,713,715,191,-1,191,715,732,-1,191,732,733,-1,733,732,734,-1,735,736,737,-1,737,736,566,-1,737,566,558,-1,697,699,738,-1,738,699,548,-1,738,548,550,-1,738,739,697,-1,697,739,698,-1,568,567,739,-1,739,567,700,-1,739,700,698,-1,551,549,740,-1,740,549,741,-1,740,741,742,-1,743,744,729,-1,729,744,730,-1,721,745,709,-1,709,745,707,-1,689,746,687,-1,687,746,747,-1,736,691,566,-1,566,691,693,-1,566,693,567,-1,696,741,695,-1,695,741,549,-1,695,549,548,-1,699,700,548,-1,548,700,567,-1,548,567,695,-1,695,567,693,-1,748,573,572,-1,701,702,572,-1,572,702,749,-1,572,749,748,-1,750,574,748,-1,748,574,573,-1,574,750,575,-1,575,750,751,-1,575,751,703,-1,703,751,704,-1,752,666,665,-1,629,751,749,-1,753,676,675,-1,620,619,702,-1,702,619,646,-1,702,646,749,-1,749,646,645,-1,749,645,629,-1,754,686,685,-1,608,607,751,-1,665,614,752,-1,752,614,613,-1,752,613,755,-1,755,613,657,-1,755,657,624,-1,623,634,756,-1,756,608,623,-1,623,608,751,-1,623,751,624,-1,624,751,629,-1,624,629,755,-1,755,629,628,-1,607,642,757,-1,675,604,753,-1,753,604,603,-1,753,603,756,-1,756,603,667,-1,756,667,608,-1,607,757,751,-1,751,757,598,-1,751,598,597,-1,685,594,754,-1,754,594,593,-1,754,593,757,-1,757,593,677,-1,757,677,598,-1,656,655,758,-1,758,655,704,-1,758,704,759,-1,759,704,751,-1,759,751,638,-1,638,751,597,-1,706,760,705,-1,705,760,761,-1,735,737,762,-1,762,737,763,-1,762,763,764,-1,764,763,765,-1,764,765,766,-1,766,765,732,-1,766,732,767,-1,767,732,715,-1,767,715,768,-1,768,715,710,-1,768,710,769,-1,769,710,731,-1,769,731,770,-1,770,731,771,-1,770,771,772,-1,772,771,773,-1,742,772,740,-1,740,772,773,-1,722,774,721,-1,721,774,775,-1,721,775,745,-1,722,723,774,-1,774,723,724,-1,774,724,776,-1,776,724,725,-1,725,726,776,-1,776,726,727,-1,776,727,777,-1,777,727,728,-1,777,728,778,-1,778,728,714,-1,714,728,716,-1,779,733,780,-1,780,733,734,-1,557,773,547,-1,547,773,771,-1,744,545,730,-1,730,545,547,-1,730,547,731,-1,731,547,771,-1,732,765,734,-1,734,765,562,-1,734,562,780,-1,780,562,564,-1,562,765,560,-1,560,765,763,-1,558,560,737,-1,737,560,763,-1,738,550,739,-1,739,550,568,-1,551,740,557,-1,557,740,773,-1,545,744,207,-1,207,744,743,-1,207,743,206,-1,729,201,743,-1,743,201,206,-1,707,745,708,-1,708,745,775,-1,708,775,201,-1,201,775,199,-1,775,774,199,-1,199,774,197,-1,529,198,746,-1,746,198,747,-1,751,746,689,-1,689,690,751,-1,751,690,695,-1,751,695,749,-1,749,695,693,-1,746,751,529,-1,529,751,750,-1,529,750,540,-1,540,750,748,-1,540,748,761,-1,761,748,749,-1,761,749,705,-1,705,749,693,-1,705,693,694,-1,761,760,540,-1,540,760,0,-1,706,735,762,-1,696,688,687,-1,736,735,691,-1,691,735,706,-1,691,706,692,-1,741,696,742,-1,742,696,687,-1,742,687,772,-1,772,687,747,-1,772,747,770,-1,770,747,198,-1,770,198,769,-1,769,198,197,-1,769,197,768,-1,768,197,774,-1,768,774,767,-1,767,774,776,-1,767,776,766,-1,766,776,193,-1,766,193,764,-1,764,193,0,-1,764,0,762,-1,762,0,760,-1,762,760,706,-1,192,193,777,-1,777,193,776,-1,191,192,713,-1,713,192,777,-1,713,777,714,-1,714,777,778,-1,190,191,779,-1,779,191,733,-1,780,564,779,-1,779,564,189,-1,779,189,190,-1,
        ]
    }
}
Shape{
    appearance Appearance {
        material  Material 	{
            diffuseColor 0.8274509803921568 0.6666666666666666 0.12941176470588237
            specularColor 0.8274509803921568 0.6666666666666666 0.12941176470588237
            ambientIntensity 0.6535
            transparency 0.0
            shininess 0.5
        }
    }
    geometry IndexedFaceSet {
        ccw TRUE
        solid FALSE
        coord DEF co Coordinate {
            point [
                -1.375 0.1234 0.4508, -1.373 0.1234 0.4508, -1.373 0.1234 -1.0053, -1.625 0.1234 0.7708, -1.375 0.1234 0.7708, -1.625 0.1234 0.4508, -1.625 0.1234 -1.0053, -1.625 0.0722 0.9912, -1.375 0.0722 0.9912, -1.625 -0.0709 1.1664, -1.375 -0.0709 1.1664, -1.625 -0.2766 1.2607, -1.375 -0.2766 1.2607, -1.375 -0.2766 0.9999, -1.625 -0.2766 0.9999, -1.375 -0.1976 0.9453, -1.625 -0.1976 0.9453, -1.375 -0.145 0.865, -1.625 -0.145 0.865, -1.375 -0.1266 0.7708, -1.625 -0.1266 0.7708, -1.373 -0.1266 -1.0053, -1.373 -0.1266 0.4508, -1.625 -0.1266 -1.0053, -1.375 -0.1266 0.4508, -1.625 -0.1266 0.4508, -1.5463 -0.0478 -1.2992, -1.5463 0.0447 -1.2992, -1.4518 -0.0478 -1.2992, -1.4518 0.0447 -1.2992, -1.625 -3.6827 1.0208, -1.625 -1.5766 1.0208, -1.373 -3.6827 1.0208, -1.373 -1.5766 1.0208, -1.373 -3.6827 1.2708, -1.373 -1.5766 1.2708, -1.625 -3.6827 1.2708, -1.625 -1.5766 1.2708, -1.5463 -3.9766 1.192, -1.5463 -3.9766 1.0995, -1.4518 -3.9766 1.192, -1.4518 -3.9766 1.0995, -0.375 0.1234 0.4508, -0.373 0.1234 0.4508, -0.373 0.1234 -1.0053, -0.625 0.1234 0.7708, -0.375 0.1234 0.7708, -0.625 0.1234 0.4508, -0.625 0.1234 -1.0053, -0.625 0.0722 0.9912, -0.375 0.0722 0.9912, -0.625 -0.0709 1.1664, -0.375 -0.0709 1.1664, -0.625 -0.2766 1.2607, -0.375 -0.2766 1.2607, -0.375 -0.2766 0.9999, -0.625 -0.2766 0.9999, -0.375 -0.1976 0.9453, -0.625 -0.1976 0.9453, -0.375 -0.145 0.865, -0.625 -0.145 0.865, -0.375 -0.1266 0.7708, -0.625 -0.1266 0.7708, -0.373 -0.1266 -1.0053, -0.373 -0.1266 0.4508, -0.625 -0.1266 -1.0053, -0.375 -0.1266 0.4508, -0.625 -0.1266 0.4508, -0.5463 -0.0478 -1.2992, -0.5463 0.0447 -1.2992, -0.4518 -0.0478 -1.2992, -0.4518 0.0447 -1.2992, -0.625 -3.6827 1.0208, -0.625 -1.5766 1.0208, -0.373 -3.6827 1.0208, -0.373 -1.5766 1.0208, -0.373 -3.6827 1.2708, -0.373 -1.5766 1.2708, -0.625 -3.6827 1.2708, -0.625 -1.5766 1.2708, -0.5463 -3.9766 1.192, -0.5463 -3.9766 1.0995, -0.4518 -3.9766 1.192, -0.4518 -3.9766 1.0995, 0.625 0.1234 0.4508, 0.627 0.1234 0.4508, 0.627 0.1234 -1.0053, 0.375 0.1234 0.7708, 0.625 0.1234 0.7708, 0.375 0.1234 0.4508, 0.375 0.1234 -1.0053, 0.375 0.0722 0.9912, 0.625 0.0722 0.9912, 0.375 -0.0709 1.1664, 0.625 -0.0709 1.1664, 0.375 -0.2766 1.2607, 0.625 -0.2766 1.2607, 0.625 -0.2766 0.9999, 0.375 -0.2766 0.9999, 0.625 -0.1976 0.9453, 0.375 -0.1976 0.9453, 0.625 -0.145 0.865, 0.375 -0.145 0.865, 0.625 -0.1266 0.7708, 0.375 -0.1266 0.7708, 0.627 -0.1266 -1.0053, 0.627 -0.1266 0.4508, 0.375 -0.1266 -1.0053, 0.625 -0.1266 0.4508, 0.375 -0.1266 0.4508, 0.4537 -0.0478 -1.2992, 0.4537 0.0447 -1.2992, 0.5482 -0.0478 -1.2992, 0.5482 0.0447 -1.2992, 0.375 -3.6827 1.0208, 0.375 -1.5766 1.0208, 0.627 -3.6827 1.0208, 0.627 -1.5766 1.0208, 0.627 -3.6827 1.2708, 0.627 -1.5766 1.2708, 0.375 -3.6827 1.2708, 0.375 -1.5766 1.2708, 0.4537 -3.9766 1.192, 0.4537 -3.9766 1.0995, 0.5482 -3.9766 1.192, 0.5482 -3.9766 1.0995, 1.625 0.1234 0.4508, 1.627 0.1234 0.4508, 1.627 0.1234 -1.0053, 1.375 0.1234 0.7708, 1.625 0.1234 0.7708, 1.375 0.1234 0.4508, 1.375 0.1234 -1.0053, 1.375 0.0722 0.9912, 1.625 0.0722 0.9912, 1.375 -0.0709 1.1664, 1.625 -0.0709 1.1664, 1.375 -0.2766 1.2607, 1.625 -0.2766 1.2607, 1.625 -0.2766 0.9999, 1.375 -0.2766 0.9999, 1.625 -0.1976 0.9453, 1.375 -0.1976 0.9453, 1.625 -0.145 0.865, 1.375 -0.145 0.865, 1.625 -0.1266 0.7708, 1.375 -0.1266 0.7708, 1.627 -0.1266 -1.0053, 1.627 -0.1266 0.4508, 1.375 -0.1266 -1.0053, 1.625 -0.1266 0.4508, 1.375 -0.1266 0.4508, 1.4537 -0.0478 -1.2992, 1.4537 0.0447 -1.2992, 1.5482 -0.0478 -1.2992, 1.5482 0.0447 -1.2992, 1.375 -3.6827 1.0208, 1.375 -1.5766 1.0208, 1.627 -3.6827 1.0208, 1.627 -1.5766 1.0208, 1.627 -3.6827 1.2708, 1.627 -1.5766 1.2708, 1.375 -3.6827 1.2708, 1.375 -1.5766 1.2708, 1.4537 -3.9766 1.192, 1.4537 -3.9766 1.0995, 1.5482 -3.9766 1.192, 1.5482 -3.9766 1.0995
            ]
        }
        coordIndex [
            0,1,2,-1,3,4,5,-1,5,4,0,-1,5,0,6,-1,6,0,2,-1,4,3,7,-1,4,7,8,-1,8,7,9,-1,8,9,10,-1,10,9,11,-1,10,11,12,-1,13,14,15,-1,15,14,16,-1,15,16,17,-1,17,16,18,-1,17,18,19,-1,19,18,20,-1,21,22,23,-1,23,22,24,-1,23,24,25,-1,25,24,19,-1,25,19,20,-1,26,27,28,-1,28,27,29,-1,2,1,21,-1,21,1,22,-1,23,25,6,-1,6,25,5,-1,30,31,32,-1,32,31,33,-1,34,35,36,-1,36,35,37,-1,38,39,40,-1,40,39,41,-1,32,33,34,-1,34,33,35,-1,36,37,30,-1,30,37,31,-1,2,29,6,-1,6,29,27,-1,21,28,2,-1,2,28,29,-1,26,23,27,-1,27,23,6,-1,23,26,21,-1,21,26,28,-1,32,41,30,-1,30,41,39,-1,34,40,32,-1,32,40,41,-1,38,36,39,-1,39,36,30,-1,36,38,34,-1,34,38,40,-1,42,43,44,-1,45,46,47,-1,47,46,42,-1,47,42,48,-1,48,42,44,-1,46,45,49,-1,46,49,50,-1,50,49,51,-1,50,51,52,-1,52,51,53,-1,52,53,54,-1,55,56,57,-1,57,56,58,-1,57,58,59,-1,59,58,60,-1,59,60,61,-1,61,60,62,-1,63,64,65,-1,65,64,66,-1,65,66,67,-1,67,66,61,-1,67,61,62,-1,68,69,70,-1,70,69,71,-1,44,43,63,-1,63,43,64,-1,65,67,48,-1,48,67,47,-1,72,73,74,-1,74,73,75,-1,76,77,78,-1,78,77,79,-1,80,81,82,-1,82,81,83,-1,74,75,76,-1,76,75,77,-1,78,79,72,-1,72,79,73,-1,84,85,86,-1,87,88,89,-1,89,88,84,-1,89,84,90,-1,90,84,86,-1,88,87,91,-1,88,91,92,-1,92,91,93,-1,92,93,94,-1,94,93,95,-1,94,95,96,-1,97,98,99,-1,99,98,100,-1,99,100,101,-1,101,100,102,-1,101,102,103,-1,103,102,104,-1,105,106,107,-1,107,106,108,-1,107,108,109,-1,109,108,103,-1,109,103,104,-1,110,111,112,-1,112,111,113,-1,86,85,105,-1,105,85,106,-1,107,109,90,-1,90,109,89,-1,114,115,116,-1,116,115,117,-1,118,119,120,-1,120,119,121,-1,122,123,124,-1,124,123,125,-1,116,117,118,-1,118,117,119,-1,120,121,114,-1,114,121,115,-1,126,127,128,-1,129,130,131,-1,131,130,126,-1,131,126,132,-1,132,126,128,-1,130,129,133,-1,130,133,134,-1,134,133,135,-1,134,135,136,-1,136,135,137,-1,136,137,138,-1,139,140,141,-1,141,140,142,-1,141,142,143,-1,143,142,144,-1,143,144,145,-1,145,144,146,-1,147,148,149,-1,149,148,150,-1,149,150,151,-1,151,150,145,-1,151,145,146,-1,152,153,154,-1,154,153,155,-1,128,127,147,-1,147,127,148,-1,149,151,132,-1,132,151,131,-1,156,157,158,-1,158,157,159,-1,160,161,162,-1,162,161,163,-1,164,165,166,-1,166,165,167,-1,158,159,160,-1,160,159,161,-1,162,163,156,-1,156,163,157,-1,44,71,48,-1,48,71,69,-1,63,70,44,-1,44,70,71,-1,68,65,69,-1,69,65,48,-1,65,68,63,-1,63,68,70,-1,74,83,72,-1,72,83,81,-1,76,82,74,-1,74,82,83,-1,80,78,81,-1,81,78,72,-1,78,80,76,-1,76,80,82,-1,86,113,90,-1,90,113,111,-1,105,112,86,-1,86,112,113,-1,110,107,111,-1,111,107,90,-1,107,110,105,-1,105,110,112,-1,116,125,114,-1,114,125,123,-1,118,124,116,-1,116,124,125,-1,122,120,123,-1,123,120,114,-1,120,122,118,-1,118,122,124,-1,128,155,132,-1,132,155,153,-1,147,154,128,-1,128,154,155,-1,152,149,153,-1,153,149,132,-1,149,152,147,-1,147,152,154,-1,158,167,156,-1,156,167,165,-1,160,166,158,-1,158,166,167,-1,164,162,165,-1,165,162,156,-1,162,164,160,-1,160,164,166,-1,
        ]
    }
}
Shape{
    appearance Appearance {
        material  Material 	{
            diffuseColor 1.0 1.0 1.0
            specularColor 0.5019607843137255 0.5019607843137255 0.5019607843137255
            ambientIntensity 1.0
            transparency 0.0
            shininess 0.5
        }
    }
    geometry IndexedFaceSet {
        ccw TRUE
        solid FALSE
        coord DEF co Coordinate {
            point [
                0.6948 -1.0969 2.1547, 0.7115 -1.0855 2.1547, 0.6893 -1.0912 2.1547, 0.7047 -1.0787 2.1547, 0.6767 -1.083 2.1547, 0.6885 -1.0675 2.1547, 0.6624 -1.078 2.1547, 0.669 -1.0601 2.1547, 0.6421 -1.0759 2.1547, 0.6429 -1.0571 2.1547, 0.6174 -1.0759 2.1547, 0.5963 -1.0571 2.1547, 0.6174 -1.2019 2.1547, 0.5963 -1.2205 2.1547, 0.6411 -1.2019 2.1547, 0.6413 -1.2205 2.1547, 0.6615 -1.1997 2.1547, 0.6667 -1.2177 2.1547, 0.6756 -1.1948 2.1547, 0.6858 -1.2108 2.1547, 0.6865 -1.1877 2.1547, 0.7018 -1.2002 2.1547, 0.6897 -1.1848 2.1547, 0.7047 -1.1976 2.1547, 0.6983 -1.1741 2.1547, 0.7163 -1.184 2.1547, 0.7037 -1.1618 2.1547, 0.7246 -1.1672 2.1547, 0.7068 -1.1466 2.1547, 0.7288 -1.1483 2.1547, 0.7072 -1.1373 2.1547, 0.7294 -1.1367 2.1547, 0.7053 -1.1189 2.1547, 0.7271 -1.116 2.1547, 0.7009 -1.1064 2.1547, 0.7214 -1.1001 2.1547, 0.7047 -1.1976 2.1508, 0.7163 -1.184 2.1508, 0.7246 -1.1672 2.1508, 0.7288 -1.1483 2.1508, 0.7294 -1.1367 2.1508, 0.7271 -1.116 2.1508, 0.7214 -1.1001 2.1508, 0.7115 -1.0855 2.1508, 0.7047 -1.0787 2.1508, 0.6885 -1.0675 2.1508, 0.669 -1.0601 2.1508, 0.6429 -1.0571 2.1508, 0.5963 -1.0571 2.1508, 0.5963 -1.2205 2.1508, 0.6413 -1.2205 2.1508, 0.6667 -1.2177 2.1508, 0.6858 -1.2108 2.1508, 0.7018 -1.2002 2.1508, 0.6893 -1.0912 2.1508, 0.6948 -1.0969 2.1508, 0.7009 -1.1064 2.1508, 0.7053 -1.1189 2.1508, 0.7072 -1.1373 2.1508, 0.6421 -1.0759 2.1508, 0.6624 -1.078 2.1508, 0.6767 -1.083 2.1508, 0.6174 -1.0759 2.1508, 0.6174 -1.2019 2.1508, 0.6411 -1.2019 2.1508, 0.6897 -1.1848 2.1508, 0.6865 -1.1877 2.1508, 0.6756 -1.1948 2.1508, 0.6615 -1.1997 2.1508, 0.7068 -1.1466 2.1508, 0.7037 -1.1618 2.1508, 0.6983 -1.1741 2.1508
            ]
        }
        coordIndex [
            0,1,2,-1,2,1,3,-1,2,3,4,-1,4,3,5,-1,4,5,6,-1,6,5,7,-1,6,7,8,-1,8,7,9,-1,8,9,10,-1,10,9,11,-1,10,11,12,-1,12,11,13,-1,12,13,14,-1,14,13,15,-1,14,15,16,-1,16,15,17,-1,16,17,18,-1,18,17,19,-1,18,19,20,-1,20,19,21,-1,20,21,22,-1,22,21,23,-1,22,23,24,-1,24,23,25,-1,24,25,26,-1,26,25,27,-1,26,27,28,-1,28,27,29,-1,28,29,30,-1,30,29,31,-1,30,31,32,-1,32,31,33,-1,32,33,34,-1,34,33,35,-1,34,35,0,-1,0,35,1,-1,23,36,37,-1,23,37,25,-1,25,37,38,-1,25,38,27,-1,27,38,39,-1,27,39,29,-1,29,39,40,-1,29,40,31,-1,31,40,41,-1,31,41,33,-1,33,41,42,-1,33,42,35,-1,35,42,43,-1,35,43,1,-1,1,43,44,-1,1,44,3,-1,3,44,45,-1,3,45,5,-1,5,45,46,-1,5,46,7,-1,7,46,47,-1,7,47,9,-1,11,9,48,-1,48,9,47,-1,13,11,49,-1,49,11,48,-1,15,13,50,-1,50,13,49,-1,15,50,51,-1,15,51,17,-1,17,51,52,-1,17,52,19,-1,19,52,53,-1,19,53,21,-1,21,53,36,-1,21,36,23,-1,2,54,55,-1,2,55,0,-1,0,55,56,-1,0,56,34,-1,34,56,57,-1,34,57,32,-1,32,57,58,-1,32,58,30,-1,8,59,60,-1,8,60,6,-1,6,60,61,-1,6,61,4,-1,4,61,54,-1,4,54,2,-1,8,10,59,-1,59,10,62,-1,10,12,62,-1,62,12,63,-1,12,14,63,-1,63,14,64,-1,22,65,66,-1,22,66,20,-1,20,66,67,-1,20,67,18,-1,18,67,68,-1,18,68,16,-1,16,68,64,-1,16,64,14,-1,30,58,69,-1,30,69,28,-1,28,69,70,-1,28,70,26,-1,26,70,71,-1,26,71,24,-1,24,71,65,-1,24,65,22,-1,
        ]
    }
}
Shape{
    appearance Appearance {
        material  Material 	{
            diffuseColor 0.20784313725490197 0.20784313725490197 0.20784313725490197
            specularColor 0.01568627450980392 0.01568627450980392 0.01568627450980392
            ambientIntensity 0.298
            transparency 0.0
            shininess 0.5
        }
    }
    geometry IndexedFaceSet {
        ccw TRUE
        solid FALSE
        coord DEF co Coordinate {
            point [
                0.6174 -1.0759 2.1508, 0.6174 -1.2019 2.1508, 0.6421 -1.0759 2.1508, 0.6411 -1.2019 2.1508, 0.6615 -1.1997 2.1508, 0.6756 -1.1948 2.1508, 0.6865 -1.1877 2.1508, 0.6897 -1.1848 2.1508, 0.6983 -1.1741 2.1508, 0.7037 -1.1618 2.1508, 0.7068 -1.1466 2.1508, 0.7072 -1.1373 2.1508, 0.7053 -1.1189 2.1508, 0.7009 -1.1064 2.1508, 0.6948 -1.0969 2.1508, 0.6893 -1.0912 2.1508, 0.6624 -1.078 2.1508, 0.6767 -1.083 2.1508
            ]
        }
        coordIndex [
            0,1,2,-1,2,1,3,-1,2,3,4,-1,4,5,2,-1,2,5,6,-1,2,6,7,-1,7,8,2,-1,2,8,9,-1,2,9,10,-1,10,11,2,-1,2,11,12,-1,2,12,13,-1,13,14,2,-1,2,14,15,-1,2,15,16,-1,16,15,17,-1,
        ]
    }
}
Shape{
    appearance Appearance {
        material  Material 	{
            diffuseColor 1.0 1.0 1.0
            specularColor 0.5019607843137255 0.5019607843137255 0.5019607843137255
            ambientIntensity 1.0
            transparency 0.0
            shininess 0.5
        }
    }
    geometry IndexedFaceSet {
        ccw TRUE
        solid FALSE
        coord DEF co Coordinate {
            point [
                0.4024 -1.1917 2.1547, 0.4024 -1.1917 2.1508, 0.4008 -1.1971 2.1508, 0.4008 -1.1971 2.1547, 0.3999 -1.2011 2.1508, 0.3999 -1.2011 2.1547, 0.3994 -1.2011 2.1547, 0.3994 -1.2011 2.1508, 0.3969 -1.1915 2.1547, 0.3969 -1.1915 2.1508, 0.3664 -1.1038 2.1508, 0.3664 -1.1038 2.1547, 0.3762 -1.1322 2.1508, 0.3435 -1.1038 2.1547, 0.3435 -1.1038 2.1508, 0.3893 -1.2202 2.1508, 0.3893 -1.2202 2.1547, 0.3762 -1.1871 2.1508, 0.3803 -1.2415 2.1508, 0.3803 -1.2415 2.1547, 0.3886 -1.2219 2.1508, 0.3763 -1.2488 2.1508, 0.3763 -1.2488 2.1547, 0.3762 -1.2488 2.1508, 0.3725 -1.2531 2.1547, 0.3725 -1.2531 2.1508, 0.3687 -1.2557 2.1508, 0.3687 -1.2557 2.1547, 0.3642 -1.2574 2.1508, 0.3642 -1.2574 2.1547, 0.3593 -1.2579 2.1508, 0.3593 -1.2579 2.1547, 0.3519 -1.257 2.1508, 0.3519 -1.257 2.1547, 0.3477 -1.2556 2.1508, 0.3477 -1.2556 2.1547, 0.3477 -1.2738 2.1547, 0.3477 -1.2738 2.1508, 0.3564 -1.2753 2.1508, 0.3564 -1.2753 2.1547, 0.3609 -1.2755 2.1508, 0.3609 -1.2755 2.1547, 0.3692 -1.2745 2.1508, 0.3692 -1.2745 2.1547, 0.3762 -1.2718 2.1508, 0.3772 -1.2714 2.1547, 0.3772 -1.2714 2.1508, 0.3844 -1.2664 2.1508, 0.3844 -1.2664 2.1547, 0.3858 -1.2652 2.1508, 0.3858 -1.2652 2.1547, 0.3933 -1.2562 2.1508, 0.3933 -1.2562 2.1547, 0.4025 -1.2381 2.1508, 0.4025 -1.2381 2.1547, 0.4555 -1.1038 2.1508, 0.4555 -1.1038 2.1547, 0.4089 -1.2219 2.1508, 0.4343 -1.1038 2.1547, 0.4343 -1.1038 2.1508, 0.2857 -1.2233 2.1547, 0.2857 -1.2233 2.1508, 0.3023 -1.2215 2.1547, 0.2988 -1.2219 2.1508, 0.3023 -1.2215 2.1508, 0.3135 -1.2176 2.1508, 0.3135 -1.2176 2.1547, 0.3197 -1.214 2.1508, 0.3197 -1.214 2.1547, 0.3255 -1.2089 2.1508, 0.3255 -1.2089 2.1547, 0.3293 -1.2035 2.1508, 0.3293 -1.2035 2.1547, 0.3318 -1.197 2.1508, 0.3318 -1.197 2.1547, 0.3328 -1.1887 2.1508, 0.3328 -1.1887 2.1547, 0.332 -1.1811 2.1508, 0.332 -1.1811 2.1547, 0.3298 -1.1751 2.1508, 0.3298 -1.1751 2.1547, 0.326 -1.1694 2.1508, 0.326 -1.1694 2.1547, 0.3211 -1.1651 2.1508, 0.3211 -1.1651 2.1547, 0.3075 -1.1575 2.1508, 0.3075 -1.1575 2.1547, 0.2996 -1.1543 2.1508, 0.2996 -1.1543 2.1547, 0.2869 -1.1488 2.1508, 0.2869 -1.1488 2.1547, 0.2797 -1.1443 2.1508, 0.2797 -1.1443 2.1547, 0.2777 -1.1421 2.1508, 0.2777 -1.1421 2.1547, 0.2762 -1.1393 2.1508, 0.2762 -1.1393 2.1547, 0.2754 -1.1362 2.1508, 0.2754 -1.1362 2.1547, 0.2752 -1.1334 2.1508, 0.2752 -1.1334 2.1547, 0.2756 -1.1302 2.1508, 0.2756 -1.1302 2.1547, 0.2766 -1.1274 2.1508, 0.2766 -1.1274 2.1547, 0.2783 -1.1248 2.1508, 0.2783 -1.1248 2.1547, 0.2814 -1.1221 2.1508, 0.2814 -1.1221 2.1547, 0.286 -1.1196 2.1508, 0.286 -1.1196 2.1547, 0.2915 -1.1182 2.1508, 0.2915 -1.1182 2.1547, 0.2976 -1.1177 2.1508, 0.2976 -1.1177 2.1547, 0.311 -1.1193 2.1508, 0.311 -1.1193 2.1547, 0.3225 -1.1235 2.1508, 0.3225 -1.1235 2.1547, 0.3272 -1.1262 2.1508, 0.3272 -1.1262 2.1547, 0.3272 -1.1063 2.1547, 0.3272 -1.1063 2.1508, 0.3109 -1.1019 2.1508, 0.3109 -1.1019 2.1547, 0.2996 -1.1011 2.1508, 0.2996 -1.1011 2.1547, 0.2845 -1.1027 2.1508, 0.2845 -1.1027 2.1547, 0.2733 -1.1068 2.1508, 0.2733 -1.1068 2.1547, 0.2672 -1.1104 2.1508, 0.2672 -1.1104 2.1547, 0.2612 -1.1158 2.1547, 0.2635 -1.1138 2.1508, 0.2612 -1.1158 2.1508, 0.2574 -1.1214 2.1508, 0.2574 -1.1214 2.1547, 0.2549 -1.128 2.1508, 0.2549 -1.128 2.1547, 0.2541 -1.1353 2.1508, 0.2541 -1.1353 2.1547, 0.255 -1.1432 2.1508, 0.255 -1.1432 2.1547, 0.2573 -1.1495 2.1508, 0.2573 -1.1495 2.1547, 0.2599 -1.1537 2.1508, 0.2599 -1.1537 2.1547, 0.2851 -1.1692 2.1508, 0.2851 -1.1692 2.1547, 0.2729 -1.1636 2.1547, 0.2633 -1.1572 2.1508, 0.2633 -1.1572 2.1547, 0.2635 -1.1574 2.1508, 0.2729 -1.1636 2.1508, 0.2986 -1.1748 2.1508, 0.2986 -1.1748 2.1547, 0.3065 -1.1796 2.1508, 0.3065 -1.1796 2.1547, 0.3091 -1.1823 2.1508, 0.3091 -1.1823 2.1547, 0.3107 -1.185 2.1508, 0.3107 -1.185 2.1547, 0.3116 -1.1882 2.1508, 0.3116 -1.1882 2.1547, 0.3118 -1.1908 2.1508, 0.3118 -1.1908 2.1547, 0.3114 -1.1947 2.1508, 0.3114 -1.1947 2.1547, 0.3103 -1.1976 2.1508, 0.3103 -1.1976 2.1547, 0.3086 -1.2002 2.1508, 0.3086 -1.2002 2.1547, 0.3062 -1.2023 2.1508, 0.3062 -1.2023 2.1547, 0.3043 -1.2034 2.1508, 0.3043 -1.2034 2.1547, 0.2991 -1.2054 2.1508, 0.2991 -1.2054 2.1547, 0.2886 -1.2065 2.1508, 0.2886 -1.2065 2.1547, 0.2877 -1.2065 2.1508, 0.2877 -1.2065 2.1547, 0.254 -1.1953 2.1508, 0.254 -1.1953 2.1547, 0.262 -1.2002 2.1547, 0.2748 -1.205 2.1508, 0.2748 -1.205 2.1547, 0.2635 -1.2008 2.1508, 0.262 -1.2002 2.1508, 0.254 -1.2164 2.1547, 0.254 -1.2164 2.1508, 0.2686 -1.2215 2.1547, 0.2635 -1.2197 2.1508, 0.2722 -1.2219 2.1508, 0.2686 -1.2215 2.1508, 0.2058 -1.2205 2.1547, 0.2263 -1.2205 2.1547, 0.2058 -1.2024 2.1547, 0.2263 -1.1454 2.1547, 0.2058 -1.1463 2.1547, 0.1614 -1.1707 2.1547, 0.1663 -1.1684 2.1547, 0.2052 -1.2024 2.1547, 0.1944 -1.1994 2.1547, 0.2021 -1.2073 2.1547, 0.1887 -1.2033 2.1547, 0.1785 -1.1656 2.1547, 0.2058 -1.1619 2.1547, 0.2058 -1.1731 2.1547, 0.2058 -1.1745 2.1547, 0.2044 -1.1836 2.1547, 0.2014 -1.1909 2.1547, 0.197 -1.1969 2.1547, 0.2051 -1.1373 2.1547, 0.2247 -1.1302 2.1547, 0.203 -1.13 2.1547, 0.2216 -1.1208 2.1547, 0.2006 -1.1258 2.1547, 0.2174 -1.1141 2.1547, 0.1975 -1.1225 2.1547, 0.212 -1.1088 2.1547, 0.1938 -1.1201 2.1547, 0.2052 -1.1049 2.1547, 0.1891 -1.1185 2.1547, 0.1967 -1.1023 2.1547, 0.1821 -1.1177 2.1547, 0.1841 -1.1011 2.1547, 0.1698 -1.119 2.1547, 0.1648 -1.1032 2.1547, 0.157 -1.1235 2.1547, 0.1494 -1.1089 2.1547, 0.1439 -1.1319 2.1547, 0.1439 -1.112 2.1547, 0.1574 -1.1994 2.1547, 0.1425 -1.2141 2.1547, 0.1592 -1.2012 2.1547, 0.1494 -1.2189 2.1547, 0.1632 -1.204 2.1547, 0.1572 -1.2218 2.1547, 0.1679 -1.2057 2.1547, 0.1695 -1.2233 2.1547, 0.1748 -1.2065 2.1547, 0.18 -1.2221 2.1547, 0.1825 -1.2056 2.1547, 0.1883 -1.2191 2.1547, 0.1956 -1.2143 2.1547, 0.1534 -1.1843 2.1547, 0.1326 -1.1863 2.1547, 0.1532 -1.1876 2.1547, 0.1325 -1.1892 2.1547, 0.1538 -1.1923 2.1547, 0.1335 -1.1985 2.1547, 0.1551 -1.196 2.1547, 0.136 -1.2055 2.1547, 0.1402 -1.2117 2.1547, 0.1712 -1.1512 2.1547, 0.1563 -1.1548 2.1547, 0.1587 -1.1728 2.1547, 0.1474 -1.1592 2.1547, 0.1562 -1.1758 2.1547, 0.141 -1.1646 2.1547, 0.1544 -1.1796 2.1547, 0.1368 -1.1704 2.1547, 0.1339 -1.1776 2.1547, 0.1821 -1.1177 2.1508, 0.1891 -1.1185 2.1508, 0.1938 -1.1201 2.1508, 0.1975 -1.1225 2.1508, 0.2006 -1.1258 2.1508, 0.203 -1.13 2.1508, 0.2051 -1.1373 2.1508, 0.2058 -1.1463 2.1508, 0.1712 -1.1512 2.1508, 0.1563 -1.1548 2.1508, 0.1474 -1.1592 2.1508, 0.141 -1.1646 2.1508, 0.1368 -1.1704 2.1508, 0.1339 -1.1776 2.1508, 0.1326 -1.1863 2.1508, 0.1325 -1.1892 2.1508, 0.1335 -1.1985 2.1508, 0.136 -1.2055 2.1508, 0.1402 -1.2117 2.1508, 0.1425 -1.2141 2.1508, 0.1695 -1.2233 2.1508, 0.1576 -1.2219 2.1508, 0.1572 -1.2218 2.1508, 0.1494 -1.2189 2.1508, 0.18 -1.2221 2.1508, 0.1806 -1.2219 2.1508, 0.1883 -1.2191 2.1508, 0.1956 -1.2143 2.1508, 0.2021 -1.2073 2.1508, 0.2052 -1.2024 2.1508, 0.2058 -1.2024 2.1508, 0.2058 -1.2205 2.1508, 0.2263 -1.2205 2.1508, 0.2263 -1.1454 2.1508, 0.2247 -1.1302 2.1508, 0.2216 -1.1208 2.1508, 0.2174 -1.1141 2.1508, 0.212 -1.1088 2.1508, 0.2052 -1.1049 2.1508, 0.1967 -1.1023 2.1508, 0.1841 -1.1011 2.1508, 0.1648 -1.1032 2.1508, 0.1494 -1.1089 2.1508, 0.1439 -1.112 2.1508, 0.1439 -1.1319 2.1508, 0.157 -1.1235 2.1508, 0.1698 -1.119 2.1508, 0.197 -1.1969 2.1508, 0.1944 -1.1994 2.1508, 0.1887 -1.2033 2.1508, 0.1825 -1.2056 2.1508, 0.1748 -1.2065 2.1508, 0.2058 -1.1731 2.1508, 0.2058 -1.1745 2.1508, 0.2044 -1.1836 2.1508, 0.2014 -1.1909 2.1508, 0.2058 -1.1619 2.1508, 0.1785 -1.1656 2.1508, 0.1587 -1.1728 2.1508, 0.1614 -1.1707 2.1508, 0.1663 -1.1684 2.1508, 0.1532 -1.1876 2.1508, 0.1534 -1.1843 2.1508, 0.1544 -1.1796 2.1508, 0.1562 -1.1758 2.1508, 0.1592 -1.2012 2.1508, 0.1574 -1.1994 2.1508, 0.1551 -1.196 2.1508, 0.1538 -1.1923 2.1508, 0.1679 -1.2057 2.1508, 0.1632 -1.204 2.1508
            ]
        }
        coordIndex [
            0,1,2,-1,0,2,3,-1,3,2,4,-1,3,4,5,-1,6,5,7,-1,7,5,4,-1,8,6,9,-1,9,6,7,-1,10,11,12,-1,12,11,8,-1,12,8,9,-1,13,11,14,-1,14,11,10,-1,15,16,17,-1,17,16,13,-1,17,13,14,-1,18,19,20,-1,20,19,16,-1,20,16,15,-1,19,18,21,-1,19,21,22,-1,22,21,23,-1,22,23,24,-1,23,25,24,-1,24,25,26,-1,24,26,27,-1,27,26,28,-1,27,28,29,-1,29,28,30,-1,29,30,31,-1,31,30,32,-1,31,32,33,-1,33,32,34,-1,33,34,35,-1,36,35,37,-1,37,35,34,-1,36,37,38,-1,36,38,39,-1,39,38,40,-1,39,40,41,-1,41,40,42,-1,41,42,43,-1,43,42,44,-1,43,44,45,-1,44,46,45,-1,45,46,47,-1,45,47,48,-1,48,47,49,-1,48,49,50,-1,50,49,51,-1,50,51,52,-1,52,51,53,-1,52,53,54,-1,55,56,57,-1,57,56,54,-1,57,54,53,-1,58,56,59,-1,59,56,55,-1,0,58,1,-1,1,58,59,-1,3,5,54,-1,56,58,54,-1,54,58,0,-1,54,0,3,-1,11,13,8,-1,8,13,16,-1,8,16,6,-1,52,22,50,-1,50,22,24,-1,35,36,33,-1,33,36,39,-1,33,39,31,-1,31,39,41,-1,31,41,29,-1,29,41,43,-1,29,43,27,-1,27,43,45,-1,27,45,24,-1,24,45,48,-1,24,48,50,-1,5,6,54,-1,54,6,16,-1,54,16,52,-1,52,16,19,-1,52,19,22,-1,60,61,62,-1,62,61,63,-1,63,64,62,-1,62,64,65,-1,62,65,66,-1,66,65,67,-1,66,67,68,-1,68,67,69,-1,68,69,70,-1,70,69,71,-1,70,71,72,-1,72,71,73,-1,72,73,74,-1,74,73,75,-1,74,75,76,-1,76,75,77,-1,76,77,78,-1,78,77,79,-1,78,79,80,-1,80,79,81,-1,80,81,82,-1,82,81,83,-1,82,83,84,-1,84,83,85,-1,84,85,86,-1,86,85,87,-1,86,87,88,-1,88,87,89,-1,88,89,90,-1,90,89,91,-1,90,91,92,-1,92,91,93,-1,92,93,94,-1,94,93,95,-1,94,95,96,-1,96,95,97,-1,96,97,98,-1,98,97,99,-1,98,99,100,-1,100,99,101,-1,100,101,102,-1,102,101,103,-1,102,103,104,-1,104,103,105,-1,104,105,106,-1,106,105,107,-1,106,107,108,-1,108,107,109,-1,108,109,110,-1,110,109,111,-1,110,111,112,-1,112,111,113,-1,112,113,114,-1,114,113,115,-1,114,115,116,-1,116,115,117,-1,116,117,118,-1,118,117,119,-1,118,119,120,-1,121,120,122,-1,122,120,119,-1,121,122,123,-1,121,123,124,-1,124,123,125,-1,124,125,126,-1,126,125,127,-1,126,127,128,-1,128,127,129,-1,128,129,130,-1,130,129,131,-1,130,131,132,-1,132,131,133,-1,133,131,134,-1,134,135,133,-1,133,135,136,-1,133,136,137,-1,137,136,138,-1,137,138,139,-1,139,138,140,-1,139,140,141,-1,141,140,142,-1,141,142,143,-1,143,142,144,-1,143,144,145,-1,145,144,146,-1,145,146,147,-1,148,149,150,-1,147,146,151,-1,147,151,152,-1,152,151,153,-1,152,153,150,-1,150,153,154,-1,150,154,148,-1,149,148,155,-1,149,155,156,-1,156,155,157,-1,156,157,158,-1,158,157,159,-1,158,159,160,-1,160,159,161,-1,160,161,162,-1,162,161,163,-1,162,163,164,-1,164,163,165,-1,164,165,166,-1,166,165,167,-1,166,167,168,-1,168,167,169,-1,168,169,170,-1,170,169,171,-1,170,171,172,-1,172,171,173,-1,172,173,174,-1,174,173,175,-1,174,175,176,-1,176,175,177,-1,176,177,178,-1,178,177,179,-1,178,179,180,-1,180,179,181,-1,180,181,182,-1,183,184,185,-1,182,181,186,-1,182,186,187,-1,187,186,188,-1,187,188,185,-1,185,188,189,-1,185,189,183,-1,190,184,191,-1,191,184,183,-1,190,191,192,-1,192,191,193,-1,61,60,194,-1,194,60,192,-1,194,192,195,-1,195,192,193,-1,106,108,130,-1,130,108,128,-1,156,88,149,-1,149,88,90,-1,66,68,172,-1,172,68,70,-1,172,70,170,-1,170,70,72,-1,170,72,168,-1,168,72,74,-1,168,74,166,-1,166,74,76,-1,166,76,164,-1,164,76,78,-1,164,78,162,-1,162,78,80,-1,162,80,160,-1,160,80,82,-1,160,82,158,-1,158,82,84,-1,158,84,156,-1,156,84,86,-1,156,86,88,-1,60,182,192,-1,192,182,187,-1,192,187,190,-1,190,187,185,-1,190,185,184,-1,108,110,128,-1,128,110,112,-1,128,112,126,-1,126,112,114,-1,126,114,124,-1,124,114,116,-1,124,116,121,-1,121,116,118,-1,121,118,120,-1,172,174,66,-1,66,174,176,-1,66,176,62,-1,62,176,178,-1,62,178,60,-1,60,178,180,-1,60,180,182,-1,130,132,106,-1,106,132,133,-1,106,133,104,-1,104,133,137,-1,104,137,102,-1,102,137,139,-1,102,139,100,-1,100,139,141,-1,100,141,98,-1,98,141,143,-1,98,143,96,-1,96,143,145,-1,96,145,94,-1,94,145,147,-1,94,147,92,-1,92,147,152,-1,92,152,90,-1,90,152,150,-1,90,150,149,-1,196,197,198,-1,198,197,199,-1,200,201,202,-1,203,204,205,-1,205,204,206,-1,207,208,199,-1,199,208,209,-1,209,210,199,-1,199,210,211,-1,199,211,198,-1,198,211,212,-1,198,212,203,-1,203,212,213,-1,203,213,204,-1,202,207,200,-1,200,207,199,-1,200,199,214,-1,214,199,215,-1,214,215,216,-1,216,215,217,-1,216,217,218,-1,218,217,219,-1,218,219,220,-1,220,219,221,-1,220,221,222,-1,222,221,223,-1,222,223,224,-1,224,223,225,-1,224,225,226,-1,226,225,227,-1,226,227,228,-1,228,227,229,-1,228,229,230,-1,230,229,231,-1,230,231,232,-1,232,231,233,-1,234,235,236,-1,236,235,237,-1,236,237,238,-1,238,237,239,-1,238,239,240,-1,240,239,241,-1,240,241,242,-1,242,241,243,-1,242,243,244,-1,244,243,245,-1,244,245,206,-1,206,245,246,-1,206,246,205,-1,247,248,249,-1,249,248,250,-1,249,250,251,-1,251,250,252,-1,251,252,253,-1,253,252,254,-1,253,254,234,-1,234,254,255,-1,234,255,235,-1,200,256,201,-1,201,256,257,-1,201,257,258,-1,258,257,259,-1,258,259,260,-1,260,259,261,-1,260,261,262,-1,262,261,263,-1,262,263,247,-1,247,263,264,-1,247,264,248,-1,226,265,266,-1,226,266,224,-1,224,266,267,-1,224,267,222,-1,222,267,268,-1,222,268,220,-1,220,268,269,-1,220,269,218,-1,218,269,270,-1,218,270,216,-1,216,270,271,-1,216,271,214,-1,214,271,272,-1,214,272,200,-1,256,200,273,-1,273,200,272,-1,256,273,274,-1,256,274,257,-1,257,274,275,-1,257,275,259,-1,259,275,276,-1,259,276,261,-1,261,276,277,-1,261,277,263,-1,263,277,278,-1,263,278,264,-1,264,278,279,-1,264,279,248,-1,248,279,280,-1,248,280,250,-1,250,280,281,-1,250,281,252,-1,252,281,282,-1,252,282,254,-1,254,282,283,-1,254,283,255,-1,255,283,284,-1,255,284,235,-1,285,241,286,-1,286,241,239,-1,286,239,287,-1,287,239,237,-1,287,237,288,-1,288,237,235,-1,288,235,284,-1,241,285,289,-1,241,289,243,-1,243,289,290,-1,243,290,245,-1,290,291,245,-1,245,291,292,-1,245,292,246,-1,246,292,293,-1,246,293,205,-1,205,293,294,-1,205,294,203,-1,198,203,295,-1,295,203,294,-1,196,198,296,-1,296,198,295,-1,197,196,297,-1,297,196,296,-1,199,197,298,-1,298,197,297,-1,199,298,299,-1,199,299,215,-1,215,299,300,-1,215,300,217,-1,217,300,301,-1,217,301,219,-1,219,301,302,-1,219,302,221,-1,221,302,303,-1,221,303,223,-1,223,303,304,-1,223,304,225,-1,225,304,305,-1,225,305,227,-1,227,305,306,-1,227,306,229,-1,229,306,307,-1,229,307,231,-1,231,307,308,-1,231,308,233,-1,232,233,309,-1,309,233,308,-1,232,309,310,-1,232,310,230,-1,230,310,311,-1,230,311,228,-1,228,311,265,-1,228,265,226,-1,213,312,313,-1,213,313,204,-1,204,313,314,-1,204,314,206,-1,206,314,315,-1,206,315,244,-1,244,315,316,-1,244,316,242,-1,209,317,318,-1,209,318,210,-1,210,318,319,-1,210,319,211,-1,211,319,320,-1,211,320,212,-1,212,320,312,-1,212,312,213,-1,209,208,317,-1,317,208,321,-1,208,207,321,-1,321,207,322,-1,258,323,324,-1,258,324,201,-1,201,324,325,-1,201,325,202,-1,202,325,322,-1,202,322,207,-1,249,326,327,-1,249,327,247,-1,247,327,328,-1,247,328,262,-1,262,328,329,-1,262,329,260,-1,260,329,323,-1,260,323,258,-1,236,330,331,-1,236,331,234,-1,234,331,332,-1,234,332,253,-1,253,332,333,-1,253,333,251,-1,251,333,326,-1,251,326,249,-1,242,316,334,-1,242,334,240,-1,240,334,335,-1,240,335,238,-1,238,335,330,-1,238,330,236,-1,
        ]
    }
}
Shape{
    appearance Appearance {
        material  Material 	{
            diffuseColor 0.20784313725490197 0.20784313725490197 0.20784313725490197
            specularColor 0.01568627450980392 0.01568627450980392 0.01568627450980392
            ambientIntensity 0.298
            transparency 0.0
            shininess 0.5
        }
    }
    geometry IndexedFaceSet {
        ccw TRUE
        solid FALSE
        coord DEF co Coordinate {
            point [
                0.2058 -1.1619 2.1508, 0.1785 -1.1656 2.1508, 0.2058 -1.1731 2.1508, 0.1663 -1.1684 2.1508, 0.1614 -1.1707 2.1508, 0.1587 -1.1728 2.1508, 0.2058 -1.1745 2.1508, 0.2044 -1.1836 2.1508, 0.1562 -1.1758 2.1508, 0.2014 -1.1909 2.1508, 0.1574 -1.1994 2.1508, 0.1592 -1.2012 2.1508, 0.1944 -1.1994 2.1508, 0.1551 -1.196 2.1508, 0.1887 -1.2033 2.1508, 0.1825 -1.2056 2.1508, 0.1748 -1.2065 2.1508, 0.1544 -1.1796 2.1508, 0.1534 -1.1843 2.1508, 0.197 -1.1969 2.1508, 0.1532 -1.1876 2.1508, 0.1538 -1.1923 2.1508, 0.1632 -1.204 2.1508, 0.1679 -1.2057 2.1508
            ]
        }
        coordIndex [
            0,1,2,-1,2,1,3,-1,3,4,2,-1,2,4,5,-1,2,5,6,-1,6,5,7,-1,7,5,8,-1,7,8,9,-1,10,11,12,-1,10,12,13,-1,14,12,15,-1,15,12,16,-1,8,17,9,-1,9,17,18,-1,9,18,19,-1,19,18,20,-1,19,20,12,-1,12,20,21,-1,12,21,13,-1,11,22,12,-1,12,22,23,-1,12,23,16,-1,
        ]
    }
}
Shape{
    appearance Appearance {
        material  Material 	{
            diffuseColor 1.0 1.0 1.0
            specularColor 0.5019607843137255 0.5019607843137255 0.5019607843137255
            ambientIntensity 1.0
            transparency 0.0
            shininess 0.5
        }
    }
    geometry IndexedFaceSet {
        ccw TRUE
        solid FALSE
        coord DEF co Coordinate {
            point [
                -0.6962 -1.2445 2.1547, -0.6787 -1.2657 2.1547, -0.7072 -1.1409 2.1547, -0.2219 -1.1359 2.1547, -0.2423 -1.1457 2.1547, -0.2234 -1.2144 2.1547, -0.5569 -1.0716 2.1547, -0.5851 -1.0649 2.1547, -0.6105 -1.1389 2.1547, -0.7326 -1.1252 2.1547, -0.7233 -1.2143 2.1547, -0.7084 -1.2187 2.1547, -0.5895 -1.1385 2.1547, -0.5787 -1.1423 2.1547, -0.4818 -1.1699 2.1547, -0.5694 -1.1486 2.1547, -0.5619 -1.157 2.1547, -0.3191 -1.084 2.1547, -0.3552 -1.0224 2.1547, -0.5109 -1.1037 2.1547, -0.5992 -1.1374 2.1547, -0.6444 -1.1861 2.1547, -0.6438 -1.1747 2.1547, -0.6404 -1.1638 2.1547, -0.6948 -1.1165 2.1547, -0.6343 -1.1542 2.1547, -0.6757 -1.0944 2.1547, -0.6298 -1.1493 2.1547, -0.652 -1.0778 2.1547, -0.6207 -1.1429 2.1547, -0.6264 -1.0678 2.1547, -0.598 -1.0642 2.1547, -0.6352 -0.8504 2.1547, -0.5992 -0.9352 2.1547, -0.5843 -0.9032 2.1547, -0.5568 -1.1665 2.1547, -0.5542 -1.1773 2.1547, -0.4818 -1.1816 2.1547, -0.5541 -1.1879 2.1547, -0.4826 -1.1954 2.1547, -0.5321 -1.0846 2.1547, -0.2576 -1.2211 2.1547, -0.2645 -1.1502 2.1547, -0.3261 -1.2211 2.1547, -0.3168 -1.1502 2.1547, -0.3327 -1.22 2.1547, -0.6114 -0.8227 2.1547, -0.5594 -0.8712 2.1547, -0.5841 -0.7993 2.1547, -0.5276 -0.8466 2.1547, -0.5558 -0.7818 2.1547, -0.7288 -0.94 2.1547, -0.7031 -0.9259 2.1547, -0.7079 -0.8538 2.1547, -0.6746 -0.9186 2.1547, -0.6619 -0.8481 2.1547, -0.6607 -0.9178 2.1547, -0.6485 -0.8488 2.1547, -0.6339 -0.9211 2.1547, -0.6079 -0.9305 2.1547, -0.2808 -0.9689 2.1547, -0.2715 -0.9689 2.1547, -0.2239 -0.9062 2.1547, -0.2485 -0.9719 2.1547, -0.214 -0.9097 2.1547, -0.2283 -0.9799 2.1547, -0.1798 -0.9278 2.1547, -0.2104 -0.9927 2.1547, -0.1491 -0.9552 2.1547, -0.1994 -1.0047 2.1547, -0.1263 -0.9889 2.1547, -0.188 -1.0243 2.1547, -0.1131 -1.0247 2.1547, -0.1818 -1.0464 2.1547, -0.1088 -1.0584 2.1547, -0.1809 -1.0596 2.1547, -0.1091 -1.0667 2.1547, -0.1839 -1.0832 2.1547, -0.5022 -0.7611 2.1547, -0.49 -0.8303 2.1547, -0.4446 -0.754 2.1547, -0.2866 -0.8144 2.1547, -0.3211 -0.8791 2.1547, -0.2485 -0.8584 2.1547, -0.2979 -0.9129 2.1547, -0.2837 -0.952 2.1547, -0.6422 -1.1969 2.1547, -0.6376 -1.2067 2.1547, -0.1876 -1.1981 2.1547, -0.1567 -1.1739 2.1547, -0.2048 -1.1214 2.1547, -0.1518 -1.1688 2.1547, -0.1922 -1.1038 2.1547, -0.1312 -1.1409 2.1547, -0.1155 -1.1047 2.1547, -0.7733 -1.0054 2.1547, -0.8498 -1.0255 2.1547, -0.7769 -1.034 2.1547, -0.8501 -1.0363 2.1547, -0.7755 -1.0522 2.1547, -0.8444 -1.0822 2.1547, -0.7671 -1.0806 2.1547, -0.8277 -1.1254 2.1547, -0.7534 -1.1038 2.1547, -0.8013 -1.163 2.1547, -0.7652 -1.1938 2.1547, -0.7509 -0.8706 2.1547, -0.7878 -0.8966 2.1547, -0.747 -0.9564 2.1547, -0.7955 -0.9039 2.1547, -0.7633 -0.9795 2.1547, -0.8236 -0.9399 2.1547, -0.8421 -0.9818 2.1547, -0.4899 -1.2239 2.1547, -0.5569 -1.1991 2.1547, -0.504 -1.2496 2.1547, -0.5623 -1.2091 2.1547, -0.5204 -1.2678 2.1547, -0.5686 -1.2162 2.1547, -0.5435 -1.2841 2.1547, -0.5775 -1.2225 2.1547, -0.5694 -1.2941 2.1547, -0.5875 -1.2265 2.1547, -0.598 -1.2977 2.1547, -0.5992 -1.228 2.1547, -0.6014 -1.2977 2.1547, -0.6011 -1.228 2.1547, -0.6289 -1.2937 2.1547, -0.6116 -1.2263 2.1547, -0.6558 -1.2826 2.1547, -0.6221 -1.2218 2.1547, -0.631 -1.215 2.1547, -0.3227 -1.1491 2.1547, -0.3506 -1.2089 2.1547, -0.3479 -1.2116 2.1547, -0.4515 -0.8239 2.1547, -0.4435 -0.8237 2.1547, -0.3967 -0.759 2.1547, -0.409 -0.8274 2.1547, -0.3384 -0.7796 2.1547, -0.3722 -0.8402 2.1547, -0.339 -0.8617 2.1547, -0.3192 -1.1499 2.1547, -0.3403 -1.217 2.1547, -0.3598 -1.185 2.1547, -0.3587 -1.1937 2.1547, -0.3557 -1.2016 2.1547, -0.3328 -1.1502 2.1547, -0.3408 -1.1533 2.1547, -0.3595 -1.1805 2.1547, -0.3479 -1.1584 2.1547, -0.3527 -1.1637 2.1547, -0.3572 -1.1716 2.1547, -0.3238 -1.149 2.1547, -0.1088 -1.0584 2.1508, -0.1131 -1.0247 2.1508, -0.1183 -1.0105 2.1508, -0.1263 -0.9889 2.1508, -0.1491 -0.9552 2.1508, -0.1798 -0.9278 2.1508, -0.214 -0.9097 2.1508, -0.2239 -0.9062 2.1508, -0.2485 -0.8584 2.1508, -0.2866 -0.8144 2.1508, -0.3133 -0.7965 2.1508, -0.3384 -0.7796 2.1508, -0.3967 -0.759 2.1508, -0.4446 -0.754 2.1508, -0.5022 -0.7611 2.1508, -0.5558 -0.7818 2.1508, -0.5795 -0.7965 2.1508, -0.5841 -0.7993 2.1508, -0.6114 -0.8227 2.1508, -0.6352 -0.8504 2.1508, -0.6485 -0.8488 2.1508, -0.6619 -0.8481 2.1508, -0.7079 -0.8538 2.1508, -0.7509 -0.8706 2.1508, -0.7878 -0.8966 2.1508, -0.7955 -0.9039 2.1508, -0.8501 -1.0363 2.1508, -0.8236 -0.9399 2.1508, -0.8421 -0.9818 2.1508, -0.8472 -1.0105 2.1508, -0.8498 -1.0255 2.1508, -0.8444 -1.0822 2.1508, -0.8277 -1.1254 2.1508, -0.8013 -1.163 2.1508, -0.7652 -1.1938 2.1508, -0.7233 -1.2143 2.1508, -0.7084 -1.2187 2.1508, -0.7069 -1.2219 2.1508, -0.6962 -1.2445 2.1508, -0.6787 -1.2657 2.1508, -0.6558 -1.2826 2.1508, -0.6461 -1.2866 2.1508, -0.6289 -1.2937 2.1508, -0.6014 -1.2977 2.1508, -0.598 -1.2977 2.1508, -0.4818 -1.1816 2.1508, -0.5694 -1.2941 2.1508, -0.55 -1.2866 2.1508, -0.5435 -1.2841 2.1508, -0.5204 -1.2678 2.1508, -0.504 -1.2496 2.1508, -0.4899 -1.2239 2.1508, -0.4893 -1.2219 2.1508, -0.4826 -1.1954 2.1508, -0.4818 -1.1699 2.1508, -0.3191 -1.084 2.1508, -0.3552 -1.0224 2.1508, -0.5109 -1.1037 2.1508, -0.5321 -1.0846 2.1508, -0.5569 -1.0716 2.1508, -0.5851 -1.0649 2.1508, -0.598 -1.0642 2.1508, -0.6264 -1.0678 2.1508, -0.652 -1.0778 2.1508, -0.6757 -1.0944 2.1508, -0.6948 -1.1165 2.1508, -0.7072 -1.1409 2.1508, -0.7326 -1.1252 2.1508, -0.7534 -1.1038 2.1508, -0.7671 -1.0806 2.1508, -0.7755 -1.0522 2.1508, -0.7769 -1.034 2.1508, -0.774 -1.0105 2.1508, -0.7733 -1.0054 2.1508, -0.7633 -0.9795 2.1508, -0.747 -0.9564 2.1508, -0.7288 -0.94 2.1508, -0.7031 -0.9259 2.1508, -0.6746 -0.9186 2.1508, -0.6607 -0.9178 2.1508, -0.6339 -0.9211 2.1508, -0.6079 -0.9305 2.1508, -0.5992 -0.9352 2.1508, -0.5843 -0.9032 2.1508, -0.5594 -0.8712 2.1508, -0.5276 -0.8466 2.1508, -0.49 -0.8303 2.1508, -0.4515 -0.8239 2.1508, -0.4435 -0.8237 2.1508, -0.409 -0.8274 2.1508, -0.3722 -0.8402 2.1508, -0.339 -0.8617 2.1508, -0.3211 -0.8791 2.1508, -0.2979 -0.9129 2.1508, -0.2837 -0.952 2.1508, -0.2808 -0.9689 2.1508, -0.2715 -0.9689 2.1508, -0.2485 -0.9719 2.1508, -0.2283 -0.9799 2.1508, -0.2104 -0.9927 2.1508, -0.1994 -1.0047 2.1508, -0.196 -1.0105 2.1508, -0.188 -1.0243 2.1508, -0.1818 -1.0464 2.1508, -0.1809 -1.0596 2.1508, -0.1839 -1.0832 2.1508, -0.1922 -1.1038 2.1508, -0.2048 -1.1214 2.1508, -0.2219 -1.1359 2.1508, -0.2423 -1.1457 2.1508, -0.2645 -1.1502 2.1508, -0.3168 -1.1502 2.1508, -0.3192 -1.1499 2.1508, -0.3227 -1.1491 2.1508, -0.3238 -1.149 2.1508, -0.3328 -1.1502 2.1508, -0.3408 -1.1533 2.1508, -0.3479 -1.1584 2.1508, -0.3527 -1.1637 2.1508, -0.3572 -1.1716 2.1508, -0.3595 -1.1805 2.1508, -0.3598 -1.185 2.1508, -0.3587 -1.1937 2.1508, -0.3557 -1.2016 2.1508, -0.3506 -1.2089 2.1508, -0.3479 -1.2116 2.1508, -0.3403 -1.217 2.1508, -0.3327 -1.22 2.1508, -0.3261 -1.2211 2.1508, -0.2576 -1.2211 2.1508, -0.2234 -1.2144 2.1508, -0.1876 -1.1981 2.1508, -0.1567 -1.1739 2.1508, -0.1518 -1.1688 2.1508, -0.1312 -1.1409 2.1508, -0.1155 -1.1047 2.1508, -0.1091 -1.0667 2.1508, -0.5992 -1.1374 2.1508, -0.5895 -1.1385 2.1508, -0.5787 -1.1423 2.1508, -0.5694 -1.1486 2.1508, -0.5619 -1.157 2.1508, -0.5568 -1.1665 2.1508, -0.5542 -1.1773 2.1508, -0.5541 -1.1879 2.1508, -0.5569 -1.1991 2.1508, -0.5623 -1.2091 2.1508, -0.5686 -1.2162 2.1508, -0.5775 -1.2225 2.1508, -0.5875 -1.2265 2.1508, -0.5992 -1.228 2.1508, -0.6011 -1.228 2.1508, -0.6116 -1.2263 2.1508, -0.6221 -1.2218 2.1508, -0.631 -1.215 2.1508, -0.6376 -1.2067 2.1508, -0.6422 -1.1969 2.1508, -0.6444 -1.1861 2.1508, -0.6438 -1.1747 2.1508, -0.6404 -1.1638 2.1508, -0.6343 -1.1542 2.1508, -0.6298 -1.1493 2.1508, -0.6207 -1.1429 2.1508, -0.6105 -1.1389 2.1508
            ]
        }
        coordIndex [
            0,1,2,-1,3,4,5,-1,6,7,8,-1,9,10,2,-1,2,10,11,-1,2,11,0,-1,12,13,14,-1,14,13,15,-1,14,15,16,-1,17,18,14,-1,14,18,19,-1,14,19,12,-1,12,19,20,-1,21,22,2,-1,2,22,23,-1,2,23,24,-1,24,23,25,-1,24,25,26,-1,26,25,27,-1,26,27,28,-1,28,27,29,-1,28,29,30,-1,30,29,8,-1,30,8,31,-1,31,8,7,-1,32,33,34,-1,16,35,14,-1,14,35,36,-1,14,36,37,-1,37,36,38,-1,37,38,39,-1,20,19,8,-1,8,19,40,-1,8,40,6,-1,5,4,41,-1,41,4,42,-1,41,42,43,-1,43,42,44,-1,43,44,45,-1,32,34,46,-1,46,34,47,-1,46,47,48,-1,48,47,49,-1,48,49,50,-1,51,52,53,-1,53,52,54,-1,53,54,55,-1,55,54,56,-1,55,56,57,-1,57,56,58,-1,57,58,32,-1,32,58,59,-1,32,59,33,-1,60,61,62,-1,62,61,63,-1,62,63,64,-1,64,63,65,-1,64,65,66,-1,66,65,67,-1,66,67,68,-1,68,67,69,-1,68,69,70,-1,70,69,71,-1,70,71,72,-1,72,71,73,-1,72,73,74,-1,74,73,75,-1,74,75,76,-1,76,75,77,-1,50,49,78,-1,78,49,79,-1,78,79,80,-1,81,82,83,-1,83,82,84,-1,83,84,62,-1,62,84,85,-1,62,85,60,-1,21,2,86,-1,86,2,1,-1,86,1,87,-1,5,88,3,-1,3,88,89,-1,3,89,90,-1,90,89,91,-1,90,91,92,-1,92,91,93,-1,92,93,77,-1,77,93,94,-1,77,94,76,-1,95,96,97,-1,97,96,98,-1,97,98,99,-1,99,98,100,-1,99,100,101,-1,101,100,102,-1,101,102,103,-1,103,102,104,-1,103,104,9,-1,9,104,105,-1,9,105,10,-1,53,106,51,-1,51,106,107,-1,51,107,108,-1,108,107,109,-1,108,109,110,-1,110,109,111,-1,110,111,95,-1,95,111,112,-1,95,112,96,-1,39,38,113,-1,113,38,114,-1,113,114,115,-1,115,114,116,-1,115,116,117,-1,117,116,118,-1,117,118,119,-1,119,118,120,-1,119,120,121,-1,121,120,122,-1,121,122,123,-1,123,122,124,-1,123,124,125,-1,125,124,126,-1,125,126,127,-1,127,126,128,-1,127,128,129,-1,129,128,130,-1,129,130,1,-1,1,130,131,-1,1,131,87,-1,132,133,134,-1,79,135,80,-1,80,135,136,-1,80,136,137,-1,137,136,138,-1,137,138,139,-1,139,138,140,-1,139,140,81,-1,81,140,141,-1,81,141,82,-1,44,142,45,-1,45,142,132,-1,45,132,143,-1,143,132,134,-1,144,145,132,-1,132,145,146,-1,132,146,133,-1,147,148,149,-1,148,150,149,-1,149,150,151,-1,149,151,152,-1,144,132,149,-1,149,132,153,-1,149,153,147,-1,74,154,155,-1,74,155,72,-1,72,155,156,-1,72,156,70,-1,156,157,70,-1,70,157,158,-1,70,158,68,-1,68,158,159,-1,68,159,66,-1,66,159,160,-1,66,160,64,-1,64,160,161,-1,64,161,62,-1,62,161,162,-1,62,162,83,-1,83,162,163,-1,83,163,81,-1,139,81,164,-1,164,81,163,-1,164,165,139,-1,139,165,166,-1,139,166,137,-1,137,166,167,-1,137,167,80,-1,80,167,168,-1,80,168,78,-1,78,168,169,-1,78,169,50,-1,50,169,48,-1,48,169,170,-1,48,170,171,-1,48,171,172,-1,48,172,46,-1,46,172,173,-1,46,173,32,-1,32,173,174,-1,32,174,57,-1,57,174,175,-1,57,175,55,-1,55,175,176,-1,55,176,53,-1,53,176,177,-1,53,177,106,-1,106,177,178,-1,106,178,107,-1,107,178,179,-1,107,179,109,-1,180,98,96,-1,109,179,181,-1,109,181,111,-1,111,181,182,-1,111,182,112,-1,112,182,183,-1,112,183,96,-1,96,183,184,-1,96,184,180,-1,98,180,185,-1,98,185,100,-1,100,185,186,-1,100,186,102,-1,102,186,187,-1,102,187,104,-1,104,187,188,-1,104,188,105,-1,105,188,189,-1,105,189,10,-1,10,189,190,-1,10,190,11,-1,11,190,191,-1,11,191,0,-1,191,192,0,-1,0,192,193,-1,0,193,1,-1,1,193,194,-1,1,194,129,-1,129,194,195,-1,129,195,127,-1,195,196,127,-1,127,196,197,-1,127,197,125,-1,125,197,198,-1,125,198,123,-1,199,37,39,-1,123,198,200,-1,201,119,200,-1,200,119,121,-1,200,121,123,-1,201,202,119,-1,119,202,203,-1,119,203,117,-1,117,203,204,-1,117,204,115,-1,115,204,205,-1,115,205,113,-1,113,205,206,-1,113,206,39,-1,39,206,207,-1,39,207,199,-1,14,37,208,-1,208,37,199,-1,17,14,209,-1,209,14,208,-1,18,17,210,-1,210,17,209,-1,19,18,211,-1,211,18,210,-1,19,211,212,-1,19,212,40,-1,40,212,213,-1,40,213,6,-1,6,213,214,-1,6,214,7,-1,7,214,215,-1,7,215,31,-1,31,215,216,-1,31,216,30,-1,30,216,217,-1,30,217,28,-1,28,217,218,-1,28,218,26,-1,26,218,219,-1,26,219,24,-1,24,219,220,-1,24,220,2,-1,2,220,221,-1,2,221,9,-1,9,221,222,-1,9,222,103,-1,103,222,223,-1,103,223,101,-1,101,223,224,-1,101,224,99,-1,99,224,225,-1,99,225,97,-1,97,225,95,-1,95,225,226,-1,226,227,95,-1,95,227,228,-1,95,228,110,-1,110,228,229,-1,110,229,108,-1,108,229,230,-1,108,230,51,-1,51,230,231,-1,51,231,52,-1,52,231,232,-1,52,232,54,-1,54,232,233,-1,54,233,56,-1,56,233,234,-1,56,234,58,-1,58,234,235,-1,58,235,59,-1,59,235,236,-1,59,236,33,-1,33,236,237,-1,33,237,34,-1,34,237,238,-1,34,238,47,-1,47,238,239,-1,47,239,49,-1,49,239,240,-1,49,240,79,-1,79,240,241,-1,79,241,135,-1,135,241,242,-1,135,242,136,-1,136,242,243,-1,136,243,138,-1,138,243,244,-1,138,244,140,-1,140,244,245,-1,140,245,141,-1,141,245,246,-1,141,246,82,-1,82,246,247,-1,82,247,84,-1,84,247,248,-1,84,248,85,-1,85,248,249,-1,85,249,60,-1,61,60,250,-1,250,60,249,-1,61,250,251,-1,61,251,63,-1,63,251,252,-1,63,252,65,-1,65,252,253,-1,65,253,67,-1,67,253,254,-1,67,254,69,-1,69,254,255,-1,69,255,71,-1,255,256,71,-1,71,256,257,-1,71,257,73,-1,73,257,258,-1,73,258,75,-1,75,258,259,-1,75,259,77,-1,77,259,260,-1,77,260,92,-1,92,260,261,-1,92,261,90,-1,90,261,262,-1,90,262,3,-1,3,262,263,-1,3,263,4,-1,4,263,264,-1,4,264,42,-1,44,42,265,-1,265,42,264,-1,44,265,266,-1,44,266,142,-1,142,266,267,-1,142,267,132,-1,132,267,268,-1,132,268,153,-1,153,268,269,-1,153,269,147,-1,147,269,270,-1,147,270,148,-1,148,270,271,-1,148,271,150,-1,150,271,272,-1,150,272,151,-1,151,272,273,-1,151,273,152,-1,152,273,274,-1,152,274,149,-1,149,274,275,-1,149,275,144,-1,144,275,276,-1,144,276,145,-1,145,276,277,-1,145,277,146,-1,146,277,278,-1,146,278,133,-1,133,278,279,-1,133,279,134,-1,134,279,280,-1,134,280,143,-1,143,280,281,-1,143,281,45,-1,45,281,282,-1,45,282,43,-1,41,43,283,-1,283,43,282,-1,41,283,284,-1,41,284,5,-1,5,284,285,-1,5,285,88,-1,88,285,286,-1,88,286,89,-1,89,286,287,-1,89,287,91,-1,91,287,288,-1,91,288,93,-1,93,288,289,-1,93,289,94,-1,94,289,290,-1,94,290,76,-1,76,290,154,-1,76,154,74,-1,20,291,292,-1,20,292,12,-1,12,292,293,-1,12,293,13,-1,13,293,294,-1,13,294,15,-1,15,294,295,-1,15,295,16,-1,16,295,296,-1,16,296,35,-1,35,296,297,-1,35,297,36,-1,36,297,298,-1,36,298,38,-1,38,298,299,-1,38,299,114,-1,114,299,300,-1,114,300,116,-1,116,300,301,-1,116,301,118,-1,118,301,302,-1,118,302,120,-1,120,302,303,-1,120,303,122,-1,122,303,304,-1,122,304,124,-1,124,304,305,-1,124,305,126,-1,126,305,306,-1,126,306,128,-1,128,306,307,-1,128,307,130,-1,130,307,308,-1,130,308,131,-1,131,308,309,-1,131,309,87,-1,87,309,310,-1,87,310,86,-1,86,310,311,-1,86,311,21,-1,21,311,312,-1,21,312,22,-1,22,312,313,-1,22,313,23,-1,23,313,314,-1,23,314,25,-1,25,314,315,-1,25,315,27,-1,27,315,316,-1,27,316,29,-1,29,316,317,-1,29,317,8,-1,8,317,291,-1,8,291,20,-1,
        ]
    }
}
Shape{
    appearance Appearance {
        material  Material 	{
            diffuseColor 0.20784313725490197 0.20784313725490197 0.20784313725490197
            specularColor 0.01568627450980392 0.01568627450980392 0.01568627450980392
            ambientIntensity 0.298
            transparency 0.0
            shininess 0.5
        }
    }
    geometry IndexedFaceSet {
        ccw TRUE
        solid FALSE
        coord DEF co Coordinate {
            point [
                -0.6011 -1.228 2.1508, -0.6298 -1.1493 2.1508, -0.6343 -1.1542 2.1508, -0.5875 -1.2265 2.1508, -0.5775 -1.2225 2.1508, -0.5895 -1.1385 2.1508, -0.5992 -1.1374 2.1508, -0.6105 -1.1389 2.1508, -0.6207 -1.1429 2.1508, -0.6422 -1.1969 2.1508, -0.6376 -1.2067 2.1508, -0.631 -1.215 2.1508, -0.5992 -1.228 2.1508, -0.6404 -1.1638 2.1508, -0.6438 -1.1747 2.1508, -0.6444 -1.1861 2.1508, -0.6221 -1.2218 2.1508, -0.6116 -1.2263 2.1508, -0.5686 -1.2162 2.1508, -0.5623 -1.2091 2.1508, -0.5569 -1.1991 2.1508, -0.5541 -1.1879 2.1508, -0.5542 -1.1773 2.1508, -0.5568 -1.1665 2.1508, -0.5619 -1.157 2.1508, -0.5694 -1.1486 2.1508, -0.5787 -1.1423 2.1508
            ]
        }
        coordIndex [
            0,1,2,-1,3,4,5,-1,6,7,0,-1,0,7,8,-1,0,8,1,-1,9,10,2,-1,2,10,11,-1,6,0,5,-1,5,0,12,-1,5,12,3,-1,13,14,2,-1,2,14,15,-1,2,15,9,-1,11,16,2,-1,2,16,17,-1,2,17,0,-1,4,18,5,-1,5,18,19,-1,5,19,20,-1,20,21,5,-1,5,21,22,-1,5,22,23,-1,23,24,5,-1,5,24,25,-1,5,25,26,-1,
        ]
    }
}
Shape{
    appearance Appearance {
        material  Material 	{
            diffuseColor 1.0 1.0 1.0
            specularColor 0.5019607843137255 0.5019607843137255 0.5019607843137255
            ambientIntensity 1.0
            transparency 0.0
            shininess 0.5
        }
    }
    geometry IndexedFaceSet {
        ccw TRUE
        solid FALSE
        coord DEF co Coordinate {
            point [
                0.4902 -0.8377 2.1547, 0.5069 -0.8263 2.1547, 0.4846 -0.832 2.1547, 0.5001 -0.8195 2.1547, 0.4721 -0.8238 2.1547, 0.4839 -0.8083 2.1547, 0.4578 -0.8188 2.1547, 0.4643 -0.8008 2.1547, 0.4375 -0.8166 2.1547, 0.4383 -0.7978 2.1547, 0.4128 -0.8166 2.1547, 0.3917 -0.7978 2.1547, 0.4128 -0.9426 2.1547, 0.3917 -0.9612 2.1547, 0.4365 -0.9426 2.1547, 0.4366 -0.9612 2.1547, 0.4569 -0.9405 2.1547, 0.462 -0.9585 2.1547, 0.471 -0.9355 2.1547, 0.4811 -0.9516 2.1547, 0.4819 -0.9285 2.1547, 0.4971 -0.941 2.1547, 0.4851 -0.9256 2.1547, 0.5001 -0.9384 2.1547, 0.4936 -0.9148 2.1547, 0.5117 -0.9248 2.1547, 0.4991 -0.9025 2.1547, 0.5199 -0.908 2.1547, 0.5021 -0.8873 2.1547, 0.5241 -0.8891 2.1547, 0.5025 -0.878 2.1547, 0.5247 -0.8775 2.1547, 0.5006 -0.8596 2.1547, 0.5225 -0.8568 2.1547, 0.4963 -0.8471 2.1547, 0.5167 -0.8408 2.1547, 0.5001 -0.9384 2.1508, 0.5117 -0.9248 2.1508, 0.5199 -0.908 2.1508, 0.5241 -0.8891 2.1508, 0.5247 -0.8775 2.1508, 0.5225 -0.8568 2.1508, 0.5167 -0.8408 2.1508, 0.5069 -0.8263 2.1508, 0.5001 -0.8195 2.1508, 0.4839 -0.8083 2.1508, 0.4665 -0.8017 2.1508, 0.4643 -0.8008 2.1508, 0.4383 -0.7978 2.1508, 0.3917 -0.7978 2.1508, 0.3917 -0.9612 2.1508, 0.4366 -0.9612 2.1508, 0.462 -0.9585 2.1508, 0.4665 -0.9568 2.1508, 0.4811 -0.9516 2.1508, 0.4971 -0.941 2.1508, 0.4846 -0.832 2.1508, 0.4902 -0.8377 2.1508, 0.4963 -0.8471 2.1508, 0.5006 -0.8596 2.1508, 0.5025 -0.878 2.1508, 0.4375 -0.8166 2.1508, 0.4578 -0.8188 2.1508, 0.4721 -0.8238 2.1508, 0.4128 -0.8166 2.1508, 0.4128 -0.9426 2.1508, 0.4365 -0.9426 2.1508, 0.4851 -0.9256 2.1508, 0.4819 -0.9285 2.1508, 0.471 -0.9355 2.1508, 0.4569 -0.9405 2.1508, 0.5021 -0.8873 2.1508, 0.4991 -0.9025 2.1508, 0.4936 -0.9148 2.1508
            ]
        }
        coordIndex [
            0,1,2,-1,2,1,3,-1,2,3,4,-1,4,3,5,-1,4,5,6,-1,6,5,7,-1,6,7,8,-1,8,7,9,-1,8,9,10,-1,10,9,11,-1,10,11,12,-1,12,11,13,-1,12,13,14,-1,14,13,15,-1,14,15,16,-1,16,15,17,-1,16,17,18,-1,18,17,19,-1,18,19,20,-1,20,19,21,-1,20,21,22,-1,22,21,23,-1,22,23,24,-1,24,23,25,-1,24,25,26,-1,26,25,27,-1,26,27,28,-1,28,27,29,-1,28,29,30,-1,30,29,31,-1,30,31,32,-1,32,31,33,-1,32,33,34,-1,34,33,35,-1,34,35,0,-1,0,35,1,-1,23,36,37,-1,23,37,25,-1,25,37,38,-1,25,38,27,-1,27,38,39,-1,27,39,29,-1,29,39,40,-1,29,40,31,-1,31,40,41,-1,31,41,33,-1,33,41,42,-1,33,42,35,-1,35,42,43,-1,35,43,1,-1,1,43,44,-1,1,44,3,-1,3,44,45,-1,46,7,45,-1,45,7,5,-1,45,5,3,-1,46,47,7,-1,7,47,48,-1,7,48,9,-1,11,9,49,-1,49,9,48,-1,13,11,50,-1,50,11,49,-1,15,13,51,-1,51,13,50,-1,15,51,52,-1,15,52,17,-1,17,52,53,-1,17,53,19,-1,53,54,19,-1,19,54,55,-1,19,55,21,-1,21,55,36,-1,21,36,23,-1,2,56,57,-1,2,57,0,-1,0,57,58,-1,0,58,34,-1,34,58,59,-1,34,59,32,-1,32,59,60,-1,32,60,30,-1,8,61,62,-1,8,62,6,-1,6,62,63,-1,6,63,4,-1,4,63,56,-1,4,56,2,-1,8,10,61,-1,61,10,64,-1,10,12,64,-1,64,12,65,-1,12,14,65,-1,65,14,66,-1,22,67,68,-1,22,68,20,-1,20,68,69,-1,20,69,18,-1,18,69,70,-1,18,70,16,-1,16,70,66,-1,16,66,14,-1,30,60,71,-1,30,71,28,-1,28,71,72,-1,28,72,26,-1,26,72,73,-1,26,73,24,-1,24,73,67,-1,24,67,22,-1,
        ]
    }
}
Shape{
    appearance Appearance {
        material  Material 	{
            diffuseColor 0.20784313725490197 0.20784313725490197 0.20784313725490197
            specularColor 0.01568627450980392 0.01568627450980392 0.01568627450980392
            ambientIntensity 0.298
            transparency 0.0
            shininess 0.5
        }
    }
    geometry IndexedFaceSet {
        ccw TRUE
        solid FALSE
        coord DEF co Coordinate {
            point [
                0.4128 -0.8166 2.1508, 0.4128 -0.9426 2.1508, 0.4375 -0.8166 2.1508, 0.4365 -0.9426 2.1508, 0.4569 -0.9405 2.1508, 0.471 -0.9355 2.1508, 0.4819 -0.9285 2.1508, 0.4851 -0.9256 2.1508, 0.4936 -0.9148 2.1508, 0.4991 -0.9025 2.1508, 0.5021 -0.8873 2.1508, 0.5025 -0.878 2.1508, 0.5006 -0.8596 2.1508, 0.4963 -0.8471 2.1508, 0.4902 -0.8377 2.1508, 0.4846 -0.832 2.1508, 0.4578 -0.8188 2.1508, 0.4721 -0.8238 2.1508
            ]
        }
        coordIndex [
            0,1,2,-1,2,1,3,-1,2,3,4,-1,4,5,2,-1,2,5,6,-1,2,6,7,-1,7,8,2,-1,2,8,9,-1,2,9,10,-1,10,11,2,-1,2,11,12,-1,2,12,13,-1,13,14,2,-1,2,14,15,-1,2,15,16,-1,16,15,17,-1,
        ]
    }
}
Shape{
    appearance Appearance {
        material  Material 	{
            diffuseColor 1.0 1.0 1.0
            specularColor 0.5019607843137255 0.5019607843137255 0.5019607843137255
            ambientIntensity 1.0
            transparency 0.0
            shininess 0.5
        }
    }
    geometry IndexedFaceSet {
        ccw TRUE
        solid FALSE
        coord DEF co Coordinate {
            point [
                0.198 -0.9452 2.1547, 0.198 -0.9452 2.1508, 0.1828 -0.9435 2.1508, 0.1828 -0.9435 2.1547, 0.1709 -0.9392 2.1508, 0.1709 -0.9392 2.1547, 0.16 -0.9319 2.1508, 0.16 -0.9319 2.1547, 0.156 -0.928 2.1508, 0.156 -0.928 2.1547, 0.1477 -0.9163 2.1508, 0.1477 -0.9163 2.1547, 0.1426 -0.903 2.1508, 0.1426 -0.903 2.1547, 0.14 -0.8829 2.1508, 0.14 -0.8829 2.1547, 0.14 -0.8814 2.1508, 0.14 -0.8814 2.1547, 0.1422 -0.861 2.1508, 0.1422 -0.861 2.1547, 0.1473 -0.8464 2.1508, 0.1473 -0.8464 2.1547, 0.1549 -0.8348 2.1508, 0.1549 -0.8348 2.1547, 0.1572 -0.8323 2.1508, 0.1572 -0.8323 2.1547, 0.1676 -0.8235 2.1508, 0.1676 -0.8235 2.1547, 0.1804 -0.8174 2.1508, 0.1804 -0.8174 2.1547, 0.1945 -0.8145 2.1508, 0.1945 -0.8145 2.1547, 0.2017 -0.8141 2.1508, 0.2017 -0.8141 2.1547, 0.2209 -0.8163 2.1508, 0.2209 -0.8163 2.1547, 0.2376 -0.8224 2.1508, 0.2376 -0.8224 2.1547, 0.2402 -0.8238 2.1508, 0.2402 -0.8238 2.1547, 0.2402 -0.8018 2.1547, 0.2402 -0.8018 2.1508, 0.2015 -0.7951 2.1508, 0.2015 -0.7951 2.1547, 0.203 -0.7951 2.1547, 0.2241 -0.797 2.1508, 0.2241 -0.797 2.1547, 0.2183 -0.7965 2.1508, 0.203 -0.7951 2.1508, 0.1797 -0.7975 2.1547, 0.1891 -0.7965 2.1508, 0.1797 -0.7975 2.1508, 0.1623 -0.8038 2.1508, 0.1623 -0.8038 2.1547, 0.1462 -0.8146 2.1508, 0.1462 -0.8146 2.1547, 0.1415 -0.8191 2.1508, 0.1415 -0.8191 2.1547, 0.1301 -0.8338 2.1508, 0.1252 -0.8449 2.1508, 0.1221 -0.8518 2.1547, 0.1301 -0.8338 2.1547, 0.1221 -0.8518 2.1508, 0.1182 -0.8729 2.1508, 0.1182 -0.8729 2.1547, 0.1179 -0.8826 2.1508, 0.1179 -0.8826 2.1547, 0.1205 -0.9069 2.1508, 0.1252 -0.9199 2.1508, 0.1268 -0.9244 2.1547, 0.1205 -0.9069 2.1547, 0.1268 -0.9244 2.1508, 0.1362 -0.9387 2.1508, 0.1362 -0.9387 2.1547, 0.1388 -0.9417 2.1508, 0.1388 -0.9417 2.1547, 0.1512 -0.9521 2.1508, 0.1512 -0.9521 2.1547, 0.1665 -0.9596 2.1508, 0.1665 -0.9596 2.1547, 0.184 -0.9634 2.1508, 0.184 -0.9634 2.1547, 0.195 -0.964 2.1508, 0.195 -0.964 2.1547, 0.2218 -0.9612 2.1508, 0.2218 -0.9612 2.1547, 0.2402 -0.9545 2.1508, 0.2402 -0.9545 2.1547, 0.2402 -0.9343 2.1547, 0.2402 -0.9343 2.1508, 0.2235 -0.9417 2.1508, 0.2235 -0.9417 2.1547, 0.2049 -0.945 2.1508, 0.2049 -0.945 2.1547, 0.7841 -1.1573 2.1547, 0.7775 -1.1758 2.1547, 0.839 -1.1573 2.1547, 0.8455 -1.1758 2.1547, 0.8086 -1.0894 2.1547, 0.8007 -1.0571 2.1547, 0.7384 -1.2205 2.1547, 0.7617 -1.2205 2.1547, 0.81 -1.0845 2.1547, 0.8112 -1.078 2.1547, 0.8232 -1.0571 2.1547, 0.8117 -1.078 2.1547, 0.8131 -1.0849 2.1547, 0.8143 -1.0894 2.1547, 0.8855 -1.2205 2.1547, 0.8622 -1.2205 2.1547, 0.8007 -1.0571 2.1508, 0.8232 -1.0571 2.1508, 0.7384 -1.2205 2.1508, 0.7617 -1.2205 2.1508, 0.7775 -1.1758 2.1508, 0.8455 -1.1758 2.1508, 0.8622 -1.2205 2.1508, 0.8855 -1.2205 2.1508, 0.8086 -1.0894 2.1508, 0.81 -1.0845 2.1508, 0.8112 -1.078 2.1508, 0.7841 -1.1573 2.1508, 0.839 -1.1573 2.1508, 0.8143 -1.0894 2.1508, 0.8117 -1.078 2.1508, 0.8131 -1.0849 2.1508
            ]
        }
        coordIndex [
            0,1,2,-1,0,2,3,-1,3,2,4,-1,3,4,5,-1,5,4,6,-1,5,6,7,-1,7,6,8,-1,7,8,9,-1,9,8,10,-1,9,10,11,-1,11,10,12,-1,11,12,13,-1,13,12,14,-1,13,14,15,-1,15,14,16,-1,15,16,17,-1,17,16,18,-1,17,18,19,-1,19,18,20,-1,19,20,21,-1,21,20,22,-1,21,22,23,-1,23,22,24,-1,23,24,25,-1,25,24,26,-1,25,26,27,-1,27,26,28,-1,27,28,29,-1,29,28,30,-1,29,30,31,-1,31,30,32,-1,31,32,33,-1,33,32,34,-1,33,34,35,-1,35,34,36,-1,35,36,37,-1,37,36,38,-1,37,38,39,-1,40,39,41,-1,41,39,38,-1,42,43,44,-1,40,41,45,-1,40,45,46,-1,46,45,47,-1,46,47,44,-1,44,47,48,-1,44,48,42,-1,43,42,49,-1,49,42,50,-1,50,51,49,-1,49,51,52,-1,49,52,53,-1,53,52,54,-1,53,54,55,-1,55,54,56,-1,55,56,57,-1,57,56,58,-1,59,60,58,-1,58,60,61,-1,58,61,57,-1,59,62,60,-1,60,62,63,-1,60,63,64,-1,64,63,65,-1,64,65,66,-1,66,65,67,-1,68,69,67,-1,67,69,70,-1,67,70,66,-1,68,71,69,-1,69,71,72,-1,69,72,73,-1,73,72,74,-1,73,74,75,-1,75,74,76,-1,75,76,77,-1,77,76,78,-1,77,78,79,-1,79,78,80,-1,79,80,81,-1,81,80,82,-1,81,82,83,-1,83,82,84,-1,83,84,85,-1,85,84,86,-1,85,86,87,-1,88,87,89,-1,89,87,86,-1,88,89,90,-1,88,90,91,-1,91,90,92,-1,91,92,93,-1,93,92,1,-1,93,1,0,-1,37,39,40,-1,11,13,70,-1,19,21,61,-1,70,13,66,-1,61,21,57,-1,37,40,35,-1,35,40,46,-1,35,46,33,-1,33,46,44,-1,33,44,31,-1,31,44,43,-1,31,43,29,-1,29,43,49,-1,29,49,27,-1,87,88,85,-1,85,88,91,-1,85,91,83,-1,49,53,27,-1,27,53,55,-1,27,55,25,-1,25,55,57,-1,25,57,23,-1,23,57,21,-1,70,69,11,-1,11,69,73,-1,11,73,9,-1,9,73,75,-1,9,75,7,-1,7,75,77,-1,7,77,5,-1,5,77,79,-1,5,79,3,-1,3,79,81,-1,3,81,0,-1,0,81,83,-1,0,83,93,-1,93,83,91,-1,13,15,66,-1,66,15,17,-1,66,17,64,-1,64,17,19,-1,64,19,60,-1,60,19,61,-1,94,95,96,-1,96,95,97,-1,98,99,94,-1,94,99,100,-1,94,100,95,-1,95,100,101,-1,98,102,99,-1,99,102,103,-1,99,103,104,-1,104,103,105,-1,104,105,106,-1,106,107,104,-1,104,107,96,-1,104,96,108,-1,108,96,97,-1,108,97,109,-1,99,104,110,-1,110,104,111,-1,100,99,112,-1,112,99,110,-1,101,100,113,-1,113,100,112,-1,95,101,114,-1,114,101,113,-1,97,95,115,-1,115,95,114,-1,109,97,116,-1,116,97,115,-1,108,109,117,-1,117,109,116,-1,104,108,111,-1,111,108,117,-1,98,118,119,-1,98,119,102,-1,102,119,120,-1,102,120,103,-1,98,94,118,-1,118,94,121,-1,94,96,121,-1,121,96,122,-1,96,107,122,-1,122,107,123,-1,105,124,125,-1,105,125,106,-1,106,125,123,-1,106,123,107,-1,105,103,124,-1,124,103,120,-1,
        ]
    }
}
Shape{
    appearance Appearance {
        material  Material 	{
            diffuseColor 0.20784313725490197 0.20784313725490197 0.20784313725490197
            specularColor 0.01568627450980392 0.01568627450980392 0.01568627450980392
            ambientIntensity 0.298
            transparency 0.0
            shininess 0.5
        }
    }
    geometry IndexedFaceSet {
        ccw TRUE
        solid FALSE
        coord DEF co Coordinate {
            point [
                0.8117 -1.078 2.1508, 0.8112 -1.078 2.1508, 0.8131 -1.0849 2.1508, 0.81 -1.0845 2.1508, 0.8143 -1.0894 2.1508, 0.8086 -1.0894 2.1508, 0.839 -1.1573 2.1508, 0.7841 -1.1573 2.1508
            ]
        }
        coordIndex [
            0,1,2,-1,2,1,3,-1,2,3,4,-1,4,3,5,-1,4,5,6,-1,6,5,7,-1,
        ]
    }
}
Shape{
    appearance Appearance {
        material  Material 	{
            diffuseColor 1.0 1.0 1.0
            specularColor 0.5019607843137255 0.5019607843137255 0.5019607843137255
            ambientIntensity 1.0
            transparency 0.0
            shininess 0.5
        }
    }
    geometry IndexedFaceSet {
        ccw TRUE
        solid FALSE
        coord DEF co Coordinate {
            point [
                0.4987 -1.2019 2.1508, 0.4987 -1.2019 2.1547, 0.5293 -1.2019 2.1508, 0.5655 -1.2019 2.1547, 0.5655 -1.2019 2.1508, 0.4987 -1.1469 2.1547, 0.4987 -1.1469 2.1508, 0.5571 -1.1469 2.1508, 0.5571 -1.1469 2.1547, 0.5293 -1.1469 2.1508, 0.5571 -1.1282 2.1547, 0.5571 -1.1282 2.1508, 0.4987 -1.1282 2.1508, 0.4987 -1.1282 2.1547, 0.5293 -1.1282 2.1508, 0.4987 -1.0759 2.1547, 0.4987 -1.0759 2.1508, 0.5617 -1.0759 2.1508, 0.5617 -1.0759 2.1547, 0.5293 -1.0759 2.1508, 0.5617 -1.0571 2.1547, 0.5617 -1.0571 2.1508, 0.4776 -1.0571 2.1508, 0.4776 -1.0571 2.1547, 0.5293 -1.0571 2.1508, 0.4776 -1.2205 2.1547, 0.4776 -1.2205 2.1508, 0.5655 -1.2205 2.1508, 0.5655 -1.2205 2.1547, 0.5293 -1.2205 2.1508, 0.0461 -1.2019 2.1547, 0.1129 -1.2019 2.1547, 0.0461 -1.2019 2.1508, 0.1129 -1.2019 2.1508, 0.0461 -1.1469 2.1547, 0.0461 -1.1469 2.1508, 0.1045 -1.1469 2.1547, 0.1045 -1.1469 2.1508, 0.1045 -1.1282 2.1547, 0.1045 -1.1282 2.1508, 0.0461 -1.1282 2.1547, 0.0461 -1.1282 2.1508, 0.0461 -1.0759 2.1547, 0.0461 -1.0759 2.1508, 0.1092 -1.0759 2.1547, 0.1092 -1.0759 2.1508, 0.1092 -1.0571 2.1547, 0.1092 -1.0571 2.1508, 0.025 -1.0571 2.1547, 0.025 -1.0571 2.1508, 0.025 -1.2205 2.1547, 0.025 -1.2205 2.1508, 0.1129 -1.2205 2.1547, 0.1129 -1.2205 2.1508, 0.5795 -0.8981 2.1547, 0.5728 -0.9166 2.1547, 0.6343 -0.8981 2.1547, 0.6409 -0.9166 2.1547, 0.6039 -0.8302 2.1547, 0.596 -0.7978 2.1547, 0.5338 -0.9612 2.1547, 0.5571 -0.9612 2.1547, 0.6053 -0.8253 2.1547, 0.6066 -0.8187 2.1547, 0.6186 -0.7978 2.1547, 0.6071 -0.8187 2.1547, 0.6084 -0.8256 2.1547, 0.6096 -0.8302 2.1547, 0.6808 -0.9612 2.1547, 0.6575 -0.9612 2.1547, 0.596 -0.7978 2.1508, 0.6186 -0.7978 2.1508, 0.5338 -0.9612 2.1508, 0.5809 -0.8376 2.1508, 0.5571 -0.9612 2.1508, 0.5728 -0.9166 2.1508, 0.6409 -0.9166 2.1508, 0.5809 -0.9166 2.1508, 0.6575 -0.9612 2.1508, 0.6808 -0.9612 2.1508, 0.6039 -0.8302 2.1508, 0.6053 -0.8253 2.1508, 0.6066 -0.8187 2.1508, 0.5795 -0.8981 2.1508, 0.6343 -0.8981 2.1508, 0.6096 -0.8302 2.1508, 0.6071 -0.8187 2.1508, 0.6084 -0.8256 2.1508
            ]
        }
        coordIndex [
            0,1,2,-1,2,1,3,-1,2,3,4,-1,5,1,6,-1,6,1,0,-1,7,8,9,-1,9,8,5,-1,9,5,6,-1,10,8,11,-1,11,8,7,-1,12,13,14,-1,14,13,10,-1,14,10,11,-1,15,13,16,-1,16,13,12,-1,17,18,19,-1,19,18,15,-1,19,15,16,-1,20,18,21,-1,21,18,17,-1,22,23,24,-1,24,23,20,-1,24,20,21,-1,25,23,26,-1,26,23,22,-1,27,28,29,-1,29,28,25,-1,29,25,26,-1,3,28,4,-1,4,28,27,-1,25,28,3,-1,3,1,25,-1,25,1,5,-1,25,5,23,-1,18,20,15,-1,15,20,23,-1,15,23,13,-1,13,23,5,-1,13,5,10,-1,10,5,8,-1,30,31,32,-1,32,31,33,-1,34,30,35,-1,35,30,32,-1,36,34,37,-1,37,34,35,-1,38,36,39,-1,39,36,37,-1,40,38,41,-1,41,38,39,-1,42,40,43,-1,43,40,41,-1,44,42,45,-1,45,42,43,-1,46,44,47,-1,47,44,45,-1,48,46,49,-1,49,46,47,-1,50,48,51,-1,51,48,49,-1,52,50,53,-1,53,50,51,-1,31,52,33,-1,33,52,53,-1,50,52,31,-1,31,30,50,-1,50,30,34,-1,50,34,48,-1,44,46,42,-1,42,46,48,-1,42,48,40,-1,40,48,34,-1,40,34,38,-1,38,34,36,-1,54,55,56,-1,56,55,57,-1,58,59,54,-1,54,59,60,-1,54,60,55,-1,55,60,61,-1,58,62,59,-1,59,62,63,-1,59,63,64,-1,64,63,65,-1,64,65,66,-1,66,67,64,-1,64,67,56,-1,64,56,68,-1,68,56,57,-1,68,57,69,-1,59,64,70,-1,70,64,71,-1,72,60,73,-1,73,60,59,-1,73,59,70,-1,61,60,74,-1,74,60,72,-1,55,61,75,-1,75,61,74,-1,76,57,77,-1,77,57,55,-1,77,55,75,-1,69,57,78,-1,78,57,76,-1,68,69,79,-1,79,69,78,-1,64,68,71,-1,71,68,79,-1,58,80,81,-1,58,81,62,-1,62,81,82,-1,62,82,63,-1,58,54,80,-1,80,54,83,-1,54,56,83,-1,83,56,84,-1,56,67,84,-1,84,67,85,-1,65,86,87,-1,65,87,66,-1,66,87,85,-1,66,85,67,-1,65,63,86,-1,86,63,82,-1,
        ]
    }
}
Shape{
    appearance Appearance {
        material  Material 	{
            diffuseColor 0.20784313725490197 0.20784313725490197 0.20784313725490197
            specularColor 0.01568627450980392 0.01568627450980392 0.01568627450980392
            ambientIntensity 0.298
            transparency 0.0
            shininess 0.5
        }
    }
    geometry IndexedFaceSet {
        ccw TRUE
        solid FALSE
        coord DEF co Coordinate {
            point [
                0.6071 -0.8187 2.1508, 0.6066 -0.8187 2.1508, 0.6084 -0.8256 2.1508, 0.6053 -0.8253 2.1508, 0.6096 -0.8302 2.1508, 0.6039 -0.8302 2.1508, 0.6343 -0.8981 2.1508, 0.5795 -0.8981 2.1508
            ]
        }
        coordIndex [
            0,1,2,-1,2,1,3,-1,2,3,4,-1,4,3,5,-1,4,5,6,-1,6,5,7,-1,
        ]
    }
}
Shape{
    appearance Appearance {
        material  Material 	{
            diffuseColor 1.0 1.0 1.0
            specularColor 0.5019607843137255 0.5019607843137255 0.5019607843137255
            ambientIntensity 1.0
            transparency 0.0
            shininess 0.5
        }
    }
    geometry IndexedFaceSet {
        ccw TRUE
        solid FALSE
        coord DEF co Coordinate {
            point [
                0.294 -0.9426 2.1508, 0.294 -0.9426 2.1547, 0.3381 -0.9426 2.1508, 0.3608 -0.9426 2.1547, 0.3608 -0.9426 2.1508, 0.294 -0.8876 2.1547, 0.294 -0.8876 2.1508, 0.3525 -0.8876 2.1508, 0.3525 -0.8876 2.1547, 0.3381 -0.8876 2.1508, 0.3525 -0.8689 2.1547, 0.3525 -0.8689 2.1508, 0.294 -0.8689 2.1508, 0.294 -0.8689 2.1547, 0.3381 -0.8689 2.1508, 0.294 -0.8166 2.1547, 0.294 -0.8166 2.1508, 0.3571 -0.8166 2.1508, 0.3571 -0.8166 2.1547, 0.3381 -0.8166 2.1508, 0.3571 -0.7978 2.1547, 0.3571 -0.7978 2.1508, 0.2729 -0.7978 2.1508, 0.2729 -0.7978 2.1547, 0.3381 -0.7978 2.1508, 0.2729 -0.9612 2.1547, 0.2729 -0.9612 2.1508, 0.3608 -0.9612 2.1508, 0.3608 -0.9612 2.1547, 0.3381 -0.9612 2.1508, 0.0461 -0.9426 2.1547, 0.1112 -0.9426 2.1547, 0.0461 -0.9426 2.1508, 0.1112 -0.9426 2.1508, 0.0461 -0.7978 2.1547, 0.0461 -0.7978 2.1508, 0.025 -0.7978 2.1547, 0.025 -0.7978 2.1508, 0.025 -0.9612 2.1547, 0.025 -0.9612 2.1508, 0.1112 -0.9612 2.1547, 0.1112 -0.9612 2.1508
            ]
        }
        coordIndex [
            0,1,2,-1,2,1,3,-1,2,3,4,-1,5,1,6,-1,6,1,0,-1,7,8,9,-1,9,8,5,-1,9,5,6,-1,10,8,11,-1,11,8,7,-1,12,13,14,-1,14,13,10,-1,14,10,11,-1,15,13,16,-1,16,13,12,-1,17,18,19,-1,19,18,15,-1,19,15,16,-1,20,18,21,-1,21,18,17,-1,22,23,24,-1,24,23,20,-1,24,20,21,-1,25,23,26,-1,26,23,22,-1,27,28,29,-1,29,28,25,-1,29,25,26,-1,3,28,4,-1,4,28,27,-1,25,28,3,-1,3,1,25,-1,25,1,5,-1,25,5,23,-1,18,20,15,-1,15,20,23,-1,15,23,13,-1,13,23,5,-1,13,5,10,-1,10,5,8,-1,30,31,32,-1,32,31,33,-1,34,30,35,-1,35,30,32,-1,36,34,37,-1,37,34,35,-1,38,36,39,-1,39,36,37,-1,40,38,41,-1,41,38,39,-1,31,40,33,-1,33,40,41,-1,34,36,30,-1,30,36,38,-1,30,38,31,-1,31,38,40,-1,
        ]
    }
}