#VRML V2.0 utf8
# 3D model generated by easyeda2kicad.py (https://github.com/uPesy/easyeda2kicad.py)

Shape{
    appearance Appearance {
        material  Material 	{
            diffuseColor 0.10196078431372549 0.10196078431372549 0.10196078431372549
            specularColor 0.0392156862745098 0.0392156862745098 0.0392156862745098
            ambientIntensity 0.2
            transparency 0
            shininess 0.5
        }
    }
    geometry IndexedFaceSet {
        ccw TRUE
        solid FALSE
        coord DEF co Coordinate {
            point [
                0.7214 0.1712 0.0564, 0.7219 0.1829 0.0576, 0.7543 0.1457 0.1388, 0.6988 0.1321 0.0, 0.7539 0.1436 0.1377, 0.7612 0.1321 0.1561, 0.7587 0.1436 0.1497, 0.7606 0.1562 0.1545, 0.7221 0.1569 0.0582, 0.7242 0.1436 0.0634, 0.7183 0.1436 0.0487, 0.7573 0.2115 0.1461, 0.7539 0.2201 0.1377, 0.761 0.2415 0.1554, 0.7612 0.183 0.1561, 0.761 0.302 0.1554, 0.7287 0.2252 0.0746, 0.7245 0.2182 0.0642, 0.7171 0.2862 0.0457, 0.7207 0.2074 0.0547, 0.7562 0.2415 0.1433, 0.7231 0.1917 0.0606, 0.7251 0.1999 0.0657, 0.728 0.207 0.073, 0.7395 0.2156 0.1017, 0.7443 0.2144 0.1136, 0.748 0.2112 0.123, 0.7562 0.1849 0.1435, 0.7567 0.1739 0.1447, 0.7551 0.1935 0.1406, 0.7532 0.2008 0.1361, 0.7511 0.2063 0.1306, 0.756 0.1582 0.1431, 0.7609 0.1906 0.1553, 0.7595 0.202 0.1517, 0.7314 0.2119 0.0815, 0.7361 0.215 0.0932, 0.7498 0.2265 0.1275, 0.7451 0.2302 0.1157, 0.7562 0.2862 0.1433, 0.7399 0.2314 0.1026, 0.7336 0.2297 0.087, 0.7183 0.1962 0.0488, 0.7169 0.183 0.0453, 0.7166 0.1714 0.0444, 0.7169 0.1572 0.0453, 0.7612 0.1681 0.1561, 0.7615 0.1728 0.1567, 0.7776 0.1321 0.1969, 0.7615 0.1761 0.1567, 0.7171 0.302 0.0457, 0.6988 0.8858 0.0, 0.7612 0.9482 0.1561, 0.7776 0.9646 0.1969, 0.7171 -0.1142 0.0457, 0.7171 -0.1301 0.0457, 0.7171 0.0341 0.0457, 0.7171 0.0008 0.0457, 0.7178 -0.0163 0.0474, 0.7196 -0.0301 0.0519, 0.7228 -0.043 0.0599, 0.7228 -0.0431 0.06, 0.7263 -0.0514 0.0686, 0.7301 -0.057 0.0782, 0.7345 -0.0601 0.0891, 0.761 -0.0696 0.1554, 0.7385 -0.061 0.0992, 0.7219 0.1047 0.0578, 0.7364 0.1047 0.0939, 0.7219 0.06 0.0578, 0.7364 0.0629 0.0939, 0.7171 0.1205 0.0457, 0.7171 0.06 0.0457, 0.761 0.0341 0.1554, 0.7412 0.0629 0.1059, 0.7444 -0.0593 0.1138, 0.7489 -0.0551 0.1253, 0.7528 -0.0484 0.1349, 0.7563 -0.0388 0.1436, 0.7589 -0.0266 0.1503, 0.7605 -0.013 0.1541, 0.761 0.002 0.1554, 0.761 -0.1589 0.1554, 0.761 -0.1762 0.1554, 0.7612 -0.9482 0.1561, 0.6988 -0.8858 0.0, 0.7412 0.1047 0.1059, 0.7562 0.1047 0.1433, 0.7562 0.0572 0.1433, 0.761 0.0572 0.1554, 0.761 0.1205 0.1554, 0.7487 -0.147 0.1246, 0.7487 -0.0982 0.1246, 0.761 -0.0869 0.1554, 0.7776 -0.9646 0.1969, 0.6988 -0.8858 0.3937, 0.1188 -0.7086 0.3937, 0.1147 -0.7393 0.3937, 0.1029 -0.768 0.3937, 0.084 -0.7926 0.3937, 0.0594 -0.8115 0.3937, 0.0307 -0.8233 0.3937, -0.0 -0.8274 0.3937, -0.6988 -0.8858 0.3937, -0.0307 -0.8233 0.3937, -0.0594 -0.8115 0.3937, -0.084 -0.7926 0.3937, -0.1029 -0.768 0.3937, -0.1147 -0.7393 0.3937, -0.6988 0.8858 0.3937, -0.084 -0.6246 0.3937, -0.0594 -0.6057 0.3937, -0.1188 -0.7086 0.3937, -0.1147 -0.6778 0.3937, -0.1029 -0.6492 0.3937, 0.0594 -0.6057 0.3937, 0.084 -0.6246 0.3937, 0.6988 0.8858 0.3937, 0.1029 -0.6492 0.3937, 0.1147 -0.6778 0.3937, -0.0307 -0.5938 0.3937, 0.0 -0.5898 0.3937, 0.0307 -0.5938 0.3937, 0.4429 0.6299 0.0, -0.6988 0.6299 0.0, -0.6988 0.8858 0.0, -0.6988 -0.8858 0.0, -0.6988 -0.6299 0.0, 0.4429 -0.6299 0.0, -0.7776 -0.9646 0.1969, -0.7776 0.9646 0.1969, -0.7413 -0.6299 0.1063, -0.7413 0.6299 0.1063, 0.4429 -0.6299 0.1063, 0.4429 0.6299 0.1063, 0.4429 0.6299 0.1063
            ]
        }
        coordIndex [
            0,1,2,-1,3,4,5,-1,5,4,6,-1,5,6,7,-1,0,2,8,-1,8,2,4,-1,8,4,9,-1,9,4,3,-1,9,3,10,-1,11,12,13,-1,14,13,15,-1,16,17,18,-1,18,17,19,-1,13,12,20,-1,1,21,2,-1,2,21,22,-1,2,22,23,-1,24,25,2,-1,2,25,26,-1,27,28,29,-1,29,28,30,-1,26,31,2,-1,2,31,30,-1,2,30,32,-1,32,30,28,-1,14,33,13,-1,13,33,34,-1,13,34,11,-1,23,35,2,-1,2,35,36,-1,2,36,24,-1,12,37,20,-1,20,37,38,-1,20,38,39,-1,39,38,40,-1,39,40,18,-1,18,40,41,-1,18,41,16,-1,42,43,3,-1,43,44,3,-1,3,44,45,-1,3,45,10,-1,46,47,48,-1,48,47,49,-1,48,49,14,-1,19,42,18,-1,18,42,3,-1,18,3,50,-1,50,3,51,-1,50,51,15,-1,15,51,52,-1,15,52,14,-1,14,52,53,-1,14,53,48,-1,3,54,55,-1,56,57,3,-1,3,57,58,-1,3,58,54,-1,54,58,59,-1,59,60,54,-1,54,60,61,-1,54,61,62,-1,62,63,54,-1,54,63,64,-1,54,64,65,-1,65,64,66,-1,67,68,69,-1,69,68,70,-1,5,71,3,-1,3,71,72,-1,3,72,56,-1,56,72,69,-1,56,69,73,-1,73,69,70,-1,73,70,74,-1,66,75,65,-1,65,75,76,-1,65,76,77,-1,77,78,65,-1,65,78,79,-1,65,79,80,-1,5,81,73,-1,82,5,83,-1,83,5,84,-1,83,84,55,-1,55,84,85,-1,55,85,3,-1,86,87,74,-1,74,87,88,-1,74,88,73,-1,73,88,89,-1,73,89,5,-1,5,89,90,-1,5,90,71,-1,91,92,82,-1,82,92,93,-1,82,93,5,-1,5,93,65,-1,5,65,81,-1,81,65,80,-1,7,46,5,-1,5,46,48,-1,5,48,84,-1,84,48,94,-1,95,96,97,-1,97,98,95,-1,95,98,99,-1,95,99,100,-1,100,101,95,-1,95,101,102,-1,95,102,103,-1,103,102,104,-1,103,104,105,-1,105,106,103,-1,103,106,107,-1,103,107,108,-1,109,110,111,-1,108,112,103,-1,103,112,113,-1,103,113,109,-1,109,113,114,-1,109,114,110,-1,115,116,117,-1,117,116,118,-1,117,118,95,-1,95,118,119,-1,95,119,96,-1,111,120,109,-1,109,120,121,-1,109,121,117,-1,117,121,122,-1,117,122,115,-1,123,124,125,-1,126,127,85,-1,85,127,128,-1,85,128,3,-1,3,128,123,-1,3,123,51,-1,51,123,125,-1,94,95,129,-1,129,95,103,-1,53,117,48,-1,48,117,95,-1,48,95,94,-1,109,130,103,-1,103,130,129,-1,130,109,53,-1,53,109,117,-1,51,125,52,-1,52,125,130,-1,52,130,53,-1,127,126,131,-1,131,126,129,-1,131,129,132,-1,132,129,130,-1,132,130,124,-1,124,130,125,-1,94,129,84,-1,84,129,126,-1,84,126,85,-1,133,128,131,-1,131,128,127,-1,133,134,128,-1,128,134,123,-1,123,134,124,-1,124,134,132,-1,133,131,134,-1,134,131,132,-1,
        ]
    }
}
Shape{
    appearance Appearance {
        material  Material 	{
            diffuseColor 1.0 1.0 1.0
            specularColor 0.5019607843137255 0.5019607843137255 0.5019607843137255
            ambientIntensity 0.2
            transparency 0
            shininess 0.5
        }
    }
    geometry IndexedFaceSet {
        ccw TRUE
        solid FALSE
        coord DEF co Coordinate {
            point [
                0.7135 -0.1301 0.0472, 0.7573 -0.1762 0.1568, 0.7171 -0.1301 0.0457, 0.761 -0.1762 0.1554, 0.7573 -0.1589 0.1568, 0.761 -0.1589 0.1554, 0.745 -0.147 0.1261, 0.7487 -0.147 0.1246, 0.745 -0.0982 0.1261, 0.7487 -0.0982 0.1246, 0.7573 -0.0869 0.1568, 0.761 -0.0869 0.1554, 0.7573 -0.0696 0.1568, 0.761 -0.0696 0.1554, 0.7135 -0.1142 0.0472, 0.7171 -0.1142 0.0457, 0.7402 -0.1021 0.1141, 0.7219 -0.1198 0.0682, 0.7204 -0.1209 0.0644, 0.7188 -0.1217 0.0606, 0.7188 -0.122 0.0606, 0.7204 -0.1228 0.0644, 0.7219 -0.1239 0.0682, 0.7402 -0.1416 0.1141, 0.7439 -0.1021 0.1126, 0.7439 -0.1416 0.1126, 0.7255 -0.1198 0.0668, 0.724 -0.1209 0.063, 0.7225 -0.1217 0.0591, 0.7225 -0.122 0.0591, 0.724 -0.1228 0.063, 0.7255 -0.1239 0.0668, 0.7573 0.002 0.1568, 0.7573 0.0341 0.1568, 0.761 0.002 0.1554, 0.761 0.0341 0.1554, 0.7135 0.0341 0.0472, 0.7171 0.0341 0.0457, 0.7135 0.0008 0.0472, 0.7171 0.0008 0.0457, 0.7348 -0.061 0.1006, 0.7385 -0.061 0.0992, 0.7345 -0.0601 0.0891, 0.7308 -0.0601 0.0906, 0.7301 -0.057 0.0782, 0.7264 -0.057 0.0797, 0.7263 -0.0514 0.0686, 0.7226 -0.0514 0.0701, 0.7228 -0.0431 0.06, 0.7192 -0.0431 0.0615, 0.7228 -0.043 0.0599, 0.7191 -0.043 0.0614, 0.7196 -0.0301 0.0519, 0.7159 -0.0301 0.0534, 0.7178 -0.0163 0.0474, 0.7141 -0.0163 0.0489, 0.7605 -0.013 0.1541, 0.7568 -0.013 0.1556, 0.7589 -0.0266 0.1503, 0.7553 -0.0266 0.1518, 0.7563 -0.0388 0.1436, 0.7526 -0.0388 0.1451, 0.7528 -0.0484 0.1349, 0.7491 -0.0484 0.1364, 0.7489 -0.0551 0.1253, 0.7453 -0.0551 0.1267, 0.7444 -0.0593 0.1138, 0.7407 -0.0593 0.1153, 0.7244 -0.0373 0.0746, 0.7222 -0.0315 0.0689, 0.7201 -0.0229 0.0638, 0.7188 -0.0131 0.0606, 0.7183 0.0008 0.0592, 0.7183 0.0183 0.0592, 0.7525 0.0183 0.1448, 0.7525 0.0015 0.1448, 0.7521 -0.011 0.1437, 0.7509 -0.0209 0.1409, 0.7491 -0.029 0.1364, 0.7467 -0.0357 0.1302, 0.7437 -0.0406 0.1228, 0.7402 -0.0437 0.1141, 0.735 -0.0451 0.101, 0.7306 -0.0441 0.09, 0.7271 -0.0413 0.0814, 0.7219 0.0008 0.0578, 0.7219 0.0183 0.0578, 0.7225 -0.0131 0.0591, 0.7237 -0.0229 0.0623, 0.7258 -0.0315 0.0675, 0.7281 -0.0373 0.0731, 0.7308 -0.0413 0.0799, 0.7342 -0.0441 0.0886, 0.7386 -0.0451 0.0995, 0.7439 -0.0437 0.1126, 0.7474 -0.0406 0.1213, 0.7503 -0.0357 0.1288, 0.7528 -0.029 0.1349, 0.7546 -0.0209 0.1394, 0.7557 -0.011 0.1423, 0.7562 0.0015 0.1433, 0.7562 0.0183 0.1433, 0.7525 0.0572 0.1448, 0.7573 0.0572 0.1568, 0.7562 0.0572 0.1433, 0.761 0.0572 0.1554, 0.7573 0.1205 0.1568, 0.761 0.1205 0.1554, 0.7135 0.1205 0.0472, 0.7171 0.1205 0.0457, 0.7135 0.06 0.0472, 0.7171 0.06 0.0457, 0.7183 0.06 0.0592, 0.7219 0.06 0.0578, 0.7183 0.1047 0.0592, 0.7219 0.1047 0.0578, 0.7327 0.1047 0.0953, 0.7364 0.1047 0.0939, 0.7327 0.0629 0.0953, 0.7364 0.0629 0.0939, 0.7375 0.0629 0.1074, 0.7412 0.0629 0.1059, 0.7375 0.1047 0.1074, 0.7412 0.1047 0.1059, 0.7525 0.1047 0.1448, 0.7562 0.1047 0.1433, 0.7502 0.1436 0.1391, 0.755 0.1436 0.1512, 0.7539 0.1436 0.1377, 0.7587 0.1436 0.1497, 0.757 0.1562 0.156, 0.7579 0.1761 0.1582, 0.7615 0.1761 0.1567, 0.7615 0.1728 0.1567, 0.7578 0.1728 0.1581, 0.7612 0.1681 0.1561, 0.7606 0.1562 0.1545, 0.7362 0.2314 0.1041, 0.7399 0.2314 0.1026, 0.7451 0.2302 0.1157, 0.7415 0.2302 0.1172, 0.7498 0.2265 0.1275, 0.7461 0.2265 0.1289, 0.7539 0.2201 0.1377, 0.7503 0.2201 0.1392, 0.7573 0.2115 0.1461, 0.7536 0.2115 0.1476, 0.7595 0.202 0.1517, 0.7558 0.202 0.1532, 0.7609 0.1906 0.1553, 0.7573 0.1906 0.1568, 0.7612 0.183 0.1561, 0.7129 0.1714 0.0458, 0.7166 0.1714 0.0444, 0.7169 0.183 0.0453, 0.7133 0.183 0.0467, 0.7183 0.1962 0.0488, 0.7147 0.1962 0.0502, 0.7207 0.2074 0.0547, 0.717 0.2074 0.0562, 0.7245 0.2182 0.0642, 0.7208 0.2182 0.0657, 0.7287 0.2252 0.0746, 0.725 0.2252 0.076, 0.7336 0.2297 0.087, 0.73 0.2297 0.0885, 0.7147 0.1436 0.0502, 0.7183 0.1436 0.0487, 0.7169 0.1572 0.0453, 0.7133 0.1572 0.0468, 0.7205 0.1436 0.0649, 0.7242 0.1436 0.0634, 0.7177 0.1712 0.0579, 0.7214 0.1712 0.0564, 0.7221 0.1569 0.0582, 0.7184 0.1569 0.0596, 0.7359 0.2156 0.1032, 0.7395 0.2156 0.1017, 0.7361 0.215 0.0932, 0.7324 0.215 0.0947, 0.7314 0.2119 0.0815, 0.7277 0.2119 0.0829, 0.728 0.207 0.073, 0.7244 0.207 0.0744, 0.7251 0.1999 0.0657, 0.7214 0.1999 0.0671, 0.7231 0.1917 0.0606, 0.7194 0.1917 0.0621, 0.7219 0.1829 0.0576, 0.7182 0.1829 0.0591, 0.753 0.1739 0.1461, 0.7567 0.1739 0.1447, 0.7562 0.1849 0.1435, 0.7526 0.1849 0.145, 0.7551 0.1935 0.1406, 0.7514 0.1935 0.1421, 0.7532 0.2008 0.1361, 0.7496 0.2008 0.1375, 0.7511 0.2063 0.1306, 0.7474 0.2063 0.1321, 0.748 0.2112 0.123, 0.7444 0.2112 0.1245, 0.7443 0.2144 0.1136, 0.7406 0.2144 0.1151, 0.7543 0.1457 0.1388, 0.7507 0.1457 0.1402, 0.756 0.1582 0.1431, 0.7524 0.1582 0.1445, 0.7525 0.2415 0.1448, 0.7573 0.2415 0.1568, 0.7562 0.2415 0.1433, 0.761 0.2415 0.1554, 0.7573 0.302 0.1568, 0.761 0.302 0.1554, 0.7135 0.302 0.0472, 0.7171 0.302 0.0457, 0.7135 0.2862 0.0472, 0.7171 0.2862 0.0457, 0.7525 0.2862 0.1448, 0.7562 0.2862 0.1433, 0.7562 0.2862 0.1433
            ]
        }
        coordIndex [
            0,1,2,-1,2,1,3,-1,1,4,3,-1,3,4,5,-1,4,6,5,-1,5,6,7,-1,6,8,7,-1,7,8,9,-1,8,10,9,-1,9,10,11,-1,10,12,11,-1,11,12,13,-1,12,14,13,-1,13,14,15,-1,14,0,15,-1,15,0,2,-1,16,17,14,-1,12,10,8,-1,17,18,14,-1,14,18,19,-1,14,19,0,-1,0,19,20,-1,0,20,21,-1,21,22,0,-1,0,22,23,-1,0,23,1,-1,4,1,6,-1,6,1,23,-1,6,23,8,-1,8,23,16,-1,8,16,12,-1,12,16,14,-1,16,23,24,-1,24,23,25,-1,17,16,26,-1,26,16,24,-1,17,26,27,-1,17,27,18,-1,18,27,28,-1,18,28,19,-1,20,19,29,-1,29,19,28,-1,20,29,30,-1,20,30,21,-1,21,30,31,-1,21,31,22,-1,23,22,25,-1,25,22,31,-1,32,33,34,-1,34,33,35,-1,33,36,35,-1,35,36,37,-1,36,38,37,-1,37,38,39,-1,40,41,42,-1,40,42,43,-1,43,42,44,-1,43,44,45,-1,45,44,46,-1,45,46,47,-1,47,46,48,-1,47,48,49,-1,49,48,50,-1,49,50,51,-1,51,50,52,-1,51,52,53,-1,53,52,54,-1,53,54,55,-1,55,54,39,-1,55,39,38,-1,32,34,56,-1,32,56,57,-1,57,56,58,-1,57,58,59,-1,59,58,60,-1,59,60,61,-1,61,60,62,-1,61,62,63,-1,63,62,64,-1,63,64,65,-1,65,64,66,-1,65,66,67,-1,67,66,41,-1,67,41,40,-1,45,47,68,-1,68,47,49,-1,68,49,69,-1,69,49,51,-1,69,51,70,-1,70,51,53,-1,70,53,71,-1,71,53,55,-1,71,55,72,-1,72,55,38,-1,72,38,73,-1,73,38,36,-1,73,36,74,-1,74,36,33,-1,74,33,75,-1,75,33,32,-1,75,32,76,-1,76,32,57,-1,76,57,77,-1,77,57,59,-1,77,59,78,-1,78,59,61,-1,78,61,79,-1,79,61,63,-1,79,63,80,-1,80,63,65,-1,80,65,81,-1,81,65,67,-1,81,67,82,-1,82,67,40,-1,82,40,83,-1,83,40,43,-1,83,43,84,-1,84,43,45,-1,84,45,68,-1,72,73,85,-1,85,73,86,-1,72,85,87,-1,72,87,71,-1,71,87,88,-1,71,88,70,-1,70,88,89,-1,70,89,69,-1,69,89,90,-1,69,90,68,-1,68,90,91,-1,68,91,84,-1,84,91,92,-1,84,92,83,-1,83,92,93,-1,83,93,82,-1,82,93,94,-1,82,94,81,-1,81,94,95,-1,81,95,80,-1,80,95,96,-1,80,96,79,-1,79,96,97,-1,79,97,78,-1,78,97,98,-1,78,98,77,-1,77,98,99,-1,77,99,76,-1,76,99,100,-1,76,100,75,-1,74,75,101,-1,101,75,100,-1,73,74,86,-1,86,74,101,-1,102,103,104,-1,104,103,105,-1,103,106,105,-1,105,106,107,-1,106,108,107,-1,107,108,109,-1,108,110,109,-1,109,110,111,-1,110,112,111,-1,111,112,113,-1,112,114,113,-1,113,114,115,-1,114,116,115,-1,115,116,117,-1,116,118,117,-1,117,118,119,-1,118,120,119,-1,119,120,121,-1,120,122,121,-1,121,122,123,-1,122,124,123,-1,123,124,125,-1,124,102,125,-1,125,102,104,-1,106,103,102,-1,102,124,106,-1,106,124,122,-1,106,122,108,-1,112,110,114,-1,114,110,108,-1,114,108,116,-1,116,108,122,-1,116,122,118,-1,118,122,120,-1,126,127,128,-1,128,127,129,-1,129,127,130,-1,131,132,133,-1,131,133,134,-1,134,133,135,-1,134,135,130,-1,130,135,136,-1,130,136,129,-1,137,138,139,-1,137,139,140,-1,140,139,141,-1,140,141,142,-1,142,141,143,-1,142,143,144,-1,144,143,145,-1,144,145,146,-1,146,145,147,-1,146,147,148,-1,148,147,149,-1,148,149,150,-1,150,149,131,-1,131,149,151,-1,131,151,132,-1,152,153,154,-1,152,154,155,-1,155,154,156,-1,155,156,157,-1,157,156,158,-1,157,158,159,-1,159,158,160,-1,159,160,161,-1,161,160,162,-1,161,162,163,-1,163,162,164,-1,163,164,165,-1,165,164,138,-1,165,138,137,-1,166,167,168,-1,166,168,169,-1,169,168,153,-1,169,153,152,-1,166,170,167,-1,167,170,171,-1,172,173,174,-1,172,174,175,-1,175,174,171,-1,175,171,170,-1,176,177,178,-1,176,178,179,-1,179,178,180,-1,179,180,181,-1,181,180,182,-1,181,182,183,-1,183,182,184,-1,183,184,185,-1,185,184,186,-1,185,186,187,-1,187,186,188,-1,187,188,189,-1,189,188,173,-1,189,173,172,-1,190,191,192,-1,190,192,193,-1,193,192,194,-1,193,194,195,-1,195,194,196,-1,195,196,197,-1,197,196,198,-1,197,198,199,-1,199,198,200,-1,199,200,201,-1,201,200,202,-1,201,202,203,-1,203,202,177,-1,203,177,176,-1,126,128,204,-1,126,204,205,-1,205,204,206,-1,205,206,207,-1,207,206,191,-1,207,191,190,-1,193,131,190,-1,190,131,134,-1,190,134,207,-1,207,134,130,-1,207,130,205,-1,205,130,127,-1,205,127,126,-1,170,166,175,-1,175,166,169,-1,175,169,172,-1,172,169,152,-1,172,152,189,-1,189,152,155,-1,189,155,187,-1,187,155,157,-1,187,157,185,-1,185,157,159,-1,185,159,183,-1,183,159,161,-1,183,161,181,-1,181,161,163,-1,181,163,179,-1,179,163,165,-1,179,165,176,-1,176,165,137,-1,176,137,203,-1,203,137,140,-1,203,140,201,-1,201,140,142,-1,201,142,199,-1,199,142,144,-1,199,144,197,-1,197,144,146,-1,197,146,195,-1,195,146,148,-1,195,148,193,-1,193,148,150,-1,193,150,131,-1,208,209,210,-1,210,209,211,-1,209,212,211,-1,211,212,213,-1,212,214,213,-1,213,214,215,-1,214,216,215,-1,215,216,217,-1,216,218,217,-1,217,218,219,-1,218,208,219,-1,219,208,210,-1,216,214,218,-1,218,214,212,-1,218,212,208,-1,208,212,209,-1,
        ]
    }
}
Shape{
    appearance Appearance {
        material  Material 	{
            diffuseColor 0.10196078431372549 0.10196078431372549 0.10196078431372549
            specularColor 0.0392156862745098 0.0392156862745098 0.0392156862745098
            ambientIntensity 0.2
            transparency 0
            shininess 0.5
        }
    }
    geometry IndexedFaceSet {
        ccw TRUE
        solid FALSE
        coord DEF co Coordinate {
            point [
                0.7439 -0.1021 0.1126, 0.7439 -0.1416 0.1126, 0.7255 -0.1198 0.0668, 0.7255 -0.1239 0.0668, 0.724 -0.1209 0.063, 0.724 -0.1228 0.063, 0.7225 -0.1217 0.0591, 0.7225 -0.122 0.0591, 0.7219 0.0183 0.0578, 0.7562 0.0183 0.1433, 0.7219 0.0008 0.0578, 0.7562 0.0015 0.1433, 0.7439 -0.0437 0.1126, 0.7386 -0.0451 0.0995, 0.7342 -0.0441 0.0886, 0.7308 -0.0413 0.0799, 0.7225 -0.0131 0.0591, 0.7557 -0.011 0.1423, 0.7546 -0.0209 0.1394, 0.7528 -0.029 0.1349, 0.7281 -0.0373 0.0731, 0.7258 -0.0315 0.0675, 0.7237 -0.0229 0.0623, 0.7503 -0.0357 0.1288, 0.7474 -0.0406 0.1213, 0.7474 -0.0406 0.1213
            ]
        }
        coordIndex [
            0,1,2,-1,2,1,3,-1,2,3,4,-1,4,3,5,-1,4,5,6,-1,6,5,7,-1,8,9,10,-1,10,9,11,-1,12,13,10,-1,13,14,10,-1,10,14,15,-1,10,15,16,-1,11,17,10,-1,10,17,18,-1,10,18,19,-1,20,21,15,-1,15,21,22,-1,15,22,16,-1,19,23,10,-1,10,23,24,-1,10,24,12,-1,
        ]
    }
}
Shape{
    appearance Appearance {
        material  Material 	{
            diffuseColor 0.8509803921568627 0.8509803921568627 0.8509803921568627
            specularColor 0.4235294117647059 0.4235294117647059 0.4235294117647059
            ambientIntensity 0.2
            transparency 0
            shininess 0.5
        }
    }
    geometry IndexedFaceSet {
        ccw TRUE
        solid FALSE
        coord DEF co Coordinate {
            point [
                0.1188 -0.7086 0.3898, 0.1188 -0.7086 0.3937, 0.1147 -0.6778 0.3898, 0.1147 -0.6778 0.3937, 0.1029 -0.6492 0.3898, 0.1029 -0.6492 0.3937, 0.084 -0.6246 0.3898, 0.084 -0.6246 0.3937, 0.0594 -0.6057 0.3898, 0.0594 -0.6057 0.3937, 0.0307 -0.5938 0.3898, 0.0307 -0.5938 0.3937, 0.0 -0.5898 0.3898, 0.0 -0.5898 0.3937, -0.0307 -0.5938 0.3898, -0.0307 -0.5938 0.3937, -0.0594 -0.6057 0.3898, -0.0594 -0.6057 0.3937, -0.084 -0.6246 0.3898, -0.084 -0.6246 0.3937, -0.1029 -0.6492 0.3898, -0.1029 -0.6492 0.3937, -0.1147 -0.6778 0.3898, -0.1147 -0.6778 0.3937, -0.1188 -0.7086 0.3898, -0.1188 -0.7086 0.3937, -0.1147 -0.7393 0.3898, -0.1147 -0.7393 0.3937, -0.1029 -0.768 0.3898, -0.1029 -0.768 0.3937, -0.084 -0.7926 0.3898, -0.084 -0.7926 0.3937, -0.0594 -0.8115 0.3898, -0.0594 -0.8115 0.3937, -0.0307 -0.8233 0.3898, -0.0307 -0.8233 0.3937, -0.0 -0.8274 0.3898, -0.0 -0.8274 0.3937, 0.0307 -0.8233 0.3898, 0.0307 -0.8233 0.3937, 0.0594 -0.8115 0.3898, 0.0594 -0.8115 0.3937, 0.084 -0.7926 0.3898, 0.084 -0.7926 0.3937, 0.1029 -0.768 0.3898, 0.1029 -0.768 0.3937, 0.1147 -0.7393 0.3898, 0.1147 -0.7393 0.3937, 0.0 -0.7086 0.3898, 0.0 -0.7086 0.3898
            ]
        }
        coordIndex [
            0,1,2,-1,2,1,3,-1,2,3,4,-1,4,3,5,-1,4,5,6,-1,6,5,7,-1,6,7,8,-1,8,7,9,-1,8,9,10,-1,10,9,11,-1,10,11,12,-1,12,11,13,-1,12,13,14,-1,14,13,15,-1,14,15,16,-1,16,15,17,-1,16,17,18,-1,18,17,19,-1,18,19,20,-1,20,19,21,-1,20,21,22,-1,22,21,23,-1,22,23,24,-1,24,23,25,-1,24,25,26,-1,26,25,27,-1,26,27,28,-1,28,27,29,-1,28,29,30,-1,30,29,31,-1,30,31,32,-1,32,31,33,-1,32,33,34,-1,34,33,35,-1,34,35,36,-1,36,35,37,-1,36,37,38,-1,38,37,39,-1,38,39,40,-1,40,39,41,-1,40,41,42,-1,42,41,43,-1,42,43,44,-1,44,43,45,-1,44,45,46,-1,46,45,47,-1,46,47,0,-1,0,47,1,-1,44,46,48,-1,48,46,0,-1,48,0,2,-1,38,40,48,-1,48,40,42,-1,48,42,44,-1,32,34,48,-1,48,34,36,-1,48,36,38,-1,26,28,48,-1,48,28,30,-1,48,30,32,-1,20,22,48,-1,48,22,24,-1,48,24,26,-1,14,16,48,-1,48,16,18,-1,48,18,20,-1,8,10,48,-1,48,10,12,-1,48,12,14,-1,2,4,48,-1,48,4,6,-1,48,6,8,-1,
        ]
    }
}
Shape{
    appearance Appearance {
        material  Material 	{
            diffuseColor 1.0 1.0 1.0
            specularColor 0.8784313725490196 0.8784313725490196 0.8784313725490196
            ambientIntensity 0.2
            transparency 0
            shininess 0.5
        }
    }
    geometry IndexedFaceSet {
        ccw TRUE
        solid FALSE
        coord DEF co Coordinate {
            point [
                0.6618 0.8327 0.1821, 0.6618 0.6673 0.1821, 0.6618 0.8327 0.2687, 0.6618 0.6673 0.2687, 0.8021 0.6378 0.1821, 0.7013 0.6378 0.1821, 0.8021 0.8622 0.1821, 0.7013 0.6673 0.1821, 0.7013 0.8622 0.1821, 0.7013 0.8327 0.1821, 0.8709 0.6378 0.0673, 0.8647 0.6378 0.1258, 0.8709 0.8622 0.0673, 0.8647 0.8622 0.1258, 0.9913 0.6663 -0.0485, 0.9913 0.8337 -0.0485, 1.1457 0.6663 -0.0591, 1.1457 0.8337 -0.0591, 1.1516 0.6663 0.0274, 1.1516 0.8337 0.0274, 1.0697 0.6663 0.033, 1.0697 0.8337 0.033, 0.9494 0.8622 0.1488, 0.9426 0.8622 0.2124, 0.9494 0.6378 0.1488, 0.9426 0.6378 0.2124, 0.8799 0.8622 0.2687, 0.7072 0.8622 0.2687, 0.8799 0.6378 0.2687, 0.7072 0.8327 0.2687, 0.7072 0.6378 0.2687, 0.7072 0.6673 0.2687, 0.8566 0.6378 0.1506, 0.8619 0.6378 0.1386, 0.953 0.6378 0.129, 0.9597 0.6378 0.11, 0.8151 0.6378 0.1807, 0.8277 0.6378 0.1766, 0.893 0.6378 0.2673, 0.8391 0.6378 0.1701, 0.9344 0.6378 0.2373, 0.8488 0.6378 0.1613, 0.9398 0.6378 0.2252, 0.8746 0.6378 0.0475, 0.9693 0.6378 0.0923, 0.9267 0.6378 0.2479, 0.9169 0.6378 0.2567, 0.9055 0.6378 0.2633, 0.9175 0.6378 -0.0192, 0.934 0.6378 -0.0307, 0.9776 0.6378 0.0807, 0.9521 0.6378 -0.0396, 0.969 0.6378 -0.045, 0.8813 0.6378 0.0285, 0.8909 0.6378 0.0108, 0.903 0.6378 -0.0052, 0.9055 0.8622 0.2633, 0.8391 0.8622 0.1701, 0.893 0.8622 0.2673, 0.8277 0.8622 0.1766, 0.8151 0.8622 0.1807, 0.9169 0.8622 0.2567, 0.9267 0.8622 0.2479, 0.8488 0.8622 0.1613, 0.9344 0.8622 0.2373, 0.9398 0.8622 0.2252, 0.8566 0.8622 0.1506, 0.8619 0.8622 0.1386, 0.953 0.8622 0.129, 0.9597 0.8622 0.11, 0.8746 0.8622 0.0475, 0.9693 0.8622 0.0923, 0.969 0.8622 -0.045, 0.9521 0.8622 -0.0396, 0.9776 0.8622 0.0807, 0.934 0.8622 -0.0307, 0.9175 0.8622 -0.0192, 0.903 0.8622 -0.0052, 0.8909 0.8622 0.0108, 0.8813 0.8622 0.0285, 0.9776 0.8337 0.0807, 0.9776 0.6663 0.0807, 0.9815 0.8337 0.0762, 0.9815 0.6663 0.0762, 0.996 0.8337 0.0623, 0.996 0.6663 0.0623, 1.0125 0.8337 0.0507, 1.0125 0.6663 0.0507, 1.0305 0.8337 0.0418, 1.0305 0.6663 0.0418, 1.0498 0.8337 0.0359, 1.0498 0.6663 0.0359, 0.969 0.6663 -0.045, 0.9713 0.8337 -0.0456, 0.9713 0.6663 -0.0456, 0.969 0.8337 -0.045, -1.1319 -0.7904 0.1063, -1.0925 -0.7904 0.1063, -1.2106 -0.7116 0.1063, -1.0925 -0.8297 0.1063, -0.935 -0.8297 0.1063, -0.935 -0.7904 0.1063, -0.935 0.8297 0.1063, -1.0925 0.8297 0.1063, -0.935 0.7904 0.1063, -1.0925 0.7904 0.1063, -0.6988 0.6299 0.1063, -0.8458 0.374 0.1063, -0.8332 0.3903 0.1063, -1.1876 -0.7673 0.1063, -1.2001 -0.751 0.1063, -1.2079 -0.732 0.1063, -1.1713 -0.7798 0.1063, -1.1523 -0.7877 0.1063, -0.5644 -0.3903 0.1063, -0.5807 -0.4028 0.1063, -0.6988 -0.6299 0.1063, -0.5997 -0.4107 0.1063, -0.5519 -0.374 0.1063, 0.4429 -0.6299 0.1063, -0.544 -0.355 0.1063, -1.2106 0.7116 0.1063, -0.8536 0.355 0.1063, -0.6988 -0.7904 0.1063, -0.7776 -0.4134 0.1063, -0.6201 -0.4134 0.1063, -1.1319 0.7904 0.1063, -1.1523 0.7877 0.1063, -1.1713 0.7798 0.1063, -1.2079 0.732 0.1063, -1.1876 0.7673 0.1063, -1.2001 0.751 0.1063, -0.5644 0.3903 0.1063, -0.5519 0.374 0.1063, 0.4429 0.6299 0.1063, -0.7979 -0.4107 0.1063, -0.8169 -0.4028 0.1063, -0.8332 -0.3903 0.1063, -0.8458 -0.374 0.1063, -0.8536 -0.355 0.1063, -0.8563 -0.3346 0.1063, -0.8563 0.3346 0.1063, -0.6988 0.7904 0.1063, -0.8169 0.4028 0.1063, -0.7979 0.4107 0.1063, -0.7776 0.4134 0.1063, -0.544 0.355 0.1063, -0.5413 0.3346 0.1063, -0.5413 -0.3346 0.1063, -0.6201 0.4134 0.1063, -0.5997 0.4107 0.1063, -0.5807 0.4028 0.1063, -0.935 -0.8297 0.0, -1.0925 -0.8297 0.0, -0.935 -0.7904 0.0, -1.0925 -0.7904 0.0, -1.1319 0.7904 -0.0, -1.0925 0.7904 -0.0, -1.2106 0.7116 -0.0, -1.0925 0.8297 -0.0, -0.935 0.8297 -0.0, -0.935 0.7904 -0.0, -1.2106 -0.7116 0.0, -0.8536 -0.355 0.0, -0.8458 -0.374 0.0, -0.6988 0.7904 -0.0, -0.7776 0.4134 -0.0, -0.6988 0.6299 -0.0, -0.6201 0.4134 -0.0, -0.6988 -0.6299 0.0, -0.8332 -0.3903 0.0, 0.4429 0.6299 -0.0, -0.544 0.355 0.0, -0.5519 0.374 0.0, -0.6988 -0.7904 0.0, -1.1319 -0.7904 0.0, -1.1523 -0.7877 0.0, -1.1713 -0.7798 0.0, -1.1876 -0.7673 0.0, -1.2001 -0.751 0.0, -1.2079 -0.732 0.0, -1.2001 0.751 -0.0, -1.1876 0.7673 -0.0, -1.2079 0.732 -0.0, -1.1713 0.7798 -0.0, -1.1523 0.7877 -0.0, 0.4429 -0.6299 0.0, -0.5644 -0.3903 0.0, -0.5519 -0.374 0.0, -0.7979 0.4107 -0.0, -0.8169 0.4028 -0.0, -0.8332 0.3903 -0.0, -0.8458 0.374 0.0, -0.5644 0.3903 -0.0, -0.5807 0.4028 -0.0, -0.5997 0.4107 -0.0, -0.8536 0.355 0.0, -0.8563 0.3346 0.0, -0.8563 -0.3346 0.0, -0.8169 -0.4028 0.0, -0.7979 -0.4107 0.0, -0.7776 -0.4134 0.0, -0.6201 -0.4134 0.0, -0.5997 -0.4107 0.0, -0.5807 -0.4028 0.0, -0.544 -0.355 0.0, -0.5413 -0.3346 0.0, -0.5413 0.3346 0.0, 0.6618 0.3327 0.1821, 0.6618 0.1673 0.1821, 0.6618 0.3327 0.2687, 0.6618 0.1673 0.2687, 0.8021 0.1378 0.1821, 0.7013 0.1378 0.1821, 0.8021 0.3622 0.1821, 0.7013 0.1673 0.1821, 0.7013 0.3622 0.1821, 0.7013 0.3327 0.1821, 0.8709 0.1378 0.0673, 0.8647 0.1378 0.1258, 0.8709 0.3622 0.0673, 0.8647 0.3622 0.1258, 0.9913 0.1663 -0.0485, 0.9913 0.3337 -0.0485, 1.1457 0.1663 -0.0591, 1.1457 0.3337 -0.0591, 1.1516 0.1663 0.0274, 1.1516 0.3337 0.0274, 1.0697 0.1663 0.033, 1.0697 0.3337 0.033, 0.9494 0.3622 0.1488, 0.9426 0.3622 0.2124, 0.9494 0.1378 0.1488, 0.9426 0.1378 0.2124, 0.8799 0.3622 0.2687, 0.7072 0.3622 0.2687, 0.8799 0.1378 0.2687, 0.7072 0.3327 0.2687, 0.7072 0.1378 0.2687, 0.7072 0.1673 0.2687, 0.8566 0.1378 0.1506, 0.8619 0.1378 0.1386, 0.953 0.1378 0.129, 0.9597 0.1378 0.11, 0.8151 0.1378 0.1807, 0.8277 0.1378 0.1766, 0.893 0.1378 0.2673, 0.8391 0.1378 0.1701, 0.9344 0.1378 0.2373, 0.8488 0.1378 0.1613, 0.9398 0.1378 0.2252, 0.8746 0.1378 0.0475, 0.9693 0.1378 0.0923, 0.9267 0.1378 0.2479, 0.9169 0.1378 0.2567, 0.9055 0.1378 0.2633, 0.9175 0.1378 -0.0192, 0.934 0.1378 -0.0307, 0.9776 0.1378 0.0807, 0.9521 0.1378 -0.0396, 0.969 0.1378 -0.045, 0.8813 0.1378 0.0285, 0.8909 0.1378 0.0108, 0.903 0.1378 -0.0052, 0.9055 0.3622 0.2633, 0.8391 0.3622 0.1701, 0.893 0.3622 0.2673, 0.8277 0.3622 0.1766, 0.8151 0.3622 0.1807, 0.9169 0.3622 0.2567, 0.9267 0.3622 0.2479, 0.8488 0.3622 0.1613, 0.9344 0.3622 0.2373, 0.9398 0.3622 0.2252, 0.8566 0.3622 0.1506, 0.8619 0.3622 0.1386, 0.953 0.3622 0.129, 0.9597 0.3622 0.11, 0.8746 0.3622 0.0475, 0.9693 0.3622 0.0923, 0.969 0.3622 -0.045, 0.9521 0.3622 -0.0396, 0.9776 0.3622 0.0807, 0.934 0.3622 -0.0307, 0.9175 0.3622 -0.0192, 0.903 0.3622 -0.0052, 0.8909 0.3622 0.0108, 0.8813 0.3622 0.0285, 0.9776 0.3337 0.0807, 0.9776 0.1663 0.0807, 0.9815 0.3337 0.0762, 0.9815 0.1663 0.0762, 0.996 0.3337 0.0623, 0.996 0.1663 0.0623, 1.0125 0.3337 0.0507, 1.0125 0.1663 0.0507, 1.0305 0.3337 0.0418, 1.0305 0.1663 0.0418, 1.0498 0.3337 0.0359, 1.0498 0.1663 0.0359, 0.969 0.1663 -0.045, 0.9713 0.3337 -0.0456, 0.9713 0.1663 -0.0456, 0.969 0.3337 -0.045, 0.6618 -0.1673 0.1821, 0.6618 -0.3327 0.1821, 0.6618 -0.1673 0.2687, 0.6618 -0.3327 0.2687, 0.8021 -0.3622 0.1821, 0.7013 -0.3622 0.1821, 0.8021 -0.1378 0.1821, 0.7013 -0.3327 0.1821, 0.7013 -0.1378 0.1821, 0.7013 -0.1673 0.1821, 0.8709 -0.3622 0.0673, 0.8647 -0.3622 0.1258, 0.8709 -0.1378 0.0673, 0.8647 -0.1378 0.1258, 0.9913 -0.3337 -0.0485, 0.9913 -0.1663 -0.0485, 1.1457 -0.3337 -0.0591, 1.1457 -0.1663 -0.0591, 1.1516 -0.3337 0.0274, 1.1516 -0.1663 0.0274, 1.0697 -0.3337 0.033, 1.0697 -0.1663 0.033, 0.9494 -0.1378 0.1488, 0.9426 -0.1378 0.2124, 0.9494 -0.3622 0.1488, 0.9426 -0.3622 0.2124, 0.8799 -0.1378 0.2687, 0.7072 -0.1378 0.2687, 0.8799 -0.3622 0.2687, 0.7072 -0.1673 0.2687, 0.7072 -0.3622 0.2687, 0.7072 -0.3327 0.2687, 0.8566 -0.3622 0.1506, 0.8619 -0.3622 0.1386, 0.953 -0.3622 0.129, 0.9597 -0.3622 0.11, 0.8151 -0.3622 0.1807, 0.8277 -0.3622 0.1766, 0.893 -0.3622 0.2673, 0.8391 -0.3622 0.1701, 0.9344 -0.3622 0.2373, 0.8488 -0.3622 0.1613, 0.9398 -0.3622 0.2252, 0.8746 -0.3622 0.0475, 0.9693 -0.3622 0.0923, 0.9267 -0.3622 0.2479, 0.9169 -0.3622 0.2567, 0.9055 -0.3622 0.2633, 0.9175 -0.3622 -0.0192, 0.934 -0.3622 -0.0307, 0.9776 -0.3622 0.0807, 0.9521 -0.3622 -0.0396, 0.969 -0.3622 -0.045, 0.8813 -0.3622 0.0285, 0.8909 -0.3622 0.0108, 0.903 -0.3622 -0.0052, 0.9055 -0.1378 0.2633, 0.8391 -0.1378 0.1701, 0.893 -0.1378 0.2673, 0.8277 -0.1378 0.1766, 0.8151 -0.1378 0.1807, 0.9169 -0.1378 0.2567, 0.9267 -0.1378 0.2479, 0.8488 -0.1378 0.1613, 0.9344 -0.1378 0.2373, 0.9398 -0.1378 0.2252, 0.8566 -0.1378 0.1506, 0.8619 -0.1378 0.1386, 0.953 -0.1378 0.129, 0.9597 -0.1378 0.11, 0.8746 -0.1378 0.0475, 0.9693 -0.1378 0.0923, 0.969 -0.1378 -0.045, 0.9521 -0.1378 -0.0396, 0.9776 -0.1378 0.0807, 0.934 -0.1378 -0.0307, 0.9175 -0.1378 -0.0192, 0.903 -0.1378 -0.0052, 0.8909 -0.1378 0.0108, 0.8813 -0.1378 0.0285, 0.9776 -0.1663 0.0807, 0.9776 -0.3337 0.0807, 0.9815 -0.1663 0.0762, 0.9815 -0.3337 0.0762, 0.996 -0.1663 0.0623, 0.996 -0.3337 0.0623, 1.0125 -0.1663 0.0507, 1.0125 -0.3337 0.0507, 1.0305 -0.1663 0.0418, 1.0305 -0.3337 0.0418, 1.0498 -0.1663 0.0359, 1.0498 -0.3337 0.0359, 0.969 -0.3337 -0.045, 0.9713 -0.1663 -0.0456, 0.9713 -0.3337 -0.0456, 0.969 -0.1663 -0.045, 0.6618 -0.6673 0.1821, 0.6618 -0.8327 0.1821, 0.6618 -0.6673 0.2687, 0.6618 -0.8327 0.2687, 0.8021 -0.8622 0.1821, 0.7013 -0.8622 0.1821, 0.8021 -0.6378 0.1821, 0.7013 -0.8327 0.1821, 0.7013 -0.6378 0.1821, 0.7013 -0.6673 0.1821, 0.8709 -0.8622 0.0673, 0.8647 -0.8622 0.1258, 0.8709 -0.6378 0.0673, 0.8647 -0.6378 0.1258, 0.9913 -0.8337 -0.0485, 0.9913 -0.6663 -0.0485, 1.1457 -0.8337 -0.0591, 1.1457 -0.6663 -0.0591, 1.1516 -0.8337 0.0274, 1.1516 -0.6663 0.0274, 1.0697 -0.8337 0.033, 1.0697 -0.6663 0.033, 0.9494 -0.6378 0.1488, 0.9426 -0.6378 0.2124, 0.9494 -0.8622 0.1488, 0.9426 -0.8622 0.2124, 0.8799 -0.6378 0.2687, 0.7072 -0.6378 0.2687, 0.8799 -0.8622 0.2687, 0.7072 -0.6673 0.2687, 0.7072 -0.8622 0.2687, 0.7072 -0.8327 0.2687, 0.8566 -0.8622 0.1506, 0.8619 -0.8622 0.1386, 0.953 -0.8622 0.129, 0.9597 -0.8622 0.11, 0.8151 -0.8622 0.1807, 0.8277 -0.8622 0.1766, 0.893 -0.8622 0.2673, 0.8391 -0.8622 0.1701, 0.9344 -0.8622 0.2373, 0.8488 -0.8622 0.1613, 0.9398 -0.8622 0.2252, 0.8746 -0.8622 0.0475, 0.9693 -0.8622 0.0923, 0.9267 -0.8622 0.2479, 0.9169 -0.8622 0.2567, 0.9055 -0.8622 0.2633, 0.9175 -0.8622 -0.0192, 0.934 -0.8622 -0.0307, 0.9776 -0.8622 0.0807, 0.9521 -0.8622 -0.0396, 0.969 -0.8622 -0.045, 0.8813 -0.8622 0.0285, 0.8909 -0.8622 0.0108, 0.903 -0.8622 -0.0052, 0.9055 -0.6378 0.2633, 0.8391 -0.6378 0.1701, 0.893 -0.6378 0.2673, 0.8277 -0.6378 0.1766, 0.8151 -0.6378 0.1807, 0.9169 -0.6378 0.2567, 0.9267 -0.6378 0.2479, 0.8488 -0.6378 0.1613, 0.9344 -0.6378 0.2373, 0.9398 -0.6378 0.2252, 0.8566 -0.6378 0.1506, 0.8619 -0.6378 0.1386, 0.953 -0.6378 0.129, 0.9597 -0.6378 0.11, 0.8746 -0.6378 0.0475, 0.9693 -0.6378 0.0923, 0.969 -0.6378 -0.045, 0.9521 -0.6378 -0.0396, 0.9776 -0.6378 0.0807, 0.934 -0.6378 -0.0307, 0.9175 -0.6378 -0.0192, 0.903 -0.6378 -0.0052, 0.8909 -0.6378 0.0108, 0.8813 -0.6378 0.0285, 0.9776 -0.6663 0.0807, 0.9776 -0.8337 0.0807, 0.9815 -0.6663 0.0762, 0.9815 -0.8337 0.0762, 0.996 -0.6663 0.0623, 0.996 -0.8337 0.0623, 1.0125 -0.6663 0.0507, 1.0125 -0.8337 0.0507, 1.0305 -0.6663 0.0418, 1.0305 -0.8337 0.0418, 1.0498 -0.6663 0.0359, 1.0498 -0.8337 0.0359, 0.969 -0.8337 -0.045, 0.9713 -0.6663 -0.0456, 0.9713 -0.8337 -0.0456, 0.969 -0.6663 -0.045, 0.969 -0.6663 -0.045
            ]
        }
        coordIndex [
            0,1,2,-1,2,1,3,-1,4,5,6,-1,6,5,7,-1,8,6,9,-1,9,6,7,-1,9,7,0,-1,0,7,1,-1,10,11,12,-1,12,11,13,-1,14,15,16,-1,16,15,17,-1,16,17,18,-1,18,17,19,-1,18,19,20,-1,20,19,21,-1,22,23,24,-1,24,23,25,-1,26,27,28,-1,28,27,29,-1,30,28,31,-1,31,28,29,-1,31,29,3,-1,3,29,2,-1,32,33,24,-1,30,5,28,-1,28,5,4,-1,24,33,34,-1,34,33,11,-1,34,11,35,-1,4,36,28,-1,28,36,37,-1,28,37,38,-1,38,37,39,-1,40,41,42,-1,42,41,32,-1,42,32,25,-1,25,32,24,-1,11,10,35,-1,35,10,43,-1,35,43,44,-1,40,45,41,-1,41,45,46,-1,41,46,39,-1,39,46,47,-1,39,47,38,-1,48,49,50,-1,50,49,51,-1,50,51,52,-1,43,53,44,-1,44,53,54,-1,44,54,50,-1,50,54,55,-1,50,55,48,-1,56,57,58,-1,58,57,59,-1,58,59,26,-1,8,27,6,-1,6,27,26,-1,6,26,60,-1,60,26,59,-1,56,61,57,-1,57,61,62,-1,57,62,63,-1,62,64,63,-1,63,64,65,-1,63,65,66,-1,66,65,23,-1,66,23,67,-1,67,23,22,-1,67,22,13,-1,13,22,68,-1,13,68,12,-1,12,68,69,-1,12,69,70,-1,70,69,71,-1,72,73,74,-1,74,73,75,-1,74,75,76,-1,76,77,74,-1,74,77,78,-1,74,78,71,-1,71,78,79,-1,71,79,70,-1,25,23,65,-1,25,65,42,-1,42,65,64,-1,42,64,40,-1,40,64,62,-1,40,62,45,-1,45,62,61,-1,45,61,46,-1,46,61,56,-1,46,56,47,-1,47,56,58,-1,47,58,38,-1,38,58,26,-1,38,26,28,-1,13,11,67,-1,67,11,33,-1,67,33,66,-1,66,33,32,-1,66,32,63,-1,63,32,41,-1,63,41,57,-1,57,41,39,-1,57,39,59,-1,59,39,37,-1,59,37,60,-1,60,37,36,-1,60,36,6,-1,6,36,4,-1,74,71,80,-1,80,71,81,-1,80,81,82,-1,82,81,83,-1,82,83,84,-1,84,83,85,-1,84,85,86,-1,86,85,87,-1,86,87,88,-1,88,87,89,-1,88,89,90,-1,90,89,91,-1,90,91,21,-1,21,91,20,-1,22,24,68,-1,68,24,34,-1,68,34,69,-1,69,34,35,-1,69,35,71,-1,71,35,44,-1,71,44,81,-1,81,44,50,-1,92,52,51,-1,93,15,94,-1,94,15,14,-1,73,72,95,-1,93,94,95,-1,95,94,92,-1,95,92,73,-1,92,51,73,-1,73,51,49,-1,73,49,75,-1,75,49,48,-1,75,48,76,-1,76,48,55,-1,76,55,77,-1,77,55,54,-1,77,54,78,-1,78,54,53,-1,78,53,79,-1,79,53,43,-1,79,43,70,-1,70,43,10,-1,70,10,12,-1,72,74,95,-1,95,74,80,-1,95,80,82,-1,82,84,95,-1,95,84,86,-1,95,86,93,-1,93,86,88,-1,93,88,15,-1,19,17,21,-1,21,17,15,-1,21,15,90,-1,90,15,88,-1,83,81,92,-1,16,18,14,-1,14,18,20,-1,20,91,14,-1,14,91,89,-1,14,89,94,-1,94,89,87,-1,94,87,92,-1,92,87,85,-1,92,85,83,-1,92,81,52,-1,52,81,50,-1,29,9,2,-1,2,9,0,-1,27,8,29,-1,29,8,9,-1,3,1,31,-1,31,1,7,-1,31,7,30,-1,30,7,5,-1,96,97,98,-1,99,100,97,-1,97,100,101,-1,97,101,98,-1,102,103,104,-1,104,103,105,-1,106,107,108,-1,109,98,110,-1,110,98,111,-1,109,112,98,-1,98,112,113,-1,98,113,96,-1,114,115,116,-1,116,115,117,-1,114,116,118,-1,118,116,119,-1,118,119,120,-1,121,122,107,-1,101,123,124,-1,124,123,116,-1,124,116,125,-1,125,116,117,-1,126,127,121,-1,121,127,128,-1,121,128,129,-1,129,128,130,-1,129,130,131,-1,132,133,134,-1,124,135,101,-1,101,135,136,-1,101,136,98,-1,98,136,137,-1,98,137,138,-1,138,139,98,-1,98,139,140,-1,98,140,121,-1,121,140,141,-1,121,141,122,-1,106,142,107,-1,107,142,104,-1,107,104,121,-1,121,104,105,-1,121,105,126,-1,108,143,106,-1,106,143,144,-1,106,144,145,-1,133,146,134,-1,134,146,147,-1,134,147,119,-1,119,147,148,-1,119,148,120,-1,145,149,106,-1,106,149,150,-1,106,150,134,-1,134,150,151,-1,134,151,132,-1,152,153,154,-1,154,153,155,-1,156,157,158,-1,159,160,157,-1,157,160,161,-1,157,161,158,-1,162,163,164,-1,161,165,166,-1,166,165,167,-1,166,167,168,-1,169,164,170,-1,171,172,173,-1,169,174,164,-1,164,174,154,-1,164,154,162,-1,162,154,155,-1,155,175,162,-1,162,175,176,-1,162,176,177,-1,177,178,162,-1,162,178,179,-1,162,179,180,-1,181,182,183,-1,183,182,184,-1,183,184,158,-1,158,184,185,-1,158,185,156,-1,186,187,188,-1,166,189,161,-1,161,189,190,-1,161,190,158,-1,158,190,191,-1,158,191,192,-1,173,193,171,-1,171,193,194,-1,171,194,167,-1,167,194,195,-1,167,195,168,-1,192,196,158,-1,158,196,197,-1,158,197,162,-1,162,197,198,-1,162,198,163,-1,170,199,169,-1,169,199,200,-1,169,200,201,-1,201,202,169,-1,169,202,203,-1,169,203,186,-1,186,203,204,-1,186,204,187,-1,188,205,186,-1,186,205,206,-1,186,206,171,-1,171,206,207,-1,171,207,172,-1,175,155,96,-1,96,155,97,-1,99,97,153,-1,153,97,155,-1,100,99,152,-1,152,99,153,-1,101,100,154,-1,154,100,152,-1,123,101,174,-1,174,101,154,-1,134,119,171,-1,171,119,186,-1,165,161,142,-1,142,161,104,-1,102,104,160,-1,160,104,161,-1,103,102,159,-1,159,102,160,-1,105,103,157,-1,157,103,159,-1,126,105,156,-1,156,105,157,-1,158,162,121,-1,121,162,98,-1,202,201,125,-1,125,201,124,-1,207,206,147,-1,147,206,148,-1,149,145,168,-1,168,145,166,-1,141,140,197,-1,197,140,198,-1,207,147,172,-1,172,147,146,-1,172,146,173,-1,173,146,133,-1,173,133,193,-1,193,133,132,-1,193,132,194,-1,194,132,151,-1,194,151,195,-1,195,151,150,-1,195,150,168,-1,168,150,149,-1,166,145,189,-1,189,145,144,-1,189,144,190,-1,190,144,143,-1,190,143,191,-1,191,143,108,-1,191,108,192,-1,192,108,107,-1,192,107,196,-1,196,107,122,-1,196,122,197,-1,197,122,141,-1,202,125,203,-1,203,125,117,-1,203,117,204,-1,204,117,115,-1,204,115,187,-1,187,115,114,-1,187,114,188,-1,188,114,118,-1,188,118,205,-1,205,118,120,-1,205,120,206,-1,206,120,148,-1,198,140,163,-1,163,140,139,-1,163,139,164,-1,164,139,138,-1,164,138,170,-1,170,138,137,-1,170,137,199,-1,199,137,136,-1,199,136,200,-1,200,136,135,-1,200,135,201,-1,201,135,124,-1,126,156,185,-1,126,185,127,-1,127,185,184,-1,127,184,128,-1,128,184,182,-1,128,182,130,-1,130,182,181,-1,130,181,131,-1,131,181,183,-1,131,183,129,-1,129,183,158,-1,129,158,121,-1,98,162,180,-1,98,180,111,-1,111,180,179,-1,111,179,110,-1,110,179,178,-1,110,178,109,-1,109,178,177,-1,109,177,112,-1,112,177,176,-1,112,176,113,-1,113,176,175,-1,113,175,96,-1,167,106,171,-1,171,106,134,-1,165,142,167,-1,167,142,106,-1,169,116,174,-1,174,116,123,-1,186,119,169,-1,169,119,116,-1,208,209,210,-1,210,209,211,-1,212,213,214,-1,214,213,215,-1,216,214,217,-1,217,214,215,-1,217,215,208,-1,208,215,209,-1,218,219,220,-1,220,219,221,-1,222,223,224,-1,224,223,225,-1,224,225,226,-1,226,225,227,-1,226,227,228,-1,228,227,229,-1,230,231,232,-1,232,231,233,-1,234,235,236,-1,236,235,237,-1,238,236,239,-1,239,236,237,-1,239,237,211,-1,211,237,210,-1,240,241,232,-1,238,213,236,-1,236,213,212,-1,232,241,242,-1,242,241,219,-1,242,219,243,-1,212,244,236,-1,236,244,245,-1,236,245,246,-1,246,245,247,-1,248,249,250,-1,250,249,240,-1,250,240,233,-1,233,240,232,-1,219,218,243,-1,243,218,251,-1,243,251,252,-1,248,253,249,-1,249,253,254,-1,249,254,247,-1,247,254,255,-1,247,255,246,-1,256,257,258,-1,258,257,259,-1,258,259,260,-1,251,261,252,-1,252,261,262,-1,252,262,258,-1,258,262,263,-1,258,263,256,-1,264,265,266,-1,266,265,267,-1,266,267,234,-1,216,235,214,-1,214,235,234,-1,214,234,268,-1,268,234,267,-1,264,269,265,-1,265,269,270,-1,265,270,271,-1,270,272,271,-1,271,272,273,-1,271,273,274,-1,274,273,231,-1,274,231,275,-1,275,231,230,-1,275,230,221,-1,221,230,276,-1,221,276,220,-1,220,276,277,-1,220,277,278,-1,278,277,279,-1,280,281,282,-1,282,281,283,-1,282,283,284,-1,284,285,282,-1,282,285,286,-1,282,286,279,-1,279,286,287,-1,279,287,278,-1,233,231,273,-1,233,273,250,-1,250,273,272,-1,250,272,248,-1,248,272,270,-1,248,270,253,-1,253,270,269,-1,253,269,254,-1,254,269,264,-1,254,264,255,-1,255,264,266,-1,255,266,246,-1,246,266,234,-1,246,234,236,-1,221,219,275,-1,275,219,241,-1,275,241,274,-1,274,241,240,-1,274,240,271,-1,271,240,249,-1,271,249,265,-1,265,249,247,-1,265,247,267,-1,267,247,245,-1,267,245,268,-1,268,245,244,-1,268,244,214,-1,214,244,212,-1,282,279,288,-1,288,279,289,-1,288,289,290,-1,290,289,291,-1,290,291,292,-1,292,291,293,-1,292,293,294,-1,294,293,295,-1,294,295,296,-1,296,295,297,-1,296,297,298,-1,298,297,299,-1,298,299,229,-1,229,299,228,-1,230,232,276,-1,276,232,242,-1,276,242,277,-1,277,242,243,-1,277,243,279,-1,279,243,252,-1,279,252,289,-1,289,252,258,-1,300,260,259,-1,301,223,302,-1,302,223,222,-1,281,280,303,-1,301,302,303,-1,303,302,300,-1,303,300,281,-1,300,259,281,-1,281,259,257,-1,281,257,283,-1,283,257,256,-1,283,256,284,-1,284,256,263,-1,284,263,285,-1,285,263,262,-1,285,262,286,-1,286,262,261,-1,286,261,287,-1,287,261,251,-1,287,251,278,-1,278,251,218,-1,278,218,220,-1,280,282,303,-1,303,282,288,-1,303,288,290,-1,290,292,303,-1,303,292,294,-1,303,294,301,-1,301,294,296,-1,301,296,223,-1,227,225,229,-1,229,225,223,-1,229,223,298,-1,298,223,296,-1,291,289,300,-1,224,226,222,-1,222,226,228,-1,228,299,222,-1,222,299,297,-1,222,297,302,-1,302,297,295,-1,302,295,300,-1,300,295,293,-1,300,293,291,-1,300,289,260,-1,260,289,258,-1,237,217,210,-1,210,217,208,-1,235,216,237,-1,237,216,217,-1,211,209,239,-1,239,209,215,-1,239,215,238,-1,238,215,213,-1,304,305,306,-1,306,305,307,-1,308,309,310,-1,310,309,311,-1,312,310,313,-1,313,310,311,-1,313,311,304,-1,304,311,305,-1,314,315,316,-1,316,315,317,-1,318,319,320,-1,320,319,321,-1,320,321,322,-1,322,321,323,-1,322,323,324,-1,324,323,325,-1,326,327,328,-1,328,327,329,-1,330,331,332,-1,332,331,333,-1,334,332,335,-1,335,332,333,-1,335,333,307,-1,307,333,306,-1,336,337,328,-1,334,309,332,-1,332,309,308,-1,328,337,338,-1,338,337,315,-1,338,315,339,-1,308,340,332,-1,332,340,341,-1,332,341,342,-1,342,341,343,-1,344,345,346,-1,346,345,336,-1,346,336,329,-1,329,336,328,-1,315,314,339,-1,339,314,347,-1,339,347,348,-1,344,349,345,-1,345,349,350,-1,345,350,343,-1,343,350,351,-1,343,351,342,-1,352,353,354,-1,354,353,355,-1,354,355,356,-1,347,357,348,-1,348,357,358,-1,348,358,354,-1,354,358,359,-1,354,359,352,-1,360,361,362,-1,362,361,363,-1,362,363,330,-1,312,331,310,-1,310,331,330,-1,310,330,364,-1,364,330,363,-1,360,365,361,-1,361,365,366,-1,361,366,367,-1,366,368,367,-1,367,368,369,-1,367,369,370,-1,370,369,327,-1,370,327,371,-1,371,327,326,-1,371,326,317,-1,317,326,372,-1,317,372,316,-1,316,372,373,-1,316,373,374,-1,374,373,375,-1,376,377,378,-1,378,377,379,-1,378,379,380,-1,380,381,378,-1,378,381,382,-1,378,382,375,-1,375,382,383,-1,375,383,374,-1,329,327,369,-1,329,369,346,-1,346,369,368,-1,346,368,344,-1,344,368,366,-1,344,366,349,-1,349,366,365,-1,349,365,350,-1,350,365,360,-1,350,360,351,-1,351,360,362,-1,351,362,342,-1,342,362,330,-1,342,330,332,-1,317,315,371,-1,371,315,337,-1,371,337,370,-1,370,337,336,-1,370,336,367,-1,367,336,345,-1,367,345,361,-1,361,345,343,-1,361,343,363,-1,363,343,341,-1,363,341,364,-1,364,341,340,-1,364,340,310,-1,310,340,308,-1,378,375,384,-1,384,375,385,-1,384,385,386,-1,386,385,387,-1,386,387,388,-1,388,387,389,-1,388,389,390,-1,390,389,391,-1,390,391,392,-1,392,391,393,-1,392,393,394,-1,394,393,395,-1,394,395,325,-1,325,395,324,-1,326,328,372,-1,372,328,338,-1,372,338,373,-1,373,338,339,-1,373,339,375,-1,375,339,348,-1,375,348,385,-1,385,348,354,-1,396,356,355,-1,397,319,398,-1,398,319,318,-1,377,376,399,-1,397,398,399,-1,399,398,396,-1,399,396,377,-1,396,355,377,-1,377,355,353,-1,377,353,379,-1,379,353,352,-1,379,352,380,-1,380,352,359,-1,380,359,381,-1,381,359,358,-1,381,358,382,-1,382,358,357,-1,382,357,383,-1,383,357,347,-1,383,347,374,-1,374,347,314,-1,374,314,316,-1,376,378,399,-1,399,378,384,-1,399,384,386,-1,386,388,399,-1,399,388,390,-1,399,390,397,-1,397,390,392,-1,397,392,319,-1,323,321,325,-1,325,321,319,-1,325,319,394,-1,394,319,392,-1,387,385,396,-1,320,322,318,-1,318,322,324,-1,324,395,318,-1,318,395,393,-1,318,393,398,-1,398,393,391,-1,398,391,396,-1,396,391,389,-1,396,389,387,-1,396,385,356,-1,356,385,354,-1,333,313,306,-1,306,313,304,-1,331,312,333,-1,333,312,313,-1,307,305,335,-1,335,305,311,-1,335,311,334,-1,334,311,309,-1,400,401,402,-1,402,401,403,-1,404,405,406,-1,406,405,407,-1,408,406,409,-1,409,406,407,-1,409,407,400,-1,400,407,401,-1,410,411,412,-1,412,411,413,-1,414,415,416,-1,416,415,417,-1,416,417,418,-1,418,417,419,-1,418,419,420,-1,420,419,421,-1,422,423,424,-1,424,423,425,-1,426,427,428,-1,428,427,429,-1,430,428,431,-1,431,428,429,-1,431,429,403,-1,403,429,402,-1,432,433,424,-1,430,405,428,-1,428,405,404,-1,424,433,434,-1,434,433,411,-1,434,411,435,-1,404,436,428,-1,428,436,437,-1,428,437,438,-1,438,437,439,-1,440,441,442,-1,442,441,432,-1,442,432,425,-1,425,432,424,-1,411,410,435,-1,435,410,443,-1,435,443,444,-1,440,445,441,-1,441,445,446,-1,441,446,439,-1,439,446,447,-1,439,447,438,-1,448,449,450,-1,450,449,451,-1,450,451,452,-1,443,453,444,-1,444,453,454,-1,444,454,450,-1,450,454,455,-1,450,455,448,-1,456,457,458,-1,458,457,459,-1,458,459,426,-1,408,427,406,-1,406,427,426,-1,406,426,460,-1,460,426,459,-1,456,461,457,-1,457,461,462,-1,457,462,463,-1,462,464,463,-1,463,464,465,-1,463,465,466,-1,466,465,423,-1,466,423,467,-1,467,423,422,-1,467,422,413,-1,413,422,468,-1,413,468,412,-1,412,468,469,-1,412,469,470,-1,470,469,471,-1,472,473,474,-1,474,473,475,-1,474,475,476,-1,476,477,474,-1,474,477,478,-1,474,478,471,-1,471,478,479,-1,471,479,470,-1,425,423,465,-1,425,465,442,-1,442,465,464,-1,442,464,440,-1,440,464,462,-1,440,462,445,-1,445,462,461,-1,445,461,446,-1,446,461,456,-1,446,456,447,-1,447,456,458,-1,447,458,438,-1,438,458,426,-1,438,426,428,-1,413,411,467,-1,467,411,433,-1,467,433,466,-1,466,433,432,-1,466,432,463,-1,463,432,441,-1,463,441,457,-1,457,441,439,-1,457,439,459,-1,459,439,437,-1,459,437,460,-1,460,437,436,-1,460,436,406,-1,406,436,404,-1,474,471,480,-1,480,471,481,-1,480,481,482,-1,482,481,483,-1,482,483,484,-1,484,483,485,-1,484,485,486,-1,486,485,487,-1,486,487,488,-1,488,487,489,-1,488,489,490,-1,490,489,491,-1,490,491,421,-1,421,491,420,-1,422,424,468,-1,468,424,434,-1,468,434,469,-1,469,434,435,-1,469,435,471,-1,471,435,444,-1,471,444,481,-1,481,444,450,-1,492,452,451,-1,493,415,494,-1,494,415,414,-1,473,472,495,-1,493,494,495,-1,495,494,492,-1,495,492,473,-1,492,451,473,-1,473,451,449,-1,473,449,475,-1,475,449,448,-1,475,448,476,-1,476,448,455,-1,476,455,477,-1,477,455,454,-1,477,454,478,-1,478,454,453,-1,478,453,479,-1,479,453,443,-1,479,443,470,-1,470,443,410,-1,470,410,412,-1,472,474,495,-1,495,474,480,-1,495,480,482,-1,482,484,495,-1,495,484,486,-1,495,486,493,-1,493,486,488,-1,493,488,415,-1,419,417,421,-1,421,417,415,-1,421,415,490,-1,490,415,488,-1,483,481,492,-1,416,418,414,-1,414,418,420,-1,420,491,414,-1,414,491,489,-1,414,489,494,-1,494,489,487,-1,494,487,492,-1,492,487,485,-1,492,485,483,-1,492,481,452,-1,452,481,450,-1,429,409,402,-1,402,409,400,-1,427,408,429,-1,429,408,409,-1,403,401,431,-1,431,401,407,-1,431,407,430,-1,430,407,405,-1,
        ]
    }
}