#VRML V2.0 utf8
# 3D model generated by easyeda2kicad.py (https://github.com/uPesy/easyeda2kicad.py)

Shape{
    appearance Appearance {
        material  Material 	{
            diffuseColor 0.6666666666666666 0.6666666666666666 0.6666666666666666
            specularColor 0.4666666666666667 0.4666666666666667 0.4666666666666667
            ambientIntensity 0.2
            transparency 0
            shininess 0.5
        }
    }
    geometry IndexedFaceSet {
        ccw TRUE
        solid FALSE
        coord DEF co Coordinate {
            point [
                -0.4007 0.1737 -0.0004, -0.3719 0.1737 -0.0004, -0.031 0.1725 -0.0004, -0.223 0.1737 -0.0004, -0.1988 0.2277 -0.0004, -0.1875 0.2101 -0.0004, -0.2974 0.3706 -0.0004, -0.1927 0.3295 -0.0004, -0.2019 0.3126 -0.0004, -0.1713 0.1946 -0.0004, -0.1507 0.1826 -0.0004, -0.1281 0.1759 -0.0004, -1.0728 1.2008 -0.0004, -1.3878 0.1725 -0.0004, -1.3878 1.2008 -0.0004, -0.2072 0.2932 -0.0004, -0.2086 0.2746 -0.0004, -0.2059 0.2483 -0.0004, -0.3238 0.3706 -0.0004, -0.1037 0.1737 -0.0004, -0.0502 0.1737 -0.0004, -0.0502 0.3706 -0.0004, -0.031 2.252 -0.0004, -0.1057 0.3706 -0.0004, -0.1342 0.3675 -0.0004, -1.0728 1.752 -0.0002, -1.6653 2.252 -0.0004, -1.9898 1.752 0.0022, -1.9898 2.1339 -0.0004, -0.2518 0.1737 -0.0004, -0.2706 0.229 -0.0004, -0.3519 0.229 -0.0004, -0.1572 0.3595 -0.0004, -0.1786 0.3451 -0.0004, -0.1788 0.3449 -0.0004, 0.1731 0.1725 -0.0004, 0.1811 0.1714 -0.0004, -0.031 -0.3465 -0.0004, 0.1864 0.1713 -0.0004, 0.198 0.1725 -0.0004, -0.007 0.3706 -0.0004, -0.007 0.349 -0.0004, -0.0118 0.1953 -0.0004, 0.1323 0.1839 -0.0004, 0.0939 0.1737 -0.0004, 0.1323 0.2055 -0.0004, 0.0939 0.3706 -0.0004, -1.3878 -0.3465 -0.0004, 0.1533 0.1753 -0.0004, 1.9898 2.1339 -0.0004, 1.9898 1.752 0.0033, 1.6653 2.252 -0.0004, 1.0728 1.752 -0.0002, -0.0118 0.1737 -0.0004, 0.0675 0.2626 -0.0004, 0.0675 0.1953 -0.0004, -0.0022 0.2626 -0.0004, -0.0022 0.2842 -0.0004, 0.0675 0.2842 -0.0004, 0.0675 0.349 -0.0004, 0.1978 0.3492 -0.0004, 0.2125 0.3439 -0.0004, 0.1358 0.2036 -0.0004, 0.2261 0.3348 -0.0004, 0.238 0.3217 -0.0004, 0.2523 0.2701 -0.0004, 0.2503 0.2488 -0.0004, 0.245 0.2318 -0.0004, 0.2012 0.195 -0.0004, 0.1828 0.1929 -0.0004, 0.2155 0.2003 -0.0004, 0.2276 0.2084 -0.0004, 0.2368 0.2182 -0.0004, 0.1567 0.1958 -0.0004, 1.0728 1.2008 -0.0004, 0.239 0.3542 -0.0004, 0.2203 0.365 -0.0004, 0.1984 0.3714 -0.0004, 0.1786 0.373 -0.0004, 0.3963 0.1737 -0.0004, 0.2955 0.1737 -0.0004, 0.2107 0.1739 -0.0004, 0.2298 0.1804 -0.0004, 0.2683 0.3187 -0.0004, 0.2568 0.3371 -0.0004, 0.3699 0.3706 -0.0004, 0.2461 0.3065 -0.0004, 0.2514 0.2854 -0.0004, 0.155 0.3714 -0.0004, 0.1323 0.3652 -0.0004, 0.1323 0.3388 -0.0004, 0.1544 0.3483 -0.0004, 0.1784 0.3514 -0.0004, 0.3963 0.3706 -0.0004, 1.3878 1.2008 -0.0004, 1.3878 0.1725 -0.0004, 1.3878 -0.3465 -0.0004, 0.2456 0.1905 -0.0004, 0.2604 0.2061 -0.0004, 0.2955 0.1953 -0.0004, 0.2709 0.2248 -0.0004, 0.3699 0.1953 -0.0004, 0.2768 0.2457 -0.0004, 0.2787 0.2684 -0.0004, 0.2759 0.2964 -0.0004, 0.2759 0.2964 -0.0004
            ]
        }
        coordIndex [
            0,1,2,-1,3,4,5,-1,6,7,8,-1,5,9,3,-1,3,9,10,-1,3,10,11,-1,7,6,12,-1,13,14,12,-1,8,15,6,-1,6,15,16,-1,6,16,3,-1,3,16,17,-1,3,17,4,-1,2,13,0,-1,0,13,12,-1,0,12,18,-1,18,12,6,-1,19,20,2,-1,2,20,21,-1,2,21,22,-1,22,21,23,-1,23,24,22,-1,22,24,25,-1,22,25,26,-1,26,25,27,-1,26,27,28,-1,11,19,3,-1,3,19,2,-1,3,2,29,-1,29,2,1,-1,29,1,30,-1,30,1,31,-1,24,32,25,-1,25,32,33,-1,25,33,12,-1,12,33,34,-1,12,34,7,-1,35,36,37,-1,37,36,38,-1,37,38,39,-1,40,41,42,-1,43,44,45,-1,45,44,46,-1,47,13,37,-1,37,13,2,-1,37,2,35,-1,35,2,44,-1,35,44,48,-1,48,44,43,-1,49,50,51,-1,51,50,52,-1,51,52,22,-1,46,40,22,-1,22,40,42,-1,22,42,2,-1,2,42,53,-1,2,53,44,-1,54,55,56,-1,56,55,42,-1,56,42,57,-1,57,42,41,-1,57,41,58,-1,58,41,59,-1,60,61,62,-1,62,61,63,-1,62,63,64,-1,65,66,62,-1,62,66,67,-1,68,69,70,-1,70,69,71,-1,67,72,62,-1,62,72,71,-1,62,71,73,-1,73,71,69,-1,74,75,52,-1,52,75,76,-1,52,76,22,-1,22,76,77,-1,22,77,78,-1,79,39,80,-1,80,39,81,-1,80,81,82,-1,83,84,85,-1,64,86,62,-1,62,86,87,-1,62,87,65,-1,78,88,22,-1,22,88,89,-1,22,89,46,-1,46,89,90,-1,46,90,45,-1,45,90,91,-1,45,91,62,-1,62,91,92,-1,62,92,60,-1,84,75,85,-1,85,75,74,-1,85,74,93,-1,93,74,94,-1,93,94,79,-1,79,94,95,-1,79,95,39,-1,39,95,96,-1,39,96,37,-1,82,97,80,-1,80,97,98,-1,80,98,99,-1,99,98,100,-1,99,100,101,-1,100,102,101,-1,101,102,103,-1,101,103,85,-1,85,103,104,-1,85,104,83,-1,
        ]
    }
}
Shape{
    appearance Appearance {
        material  Material 	{
            diffuseColor 0.20784313725490197 0.20784313725490197 0.20784313725490197
            specularColor 0.01568627450980392 0.01568627450980392 0.01568627450980392
            ambientIntensity 0.2
            transparency 0
            shininess 0.5
        }
    }
    geometry IndexedFaceSet {
        ccw TRUE
        solid FALSE
        coord DEF co Coordinate {
            point [
                1.0728 1.2008 0.0, 1.0728 1.752 -0.0002, 1.3878 1.2008 0.0, 1.9898 1.752 0.0033, 1.3878 -0.3465 0.0, 1.9902 -1.6268 0.0, -1.3878 -0.3465 0.0, -1.9902 -1.6268 0.0, -1.3878 1.2008 0.0, -1.9898 1.752 0.0022, -1.0728 1.2008 0.0, -1.0728 1.752 -0.0002, -1.8327 1.5949 1.7992, -1.8327 -1.6543 1.7992, 1.8327 1.5949 1.7992, 1.8327 -1.6543 1.7992, 1.9447 1.752 0.5197, 1.9016 -1.751 1.0118, -1.9016 -1.751 1.0118, -1.9447 1.752 0.5197, -1.2598 -1.751 1.0118, -0.7402 -1.751 1.0118, -0.2598 -1.751 1.0118, -0.7402 -1.7312 1.1732, -0.2598 -1.7312 1.1732, -1.2598 -1.7312 1.1732, 0.2598 -1.7312 1.1732, 1.2598 -1.751 1.0118, 1.2598 -1.7312 1.1732, 0.7402 -1.7312 1.1732, 0.7402 -1.751 1.0118, 0.2598 -1.751 1.0118, 0.2598 -1.751 1.0118
            ]
        }
        coordIndex [
            0,1,2,-1,2,1,3,-1,2,3,4,-1,4,3,5,-1,4,5,6,-1,6,5,7,-1,6,7,8,-1,8,7,9,-1,8,9,10,-1,10,9,11,-1,12,13,14,-1,14,13,15,-1,5,3,16,-1,5,16,17,-1,17,16,14,-1,17,14,15,-1,13,12,18,-1,18,12,19,-1,18,19,7,-1,7,19,9,-1,13,18,20,-1,21,22,23,-1,23,22,24,-1,20,25,13,-1,13,25,23,-1,13,23,15,-1,15,23,24,-1,15,24,26,-1,27,17,28,-1,28,17,15,-1,28,15,29,-1,29,15,26,-1,29,26,30,-1,30,26,31,-1,20,18,7,-1,5,17,27,-1,20,7,21,-1,27,30,5,-1,5,30,31,-1,5,31,7,-1,7,31,22,-1,7,22,21,-1,19,12,16,-1,16,12,14,-1,
        ]
    }
}
Shape{
    appearance Appearance {
        material  Material 	{
            diffuseColor 0.6666666666666666 0.6666666666666666 0.6666666666666666
            specularColor 0.4666666666666667 0.4666666666666667 0.4666666666666667
            ambientIntensity 0.2
            transparency 0
            shininess 0.5
        }
    }
    geometry IndexedFaceSet {
        ccw TRUE
        solid FALSE
        coord DEF co Coordinate {
            point [
                -1.9898 1.752 0.0022, -1.9447 1.752 0.5197, -1.9898 1.752 0.5197, 1.9447 1.752 0.5197, 1.9898 1.752 0.0033, 1.9898 1.752 0.5197, 1.9898 2.1339 0.5197, 1.9898 2.1339 -0.0004, -1.6653 2.252 -0.0004, -1.6653 2.252 0.5197, -0.031 2.252 -0.0004, 1.6653 2.252 0.5197, 1.6653 2.252 -0.0004, -1.9898 2.1339 -0.0004, -1.9898 2.1339 0.5197, 1.0728 1.752 -0.0002, 1.0728 1.2008 0.0, 1.0728 1.2008 -0.0004, -1.0728 1.2008 -0.0004, -1.0728 1.2008 0.0, -1.0728 1.752 -0.0002, -1.3878 1.2008 0.0, -1.3878 1.2008 -0.0004, -1.3878 -0.3465 -0.0004, -1.3878 -0.3465 0.0, -1.3878 0.1725 -0.0004, 1.3878 -0.3465 -0.0004, 1.3878 -0.3465 0.0, -0.031 -0.3465 -0.0004, 1.3878 1.2008 -0.0004, 1.3878 1.2008 0.0, 1.3878 0.1725 -0.0004, 0.8465 -3.7323 0.1125, 1.1535 -3.7323 0.1125, 0.8465 -2.8268 0.1125, 1.1535 -2.8268 0.1125, 1.1535 -3.7323 -0.0489, 0.8465 -3.7323 -0.0489, 1.1535 -2.8268 -0.0489, 0.8465 -2.8268 -0.0489, 0.8465 -2.7805 -0.0435, 1.1535 -2.7805 -0.0435, 0.8465 -2.7367 -0.0275, 1.1535 -2.7367 -0.0275, 0.8465 -2.6977 -0.0019, 1.1535 -2.6977 -0.0019, 0.8465 -2.6657 0.032, 1.1535 -2.6657 0.032, 0.8465 -2.6424 0.0724, 1.1535 -2.6424 0.0724, 0.8465 -2.629 0.117, 1.1535 -2.629 0.117, 0.8465 -2.5542 0.5417, 0.7402 -2.5542 0.5417, 0.7402 -2.4822 0.95, 1.2598 -2.4822 0.95, 1.2598 -2.5542 0.5417, 1.1535 -2.5542 0.5417, 1.2598 -2.4772 0.9666, 0.7402 -2.4772 0.9666, 1.2598 -2.4685 0.9817, 0.7402 -2.4685 0.9817, 1.2598 -2.4566 0.9943, 0.7402 -2.4566 0.9943, 1.2598 -2.4421 1.0039, 0.7402 -2.4421 1.0039, 1.2598 -2.4257 1.0098, 0.7402 -2.4257 1.0098, 1.2598 -2.4085 1.0118, 0.7402 -2.4085 1.0118, 1.2598 -1.751 1.0118, 0.7402 -1.751 1.0118, 0.7402 -2.4085 1.1732, 1.2598 -2.4085 1.1732, 0.7402 -1.7312 1.1732, 1.2598 -1.7312 1.1732, 0.7402 -2.463 1.1669, 1.2598 -2.463 1.1669, 0.7402 -2.5145 1.1481, 1.2598 -2.5145 1.1481, 0.7402 -2.5603 1.118, 1.2598 -2.5603 1.118, 0.7402 -2.598 1.0781, 1.2598 -2.598 1.0781, 0.7402 -2.6254 1.0306, 1.2598 -2.6254 1.0306, 0.7402 -2.6411 0.978, 1.2598 -2.6411 0.978, 0.7402 -2.7181 0.5417, 0.8465 -2.7181 0.5417, 1.2598 -2.7181 0.5417, 1.1535 -2.7181 0.5417, 1.1535 -2.788 0.1451, 0.8465 -2.788 0.1451, 1.1535 -2.7906 0.1363, 0.8465 -2.7906 0.1363, 1.1535 -2.7952 0.1284, 0.8465 -2.7952 0.1284, 1.1535 -2.8015 0.1217, 0.8465 -2.8015 0.1217, 1.1535 -2.8091 0.1167, 0.8465 -2.8091 0.1167, 1.1535 -2.8177 0.1136, 0.8465 -2.8177 0.1136, -0.2598 -1.751 1.0118, 0.2598 -1.751 1.0118, -0.2598 -2.3514 1.0118, 0.2598 -2.3514 1.0118, 0.2598 -2.3514 1.1732, 0.2598 -1.7312 1.1732, -0.2598 -2.3514 1.1732, -0.2598 -1.7312 1.1732, -1.1535 -3.7323 0.1125, -0.8465 -3.7323 0.1125, -1.1535 -2.8268 0.1125, -0.8465 -2.8268 0.1125, -0.8465 -3.7323 -0.0489, -1.1535 -3.7323 -0.0489, -0.8465 -2.8268 -0.0489, -1.1535 -2.8268 -0.0489, -1.1535 -2.7805 -0.0435, -0.8465 -2.7805 -0.0435, -1.1535 -2.7367 -0.0275, -0.8465 -2.7367 -0.0275, -1.1535 -2.6977 -0.0019, -0.8465 -2.6977 -0.0019, -1.1535 -2.6657 0.032, -0.8465 -2.6657 0.032, -1.1535 -2.6424 0.0724, -0.8465 -2.6424 0.0724, -1.1535 -2.629 0.117, -0.8465 -2.629 0.117, -1.1535 -2.5542 0.5417, -1.2598 -2.5542 0.5417, -1.2598 -2.4822 0.95, -0.7402 -2.4822 0.95, -0.7402 -2.5542 0.5417, -0.8465 -2.5542 0.5417, -0.7402 -2.4772 0.9666, -1.2598 -2.4772 0.9666, -0.7402 -2.4685 0.9817, -1.2598 -2.4685 0.9817, -0.7402 -2.4566 0.9943, -1.2598 -2.4566 0.9943, -0.7402 -2.4421 1.0039, -1.2598 -2.4421 1.0039, -0.7402 -2.4257 1.0098, -1.2598 -2.4257 1.0098, -0.7402 -2.4085 1.0118, -1.2598 -2.4085 1.0118, -0.7402 -1.751 1.0118, -1.2598 -1.751 1.0118, -1.2598 -2.4085 1.1732, -0.7402 -2.4085 1.1732, -1.2598 -1.7312 1.1732, -0.7402 -1.7312 1.1732, -1.2598 -2.463 1.1669, -0.7402 -2.463 1.1669, -1.2598 -2.5145 1.1481, -0.7402 -2.5145 1.1481, -1.2598 -2.5603 1.118, -0.7402 -2.5603 1.118, -1.2598 -2.598 1.0781, -0.7402 -2.598 1.0781, -1.2598 -2.6254 1.0306, -0.7402 -2.6254 1.0306, -1.2598 -2.6411 0.978, -0.7402 -2.6411 0.978, -1.2598 -2.7181 0.5417, -1.1535 -2.7181 0.5417, -0.7402 -2.7181 0.5417, -0.8465 -2.7181 0.5417, -0.8465 -2.788 0.1451, -1.1535 -2.788 0.1451, -0.8465 -2.7906 0.1363, -1.1535 -2.7906 0.1363, -0.8465 -2.7952 0.1284, -1.1535 -2.7952 0.1284, -0.8465 -2.8015 0.1217, -1.1535 -2.8015 0.1217, -0.8465 -2.8091 0.1167, -1.1535 -2.8091 0.1167, -0.8465 -2.8177 0.1136, -1.1535 -2.8177 0.1136, -1.1535 -2.8177 0.1136
            ]
        }
        coordIndex [
            0,1,2,-1,3,4,5,-1,6,5,7,-1,7,5,4,-1,8,9,10,-1,10,9,11,-1,10,11,12,-1,13,0,14,-1,14,0,2,-1,3,5,6,-1,6,11,3,-1,3,11,9,-1,3,9,1,-1,1,9,14,-1,1,14,2,-1,8,13,9,-1,9,13,14,-1,7,12,6,-1,6,12,11,-1,15,16,17,-1,18,19,20,-1,21,19,22,-1,22,19,18,-1,23,24,25,-1,25,24,21,-1,25,21,22,-1,26,27,28,-1,28,27,24,-1,28,24,23,-1,29,30,31,-1,31,30,27,-1,31,27,26,-1,16,30,17,-1,17,30,29,-1,32,33,34,-1,34,33,35,-1,36,33,37,-1,37,33,32,-1,38,36,39,-1,39,36,37,-1,38,39,40,-1,38,40,41,-1,41,40,42,-1,41,42,43,-1,43,42,44,-1,43,44,45,-1,45,44,46,-1,45,46,47,-1,47,46,48,-1,47,48,49,-1,49,48,50,-1,49,50,51,-1,52,53,54,-1,55,56,57,-1,51,50,57,-1,57,50,52,-1,57,52,55,-1,55,52,54,-1,55,54,58,-1,58,54,59,-1,58,59,60,-1,60,59,61,-1,60,61,62,-1,62,61,63,-1,62,63,64,-1,64,63,65,-1,64,65,66,-1,66,65,67,-1,66,67,68,-1,68,67,69,-1,70,68,71,-1,71,68,69,-1,72,73,74,-1,74,73,75,-1,73,72,76,-1,73,76,77,-1,77,76,78,-1,77,78,79,-1,79,78,80,-1,79,80,81,-1,81,80,82,-1,81,82,83,-1,83,82,84,-1,83,84,85,-1,85,84,86,-1,85,86,87,-1,86,88,87,-1,87,88,89,-1,90,87,91,-1,91,87,89,-1,91,89,92,-1,92,89,93,-1,92,93,94,-1,94,93,95,-1,94,95,96,-1,96,95,97,-1,96,97,98,-1,98,97,99,-1,98,99,100,-1,100,99,101,-1,100,101,102,-1,102,101,103,-1,102,103,35,-1,35,103,34,-1,70,75,68,-1,68,75,73,-1,68,73,66,-1,66,73,77,-1,66,77,64,-1,64,77,79,-1,64,79,62,-1,62,79,81,-1,62,81,60,-1,60,81,83,-1,60,83,58,-1,58,83,85,-1,58,85,55,-1,55,85,87,-1,55,87,56,-1,56,87,90,-1,53,88,54,-1,54,88,86,-1,54,86,59,-1,59,86,84,-1,59,84,61,-1,61,84,82,-1,61,82,63,-1,63,82,80,-1,63,80,65,-1,65,80,78,-1,65,78,67,-1,67,78,76,-1,67,76,69,-1,69,76,72,-1,69,72,71,-1,71,72,74,-1,89,52,93,-1,93,52,50,-1,93,50,95,-1,95,50,48,-1,95,48,97,-1,97,48,46,-1,97,46,99,-1,99,46,44,-1,99,44,101,-1,101,44,42,-1,101,42,103,-1,103,42,40,-1,103,40,34,-1,34,40,39,-1,34,39,32,-1,32,39,37,-1,89,88,52,-1,52,88,53,-1,33,36,35,-1,35,36,38,-1,35,38,102,-1,102,38,41,-1,102,41,100,-1,100,41,43,-1,100,43,98,-1,98,43,45,-1,98,45,96,-1,96,45,47,-1,96,47,94,-1,94,47,49,-1,94,49,92,-1,92,49,51,-1,92,51,91,-1,91,51,57,-1,90,91,56,-1,56,91,57,-1,104,105,106,-1,106,105,107,-1,108,109,110,-1,110,109,111,-1,105,109,107,-1,107,109,108,-1,110,111,106,-1,106,111,104,-1,112,113,114,-1,114,113,115,-1,116,113,117,-1,117,113,112,-1,118,116,119,-1,119,116,117,-1,118,119,120,-1,118,120,121,-1,121,120,122,-1,121,122,123,-1,123,122,124,-1,123,124,125,-1,125,124,126,-1,125,126,127,-1,127,126,128,-1,127,128,129,-1,129,128,130,-1,129,130,131,-1,132,133,134,-1,135,136,137,-1,131,130,137,-1,137,130,132,-1,137,132,135,-1,135,132,134,-1,135,134,138,-1,138,134,139,-1,138,139,140,-1,140,139,141,-1,140,141,142,-1,142,141,143,-1,142,143,144,-1,144,143,145,-1,144,145,146,-1,146,145,147,-1,146,147,148,-1,148,147,149,-1,150,148,151,-1,151,148,149,-1,152,153,154,-1,154,153,155,-1,153,152,156,-1,153,156,157,-1,157,156,158,-1,157,158,159,-1,159,158,160,-1,159,160,161,-1,161,160,162,-1,161,162,163,-1,163,162,164,-1,163,164,165,-1,165,164,166,-1,165,166,167,-1,166,168,167,-1,167,168,169,-1,170,167,171,-1,171,167,169,-1,171,169,172,-1,172,169,173,-1,172,173,174,-1,174,173,175,-1,174,175,176,-1,176,175,177,-1,176,177,178,-1,178,177,179,-1,178,179,180,-1,180,179,181,-1,180,181,182,-1,182,181,183,-1,182,183,115,-1,115,183,114,-1,150,155,148,-1,148,155,153,-1,148,153,146,-1,146,153,157,-1,146,157,144,-1,144,157,159,-1,144,159,142,-1,142,159,161,-1,142,161,140,-1,140,161,163,-1,140,163,138,-1,138,163,165,-1,138,165,135,-1,135,165,167,-1,135,167,136,-1,136,167,170,-1,133,168,134,-1,134,168,166,-1,134,166,139,-1,139,166,164,-1,139,164,141,-1,141,164,162,-1,141,162,143,-1,143,162,160,-1,143,160,145,-1,145,160,158,-1,145,158,147,-1,147,158,156,-1,147,156,149,-1,149,156,152,-1,149,152,151,-1,151,152,154,-1,169,132,173,-1,173,132,130,-1,173,130,175,-1,175,130,128,-1,175,128,177,-1,177,128,126,-1,177,126,179,-1,179,126,124,-1,179,124,181,-1,181,124,122,-1,181,122,183,-1,183,122,120,-1,183,120,114,-1,114,120,119,-1,114,119,112,-1,112,119,117,-1,169,168,132,-1,132,168,133,-1,113,116,115,-1,115,116,118,-1,115,118,182,-1,182,118,121,-1,182,121,180,-1,180,121,123,-1,180,123,178,-1,178,123,125,-1,178,125,176,-1,176,125,127,-1,176,127,174,-1,174,127,129,-1,174,129,172,-1,172,129,131,-1,172,131,171,-1,171,131,137,-1,170,171,136,-1,136,171,137,-1,110,106,108,-1,108,106,107,-1,
        ]
    }
}
Shape{
    appearance Appearance {
        material  Material 	{
            diffuseColor 1.0 1.0 1.0
            specularColor 0.8784313725490196 0.8784313725490196 0.8784313725490196
            ambientIntensity 0.2
            transparency 0
            shininess 0.5
        }
    }
    geometry IndexedFaceSet {
        ccw TRUE
        solid FALSE
        coord DEF co Coordinate {
            point [
                -0.3238 0.3706 0.0783, -0.4007 0.1737 0.0783, -0.3238 0.3706 -0.0004, -0.4007 0.1737 -0.0004, -0.3719 0.1737 0.0783, -0.3719 0.1737 -0.0004, -0.3519 0.229 0.0783, -0.3519 0.229 -0.0004, -0.2706 0.229 0.0783, -0.2706 0.229 -0.0004, -0.2518 0.1737 0.0783, -0.2518 0.1737 -0.0004, -0.223 0.1737 0.0783, -0.223 0.1737 -0.0004, -0.2974 0.3706 0.0783, -0.2974 0.3706 -0.0004, -0.2773 0.2506 0.0783, -0.3431 0.2506 0.0783, -0.3066 0.3328 0.0783, -0.3085 0.3396 0.0783, -0.3098 0.3466 0.0783, -0.3104 0.3466 0.0783, -0.3117 0.3396 0.0783, -0.3135 0.3328 0.0783, -0.2773 0.2506 -0.0004, -0.3431 0.2506 -0.0004, -0.3066 0.3328 -0.0004, -0.3085 0.3396 -0.0004, -0.3098 0.3466 -0.0004, -0.3104 0.3466 -0.0004, -0.3117 0.3396 -0.0004, -0.3135 0.3328 -0.0004, -0.1037 0.1737 0.0783, -0.0502 0.1737 0.0783, -0.1037 0.1737 -0.0004, -0.0502 0.1737 -0.0004, -0.0502 0.3706 0.0783, -0.0502 0.3706 -0.0004, -0.1057 0.3706 0.0783, -0.1057 0.3706 -0.0004, -0.2086 0.2746 0.0783, -0.2086 0.2746 -0.0004, -0.2072 0.2932 -0.0004, -0.2072 0.2932 0.0783, -0.2019 0.3126 -0.0004, -0.2019 0.3126 0.0783, -0.1927 0.3295 -0.0004, -0.1927 0.3295 0.0783, -0.1788 0.3449 -0.0004, -0.1788 0.3449 0.0783, -0.1786 0.3451 -0.0004, -0.1786 0.3451 0.0783, -0.1572 0.3595 -0.0004, -0.1572 0.3595 0.0783, -0.1342 0.3675 -0.0004, -0.1342 0.3675 0.0783, -0.1281 0.1759 -0.0004, -0.1281 0.1759 0.0783, -0.1507 0.1826 -0.0004, -0.1507 0.1826 0.0783, -0.1713 0.1946 -0.0004, -0.1713 0.1946 0.0783, -0.1875 0.2101 -0.0004, -0.1875 0.2101 0.0783, -0.1988 0.2277 -0.0004, -0.1988 0.2277 0.0783, -0.2059 0.2483 -0.0004, -0.2059 0.2483 0.0783, -0.1691 0.3214 0.0783, -0.1595 0.3315 0.0783, -0.1452 0.3408 0.0783, -0.1289 0.3465 0.0783, -0.1056 0.349 0.0783, -0.0766 0.349 0.0783, -0.0766 0.1953 0.0783, -0.1045 0.1953 0.0783, -0.1253 0.1973 0.0783, -0.1419 0.2024 0.0783, -0.1553 0.2104 0.0783, -0.1663 0.2213 0.0783, -0.1746 0.2349 0.0783, -0.1804 0.2534 0.0783, -0.1822 0.2741 0.0783, -0.1805 0.2937 0.0783, -0.1759 0.3092 0.0783, -0.1056 0.349 -0.0004, -0.0766 0.349 -0.0004, -0.1289 0.3465 -0.0004, -0.1452 0.3408 -0.0004, -0.1595 0.3315 -0.0004, -0.1691 0.3214 -0.0004, -0.1759 0.3092 -0.0004, -0.1805 0.2937 -0.0004, -0.1822 0.2741 -0.0004, -0.1804 0.2534 -0.0004, -0.1746 0.2349 -0.0004, -0.1663 0.2213 -0.0004, -0.1553 0.2104 -0.0004, -0.1419 0.2024 -0.0004, -0.1253 0.1973 -0.0004, -0.1045 0.1953 -0.0004, -0.0766 0.1953 -0.0004, -0.0118 0.1953 0.0783, -0.0118 0.1737 0.0783, -0.0118 0.1953 -0.0004, -0.0118 0.1737 -0.0004, 0.0939 0.1737 0.0783, 0.0939 0.1737 -0.0004, 0.0939 0.3706 0.0783, 0.0939 0.3706 -0.0004, -0.007 0.3706 0.0783, -0.007 0.3706 -0.0004, -0.007 0.349 0.0783, -0.007 0.349 -0.0004, 0.0675 0.349 0.0783, 0.0675 0.349 -0.0004, 0.0675 0.2842 0.0783, 0.0675 0.2842 -0.0004, -0.0022 0.2842 0.0783, -0.0022 0.2842 -0.0004, -0.0022 0.2626 0.0783, -0.0022 0.2626 -0.0004, 0.0675 0.2626 0.0783, 0.0675 0.2626 -0.0004, 0.0675 0.1953 0.0783, 0.0675 0.1953 -0.0004, 0.1323 0.2055 0.0783, 0.1323 0.1839 0.0783, 0.1323 0.2055 -0.0004, 0.1323 0.1839 -0.0004, 0.1533 0.1753 0.0783, 0.1864 0.1713 0.0783, 0.1864 0.1713 -0.0004, 0.1811 0.1714 -0.0004, 0.1811 0.1714 0.0783, 0.1731 0.1725 -0.0004, 0.1533 0.1753 -0.0004, 0.198 0.1725 -0.0004, 0.2107 0.1739 0.0783, 0.2107 0.1739 -0.0004, 0.2298 0.1804 0.0783, 0.2298 0.1804 -0.0004, 0.2456 0.1905 0.0783, 0.2456 0.1905 -0.0004, 0.2604 0.2061 0.0783, 0.2604 0.2061 -0.0004, 0.2709 0.2248 0.0783, 0.2709 0.2248 -0.0004, 0.2768 0.2457 0.0783, 0.2768 0.2457 -0.0004, 0.2787 0.2684 0.0783, 0.2787 0.2684 -0.0004, 0.1786 0.373 0.0783, 0.1786 0.373 -0.0004, 0.1984 0.3714 -0.0004, 0.1984 0.3714 0.0783, 0.2203 0.365 -0.0004, 0.2203 0.365 0.0783, 0.239 0.3542 -0.0004, 0.239 0.3542 0.0783, 0.2568 0.3371 -0.0004, 0.2568 0.3371 0.0783, 0.2683 0.3187 -0.0004, 0.2683 0.3187 0.0783, 0.2759 0.2964 -0.0004, 0.2759 0.2964 0.0783, 0.1323 0.3652 0.0783, 0.1323 0.3652 -0.0004, 0.155 0.3714 -0.0004, 0.155 0.3714 0.0783, 0.1323 0.3388 0.0783, 0.1323 0.3388 -0.0004, 0.1784 0.3514 0.0783, 0.1784 0.3514 -0.0004, 0.1544 0.3483 -0.0004, 0.1544 0.3483 0.0783, 0.2523 0.2701 0.0783, 0.2523 0.2701 -0.0004, 0.2514 0.2854 -0.0004, 0.2514 0.2854 0.0783, 0.2461 0.3065 -0.0004, 0.2461 0.3065 0.0783, 0.238 0.3217 -0.0004, 0.238 0.3217 0.0783, 0.2261 0.3348 -0.0004, 0.2261 0.3348 0.0783, 0.2125 0.3439 -0.0004, 0.2125 0.3439 0.0783, 0.1978 0.3492 -0.0004, 0.1978 0.3492 0.0783, 0.1828 0.1929 0.0783, 0.1828 0.1929 -0.0004, 0.2012 0.195 -0.0004, 0.2012 0.195 0.0783, 0.2155 0.2003 -0.0004, 0.2155 0.2003 0.0783, 0.2276 0.2084 -0.0004, 0.2276 0.2084 0.0783, 0.2368 0.2182 -0.0004, 0.2368 0.2182 0.0783, 0.245 0.2318 -0.0004, 0.245 0.2318 0.0783, 0.2503 0.2488 -0.0004, 0.2503 0.2488 0.0783, 0.1358 0.2036 -0.0004, 0.1358 0.2036 0.0783, 0.1567 0.1958 -0.0004, 0.1567 0.1958 0.0783, 0.2955 0.1953 0.0783, 0.2955 0.1737 0.0783, 0.2955 0.1953 -0.0004, 0.2955 0.1737 -0.0004, 0.3963 0.1737 0.0783, 0.3963 0.1737 -0.0004, 0.3963 0.3706 0.0783, 0.3963 0.3706 -0.0004, 0.3699 0.3706 0.0783, 0.3699 0.3706 -0.0004, 0.3699 0.1953 0.0783, 0.3699 0.1953 -0.0004, 0.3699 0.1953 -0.0004
            ]
        }
        coordIndex [
            0,1,2,-1,2,1,3,-1,1,4,3,-1,3,4,5,-1,4,6,5,-1,5,6,7,-1,6,8,7,-1,7,8,9,-1,8,10,9,-1,9,10,11,-1,10,12,11,-1,11,12,13,-1,12,14,13,-1,13,14,15,-1,14,0,15,-1,15,0,2,-1,16,8,17,-1,17,8,6,-1,18,14,16,-1,16,14,12,-1,16,12,8,-1,8,12,10,-1,18,19,14,-1,14,19,20,-1,14,20,0,-1,0,20,21,-1,0,21,22,-1,22,23,0,-1,0,23,17,-1,0,17,1,-1,1,17,6,-1,1,6,4,-1,16,17,24,-1,24,17,25,-1,18,16,26,-1,26,16,24,-1,18,26,27,-1,18,27,19,-1,19,27,28,-1,19,28,20,-1,21,20,29,-1,29,20,28,-1,21,29,30,-1,21,30,22,-1,22,30,31,-1,22,31,23,-1,17,23,25,-1,25,23,31,-1,32,33,34,-1,34,33,35,-1,33,36,35,-1,35,36,37,-1,36,38,37,-1,37,38,39,-1,40,41,42,-1,40,42,43,-1,43,42,44,-1,43,44,45,-1,45,44,46,-1,45,46,47,-1,47,46,48,-1,47,48,49,-1,49,48,50,-1,49,50,51,-1,51,50,52,-1,51,52,53,-1,53,52,54,-1,53,54,55,-1,55,54,39,-1,55,39,38,-1,32,34,56,-1,32,56,57,-1,57,56,58,-1,57,58,59,-1,59,58,60,-1,59,60,61,-1,61,60,62,-1,61,62,63,-1,63,62,64,-1,63,64,65,-1,65,64,66,-1,65,66,67,-1,67,66,41,-1,67,41,40,-1,45,47,68,-1,68,47,49,-1,68,49,69,-1,69,49,51,-1,69,51,70,-1,70,51,53,-1,70,53,71,-1,71,53,55,-1,71,55,72,-1,72,55,38,-1,72,38,73,-1,73,38,36,-1,73,36,74,-1,74,36,33,-1,74,33,75,-1,75,33,32,-1,75,32,76,-1,76,32,57,-1,76,57,77,-1,77,57,59,-1,77,59,78,-1,78,59,61,-1,78,61,79,-1,79,61,63,-1,79,63,80,-1,80,63,65,-1,80,65,81,-1,81,65,67,-1,81,67,82,-1,82,67,40,-1,82,40,83,-1,83,40,43,-1,83,43,84,-1,84,43,45,-1,84,45,68,-1,72,73,85,-1,85,73,86,-1,72,85,87,-1,72,87,71,-1,71,87,88,-1,71,88,70,-1,70,88,89,-1,70,89,69,-1,69,89,90,-1,69,90,68,-1,68,90,91,-1,68,91,84,-1,84,91,92,-1,84,92,83,-1,83,92,93,-1,83,93,82,-1,82,93,94,-1,82,94,81,-1,81,94,95,-1,81,95,80,-1,80,95,96,-1,80,96,79,-1,79,96,97,-1,79,97,78,-1,78,97,98,-1,78,98,77,-1,77,98,99,-1,77,99,76,-1,76,99,100,-1,76,100,75,-1,74,75,101,-1,101,75,100,-1,73,74,86,-1,86,74,101,-1,102,103,104,-1,104,103,105,-1,103,106,105,-1,105,106,107,-1,106,108,107,-1,107,108,109,-1,108,110,109,-1,109,110,111,-1,110,112,111,-1,111,112,113,-1,112,114,113,-1,113,114,115,-1,114,116,115,-1,115,116,117,-1,116,118,117,-1,117,118,119,-1,118,120,119,-1,119,120,121,-1,120,122,121,-1,121,122,123,-1,122,124,123,-1,123,124,125,-1,124,102,125,-1,125,102,104,-1,106,103,102,-1,102,124,106,-1,106,124,122,-1,106,122,108,-1,112,110,114,-1,114,110,108,-1,114,108,116,-1,116,108,122,-1,116,122,118,-1,118,122,120,-1,126,127,128,-1,128,127,129,-1,129,127,130,-1,131,132,133,-1,131,133,134,-1,134,133,135,-1,134,135,130,-1,130,135,136,-1,130,136,129,-1,132,131,137,-1,137,131,138,-1,137,138,139,-1,139,138,140,-1,139,140,141,-1,141,140,142,-1,141,142,143,-1,143,142,144,-1,143,144,145,-1,145,144,146,-1,145,146,147,-1,147,146,148,-1,147,148,149,-1,149,148,150,-1,149,150,151,-1,152,153,154,-1,152,154,155,-1,155,154,156,-1,155,156,157,-1,157,156,158,-1,157,158,159,-1,159,158,160,-1,159,160,161,-1,161,160,162,-1,161,162,163,-1,163,162,164,-1,163,164,165,-1,165,164,151,-1,165,151,150,-1,166,167,168,-1,166,168,169,-1,169,168,153,-1,169,153,152,-1,166,170,167,-1,167,170,171,-1,172,173,174,-1,172,174,175,-1,175,174,171,-1,175,171,170,-1,176,177,178,-1,176,178,179,-1,179,178,180,-1,179,180,181,-1,181,180,182,-1,181,182,183,-1,183,182,184,-1,183,184,185,-1,185,184,186,-1,185,186,187,-1,187,186,188,-1,187,188,189,-1,189,188,173,-1,189,173,172,-1,190,191,192,-1,190,192,193,-1,193,192,194,-1,193,194,195,-1,195,194,196,-1,195,196,197,-1,197,196,198,-1,197,198,199,-1,199,198,200,-1,199,200,201,-1,201,200,202,-1,201,202,203,-1,203,202,177,-1,203,177,176,-1,126,128,204,-1,126,204,205,-1,205,204,206,-1,205,206,207,-1,207,206,191,-1,207,191,190,-1,193,131,190,-1,190,131,134,-1,190,134,207,-1,207,134,130,-1,207,130,205,-1,205,130,127,-1,205,127,126,-1,170,166,175,-1,175,166,169,-1,175,169,172,-1,172,169,152,-1,172,152,189,-1,189,152,155,-1,189,155,187,-1,187,155,157,-1,187,157,185,-1,185,157,159,-1,185,159,183,-1,183,159,161,-1,183,161,181,-1,181,161,163,-1,181,163,179,-1,179,163,165,-1,179,165,176,-1,176,165,150,-1,176,150,203,-1,203,150,148,-1,203,148,201,-1,201,148,146,-1,201,146,199,-1,199,146,144,-1,199,144,197,-1,197,144,142,-1,197,142,195,-1,195,142,140,-1,195,140,193,-1,193,140,138,-1,193,138,131,-1,208,209,210,-1,210,209,211,-1,209,212,211,-1,211,212,213,-1,212,214,213,-1,213,214,215,-1,214,216,215,-1,215,216,217,-1,216,218,217,-1,217,218,219,-1,218,208,219,-1,219,208,210,-1,216,214,218,-1,218,214,212,-1,218,212,208,-1,208,212,209,-1,
        ]
    }
}
Shape{
    appearance Appearance {
        material  Material 	{
            diffuseColor 0.6666666666666666 0.6666666666666666 0.6666666666666666
            specularColor 0.4666666666666667 0.4666666666666667 0.4666666666666667
            ambientIntensity 0.2
            transparency 0
            shininess 0.5
        }
    }
    geometry IndexedFaceSet {
        ccw TRUE
        solid FALSE
        coord DEF co Coordinate {
            point [
                -0.2773 0.2506 -0.0004, -0.3431 0.2506 -0.0004, -0.3066 0.3328 -0.0004, -0.3135 0.3328 -0.0004, -0.3085 0.3396 -0.0004, -0.3117 0.3396 -0.0004, -0.3098 0.3466 -0.0004, -0.3104 0.3466 -0.0004, -0.0766 0.349 -0.0004, -0.0766 0.1953 -0.0004, -0.1056 0.349 -0.0004, -0.1045 0.1953 -0.0004, -0.1253 0.1973 -0.0004, -0.1822 0.2741 -0.0004, -0.1805 0.2937 -0.0004, -0.1759 0.3092 -0.0004, -0.1289 0.3465 -0.0004, -0.1419 0.2024 -0.0004, -0.1553 0.2104 -0.0004, -0.1663 0.2213 -0.0004, -0.1746 0.2349 -0.0004, -0.1804 0.2534 -0.0004, -0.1691 0.3214 -0.0004, -0.1595 0.3315 -0.0004, -0.1452 0.3408 -0.0004, -0.1452 0.3408 -0.0004
            ]
        }
        coordIndex [
            0,1,2,-1,2,1,3,-1,2,3,4,-1,4,3,5,-1,4,5,6,-1,6,5,7,-1,8,9,10,-1,10,9,11,-1,10,11,12,-1,13,14,10,-1,10,14,15,-1,10,15,16,-1,12,17,10,-1,10,17,18,-1,10,18,19,-1,19,20,10,-1,10,20,21,-1,10,21,13,-1,22,23,15,-1,15,23,24,-1,15,24,16,-1,
        ]
    }
}